<svg width="64" height="64" viewBox="0 0 64 64" fill="none" xmlns="http://www.w3.org/2000/svg">
<circle opacity="0.16" cx="32" cy="32" r="32" fill="#008DFF"/>
<path d="M31.9321 35.3867C27.3321 35.3867 23.4508 36.1384 23.4508 39.0394C23.4508 41.9416 27.3571 42.6668 31.9321 42.6668C36.532 42.6668 40.4133 41.9151 40.4133 39.0142C40.4133 36.112 36.507 35.3867 31.9321 35.3867Z" fill="#008DFF"/>
<path opacity="0.4" d="M31.932 32.6229C35.0468 32.6229 37.5444 30.1109 37.5444 26.9782C37.5444 23.8442 35.0468 21.3335 31.932 21.3335C28.8172 21.3335 26.3196 23.8442 26.3196 26.9782C26.3196 30.1109 28.8172 32.6229 31.932 32.6229Z" fill="#008DFF"/>
<path opacity="0.4" d="M44.1173 28.2923C44.9231 25.1223 42.5605 22.2754 39.5519 22.2754C39.2248 22.2754 38.912 22.3114 38.6064 22.3727C38.5658 22.3823 38.5204 22.4027 38.4965 22.4387C38.4691 22.4843 38.4894 22.5456 38.5192 22.5852C39.423 23.8604 39.9423 25.4129 39.9423 27.0796C39.9423 28.6765 39.466 30.1655 38.6303 31.401C38.5443 31.5283 38.6207 31.7 38.7723 31.7264C38.9824 31.7636 39.1973 31.7829 39.417 31.7889C41.6078 31.8465 43.5741 30.4284 44.1173 28.2923Z" fill="#008DFF"/>
<path d="M46.4123 35.7561C46.0112 34.8964 45.0429 34.3068 43.5709 34.0174C42.8761 33.8469 40.9957 33.6068 39.2467 33.6392C39.2204 33.6428 39.2061 33.6608 39.2037 33.6728C39.2001 33.6896 39.2073 33.7184 39.2419 33.7365C40.0502 34.1387 43.1745 35.8882 42.7817 39.5781C42.765 39.7378 42.8928 39.8758 43.0516 39.8518C43.8204 39.7414 45.7987 39.3139 46.4123 37.9823C46.7514 37.2786 46.7514 36.4609 46.4123 35.7561Z" fill="#008DFF"/>
<path opacity="0.4" d="M25.393 22.3731C25.0886 22.3107 24.7746 22.2759 24.4475 22.2759C21.4389 22.2759 19.0763 25.1228 19.8833 28.2928C20.4254 30.4289 22.3917 31.847 24.5824 31.7894C24.8021 31.7833 25.0182 31.7629 25.2271 31.7269C25.3787 31.7005 25.4551 31.5288 25.3692 31.4015C24.5335 30.1648 24.0571 28.677 24.0571 27.08C24.0571 25.4122 24.5776 23.8597 25.4814 22.5857C25.51 22.546 25.5315 22.4848 25.5029 22.4392C25.479 22.402 25.4348 22.3827 25.393 22.3731Z" fill="#008DFF"/>
<path d="M20.4287 34.0169C18.9567 34.3063 17.9896 34.8959 17.5885 35.7556C17.2482 36.4604 17.2482 37.2781 17.5885 37.983C18.2022 39.3134 20.1804 39.7421 20.9492 39.8513C21.108 39.8753 21.2346 39.7385 21.2179 39.5776C20.8251 35.8889 23.9494 34.1394 24.7589 33.7372C24.7923 33.7179 24.7995 33.6903 24.7959 33.6723C24.7935 33.6603 24.7804 33.6423 24.7541 33.6399C23.0039 33.6063 21.1247 33.8464 20.4287 34.0169Z" fill="#008DFF"/>
</svg>
