<svg width="64" height="64" viewBox="0 0 64 64" fill="none" xmlns="http://www.w3.org/2000/svg">
<circle opacity="0.16" cx="32" cy="32" r="32" fill="#A2A2A2"/>
<path d="M46.3586 24.8216C45.9956 24.9424 45.606 25.0062 45.2031 25.0062C43.1351 25.0062 41.4567 23.3144 41.4567 21.2298C41.4567 20.7431 41.55 20.2765 41.7198 19.8502L31.996 16L22.2721 19.8502C22.4386 20.2765 22.5352 20.7431 22.5352 21.2298C22.5352 23.3144 20.8569 25.0062 18.7889 25.0062C18.3859 25.0062 17.9963 24.9391 17.6333 24.8216C16.2247 30.8134 15.7618 42.7165 31.9993 48C48.2368 42.7131 47.7772 30.8134 46.3653 24.8216H46.3586Z" fill="url(#paint0_linear_435_3638)"/>
<path d="M23.8305 26.8437V20.674L22.2687 19.8516C22.4352 20.2779 22.5318 20.7445 22.5318 21.2312C22.5318 23.3157 20.8534 25.0075 18.7854 25.0075C18.3825 25.0075 17.9929 24.9404 17.6299 24.8229L18.6722 26.3503L23.8338 26.8471L23.8305 26.8437Z" fill="url(#paint1_linear_435_3638)"/>
<path d="M40.1536 20.6705V28.1259H43.0641L45.3152 26.3434L46.3575 24.8161C45.9945 24.9369 45.6049 25.0007 45.202 25.0007C43.134 25.0007 41.4556 23.3089 41.4556 21.2244C41.4556 20.7376 41.5489 20.271 41.7187 19.8447L40.1569 20.6671L40.1536 20.6705Z" fill="url(#paint2_linear_435_3638)"/>
<g style="mix-blend-mode:overlay" opacity="0.9">
<path d="M45.3158 26.3506C45.3158 26.3506 45.3358 26.4546 45.3691 26.6493C45.4057 26.844 45.449 27.1294 45.5056 27.4919C45.5555 27.8578 45.6088 28.3009 45.6488 28.8111C45.6821 29.3213 45.7187 29.902 45.6987 30.5331C45.6854 31.1642 45.6454 31.849 45.5422 32.5673C45.439 33.2857 45.2991 34.0376 45.0793 34.7996C44.8596 35.5582 44.5765 36.3269 44.2235 37.0822C43.8672 37.8341 43.4376 38.5625 42.9581 39.254C42.4752 39.9455 41.9124 40.5765 41.3397 41.174C41.04 41.4594 40.7536 41.7548 40.4405 42.0132C40.2874 42.1441 40.1375 42.2818 39.9843 42.406C39.8278 42.5302 39.6713 42.651 39.5148 42.7719C38.8921 43.2552 38.256 43.6715 37.6433 44.0508C37.0239 44.42 36.4278 44.749 35.865 45.0243C35.3089 45.3129 34.7727 45.5278 34.3065 45.7325C33.8303 45.9171 33.4207 46.0883 33.0777 46.2092C32.3884 46.4475 31.9921 46.5851 31.9921 46.5851C31.9921 46.5851 32.3817 46.4374 33.0677 46.1823C33.4107 46.0548 33.8137 45.8735 34.2832 45.6788C34.5163 45.5781 34.7594 45.4573 35.0192 45.3364C35.2789 45.2156 35.552 45.0914 35.825 44.9437C36.3845 44.6651 36.9773 44.3328 37.5867 43.9602C38.1927 43.5775 38.8221 43.1579 39.4349 42.6712C39.588 42.5503 39.7412 42.4261 39.8977 42.3053C40.0476 42.1744 40.1974 42.0434 40.3473 41.9092C40.657 41.6507 40.9367 41.3553 41.2298 41.07C41.7925 40.4725 42.342 39.8414 42.8149 39.1566C43.2944 38.4752 43.7273 37.7569 44.0836 37.0184C44.4366 36.2765 44.7263 35.5179 44.9495 34.766C45.1759 34.0141 45.3224 33.2655 45.429 32.5572C45.5389 31.8456 45.5822 31.1642 45.6022 30.5365C45.6255 29.9088 45.6022 29.3314 45.5822 28.8178C45.5522 28.3076 45.5122 27.8611 45.4723 27.4986C45.4257 27.1327 45.389 26.8474 45.3557 26.6527C45.3258 26.458 45.3091 26.3539 45.3091 26.3539L45.3158 26.3506Z" fill="white"/>
</g>
<path d="M31.9921 16V17.4401L40.1542 20.6726L41.716 19.8502L31.9921 16Z" fill="url(#paint3_linear_435_3638)"/>
<path d="M39.8767 29.9657L34.9604 32.3114L32.2855 27.6431L29.6105 32.3114L24.6913 29.9657L26.0545 38.5204L38.5221 38.5319L39.8767 29.9657Z" fill="url(#paint4_linear_435_3638)"/>
<path d="M26.942 37.4626L26.038 31.7825L30.0304 33.6854L32.2804 29.7588L34.5275 33.6854L38.5228 31.7796L37.6216 37.4741L26.942 37.4626Z" fill="url(#paint5_linear_435_3638)"/>
<path d="M38.5203 38.5313L37.6249 37.4734L26.9452 37.4619L26.0526 38.5198L38.5203 38.5313Z" fill="url(#paint6_linear_435_3638)"/>
<path d="M29.6122 32.3114L30.0371 33.6854L32.2871 29.7587V27.6431L29.6122 32.3114Z" fill="url(#paint7_linear_435_3638)"/>
<path d="M32.2838 27.6431V29.7587L34.531 33.6854L34.9587 32.3114L32.2838 27.6431Z" fill="url(#paint8_linear_435_3638)"/>
<path d="M39.8749 29.9648L38.526 31.7787L37.6249 37.4732L38.5203 38.531L39.8749 29.9648Z" fill="url(#paint9_linear_435_3638)"/>
<path d="M24.6913 29.9648L26.0431 31.7816L30.0355 33.6845L29.6105 32.3105L24.6913 29.9648Z" fill="url(#paint10_linear_435_3638)"/>
<defs>
<linearGradient id="paint0_linear_435_3638" x1="32.8837" y1="48" x2="32.8837" y2="16" gradientUnits="userSpaceOnUse">
<stop stop-color="#8D8D8D"/>
<stop offset="0.54401" stop-color="#E4E3E3"/>
<stop offset="1" stop-color="#DCDCDC"/>
</linearGradient>
<linearGradient id="paint1_linear_435_3638" x1="20.9146" y1="26.8471" x2="20.9146" y2="19.8516" gradientUnits="userSpaceOnUse">
<stop stop-color="#777777"/>
<stop offset="0.54401" stop-color="#F5F5F5"/>
<stop offset="1" stop-color="#E2E2E2"/>
</linearGradient>
<linearGradient id="paint2_linear_435_3638" x1="43.4383" y1="28.1259" x2="43.4383" y2="19.8447" gradientUnits="userSpaceOnUse">
<stop stop-color="#777777"/>
<stop offset="0.54401" stop-color="#F5F5F5"/>
<stop offset="1" stop-color="#E2E2E2"/>
</linearGradient>
<linearGradient id="paint3_linear_435_3638" x1="37.1405" y1="20.6726" x2="37.1405" y2="16" gradientUnits="userSpaceOnUse">
<stop stop-color="#777777"/>
<stop offset="0.54401" stop-color="#F5F5F5"/>
<stop offset="1" stop-color="#E2E2E2"/>
</linearGradient>
<linearGradient id="paint4_linear_435_3638" x1="32.7313" y1="38.5319" x2="32.7313" y2="27.6431" gradientUnits="userSpaceOnUse">
<stop stop-color="#878787"/>
<stop offset="0.54401" stop-color="#AAAAAA"/>
<stop offset="1" stop-color="#A2A2A2"/>
</linearGradient>
<linearGradient id="paint5_linear_435_3638" x1="32.6481" y1="37.4741" x2="32.6481" y2="29.7588" gradientUnits="userSpaceOnUse">
<stop stop-color="white"/>
<stop offset="0.54401" stop-color="#878787"/>
<stop offset="1" stop-color="white"/>
<stop offset="1" stop-color="#3D3D3D"/>
</linearGradient>
<linearGradient id="paint6_linear_435_3638" x1="32.6537" y1="38.5313" x2="32.6537" y2="37.4619" gradientUnits="userSpaceOnUse">
<stop stop-color="#757575"/>
<stop offset="0.54401" stop-color="#727272"/>
<stop offset="1" stop-color="#717171"/>
</linearGradient>
<linearGradient id="paint7_linear_435_3638" x1="31.0284" y1="33.6854" x2="31.0284" y2="27.6431" gradientUnits="userSpaceOnUse">
<stop stop-color="#4B4B4B"/>
<stop offset="0.54401" stop-color="#676767"/>
<stop offset="1" stop-color="#797979"/>
</linearGradient>
<linearGradient id="paint8_linear_435_3638" x1="33.7001" y1="33.6854" x2="33.7001" y2="27.6431" gradientUnits="userSpaceOnUse">
<stop stop-color="#4B4B4B"/>
<stop offset="0.54401" stop-color="#676767"/>
<stop offset="1" stop-color="#797979"/>
</linearGradient>
<linearGradient id="paint9_linear_435_3638" x1="38.8162" y1="38.531" x2="38.8162" y2="29.9648" gradientUnits="userSpaceOnUse">
<stop stop-color="#757575"/>
<stop offset="0.54401" stop-color="#727272"/>
<stop offset="1" stop-color="#717171"/>
</linearGradient>
<linearGradient id="paint10_linear_435_3638" x1="27.5208" y1="33.6845" x2="27.5208" y2="29.9648" gradientUnits="userSpaceOnUse">
<stop stop-color="#4B4B4B"/>
<stop offset="0.54401" stop-color="#676767"/>
<stop offset="1" stop-color="#797979"/>
</linearGradient>
</defs>
</svg>
