<svg width="64" height="64" viewBox="0 0 64 64" fill="none" xmlns="http://www.w3.org/2000/svg">
<circle cx="32" cy="32" r="32" fill="#A12EE8" fill-opacity="0.1"/>
<path d="M31.9993 23.4415C33.8045 23.4415 35.2678 21.9995 35.2678 20.2208C35.2678 18.442 33.8045 17 31.9993 17C30.1942 17 28.7308 18.442 28.7308 20.2208C28.7308 21.9995 30.1942 23.4415 31.9993 23.4415Z" fill="#A12EE8"/>
<path d="M39.979 29.5339C39.7226 27.7341 37.7038 24.3555 32 24.3555C26.2962 24.3555 24.2774 27.7341 24.021 29.5339C23.989 29.6918 23.989 29.8813 24.0531 30.0392L24.8221 33.4178C24.9824 34.1756 25.7514 34.6493 26.5205 34.4914C26.7448 34.4282 26.9371 34.3335 27.0973 34.2072L28.347 35.9439L27.5459 45.2588C27.4818 46.1429 28.1227 46.9323 29.052 46.9955C29.9492 47.0586 30.7503 46.3955 30.8144 45.5114L31.6796 35.186H32.3204L33.1856 45.5114C33.2497 46.364 33.9547 46.9955 34.8199 46.9955C34.8519 46.9955 34.916 46.9955 34.948 46.9955C35.8453 46.9323 36.5182 46.1429 36.4541 45.2588L35.653 35.9439L36.9027 34.2072C37.063 34.3335 37.2552 34.4282 37.4795 34.4914C37.5757 34.5229 37.7038 34.5229 37.8 34.5229C38.4408 34.5229 39.0497 34.0809 39.1779 33.4178L39.9469 30.0392C40.011 29.8813 40.011 29.6918 39.979 29.5339ZM28.4752 34.0809L27.5138 33.6704C27.642 33.4178 27.6741 33.102 27.61 32.7863L26.905 29.7234C27.0332 29.3129 27.4177 28.4919 28.5392 27.892L28.4752 34.0809ZM32.8972 31.3653L32.1282 32.1863C32.0641 32.2495 31.9359 32.2495 31.8718 32.1863L31.1028 31.3653C31.0707 31.3338 31.0707 31.2706 31.0707 31.239L31.7116 26.6921H31.4232C31.3271 26.6921 31.263 26.6289 31.263 26.5342V25.5869C31.263 25.4922 31.3271 25.4291 31.4232 25.4291H32.6088C32.705 25.4291 32.7691 25.4922 32.7691 25.5869V26.5342C32.7691 26.6289 32.705 26.6921 32.6088 26.6921H32.3204L32.9613 31.239C32.9293 31.2706 32.9293 31.3338 32.8972 31.3653ZM36.39 32.8178C36.3259 33.1336 36.358 33.4178 36.4862 33.702L35.5248 34.1125L35.4928 27.892C36.6143 28.4919 36.9989 29.3445 37.127 29.7234L36.39 32.8178Z" fill="#A12EE8"/>
</svg>
