<svg width="64" height="64" viewBox="0 0 64 64" fill="none" xmlns="http://www.w3.org/2000/svg">
<circle opacity="0.16" cx="32" cy="32" r="32" fill="#A2A2A2"/>
<path d="M45.341 24.8216C44.9782 24.9424 44.5888 25.0062 44.1861 25.0062C42.1194 25.0062 40.442 23.3144 40.442 21.2298C40.442 20.7431 40.5352 20.2765 40.705 19.8502L30.987 16L21.269 19.8502C21.4354 20.2765 21.5319 20.7431 21.5319 21.2298C21.5319 23.3144 19.8545 25.0062 17.7878 25.0062C17.3851 25.0062 16.9957 24.9391 16.633 24.8216C15.2252 30.8134 14.7626 42.7165 30.9903 48C47.218 42.7131 46.7587 30.8134 45.3476 24.8216H45.341Z" fill="url(#paint0_linear_435_3538)"/>
<path d="M22.8264 26.8437V20.674L21.2655 19.8516C21.4319 20.2779 21.5284 20.7445 21.5284 21.2312C21.5284 23.3157 19.8511 25.0075 17.7843 25.0075C17.3816 25.0075 16.9923 24.9404 16.6295 24.8229L17.6712 26.3503L22.8297 26.8471L22.8264 26.8437Z" fill="url(#paint1_linear_435_3538)"/>
<path d="M39.1396 20.6729V28.1283H42.0484L44.2982 26.3459L45.3398 24.8185C44.9771 24.9394 44.5877 25.0032 44.185 25.0032C42.1183 25.0032 40.4409 23.3113 40.4409 21.2268C40.4409 20.7401 40.5341 20.2735 40.7038 19.8472L39.143 20.6696L39.1396 20.6729Z" fill="url(#paint2_linear_435_3538)"/>
<g style="mix-blend-mode:overlay" opacity="0.9">
<path d="M44.2988 26.3506C44.2988 26.3506 44.3187 26.4546 44.352 26.6493C44.3886 26.844 44.4319 27.1294 44.4885 27.4919C44.5384 27.8578 44.5916 28.3009 44.6316 28.8111C44.6648 29.3213 44.7014 29.902 44.6815 30.5331C44.6682 31.1642 44.6282 31.849 44.5251 32.5673C44.4219 33.2857 44.2821 34.0376 44.0625 34.7996C43.8428 35.5582 43.5599 36.3269 43.2071 37.0822C42.851 37.8341 42.4217 38.5625 41.9425 39.254C41.4599 39.9455 40.8975 40.5765 40.325 41.174C40.0255 41.4594 39.7393 41.7548 39.4264 42.0132C39.2734 42.1441 39.1236 42.2818 38.9705 42.406C38.8141 42.5302 38.6577 42.651 38.5012 42.7719C37.8789 43.2552 37.2432 43.6715 36.6309 44.0508C36.0118 44.42 35.4161 44.749 34.8537 45.0243C34.2979 45.3129 33.7621 45.5278 33.2961 45.7325C32.8202 45.9171 32.4109 46.0883 32.0681 46.2092C31.3792 46.4475 30.9831 46.5851 30.9831 46.5851C30.9831 46.5851 31.3725 46.4374 32.0581 46.1823C32.4009 46.0548 32.8036 45.8735 33.2728 45.6788C33.5058 45.5781 33.7487 45.4573 34.0083 45.3364C34.2679 45.2156 34.5408 45.0914 34.8137 44.9437C35.3728 44.6651 35.9652 44.3328 36.5743 43.9602C37.18 43.5775 37.809 43.1579 38.4214 42.6712C38.5745 42.5503 38.7275 42.4261 38.884 42.3053C39.0337 42.1744 39.1835 42.0434 39.3333 41.9092C39.6428 41.6507 39.9223 41.3553 40.2152 41.07C40.7776 40.4725 41.3268 39.8414 41.7994 39.1566C42.2786 38.4752 42.7113 37.7569 43.0674 37.0184C43.4201 36.2765 43.7097 35.5179 43.9327 34.766C44.159 34.0141 44.3054 33.2655 44.4119 32.5572C44.5217 31.8456 44.565 31.1642 44.585 30.5365C44.6083 29.9088 44.585 29.3314 44.565 28.8178C44.535 28.3076 44.4951 27.8611 44.4552 27.4986C44.4086 27.1327 44.372 26.8474 44.3387 26.6527C44.3087 26.458 44.2921 26.3539 44.2921 26.3539L44.2988 26.3506Z" fill="white"/>
</g>
<path d="M30.9831 16V17.4401L39.1402 20.6726L40.7011 19.8502L30.9831 16Z" fill="url(#paint3_linear_435_3538)"/>
<path d="M38.8619 29.9647L33.9485 32.3104L31.2752 27.6421L28.6019 32.3104L23.6857 29.9647L25.048 38.5194L37.5082 38.5309L38.8619 29.9647Z" fill="url(#paint4_linear_435_3538)"/>
<path d="M25.936 37.4616L25.0325 31.7815L29.0225 33.6845L31.2712 29.7578L33.517 33.6845L37.5098 31.7786L36.6092 37.4731L25.936 37.4616Z" fill="url(#paint5_linear_435_3538)"/>
<path d="M37.5074 38.5288L36.6125 37.471L25.9392 37.4595L25.0472 38.5173L37.5074 38.5288Z" fill="url(#paint6_linear_435_3538)"/>
<path d="M28.6046 32.3104L29.0293 33.6844L31.2779 29.7578V27.6421L28.6046 32.3104Z" fill="url(#paint7_linear_435_3538)"/>
<path d="M31.2747 27.6421V29.7578L33.5205 33.6844L33.948 32.3104L31.2747 27.6421Z" fill="url(#paint8_linear_435_3538)"/>
<path d="M38.8612 29.9634L37.5131 31.7772L36.6125 37.4717L37.5074 38.5296L38.8612 29.9634Z" fill="url(#paint9_linear_435_3538)"/>
<path d="M23.6857 29.9634L25.0366 31.7801L29.0266 33.6831L28.6019 32.309L23.6857 29.9634Z" fill="url(#paint10_linear_435_3538)"/>
<defs>
<linearGradient id="paint0_linear_435_3538" x1="31.8742" y1="48" x2="31.8742" y2="16" gradientUnits="userSpaceOnUse">
<stop stop-color="#585552"/>
<stop offset="0.54401" stop-color="#44403F"/>
<stop offset="1" stop-color="#474242"/>
</linearGradient>
<linearGradient id="paint1_linear_435_3538" x1="19.9122" y1="26.8471" x2="19.9122" y2="19.8516" gradientUnits="userSpaceOnUse">
<stop stop-color="#96908C"/>
<stop offset="0.54401" stop-color="#5C5451"/>
<stop offset="1" stop-color="#1D1B1B"/>
</linearGradient>
<linearGradient id="paint2_linear_435_3538" x1="42.4224" y1="28.1283" x2="42.4224" y2="19.8472" gradientUnits="userSpaceOnUse">
<stop stop-color="#96908C"/>
<stop offset="0.54401" stop-color="#5C5451"/>
<stop offset="1" stop-color="#1D1B1B"/>
</linearGradient>
<linearGradient id="paint3_linear_435_3538" x1="36.1284" y1="20.6726" x2="36.1284" y2="16" gradientUnits="userSpaceOnUse">
<stop stop-color="#96908C"/>
<stop offset="0.54401" stop-color="#5C5451"/>
<stop offset="1" stop-color="#1D1B1B"/>
</linearGradient>
<linearGradient id="paint4_linear_435_3538" x1="31.7209" y1="38.5309" x2="31.7209" y2="27.6421" gradientUnits="userSpaceOnUse">
<stop stop-color="#96908C"/>
<stop offset="0.54401" stop-color="#5C5451"/>
<stop offset="1" stop-color="#1D1B1B"/>
</linearGradient>
<linearGradient id="paint5_linear_435_3538" x1="31.6387" y1="37.4731" x2="31.6387" y2="29.7578" gradientUnits="userSpaceOnUse">
<stop stop-color="#96908C"/>
<stop offset="0.54401" stop-color="#5C5451"/>
<stop offset="1" stop-color="#1D1B1B"/>
</linearGradient>
<linearGradient id="paint6_linear_435_3538" x1="31.6443" y1="38.5288" x2="31.6443" y2="37.4595" gradientUnits="userSpaceOnUse">
<stop stop-color="#96908C"/>
<stop offset="0.54401" stop-color="#5C5451"/>
<stop offset="1" stop-color="#1D1B1B"/>
</linearGradient>
<linearGradient id="paint7_linear_435_3538" x1="30.02" y1="33.6844" x2="30.02" y2="27.6421" gradientUnits="userSpaceOnUse">
<stop stop-color="#96908C"/>
<stop offset="0.54401" stop-color="#5C5451"/>
<stop offset="1" stop-color="#1D1B1B"/>
</linearGradient>
<linearGradient id="paint8_linear_435_3538" x1="32.6901" y1="33.6844" x2="32.6901" y2="27.6421" gradientUnits="userSpaceOnUse">
<stop stop-color="#96908C"/>
<stop offset="0.54401" stop-color="#5C5451"/>
<stop offset="1" stop-color="#1D1B1B"/>
</linearGradient>
<linearGradient id="paint9_linear_435_3538" x1="37.8031" y1="38.5296" x2="37.8031" y2="29.9634" gradientUnits="userSpaceOnUse">
<stop stop-color="#96908C"/>
<stop offset="0.54401" stop-color="#5C5451"/>
<stop offset="1" stop-color="#1D1B1B"/>
</linearGradient>
<linearGradient id="paint10_linear_435_3538" x1="26.5135" y1="33.6831" x2="26.5135" y2="29.9634" gradientUnits="userSpaceOnUse">
<stop stop-color="#96908C"/>
<stop offset="0.54401" stop-color="#5C5451"/>
<stop offset="1" stop-color="#1D1B1B"/>
</linearGradient>
</defs>
</svg>
