<svg width="64" height="64" viewBox="0 0 64 64" fill="none" xmlns="http://www.w3.org/2000/svg">
<circle opacity="0.16" cx="32" cy="32" r="32" fill="#384CB3"/>
<path d="M31.4718 36.4062C31.4427 36.1764 31.4237 35.8703 31.4228 35.5638C31.4237 35.2576 31.443 34.9511 31.4721 34.7214C31.5025 34.4919 31.5378 34.3385 31.5378 34.3385C31.5378 34.3385 31.5734 34.4916 31.6034 34.7214C31.6326 34.9511 31.6519 35.2573 31.6528 35.5638C31.6522 35.8699 31.6332 36.1764 31.6037 36.4062C31.5734 36.6357 31.5378 36.7891 31.5378 36.7891C31.5378 36.7891 31.5022 36.636 31.4718 36.4062ZM29.5012 35.2786C29.4764 35.299 29.4429 35.3142 29.4144 35.3361C29.3843 35.3565 29.3543 35.3784 29.3187 35.3949C29.2847 35.4137 29.2481 35.4302 29.2147 35.4521C29.181 35.4734 29.1396 35.4822 29.1018 35.4984C29.0644 35.5139 29.0285 35.5352 28.9899 35.547C28.9494 35.5543 28.9116 35.569 28.8739 35.5796C28.8359 35.59 28.7994 35.6043 28.7644 35.6176C28.7276 35.625 28.6932 35.632 28.6613 35.6386C28.5325 35.6663 28.4377 35.7059 28.4377 35.7059C28.4377 35.7059 28.5239 35.7458 28.6665 35.7744C28.7018 35.7808 28.7408 35.7908 28.7819 35.7929C28.8233 35.7911 28.8675 35.7896 28.9129 35.7838C28.9576 35.778 29.0058 35.7756 29.0534 35.7662C29.1003 35.7546 29.1457 35.7333 29.1923 35.716C29.2371 35.6937 29.285 35.6788 29.3254 35.6508C29.3666 35.6234 29.4034 35.5906 29.4405 35.5626C29.4791 35.5367 29.5058 35.498 29.5331 35.4649C29.5595 35.4314 29.5853 35.4013 29.6021 35.3675C29.638 35.3017 29.661 35.2448 29.6699 35.201C29.681 35.1596 29.6801 35.135 29.6801 35.135C29.6801 35.135 29.6623 35.1529 29.6298 35.1785C29.5994 35.2056 29.5515 35.2378 29.5012 35.2786ZM28.5165 33.6419C27.7248 33.5825 27.5153 34.0457 27.5153 34.0457C27.5153 34.0457 27.7088 34.6182 28.4736 34.7777C29.2383 34.9371 29.7684 34.6651 29.7684 34.6651C29.7684 34.6651 29.4905 33.714 28.5165 33.6419ZM25.6361 43.5725C25.6361 43.5725 24.7747 44.186 24.7176 45.0141C24.6609 45.8419 25.4311 46.5711 25.4311 46.5711C25.4311 46.5711 26.2928 45.9582 26.3496 45.1304C26.4063 44.3023 25.6361 43.5725 25.6361 43.5725ZM33.3915 33.4033C33.4741 33.3868 33.5599 33.3555 33.6348 33.3129C33.7894 33.2258 33.8986 33.0895 34.0216 32.9842C34.0805 32.9319 34.14 32.8798 34.1989 32.8281C34.2578 32.7824 34.314 32.7304 34.3719 32.692C34.4287 32.6488 34.4867 32.6144 34.5431 32.584C34.5983 32.5478 34.6557 32.5317 34.7085 32.5079C34.7612 32.4851 34.8134 32.4796 34.8591 32.4662C34.9045 32.4522 34.9459 32.4531 34.9802 32.448C35.0499 32.441 35.0894 32.4367 35.0894 32.4367L35.0959 32.3898C35.0959 32.3898 35.0554 32.381 34.9842 32.3646C34.9483 32.3573 34.9042 32.3433 34.8526 32.3445C34.8014 32.3445 34.7407 32.335 34.6766 32.3427C34.6127 32.3515 34.5391 32.3524 34.4676 32.3743C34.3928 32.3895 34.3179 32.4154 34.2428 32.4467C34.0906 32.5064 33.9412 32.5946 33.8023 32.678C33.6633 32.762 33.5158 32.8244 33.4032 32.8801C33.3468 32.9124 33.2967 32.9389 33.2498 32.9678C33.2023 32.9915 33.1575 33.0216 33.1121 33.0375C33.0655 33.0609 33.0271 33.0746 32.9869 33.0883C32.9498 33.1078 32.9029 33.1157 32.8636 33.1212C32.7872 33.1348 32.7415 33.151 32.7415 33.151L32.7296 33.1969C32.7296 33.1969 32.7615 33.2341 32.821 33.2849C32.8357 33.2974 32.8523 33.3108 32.8704 33.326C32.8909 33.3378 32.9185 33.3488 32.9467 33.3616C33.0047 33.385 33.0762 33.4109 33.1495 33.413C33.2256 33.4258 33.3063 33.4203 33.3915 33.4033ZM30.6936 38.3585C30.6687 38.357 30.6356 38.3531 30.6059 38.3473C30.574 38.3436 30.5421 38.3366 30.5098 38.3287C30.4773 38.3223 30.446 38.3126 30.4148 38.3013C30.3828 38.291 30.35 38.2831 30.32 38.2687C30.2571 38.2441 30.196 38.2152 30.1362 38.1799C30.0733 38.1488 30.0218 38.102 29.958 38.0633C29.9976 38.1224 30.0328 38.1918 30.0859 38.2429C30.1365 38.2983 30.192 38.3494 30.2552 38.3905C30.3166 38.4349 30.3838 38.4714 30.454 38.5C30.489 38.515 30.5243 38.529 30.5617 38.5399C30.5991 38.5518 30.6338 38.5597 30.6792 38.567L30.6881 38.5673C30.9865 38.5847 31.285 38.5837 31.5835 38.5694C31.8823 38.5536 32.1811 38.5274 32.4795 38.4623C32.1811 38.3975 31.8823 38.3713 31.5835 38.3555C31.2872 38.3421 30.9902 38.3415 30.6936 38.3585ZM31.0212 37.1491C31.0614 37.1859 31.105 37.2236 31.1568 37.2556C31.2034 37.2894 31.2626 37.3262 31.3353 37.3521C31.4166 37.3874 31.4424 37.384 31.5381 37.4014C31.6111 37.3877 31.6952 37.3807 31.7513 37.349C31.8151 37.3244 31.8706 37.2906 31.9191 37.2556C32.0209 37.1886 32.0998 37.1117 32.1633 37.042C32.2909 36.9038 32.3486 36.7894 32.3486 36.7894C32.3486 36.7894 32.2357 36.8472 32.0805 36.936C32.0025 36.9793 31.9127 37.0316 31.8173 37.0754C31.77 37.1022 31.7203 37.118 31.6725 37.1351C31.6228 37.161 31.582 37.1527 31.5378 37.1652C31.5166 37.157 31.4172 37.1543 31.3927 37.132C31.3725 37.1229 31.3516 37.1153 31.3301 37.1095L31.259 37.0754C31.1635 37.0313 31.0737 36.979 30.9954 36.936C30.8402 36.8472 30.727 36.7897 30.727 36.7897C30.727 36.7897 30.7847 36.9041 30.9126 37.0426C30.9439 37.0767 30.9792 37.1144 31.0212 37.1491ZM34.4226 37.3731C34.302 37.3731 34.2048 37.4729 34.2048 37.5959C34.2048 37.7185 34.302 37.8183 34.4226 37.8183C34.5431 37.8183 34.6407 37.7185 34.6407 37.5959C34.641 37.4729 34.5431 37.3731 34.4226 37.3731ZM34.41 35.7741C34.5526 35.7455 34.6388 35.7056 34.6388 35.7056C34.6388 35.7056 34.544 35.6663 34.4152 35.6383C34.3833 35.632 34.3486 35.6246 34.3121 35.6173C34.2765 35.6043 34.2403 35.5897 34.2023 35.5793C34.1643 35.5687 34.1262 35.5543 34.0863 35.547C34.0474 35.5352 34.0118 35.5139 33.9738 35.4984C33.9366 35.4822 33.8952 35.4734 33.8612 35.4521C33.8277 35.4302 33.7912 35.4137 33.7572 35.3949C33.7216 35.3784 33.6915 35.3565 33.6615 35.3358C33.6326 35.3142 33.5989 35.299 33.5747 35.2786C33.5244 35.2378 33.4762 35.2056 33.4471 35.1785C33.4142 35.1529 33.3964 35.135 33.3964 35.135C33.3964 35.135 33.3958 35.1599 33.4069 35.201C33.4155 35.2448 33.4388 35.3017 33.4741 35.3675C33.4909 35.4013 33.5173 35.4314 33.5437 35.4649C33.5707 35.498 33.5977 35.5367 33.6366 35.5626C33.6734 35.5906 33.71 35.6234 33.7511 35.6508C33.7919 35.6788 33.8397 35.6937 33.8839 35.716C33.9308 35.733 33.9762 35.7543 34.0232 35.7659C34.0704 35.7753 34.1186 35.7777 34.1636 35.7835C34.2087 35.7896 34.2532 35.7908 34.294 35.7926C34.3357 35.7905 34.3747 35.7805 34.41 35.7741ZM34.525 34.8191C35.291 34.6517 35.4858 34.0585 35.4858 34.0585C35.4858 34.0585 35.2778 33.5795 34.4857 33.6428C33.5115 33.721 33.2302 34.7068 33.2302 34.7068C33.2302 34.7068 33.7596 34.9871 34.525 34.8191ZM37.4392 43.5728C37.4392 43.5728 36.6693 44.302 36.726 45.1304C36.7828 45.9585 37.6451 46.5714 37.6451 46.5714C37.6451 46.5714 38.415 45.8419 38.358 45.0141C38.3012 44.1863 37.4392 43.5728 37.4392 43.5728ZM26.9318 38.0414C26.9318 38.0414 26.3938 37.4756 26.2189 35.8642C26.2189 35.8642 25.5578 35.6709 25.1652 35.1627C24.9155 34.8385 24.8333 34.2195 24.8836 33.7231C24.9109 33.4425 24.9811 33.1988 25.0836 33.0676C25.367 32.7045 26.2008 33.8841 26.2008 33.8841C26.4303 32.8348 27.3266 32.4878 28.1699 31.968C28.2119 31.9829 28.2582 31.9948 28.3064 32.0191C28.4138 32.0663 28.5328 32.1296 28.6518 32.2115C28.7119 32.2504 28.7702 32.2988 28.831 32.3436C28.8908 32.3913 28.9506 32.4403 29.0092 32.4933C29.1285 32.5956 29.2285 32.7264 29.3488 32.8238C29.4702 32.9182 29.6043 32.9885 29.7301 33.0323C29.8518 33.0758 29.9761 33.1011 30.0512 33.0983C30.1292 33.0977 30.1773 33.0895 30.1773 33.0895L30.1966 33.0466C30.1966 33.0466 30.1712 33.0043 30.1206 32.944C30.0933 32.9142 30.0684 32.8771 30.0377 32.8396C30.0077 32.8046 29.9736 32.7587 29.9334 32.7155C29.8558 32.626 29.7623 32.5259 29.6436 32.4327C29.5236 32.3436 29.369 32.2717 29.2245 32.185C29.08 32.0989 28.926 32.0194 28.7742 31.9634C28.6242 31.9035 28.4742 31.8731 28.3478 31.856C28.3466 31.8557 28.3457 31.856 28.3444 31.8557C28.6162 31.6768 28.8773 31.4738 29.1018 31.2142C29.2721 31.0179 29.4135 30.8173 29.531 30.6131C29.4801 30.6311 29.4282 30.6496 29.3776 30.6673C29.038 30.7872 28.7049 30.9113 28.3665 31.0185C28.026 31.1213 27.6895 31.2233 27.3588 31.3234C27.03 31.4299 26.6984 31.5045 26.375 31.5812C26.0505 31.6533 25.7376 31.7407 25.4256 31.7955C25.1137 31.8484 24.81 31.9001 24.5164 31.9501C24.3698 31.975 24.2256 31.9994 24.0842 32.0234C23.9409 32.0386 23.8004 32.0535 23.6627 32.0681C23.1173 32.1281 22.616 32.1741 22.1721 32.2142C21.7292 32.2617 21.3347 32.2565 21.015 32.276C20.6954 32.2952 20.4417 32.2833 20.2751 32.3128C20.192 32.3247 20.1282 32.3466 20.0908 32.3673C20.0537 32.391 20.0343 32.4035 20.0343 32.4035C19.9095 32.5438 20.1319 32.7715 20.5908 33.0268C21.2022 33.371 23.1329 33.6817 23.6569 33.7615C23.6397 33.9289 23.625 34.0978 23.6154 34.27C23.347 38.7587 25.3431 39.9727 25.3431 39.9727C25.1137 40.145 24.9544 40.4229 24.9324 40.7452C24.9026 41.1776 25.125 41.5635 25.4658 41.7407C25.1572 41.8557 24.921 42.178 24.8937 42.5688C24.8597 43.0861 25.1956 43.5271 25.6477 43.5621C26.0974 43.5919 26.4925 43.2009 26.526 42.6862C26.5536 42.3137 26.383 41.978 26.1155 41.81C26.5085 41.7044 26.8125 41.3386 26.8444 40.8812C26.8628 40.6143 26.783 40.3638 26.6379 40.1681C27.1536 39.9542 27.4852 39.6833 27.6938 39.4532C27.9318 41.5915 29.9644 43.0953 29.9644 43.0953C30.5525 41.8423 31.5381 40.7732 31.5381 40.7732C30.7546 40.7732 29.1515 39.9521 27.9822 39.0418C27.5539 38.7079 27.1815 38.3631 26.9318 38.0414ZM38.6942 30.5732C38.9985 31.4181 39.2595 32.3926 39.3884 33.4979C39.42 33.7484 39.443 34.0059 39.4589 34.2703C39.727 38.759 37.7334 39.973 37.7334 39.973C37.9626 40.1477 38.1215 40.4232 38.142 40.7455C38.1715 41.1779 37.9491 41.5638 37.6086 41.741C37.9172 41.856 38.1534 42.1783 38.1807 42.5691C38.2147 43.0864 37.8785 43.5274 37.4291 43.5624C36.9775 43.5923 36.5846 43.2012 36.5481 42.6865C36.5208 42.314 36.691 41.9783 36.9588 41.8103C36.5662 41.7047 36.2619 41.3389 36.2303 40.8815C36.2119 40.6146 36.2916 40.3641 36.4367 40.1684C35.9211 39.9545 35.5898 39.6836 35.3809 39.4535C35.1425 41.5918 33.1102 43.0956 33.1102 43.0956C32.5222 41.8426 31.539 40.7735 31.539 40.7735C32.3225 40.7735 33.9232 39.9524 35.0925 39.0421C35.5238 38.7082 35.8938 38.3637 36.1441 38.0417C36.1441 38.0417 36.6364 37.4759 36.8229 35.8596L36.857 35.8645C36.857 35.8645 37.5178 35.6712 37.9107 35.163C38.1601 34.8388 38.242 34.2198 38.1917 33.7234C38.1896 33.6982 38.1877 33.6729 38.1853 33.6477C38.1534 33.3993 38.0874 33.1875 37.9941 33.0679C37.7079 32.7048 36.8751 33.8844 36.8751 33.8844C36.8751 33.8844 37.0815 31.9415 33.8756 31.8335C32.0749 31.7714 31.0537 30.9667 30.5 30.2713C30.8114 30.1612 31.12 30.0519 31.4326 29.9414C32.1173 29.6943 32.8023 29.4472 33.4765 29.204C34.1566 28.9754 34.8388 28.7788 35.4922 28.5731C36.1459 28.3671 36.7778 28.168 37.3773 27.979C37.9696 27.7998 38.5482 27.6397 39.0752 27.5107C39.3393 27.4416 39.5948 27.3898 39.8378 27.3408C40.0798 27.2833 40.3129 27.255 40.5313 27.2203C40.7498 27.1798 40.9565 27.1759 41.1473 27.1585C41.3387 27.1375 41.5133 27.1421 41.6719 27.1464C41.8302 27.1531 41.9731 27.1433 42.0967 27.1601C42.2204 27.1747 42.3256 27.1871 42.4106 27.1972C42.5811 27.2173 42.6719 27.2282 42.6719 27.2282C42.6719 27.2282 42.5823 27.2094 42.4145 27.1747C42.2464 27.1394 42.0029 27.0779 41.6783 27.0639C41.5173 27.049 41.3381 27.0325 41.1439 27.0414C40.9501 27.0462 40.7378 27.0365 40.5148 27.0633C40.0663 27.0955 39.5611 27.1604 39.0221 27.2772C38.4788 27.388 37.9052 27.5219 37.288 27.6823C36.6828 27.8515 36.0447 28.0299 35.3842 28.2143C34.7269 28.4094 34.0403 28.5825 33.3563 28.8105C32.6753 29.0509 31.9832 29.295 31.2915 29.5394C30.6034 29.788 29.915 30.037 29.2377 30.2817C28.8991 30.4019 28.565 30.5321 28.2337 30.646C27.9015 30.754 27.5729 30.8608 27.2496 30.9658C26.929 31.0796 26.602 31.153 26.2873 31.2443C25.9707 31.3283 25.6643 31.4272 25.3597 31.4932C25.0541 31.5578 24.7572 31.6205 24.4701 31.6813C24.3262 31.7118 24.1848 31.7416 24.0458 31.7711C23.9059 31.7915 23.7685 31.8116 23.6342 31.8314C23.0909 31.9081 22.5939 31.9872 22.1537 32.0581C21.7135 32.1345 21.3289 32.154 21.0111 32.1944C20.6936 32.2319 20.4414 32.248 20.2721 32.2912C20.1883 32.3107 20.1254 32.3387 20.0892 32.363C20.0543 32.3901 20.0362 32.4041 20.0362 32.4041L20.0021 32.374C20.0021 32.374 22.0522 30.0129 25.1498 28.3409L25.4403 26.7796C25.4403 26.7796 26.6054 21.437 26.7554 20.8898C26.9054 20.345 29.3982 17 30.1068 17C30.8126 17 36.2186 20.4899 36.2186 20.4899C36.2186 20.4899 37.0475 20.9613 36.1527 21.143C35.2582 21.3247 32.8329 21.5639 32.8329 21.5639H32.8308C33.0044 22.3004 33.3323 22.8966 33.6452 23.4115C33.6943 23.4888 33.7449 23.5713 33.7968 23.6586C33.9508 23.907 34.0955 24.1389 34.2051 24.3562L35.0612 25.6901C35.0612 25.6901 40.9013 26.2854 42.7198 27.2398L42.7222 27.2419C43.9238 27.5773 40.9755 29.4922 38.6942 30.5732ZM34.7585 25.7854L33.9462 24.5193C33.9336 24.4983 33.9225 24.4791 33.9106 24.4587C33.6468 24.5507 33.3826 24.6432 33.1197 24.7351C30.7614 25.565 28.3055 26.8082 25.7609 26.7851C25.7542 26.807 25.7456 26.8262 25.7391 26.8484L25.4597 28.3506C26.1033 28.3662 26.6229 28.3351 27.3067 28.2438C28.6168 28.0643 30.0859 27.5082 31.3028 27.007C32.4375 26.5395 33.5903 26.1509 34.7585 25.7854Z" fill="#384CB3"/>
</svg>
