<svg width="164" height="48" viewBox="0 0 164 48" fill="none" xmlns="http://www.w3.org/2000/svg">
<path d="M48.4999 42.1989L30.7911 3.93414L26.5969 13.267L41.0436 45.9321L48.4999 42.1989Z" fill="#008EFD"/>
<path d="M20.0737 1.6012H28.4621C24.8892 9.37859 17.1843 26.1467 14.9474 30.9998C10.1008 31.7464 5.47168 34.7329 3.76294 36.1328L20.0737 1.6012Z" fill="#008EFD"/>
<path d="M29.0131 29.7168H21.2316C20.2626 29.7168 19.6258 28.7052 20.0446 27.8314L23.6361 20.3393C24.0972 19.3773 25.4512 19.3346 25.9719 20.2658L30.1619 27.7579C30.6526 28.6353 30.0184 29.7168 29.0131 29.7168Z" fill="#7FC5FF"/>
<path d="M31.7234 33.3325L36.3836 43.5987C24.4535 36.5056 12.4612 42.5099 7.95634 46.3988L0.5 42.6654C10.5661 31.466 25.5098 31.7771 31.7234 33.3325Z" fill="#008EFD"/>
<path d="M78.9203 7.01929V24.0008H74.4341V22.6736C72.9161 23.8987 71.0469 24.5113 68.8265 24.5113C66.5834 24.5113 64.6349 23.6605 62.981 21.9589C61.327 20.2574 60.5 18.1134 60.5 15.5271C60.5 12.9407 61.327 10.7967 62.981 9.09519C64.6576 7.37094 66.6061 6.50882 68.8265 6.50882C71.0696 6.50882 72.9388 7.13273 74.4341 8.38053V7.01929H78.9203ZM69.6082 20.5977C70.877 20.5977 71.9985 20.1326 72.9728 19.2024C73.947 18.2496 74.4341 17.0244 74.4341 15.5271C74.4341 14.0297 73.947 12.8046 72.9728 11.8517C71.9985 10.8988 70.877 10.4224 69.6082 10.4224C68.2261 10.4224 67.0819 10.8875 66.1756 11.8177C65.292 12.7479 64.8502 13.9843 64.8502 15.5271C64.8502 17.0698 65.292 18.3063 66.1756 19.2365C67.0819 20.144 68.2261 20.5977 69.6082 20.5977Z" fill="#123169"/>
<path d="M80.9813 19.5087L85.5014 18.5899C85.7053 20.1326 86.8722 20.904 89.0019 20.904C89.8176 20.904 90.4633 20.7452 90.9391 20.4275C91.4149 20.1099 91.6528 19.7016 91.6528 19.2024C91.6528 18.4537 91.0298 17.9433 89.7836 17.671L86.3171 16.9564C84.7764 16.6388 83.5869 16.0602 82.7486 15.2208C81.9329 14.3814 81.5251 13.3491 81.5251 12.124C81.5251 10.4678 82.1482 9.11787 83.3943 8.07425C84.6631 7.03063 86.3511 6.50882 88.4582 6.50882C90.4293 6.50882 92.072 6.97391 93.3861 7.9041C94.7229 8.83428 95.5385 10.0481 95.8331 11.5454L91.5509 12.3962C91.4602 11.6929 91.1204 11.1257 90.5313 10.6946C89.9649 10.2636 89.2285 10.0481 88.3222 10.0481C87.5066 10.0481 86.9175 10.2182 86.555 10.5585C86.1925 10.8761 86.0112 11.2618 86.0112 11.7156C86.0112 12.4416 86.521 12.918 87.5406 13.1449L91.5849 14.0297C93.0349 14.3473 94.1338 14.9372 94.8815 15.7993C95.6518 16.6388 96.037 17.6483 96.037 18.8281C96.037 20.6658 95.3573 22.0724 93.9978 23.0479C92.6611 24.0235 90.8598 24.5113 88.5941 24.5113C86.5776 24.5113 84.8557 24.1029 83.4283 23.2862C82.0009 22.4467 81.1852 21.1876 80.9813 19.5087Z" fill="#123169"/>
<path d="M115.306 7.01929V24.0008H110.82V22.6736C109.302 23.8987 107.433 24.5113 105.212 24.5113C102.969 24.5113 101.021 23.6605 99.3667 21.9589C97.7127 20.2574 96.8857 18.1134 96.8857 15.5271C96.8857 12.9407 97.7127 10.7967 99.3667 9.09519C101.043 7.37094 102.992 6.50882 105.212 6.50882C107.455 6.50882 109.324 7.13273 110.82 8.38053V7.01929H115.306ZM105.994 20.5977C107.263 20.5977 108.384 20.1326 109.358 19.2024C110.333 18.2496 110.82 17.0244 110.82 15.5271C110.82 14.0297 110.333 12.8046 109.358 11.8517C108.384 10.8988 107.263 10.4224 105.994 10.4224C104.612 10.4224 103.468 10.8875 102.561 11.8177C101.678 12.7479 101.236 13.9843 101.236 15.5271C101.236 17.0698 101.678 18.3063 102.561 19.2365C103.468 20.144 104.612 20.5977 105.994 20.5977Z" fill="#123169"/>
<path d="M129.772 15.7313L135.481 24.0008H130.146L126.441 18.6239L122.771 24.0008H117.435L123.145 15.7313L117.435 6.98526H122.771L126.441 12.7025L130.146 6.98526H135.481L129.772 15.7313Z" fill="#123169"/>
<path d="M138.162 0.816748C138.683 0.272249 139.328 0 140.099 0C140.869 0 141.515 0.272249 142.036 0.816748C142.557 1.33856 142.818 1.96246 142.818 2.68846C142.818 3.43714 142.557 4.06105 142.036 4.56017C141.515 5.05929 140.869 5.30885 140.099 5.30885C139.306 5.30885 138.649 5.05929 138.128 4.56017C137.629 4.06105 137.38 3.43714 137.38 2.68846C137.38 1.96246 137.641 1.33856 138.162 0.816748ZM142.342 24.0008H137.856V7.01929H142.342V24.0008Z" fill="#123169"/>
<path d="M163.215 6.98526L153.359 29.7861H148.363L151.082 23.4563L144.047 6.98526H149.043L153.529 17.8412L158.219 6.98526H163.215Z" fill="#123169"/>
<path d="M127.836 33.1141H129.588L132.855 42H131.077L130.251 39.7848H127.148L126.334 42H124.557L127.836 33.1141ZM129.939 38.5708L128.712 34.9038L127.436 38.5708H129.939Z" fill="white"/>
<path d="M127.836 33.1141H129.588L132.855 42H131.077L130.251 39.7848H127.148L126.334 42H124.557L127.836 33.1141ZM129.939 38.5708L128.712 34.9038L127.436 38.5708H129.939Z" fill="url(#paint0_linear_131_50)"/>
<path d="M123.567 33.1141V42H121.852V38.2079H117.822V42H116.095V33.1141H117.822V36.706H121.852V33.1141H123.567Z" fill="white"/>
<path d="M123.567 33.1141V42H121.852V38.2079H117.822V42H116.095V33.1141H117.822V36.706H121.852V33.1141H123.567Z" fill="url(#paint1_linear_131_50)"/>
<path d="M110.102 33.1141H111.854L115.121 42H113.343L112.517 39.7848H109.414L108.6 42H106.823L110.102 33.1141ZM112.204 38.5708L110.978 34.9038L109.701 38.5708H112.204Z" fill="white"/>
<path d="M110.102 33.1141H111.854L115.121 42H113.343L112.517 39.7848H109.414L108.6 42H106.823L110.102 33.1141ZM112.204 38.5708L110.978 34.9038L109.701 38.5708H112.204Z" fill="url(#paint2_linear_131_50)"/>
<path d="M106.534 39.7097C106.534 40.2103 106.405 40.6317 106.146 40.9738C105.888 41.3075 105.537 41.562 105.095 41.7372C104.661 41.9124 104.186 42 103.668 42H99.3755V33.1141H104.131C104.548 33.1141 104.907 33.2268 105.208 33.452C105.516 33.669 105.75 33.9527 105.908 34.3031C106.075 34.6452 106.159 35.004 106.159 35.3794C106.159 35.8049 106.05 36.2096 105.833 36.5934C105.616 36.9772 105.299 37.2609 104.882 37.4444C105.391 37.5946 105.792 37.8658 106.084 38.2579C106.384 38.6501 106.534 39.134 106.534 39.7097ZM104.795 39.3843C104.795 39.159 104.749 38.9588 104.657 38.7836C104.565 38.6 104.44 38.4582 104.281 38.3581C104.131 38.2496 103.956 38.1954 103.756 38.1954H101.103V40.5357H103.668C103.877 40.5357 104.065 40.4857 104.231 40.3855C104.407 40.2771 104.544 40.1352 104.644 39.96C104.745 39.7848 104.795 39.5929 104.795 39.3843ZM101.103 34.5909V36.8312H103.405C103.597 36.8312 103.773 36.7853 103.931 36.6935C104.09 36.6017 104.215 36.4724 104.307 36.3055C104.407 36.1387 104.457 35.9384 104.457 35.7048C104.457 35.4795 104.411 35.2835 104.319 35.1166C104.236 34.9497 104.119 34.8204 103.969 34.7286C103.827 34.6368 103.664 34.5909 103.481 34.5909H101.103Z" fill="white"/>
<path d="M106.534 39.7097C106.534 40.2103 106.405 40.6317 106.146 40.9738C105.888 41.3075 105.537 41.562 105.095 41.7372C104.661 41.9124 104.186 42 103.668 42H99.3755V33.1141H104.131C104.548 33.1141 104.907 33.2268 105.208 33.452C105.516 33.669 105.75 33.9527 105.908 34.3031C106.075 34.6452 106.159 35.004 106.159 35.3794C106.159 35.8049 106.05 36.2096 105.833 36.5934C105.616 36.9772 105.299 37.2609 104.882 37.4444C105.391 37.5946 105.792 37.8658 106.084 38.2579C106.384 38.6501 106.534 39.134 106.534 39.7097ZM104.795 39.3843C104.795 39.159 104.749 38.9588 104.657 38.7836C104.565 38.6 104.44 38.4582 104.281 38.3581C104.131 38.2496 103.956 38.1954 103.756 38.1954H101.103V40.5357H103.668C103.877 40.5357 104.065 40.4857 104.231 40.3855C104.407 40.2771 104.544 40.1352 104.644 39.96C104.745 39.7848 104.795 39.5929 104.795 39.3843ZM101.103 34.5909V36.8312H103.405C103.597 36.8312 103.773 36.7853 103.931 36.6935C104.09 36.6017 104.215 36.4724 104.307 36.3055C104.407 36.1387 104.457 35.9384 104.457 35.7048C104.457 35.4795 104.411 35.2835 104.319 35.1166C104.236 34.9497 104.119 34.8204 103.969 34.7286C103.827 34.6368 103.664 34.5909 103.481 34.5909H101.103Z" fill="url(#paint3_linear_131_50)"/>
<path d="M93.7078 42.0626C93.057 42.0626 92.4646 41.9374 91.9306 41.6871C91.405 41.4368 90.9503 41.0989 90.5665 40.6734C90.191 40.2395 89.899 39.7556 89.6904 39.2216C89.4818 38.6792 89.3775 38.1244 89.3775 37.557C89.3775 36.9646 89.486 36.4015 89.7029 35.8675C89.9282 35.3251 90.2327 34.8454 90.6165 34.4282C91.0087 34.0027 91.4676 33.6689 91.9932 33.427C92.5272 33.1767 93.1112 33.0515 93.7454 33.0515C94.3878 33.0515 94.9719 33.1808 95.4975 33.4395C96.0315 33.6981 96.4862 34.0444 96.8617 34.4783C97.2371 34.9121 97.5292 35.3961 97.7377 35.93C97.9463 36.464 98.0506 37.0147 98.0506 37.5821C98.0506 38.1661 97.9422 38.7293 97.7252 39.2716C97.5083 39.8056 97.2038 40.2854 96.8116 40.7109C96.4278 41.1281 95.9689 41.4576 95.4349 41.6996C94.9093 41.9416 94.3336 42.0626 93.7078 42.0626ZM91.1297 37.557C91.1297 37.9408 91.1881 38.3121 91.3049 38.6709C91.4217 39.0297 91.5885 39.3509 91.8055 39.6346C92.0308 39.9099 92.3019 40.131 92.619 40.2979C92.9444 40.4564 93.3115 40.5357 93.7203 40.5357C94.1375 40.5357 94.5088 40.4522 94.8342 40.2854C95.1596 40.1102 95.4308 39.8807 95.6477 39.597C95.8646 39.305 96.0273 38.9838 96.1358 38.6334C96.2526 38.2746 96.311 37.9158 96.311 37.557C96.311 37.1732 96.2484 36.8061 96.1233 36.4557C96.0065 36.0969 95.8354 35.7799 95.6101 35.5045C95.3932 35.2208 95.122 34.9997 94.7966 34.8412C94.4796 34.6743 94.1208 34.5909 93.7203 34.5909C93.2948 34.5909 92.9193 34.6785 92.5939 34.8537C92.2769 35.0206 92.0099 35.2459 91.793 35.5296C91.576 35.8132 91.4092 36.1303 91.2923 36.4807C91.1839 36.8311 91.1297 37.1899 91.1297 37.557Z" fill="white"/>
<path d="M93.7078 42.0626C93.057 42.0626 92.4646 41.9374 91.9306 41.6871C91.405 41.4368 90.9503 41.0989 90.5665 40.6734C90.191 40.2395 89.899 39.7556 89.6904 39.2216C89.4818 38.6792 89.3775 38.1244 89.3775 37.557C89.3775 36.9646 89.486 36.4015 89.7029 35.8675C89.9282 35.3251 90.2327 34.8454 90.6165 34.4282C91.0087 34.0027 91.4676 33.6689 91.9932 33.427C92.5272 33.1767 93.1112 33.0515 93.7454 33.0515C94.3878 33.0515 94.9719 33.1808 95.4975 33.4395C96.0315 33.6981 96.4862 34.0444 96.8617 34.4783C97.2371 34.9121 97.5292 35.3961 97.7377 35.93C97.9463 36.464 98.0506 37.0147 98.0506 37.5821C98.0506 38.1661 97.9422 38.7293 97.7252 39.2716C97.5083 39.8056 97.2038 40.2854 96.8116 40.7109C96.4278 41.1281 95.9689 41.4576 95.4349 41.6996C94.9093 41.9416 94.3336 42.0626 93.7078 42.0626ZM91.1297 37.557C91.1297 37.9408 91.1881 38.3121 91.3049 38.6709C91.4217 39.0297 91.5885 39.3509 91.8055 39.6346C92.0308 39.9099 92.3019 40.131 92.619 40.2979C92.9444 40.4564 93.3115 40.5357 93.7203 40.5357C94.1375 40.5357 94.5088 40.4522 94.8342 40.2854C95.1596 40.1102 95.4308 39.8807 95.6477 39.597C95.8646 39.305 96.0273 38.9838 96.1358 38.6334C96.2526 38.2746 96.311 37.9158 96.311 37.557C96.311 37.1732 96.2484 36.8061 96.1233 36.4557C96.0065 36.0969 95.8354 35.7799 95.6101 35.5045C95.3932 35.2208 95.122 34.9997 94.7966 34.8412C94.4796 34.6743 94.1208 34.5909 93.7203 34.5909C93.2948 34.5909 92.9193 34.6785 92.5939 34.8537C92.2769 35.0206 92.0099 35.2459 91.793 35.5296C91.576 35.8132 91.4092 36.1303 91.2923 36.4807C91.1839 36.8311 91.1297 37.1899 91.1297 37.557Z" fill="url(#paint4_linear_131_50)"/>
<path d="M81.6414 42V33.1141H85.5712C85.98 33.1141 86.3555 33.1976 86.6976 33.3644C87.048 33.5313 87.3484 33.7566 87.5987 34.0403C87.8573 34.324 88.0534 34.641 88.1869 34.9914C88.3287 35.3419 88.3996 35.7006 88.3996 36.0678C88.3996 36.4432 88.3329 36.8062 88.1994 37.1566C88.0742 37.4987 87.8907 37.799 87.6487 38.0577C87.4068 38.3163 87.1231 38.5166 86.7977 38.6584L88.8252 42H86.9228L85.0956 39.0214H83.3685V42H81.6414ZM83.3685 37.507H85.5336C85.7506 37.507 85.9425 37.4444 86.1093 37.3193C86.2762 37.1858 86.4097 37.0106 86.5098 36.7936C86.6099 36.5767 86.66 36.3347 86.66 36.0678C86.66 35.7841 86.6016 35.5379 86.4848 35.3294C86.368 35.1124 86.2178 34.9414 86.0342 34.8162C85.859 34.6911 85.6671 34.6285 85.4585 34.6285H83.3685V37.507Z" fill="white"/>
<path d="M81.6414 42V33.1141H85.5712C85.98 33.1141 86.3555 33.1976 86.6976 33.3644C87.048 33.5313 87.3484 33.7566 87.5987 34.0403C87.8573 34.324 88.0534 34.641 88.1869 34.9914C88.3287 35.3419 88.3996 35.7006 88.3996 36.0678C88.3996 36.4432 88.3329 36.8062 88.1994 37.1566C88.0742 37.4987 87.8907 37.799 87.6487 38.0577C87.4068 38.3163 87.1231 38.5166 86.7977 38.6584L88.8252 42H86.9228L85.0956 39.0214H83.3685V42H81.6414ZM83.3685 37.507H85.5336C85.7506 37.507 85.9425 37.4444 86.1093 37.3193C86.2762 37.1858 86.4097 37.0106 86.5098 36.7936C86.6099 36.5767 86.66 36.3347 86.66 36.0678C86.66 35.7841 86.6016 35.5379 86.4848 35.3294C86.368 35.1124 86.2178 34.9414 86.0342 34.8162C85.859 34.6911 85.6671 34.6285 85.4585 34.6285H83.3685V37.507Z" fill="url(#paint5_linear_131_50)"/>
<path d="M76.022 42.0626C75.3128 42.0626 74.7079 41.9458 74.2072 41.7122C73.715 41.4702 73.3145 41.1406 73.0058 40.7235C72.7054 40.3063 72.4843 39.8349 72.3425 39.3092C72.2006 38.7752 72.1297 38.2204 72.1297 37.6447V33.1141H73.8568V37.6447C73.8568 38.0118 73.8902 38.3706 73.9569 38.721C74.032 39.0631 74.153 39.3718 74.3199 39.6471C74.4868 39.9225 74.7079 40.1394 74.9832 40.2979C75.2585 40.4565 75.6006 40.5357 76.0095 40.5357C76.4266 40.5357 76.7729 40.4565 77.0482 40.2979C77.3319 40.1311 77.553 39.91 77.7115 39.6346C77.8784 39.3593 77.9994 39.0506 78.0745 38.7085C78.1496 38.3581 78.1871 38.0035 78.1871 37.6447V33.1141H79.9017V37.6447C79.9017 38.2538 79.8266 38.8253 79.6764 39.3593C79.5346 39.8933 79.3052 40.3647 78.9881 40.7735C78.6794 41.174 78.2789 41.4911 77.7866 41.7247C77.2944 41.95 76.7061 42.0626 76.022 42.0626Z" fill="white"/>
<path d="M76.022 42.0626C75.3128 42.0626 74.7079 41.9458 74.2072 41.7122C73.715 41.4702 73.3145 41.1406 73.0058 40.7235C72.7054 40.3063 72.4843 39.8349 72.3425 39.3092C72.2006 38.7752 72.1297 38.2204 72.1297 37.6447V33.1141H73.8568V37.6447C73.8568 38.0118 73.8902 38.3706 73.9569 38.721C74.032 39.0631 74.153 39.3718 74.3199 39.6471C74.4868 39.9225 74.7079 40.1394 74.9832 40.2979C75.2585 40.4565 75.6006 40.5357 76.0095 40.5357C76.4266 40.5357 76.7729 40.4565 77.0482 40.2979C77.3319 40.1311 77.553 39.91 77.7115 39.6346C77.8784 39.3593 77.9994 39.0506 78.0745 38.7085C78.1496 38.3581 78.1871 38.0035 78.1871 37.6447V33.1141H79.9017V37.6447C79.9017 38.2538 79.8266 38.8253 79.6764 39.3593C79.5346 39.8933 79.3052 40.3647 78.9881 40.7735C78.6794 41.174 78.2789 41.4911 77.7866 41.7247C77.2944 41.95 76.7061 42.0626 76.022 42.0626Z" fill="url(#paint6_linear_131_50)"/>
<path d="M68.6725 42V36.1679L66.3947 40.5107H65.4311L63.1533 36.1679V42H61.4261V33.1141H63.2784L65.9066 38.1703L68.5599 33.1141H70.3996V42H68.6725Z" fill="white"/>
<path d="M68.6725 42V36.1679L66.3947 40.5107H65.4311L63.1533 36.1679V42H61.4261V33.1141H63.2784L65.9066 38.1703L68.5599 33.1141H70.3996V42H68.6725Z" fill="url(#paint7_linear_131_50)"/>
<defs>
<linearGradient id="paint0_linear_131_50" x1="60.5" y1="30" x2="103.755" y2="74.7508" gradientUnits="userSpaceOnUse">
<stop stop-color="#FFCB77"/>
<stop offset="1" stop-color="#FE5659"/>
</linearGradient>
<linearGradient id="paint1_linear_131_50" x1="60.5" y1="30" x2="103.755" y2="74.7508" gradientUnits="userSpaceOnUse">
<stop stop-color="#FFCB77"/>
<stop offset="1" stop-color="#FE5659"/>
</linearGradient>
<linearGradient id="paint2_linear_131_50" x1="60.5" y1="30" x2="103.755" y2="74.7508" gradientUnits="userSpaceOnUse">
<stop stop-color="#FFCB77"/>
<stop offset="1" stop-color="#FE5659"/>
</linearGradient>
<linearGradient id="paint3_linear_131_50" x1="60.5" y1="30" x2="103.755" y2="74.7508" gradientUnits="userSpaceOnUse">
<stop stop-color="#FFCB77"/>
<stop offset="1" stop-color="#FE5659"/>
</linearGradient>
<linearGradient id="paint4_linear_131_50" x1="60.5" y1="30" x2="103.755" y2="74.7508" gradientUnits="userSpaceOnUse">
<stop stop-color="#FFCB77"/>
<stop offset="1" stop-color="#FE5659"/>
</linearGradient>
<linearGradient id="paint5_linear_131_50" x1="60.5" y1="30" x2="103.755" y2="74.7508" gradientUnits="userSpaceOnUse">
<stop stop-color="#FFCB77"/>
<stop offset="1" stop-color="#FE5659"/>
</linearGradient>
<linearGradient id="paint6_linear_131_50" x1="60.5" y1="30" x2="103.755" y2="74.7508" gradientUnits="userSpaceOnUse">
<stop stop-color="#FFCB77"/>
<stop offset="1" stop-color="#FE5659"/>
</linearGradient>
<linearGradient id="paint7_linear_131_50" x1="60.5" y1="30" x2="103.755" y2="74.7508" gradientUnits="userSpaceOnUse">
<stop stop-color="#FFCB77"/>
<stop offset="1" stop-color="#FE5659"/>
</linearGradient>
</defs>
</svg>
