<svg width="32" height="32" viewBox="0 0 32 32" fill="none" xmlns="http://www.w3.org/2000/svg">
<path d="M21.434 2.66666H25.9486C27.8183 2.66666 29.3333 4.19446 29.3333 6.07994V10.6327C29.3333 12.5182 27.8183 14.046 25.9486 14.046H21.434C19.5643 14.046 18.0493 12.5182 18.0493 10.6327V6.07994C18.0493 4.19446 19.5643 2.66666 21.434 2.66666Z" fill="#C1C7D1"/>
<path fill-rule="evenodd" clip-rule="evenodd" d="M6.05145 2.66666H10.5661C12.4358 2.66666 13.9508 4.19446 13.9508 6.07994V10.6327C13.9508 12.5182 12.4358 14.046 10.5661 14.046H6.05145C4.18176 14.046 2.66675 12.5182 2.66675 10.6327V6.07994C2.66675 4.19446 4.18176 2.66666 6.05145 2.66666ZM6.05145 17.954H10.5661C12.4358 17.954 13.9508 19.4818 13.9508 21.3673V25.92C13.9508 27.8042 12.4358 29.3333 10.5661 29.3333H6.05145C4.18176 29.3333 2.66675 27.8042 2.66675 25.92V21.3673C2.66675 19.4818 4.18176 17.954 6.05145 17.954ZM25.9487 17.954H21.4341C19.5644 17.954 18.0494 19.4818 18.0494 21.3673V25.92C18.0494 27.8042 19.5644 29.3333 21.4341 29.3333H25.9487C27.8184 29.3333 29.3334 27.8042 29.3334 25.92V21.3673C29.3334 19.4818 27.8184 17.954 25.9487 17.954Z" fill="#64748B"/>
</svg>
