<svg width="32" height="32" viewBox="0 0 32 32" fill="none" xmlns="http://www.w3.org/2000/svg">
<path d="M17.9062 13.1562C17.1844 13.1562 16.625 13.7156 16.625 14.4062C16.625 15.0969 17.1844 15.6562 17.9062 15.6562C18.5656 15.6562 19.125 15.0969 19.125 14.4062C19.125 13.7156 18.5656 13.1562 17.9062 13.1562ZM9.15625 13.1562C8.43437 13.1562 7.875 13.7156 7.875 14.4062C7.875 15.0969 8.43437 15.6562 9.15625 15.6562C9.81562 15.6562 10.375 15.0969 10.375 14.4062C10.375 13.7156 9.81562 13.1562 9.15625 13.1562Z" fill="#008DFF"/>
<path d="M27.9374 10.7812C26.4343 8.71874 24.3343 7.34062 22.0312 6.71874V6.72187C21.4968 6.12812 20.8937 5.58124 20.2187 5.09374C15.1031 1.37499 7.92182 2.50937 4.18745 7.62499C1.17807 11.7812 1.3062 17.3719 4.37495 21.3437L4.39995 25.4875C4.39995 25.5875 4.41557 25.6875 4.44682 25.7812C4.61245 26.3094 5.17495 26.6 5.69995 26.4344L9.6562 25.1875C10.7031 25.5594 11.7843 25.7719 12.8593 25.8312L12.8437 25.8437C15.6281 27.8719 19.2781 28.4812 22.6249 27.375L26.5968 28.6687C26.6968 28.7 26.7999 28.7187 26.9062 28.7187C27.4593 28.7187 27.9062 28.2719 27.9062 27.7187V23.5312C30.6593 19.7937 30.7312 14.6281 27.9374 10.7812ZM10.0937 22.9687L9.7187 22.8125L6.62495 23.7812L6.5937 20.5312L6.3437 20.25C3.69995 17.025 3.52495 12.3781 5.99995 8.96874C9.01245 4.83749 14.7874 3.92499 18.9062 6.90624C23.0374 9.90937 23.9531 15.675 20.9687 19.7812C18.4656 23.2156 13.9843 24.4844 10.0937 22.9687ZM25.8749 22.4375L25.6249 22.75L25.6562 26L22.5937 24.9687L22.2187 25.125C20.4687 25.775 18.6031 25.8281 16.8749 25.3437L16.8687 25.3406C19.1781 24.6312 21.2718 23.1937 22.7812 21.125C25.1687 17.8344 25.5562 13.7 24.1687 10.175L24.1874 10.1875C24.9062 10.7031 25.5656 11.3469 26.1249 12.125C28.3937 15.2375 28.2656 19.475 25.8749 22.4375Z" fill="#008DFF"/>
<path d="M13.5312 13.1562C12.8094 13.1562 12.25 13.7156 12.25 14.4062C12.25 15.0969 12.8094 15.6562 13.5312 15.6562C14.1906 15.6562 14.75 15.0969 14.75 14.4062C14.75 13.7156 14.1906 13.1562 13.5312 13.1562Z" fill="#008DFF"/>
</svg>
