<svg width="32" height="32" viewBox="0 0 32 32" fill="none" xmlns="http://www.w3.org/2000/svg">
<g clip-path="url(#clip0_24_1751)">
<path d="M16 4C18.3734 4 20.6935 4.70379 22.6668 6.02236C24.6402 7.34094 26.1783 9.21509 27.0866 11.4078C27.9948 13.6005 28.2324 16.0133 27.7694 18.3411C27.3064 20.6689 26.1635 22.8071 24.4853 24.4853C22.8071 26.1635 20.6689 27.3064 18.3411 27.7694C16.0133 28.2324 13.6005 27.9948 11.4078 27.0866C9.21509 26.1783 7.34094 24.6402 6.02236 22.6668C4.70379 20.6935 4 18.3734 4 16C4 12.8174 5.26428 9.76516 7.51472 7.51472C9.76516 5.26428 12.8174 4 16 4" stroke="#008DFF" stroke-width="2" stroke-linecap="round" stroke-linejoin="round"/>
<path d="M16.6667 9.33334V16.6667H10.6667" stroke="#008DFF" stroke-width="2" stroke-linecap="round" stroke-linejoin="round"/>
</g>
<defs>
<clipPath id="clip0_24_1751">
<rect width="32" height="32" fill="white"/>
</clipPath>
</defs>
</svg>
