<svg width="32" height="32" viewBox="0 0 32 32" fill="none" xmlns="http://www.w3.org/2000/svg">
<g clip-path="url(#clip0_24_1815)">
<path d="M10.6667 4L7.85339 9.036" stroke="#008DFF" stroke-width="2" stroke-linecap="round" stroke-linejoin="round"/>
<path d="M20 4L23.0667 9.036" stroke="#008DFF" stroke-width="2" stroke-linecap="round" stroke-linejoin="round"/>
<path d="M21.3333 28C17.652 28 14.6666 25.0147 14.6666 21.3333C14.6666 17.652 17.652 14.6667 21.3333 14.6667C25.016 14.6667 28 17.652 28 21.3333C28 25.0147 25.016 28 21.3333 28Z" stroke="#008DFF" stroke-width="2" stroke-linecap="round" stroke-linejoin="round"/>
<path d="M25.9213 16.5L26.8587 12.172C27.208 10.56 25.9827 9.036 24.3307 9.036H6.58668C4.93868 9.036 3.71068 10.56 4.05868 12.172L6.02001 21.228C6.27601 22.4187 7.32935 23.2667 8.54801 23.2667H14.9533" stroke="#008DFF" stroke-width="2" stroke-linecap="round" stroke-linejoin="round"/>
<path d="M21.1747 19.0853V21.6893L23.2227 22.9387" stroke="#008DFF" stroke-width="2" stroke-linecap="round" stroke-linejoin="round"/>
</g>
<defs>
<clipPath id="clip0_24_1815">
<rect width="32" height="32" fill="white"/>
</clipPath>
</defs>
</svg>
