<svg width="24" height="28" viewBox="0 0 24 28" fill="none" xmlns="http://www.w3.org/2000/svg">
<path opacity="0.4" d="M21.0785 10.0278C20.4765 10.0278 19.6791 10.0145 18.6863 10.0145C16.265 10.0145 14.2741 8.0105 14.2741 5.5665V1.2785C14.2741 0.941171 14.0048 0.666504 13.6708 0.666504H6.61825C3.32697 0.666504 0.666748 3.36784 0.666748 6.6785V21.0452C0.666748 24.5185 3.45371 27.3332 6.89285 27.3332H17.3951C20.6745 27.3332 23.3334 24.6492 23.3334 21.3358V10.6278C23.3334 10.2892 23.0654 10.0158 22.7301 10.0172C22.1664 10.0212 21.4904 10.0278 21.0785 10.0278Z" fill="#008DFF"/>
<path opacity="0.4" d="M17.4455 1.42267C17.0468 1.008 16.3508 1.29334 16.3508 1.868V5.384C16.3508 6.85867 17.5655 8.07201 19.0402 8.07201C19.9695 8.08267 21.2602 8.08534 22.3562 8.08267C22.9175 8.08134 23.2028 7.41067 22.8135 7.00534C21.4068 5.54267 18.8882 2.92134 17.4455 1.42267Z" fill="#008DFF"/>
<path fill-rule="evenodd" clip-rule="evenodd" d="M7.96539 13.1831H12.4787C13.0267 13.1831 13.4721 12.7391 13.4721 12.1911C13.4721 11.6431 13.0267 11.1978 12.4787 11.1978H7.96539C7.41739 11.1978 6.97339 11.6431 6.97339 12.1911C6.97339 12.7391 7.41739 13.1831 7.96539 13.1831ZM7.96549 19.842H15.2242C15.7722 19.842 16.2175 19.398 16.2175 18.85C16.2175 18.302 15.7722 17.8567 15.2242 17.8567H7.96549C7.41749 17.8567 6.97349 18.302 6.97349 18.85C6.97349 19.398 7.41749 19.842 7.96549 19.842Z" fill="#008DFF"/>
</svg>
