<svg width="26" height="26" viewBox="0 0 26 26" fill="none" xmlns="http://www.w3.org/2000/svg">
<path d="M21.4853 4.51472C26.1716 9.20101 26.1716 16.799 21.4853 21.4853C16.799 26.1715 9.20105 26.1715 4.51478 21.4853C-0.171512 16.799 -0.171512 9.20099 4.51478 4.51472C9.20107 -0.171573 16.799 -0.171573 21.4853 4.51472" stroke="#008DFF" stroke-width="2" stroke-linecap="round" stroke-linejoin="round"/>
<path d="M20.076 22.6762C19.564 20.2228 16.6067 18.3335 13 18.3335C9.39334 18.3335 6.43601 20.2228 5.92401 22.6762" stroke="#008DFF" stroke-width="2" stroke-linecap="round" stroke-linejoin="round"/>
<path d="M15.8284 7.50507C17.3905 9.06716 17.3905 11.5998 15.8284 13.1619C14.2663 14.724 11.7336 14.724 10.1715 13.1619C8.60942 11.5998 8.60942 9.06716 10.1715 7.50507C11.7336 5.94297 14.2663 5.94297 15.8284 7.50507Z" stroke="#008DFF" stroke-width="2" stroke-linecap="round" stroke-linejoin="round"/>
</svg>
