<svg width="64" height="64" viewBox="0 0 64 64" fill="none" xmlns="http://www.w3.org/2000/svg">
<circle cx="32" cy="32" r="32" fill="#38B36E" fill-opacity="0.16"/>
<g clip-path="url(#clip0_3_2342)">
<path d="M42.348 33.3413L44.0093 35.0027L45.6707 33.3413" stroke="#38B36E" stroke-width="2" stroke-linecap="round" stroke-linejoin="round"/>
<path d="M21.652 30.6587L19.9907 28.9973L18.3293 30.6587" stroke="#38B36E" stroke-width="2" stroke-linecap="round" stroke-linejoin="round"/>
<path d="M26.116 30.3053C26.116 29.224 26.9933 28.3467 28.0747 28.3467C29.156 28.3467 30.0333 29.224 30.0333 30.3053C30.0333 32.7533 26.1173 32.7533 26.1173 35.652H30.0333" stroke="#38B36E" stroke-width="2" stroke-linecap="round" stroke-linejoin="round"/>
<path d="M37.192 32.04L33.8427 32.004C33.6533 32.0013 33.5 31.848 33.5 31.6573V28.348" stroke="#38B36E" stroke-width="2" stroke-linecap="round" stroke-linejoin="round"/>
<path d="M37.1867 28.4267V35.6533" stroke="#38B36E" stroke-width="2" stroke-linecap="round" stroke-linejoin="round"/>
<path d="M41.364 39.504C39.1627 42.2427 35.7907 44 32.0027 44H32H31.9973C25.3653 44 19.9907 38.6267 19.9907 31.9973C19.9907 31.072 20.1053 30.1747 20.304 29.3093" stroke="#38B36E" stroke-width="2" stroke-linecap="round" stroke-linejoin="round"/>
<path d="M22.6413 24.496C24.8413 21.7573 28.2147 20 32.0027 20C38.6347 20 44.0093 25.3733 44.0093 32.0027C44.0093 32.928 43.8947 33.8253 43.696 34.6907" stroke="#38B36E" stroke-width="2" stroke-linecap="round" stroke-linejoin="round"/>
</g>
<defs>
<clipPath id="clip0_3_2342">
<rect width="32" height="32" fill="white" transform="translate(16 16)"/>
</clipPath>
</defs>
</svg>
