<svg width="32" height="32" viewBox="0 0 32 32" fill="none" xmlns="http://www.w3.org/2000/svg">
<path d="M15.9319 19.3866C11.332 19.3866 7.45068 20.1382 7.45068 23.0392C7.45068 25.9414 11.357 26.6667 15.9319 26.6667C20.5319 26.6667 24.4132 25.915 24.4132 23.014C24.4132 20.1118 20.5068 19.3866 15.9319 19.3866Z" fill="#64748B"/>
<path opacity="0.4" d="M15.932 16.6227C19.0468 16.6227 21.5443 14.1107 21.5443 10.978C21.5443 7.84408 19.0468 5.33333 15.932 5.33333C12.8172 5.33333 10.3196 7.84408 10.3196 10.978C10.3196 14.1107 12.8172 16.6227 15.932 16.6227Z" fill="#64748B"/>
<path opacity="0.4" d="M28.1173 12.2923C28.9232 9.12238 26.5605 6.27542 23.552 6.27542C23.2249 6.27542 22.9121 6.31144 22.6064 6.37268C22.5658 6.38229 22.5205 6.4027 22.4966 6.43872C22.4691 6.48435 22.4894 6.54559 22.5193 6.58521C23.423 7.8604 23.9424 9.41296 23.9424 11.0796C23.9424 12.6766 23.466 14.1655 22.6303 15.4011C22.5444 15.5283 22.6208 15.7 22.7724 15.7265C22.9825 15.7637 23.1974 15.7829 23.4171 15.7889C25.6078 15.8465 27.5741 14.4285 28.1173 12.2923Z" fill="#64748B"/>
<path d="M30.4123 19.7559C30.0112 18.8962 29.0429 18.3066 27.5709 18.0172C26.8761 17.8467 24.9957 17.6066 23.2467 17.639C23.2204 17.6426 23.2061 17.6606 23.2037 17.6726C23.2001 17.6894 23.2073 17.7183 23.2419 17.7363C24.0502 18.1385 27.1745 19.888 26.7817 23.5779C26.765 23.7376 26.8928 23.8757 27.0516 23.8516C27.8204 23.7412 29.7987 23.3137 30.4123 21.9821C30.7514 21.2785 30.7514 20.4608 30.4123 19.7559Z" fill="#64748B"/>
<path opacity="0.4" d="M9.39311 6.37303C9.08867 6.31059 8.77468 6.27577 8.44756 6.27577C5.43901 6.27577 3.07634 9.12273 3.8834 12.2927C4.42541 14.4288 6.39172 15.8469 8.58247 15.7892C8.80214 15.7832 9.01823 15.7628 9.22716 15.7268C9.37878 15.7004 9.45519 15.5287 9.36923 15.4014C8.53352 14.1646 8.05717 12.6769 8.05717 11.0799C8.05717 9.41211 8.5777 7.85955 9.48146 6.58556C9.51011 6.54594 9.5316 6.4847 9.50295 6.43907C9.47907 6.40185 9.4349 6.38264 9.39311 6.37303Z" fill="#64748B"/>
<path d="M4.42866 18.0169C2.95662 18.3063 1.98958 18.8958 1.58844 19.7556C1.24819 20.4604 1.24819 21.2781 1.58844 21.9829C2.20209 23.3134 4.18033 23.742 4.94919 23.8513C5.10797 23.8753 5.23452 23.7384 5.21781 23.5775C4.82502 19.8888 7.94938 18.1394 8.75883 17.7371C8.79226 17.7179 8.79942 17.6903 8.79584 17.6723C8.79345 17.6603 8.78032 17.6423 8.75405 17.6399C7.00384 17.6062 5.12469 17.8464 4.42866 18.0169Z" fill="#64748B"/>
</svg>
