<svg width="64" height="64" viewBox="0 0 64 64" fill="none" xmlns="http://www.w3.org/2000/svg">
<circle opacity="0.16" cx="32" cy="32" r="32" fill="#38B36E"/>
<path d="M31.9321 35.3865C27.3321 35.3865 23.4508 36.1381 23.4508 39.0391C23.4508 41.9413 27.3571 42.6666 31.9321 42.6666C36.532 42.6666 40.4133 41.9149 40.4133 39.0139C40.4133 36.1117 36.507 35.3865 31.9321 35.3865Z" fill="#38B36E"/>
<path opacity="0.4" d="M31.932 32.6226C35.0468 32.6226 37.5444 30.1107 37.5444 26.9779C37.5444 23.844 35.0468 21.3333 31.932 21.3333C28.8172 21.3333 26.3196 23.844 26.3196 26.9779C26.3196 30.1107 28.8172 32.6226 31.932 32.6226Z" fill="#38B36E"/>
<path opacity="0.4" d="M44.1173 28.2923C44.9231 25.1223 42.5605 22.2754 39.5519 22.2754C39.2248 22.2754 38.912 22.3114 38.6064 22.3727C38.5658 22.3823 38.5204 22.4027 38.4965 22.4387C38.4691 22.4843 38.4894 22.5456 38.5192 22.5852C39.423 23.8604 39.9423 25.4129 39.9423 27.0796C39.9423 28.6765 39.466 30.1655 38.6303 31.401C38.5443 31.5283 38.6207 31.7 38.7723 31.7264C38.9824 31.7636 39.1973 31.7829 39.417 31.7889C41.6078 31.8465 43.5741 30.4284 44.1173 28.2923Z" fill="#38B36E"/>
<path d="M46.4123 35.7559C46.0112 34.8961 45.0429 34.3066 43.5709 34.0172C42.8761 33.8467 40.9957 33.6065 39.2467 33.639C39.2204 33.6426 39.2061 33.6606 39.2037 33.6726C39.2001 33.6894 39.2073 33.7182 39.2419 33.7362C40.0502 34.1385 43.1745 35.8879 42.7817 39.5778C42.765 39.7375 42.8928 39.8756 43.0516 39.8516C43.8204 39.7411 45.7987 39.3137 46.4123 37.982C46.7514 37.2784 46.7514 36.4607 46.4123 35.7559Z" fill="#38B36E"/>
<path opacity="0.4" d="M25.393 22.3729C25.0886 22.3105 24.7746 22.2756 24.4475 22.2756C21.4389 22.2756 19.0763 25.1226 19.8833 28.2926C20.4254 30.4287 22.3917 31.8467 24.5824 31.7891C24.8021 31.7831 25.0182 31.7627 25.2271 31.7267C25.3787 31.7003 25.4551 31.5285 25.3692 31.4013C24.5335 30.1645 24.0571 28.6768 24.0571 27.0798C24.0571 25.412 24.5776 23.8594 25.4814 22.5854C25.51 22.5458 25.5315 22.4846 25.5029 22.4389C25.479 22.4017 25.4348 22.3825 25.393 22.3729Z" fill="#38B36E"/>
<path d="M20.4287 34.0169C18.9567 34.3063 17.9896 34.8959 17.5885 35.7556C17.2482 36.4604 17.2482 37.2781 17.5885 37.983C18.2022 39.3134 20.1804 39.7421 20.9492 39.8513C21.108 39.8753 21.2346 39.7385 21.2179 39.5776C20.8251 35.8889 23.9494 34.1394 24.7589 33.7372C24.7923 33.7179 24.7995 33.6903 24.7959 33.6723C24.7935 33.6603 24.7804 33.6423 24.7541 33.6399C23.0039 33.6063 21.1247 33.8464 20.4287 34.0169Z" fill="#38B36E"/>
</svg>
