<svg width="64" height="64" viewBox="0 0 64 64" fill="none" xmlns="http://www.w3.org/2000/svg">
<circle opacity="0.16" cx="32" cy="32" r="32" fill="#38B36E"/>
<g clip-path="url(#clip0_3_2346)">
<path d="M26.6667 20L23.8533 25.036" stroke="#38B36E" stroke-width="2" stroke-linecap="round" stroke-linejoin="round"/>
<path d="M36 20L39.0667 25.036" stroke="#38B36E" stroke-width="2" stroke-linecap="round" stroke-linejoin="round"/>
<path d="M37.3334 44C33.652 44 30.6667 41.0147 30.6667 37.3333C30.6667 33.652 33.652 30.6667 37.3334 30.6667C41.016 30.6667 44 33.652 44 37.3333C44 41.0147 41.016 44 37.3334 44Z" stroke="#38B36E" stroke-width="2" stroke-linecap="round" stroke-linejoin="round"/>
<path d="M41.9213 32.5L42.8587 28.172C43.208 26.56 41.9827 25.036 40.3307 25.036H22.5867C20.9387 25.036 19.7107 26.56 20.0587 28.172L22.02 37.228C22.276 38.4187 23.3293 39.2667 24.548 39.2667H30.9533" stroke="#38B36E" stroke-width="2" stroke-linecap="round" stroke-linejoin="round"/>
<path d="M37.1747 35.0853V37.6893L39.2227 38.9387" stroke="#38B36E" stroke-width="2" stroke-linecap="round" stroke-linejoin="round"/>
</g>
<defs>
<clipPath id="clip0_3_2346">
<rect width="32" height="32" fill="white" transform="translate(16 16)"/>
</clipPath>
</defs>
</svg>
