<svg width="47" height="20" viewBox="0 0 47 20" fill="none" xmlns="http://www.w3.org/2000/svg">
<g clip-path="url(#clip0_1368_1376)">
<rect x="0.800781" width="45.4" height="19.8" rx="9.9" fill="white"/>
<path d="M23.5009 -10.8342H0.613281V30.6337H23.5009V-10.8342Z" fill="#B3E8FF"/>
<path d="M3.2136 9.19764C3.23236 9.12292 3.25112 9.04821 3.26988 8.97349C3.36368 8.30104 2.89467 7.72198 2.25682 7.57255C2.10674 7.53519 1.9379 7.51651 1.78782 7.53519C1.78782 7.51651 1.78782 7.51651 1.80658 7.49783C1.88162 7.255 1.91914 6.95613 1.8441 6.7133C1.75029 6.47047 1.63773 6.22764 1.45013 6.02217C1.11244 5.64858 0.624675 5.44311 0.136907 5.36839C-0.125738 5.33104 -0.369622 5.34971 -0.632267 5.38707C-0.632267 5.20028 -0.651027 4.99481 -0.707308 4.80802C-0.83863 4.30368 -1.2326 3.87406 -1.64532 3.59387C-2.07681 3.295 -2.62086 3.23896 -3.14615 3.35104C-3.20243 3.36972 -3.25871 3.36972 -3.31499 3.3884C-3.5026 2.97745 -3.97161 2.73462 -4.40309 2.64123C-4.6845 2.58519 -5.00342 2.60387 -5.28483 2.67858C-5.56623 2.7533 -5.79136 2.90274 -5.99772 3.07085C-6.20408 3.23896 -6.37293 3.48179 -6.48549 3.72462C-6.61681 3.98613 -6.63557 4.30368 -6.63557 4.58387C-6.63557 4.8267 -6.54177 5.03217 -6.42921 5.21896C-6.48549 5.25632 -6.54177 5.29368 -6.59805 5.33104C-6.76689 5.48047 -6.89822 5.66726 -6.9545 5.87273C-7.02954 5.83538 -7.08582 5.8167 -7.16086 5.79802C-7.42351 5.7233 -7.70491 5.70462 -7.98632 5.7233C-8.24896 5.74198 -8.51161 5.83538 -8.75549 5.96613C-9.24326 6.20896 -9.69351 6.48915 -9.95615 6.97481C-10.0124 7.10556 -10.0687 7.255 -10.0875 7.40443C-10.125 7.38575 -10.1813 7.38575 -10.2188 7.36707C-10.5752 7.29236 -10.9129 7.32972 -11.2506 7.46047C-11.8509 7.68462 -12.2262 8.35707 -12.2637 8.95481C-12.2637 9.02953 -12.2637 9.10424 -12.2637 9.17896H3.2136V9.19764Z" fill="white"/>
<path d="M14.5054 6.93438C12.7913 5.22025 10.0113 5.22628 8.28971 6.94784C6.56814 8.66941 6.56212 11.4494 8.27624 13.1636C9.99037 14.8777 12.7704 14.8717 14.492 13.1501C16.2004 11.4417 16.2196 8.64851 14.5054 6.93438Z" fill="#FF7702"/>
<path d="M14.538 6.96694C12.8059 5.23482 10.0027 5.23482 8.27061 6.96694C6.53848 8.69907 6.53848 11.5022 8.2706 13.2343C10.0027 14.9664 12.8059 14.9664 14.538 13.2343C16.2569 11.5154 16.2701 8.69907 14.538 6.96694ZM8.34994 12.917C6.73682 11.3039 6.73682 8.68584 8.34994 7.07272C9.96306 5.4596 12.5811 5.4596 14.1942 7.07272C15.8073 8.68584 15.8073 11.3039 14.1942 12.917C12.5943 14.5433 9.97628 14.5433 8.34994 12.917Z" fill="#FF7702"/>
<path d="M15.9122 6.27941C15.7403 6.4513 15.4627 6.46452 15.304 6.30585C15.1453 6.14718 15.1586 5.86951 15.3305 5.69762L15.8858 5.14229C16.0577 4.9704 16.3353 4.95717 16.494 5.11584C16.6527 5.27451 16.6395 5.55218 16.4676 5.72407L15.9122 6.27941Z" fill="#FF7702"/>
<path d="M7.34388 14.8475C7.17199 15.0194 6.89432 15.0326 6.73565 14.874C6.57698 14.7153 6.5902 14.4376 6.76209 14.2657L7.31743 13.7104C7.48932 13.5385 7.76699 13.5253 7.92566 13.684C8.08432 13.8426 8.0711 14.1203 7.89921 14.2922L7.34388 14.8475Z" fill="#FF7702"/>
<path d="M15.3176 14.279C15.1457 14.1071 15.1325 13.8294 15.2911 13.6708C15.4498 13.5121 15.7275 13.5253 15.8994 13.6972L16.4547 14.2526C16.6266 14.4244 16.6398 14.7021 16.4811 14.8608C16.3225 15.0195 16.0448 15.0062 15.8729 14.8343L15.3176 14.279Z" fill="#FF7702"/>
<path d="M6.74922 5.71089C6.57733 5.539 6.56411 5.26133 6.72278 5.10266C6.88145 4.94399 7.15912 4.95721 7.33101 5.1291L7.88634 5.68444C8.05823 5.85633 8.07146 6.134 7.91279 6.29267C7.75412 6.45134 7.47645 6.43811 7.30456 6.26622L6.74922 5.71089Z" fill="#FF7702"/>
<path d="M17.2733 10.3917C17.0353 10.3917 16.8237 10.2066 16.8237 9.9686C16.8237 9.7306 17.022 9.55871 17.2733 9.54549L18.0666 9.54549C18.3046 9.54549 18.5162 9.7306 18.5162 9.9686C18.5162 10.2066 18.3178 10.3785 18.0666 10.3917L17.2733 10.3917Z" fill="#FF7702"/>
<path d="M5.14825 10.4049C4.91025 10.4049 4.69869 10.2198 4.69869 9.98178C4.69869 9.74378 4.89703 9.57189 5.14825 9.55867L5.94159 9.55867C6.17959 9.55867 6.39115 9.74378 6.39115 9.98178C6.39115 10.2198 6.19282 10.3917 5.94159 10.4049L5.14825 10.4049Z" fill="#FF7702"/>
<path d="M11.1921 15.654C11.1921 15.416 11.3772 15.2044 11.6152 15.2044C11.8532 15.2044 12.0251 15.4027 12.0383 15.654L12.0383 16.4473C12.0383 16.6853 11.8532 16.8969 11.6152 16.8969C11.3772 16.8969 11.2053 16.6985 11.1921 16.4473L11.1921 15.654Z" fill="#FF7702"/>
<path d="M11.2058 3.52921C11.2058 3.2912 11.3909 3.07965 11.6289 3.07965C11.8669 3.07965 12.0388 3.27798 12.052 3.52921L12.052 4.32255C12.052 4.56055 11.8669 4.7721 11.6289 4.7721C11.3909 4.7721 11.219 4.57377 11.2058 4.32255L11.2058 3.52921Z" fill="#FF7702"/>
<path d="M31.0657 22.9069C31.0866 22.8508 31.0866 22.8135 31.1076 22.7574C31.2122 22.085 30.6889 21.5059 29.9772 21.3565C29.8097 21.3191 29.6213 21.3004 29.4539 21.3191C29.4539 21.3004 29.4539 21.3004 29.4748 21.2818C29.5585 21.0389 29.6004 20.7401 29.5167 20.4972C29.412 20.2544 29.2864 20.0116 29.0771 19.8061C28.7003 19.4325 28.1561 19.2271 27.6118 19.1523C27.3188 19.115 27.0466 19.1337 26.7536 19.171C26.7536 18.9842 26.7327 18.7787 26.6699 18.592C26.5233 18.0876 26.0837 17.658 25.6232 17.3778C25.1418 17.0789 24.5347 17.0229 23.9486 17.135C23.8858 17.1537 23.823 17.1537 23.7602 17.1723C23.5509 16.7614 23.0276 16.5186 22.5461 16.4252C22.2321 16.3691 21.8763 16.3878 21.5623 16.4625C21.2483 16.5372 20.9971 16.6867 20.7669 16.8548C20.5366 17.0229 20.3482 17.2657 20.2226 17.5086C20.0761 17.7701 20.0552 18.0876 20.0552 18.3678C20.0552 18.6106 20.1598 18.8161 20.2854 19.0029C20.2226 19.0403 20.1598 19.0776 20.097 19.115C19.9086 19.2644 19.7621 19.4512 19.6993 19.6567C19.6156 19.6193 19.5528 19.6006 19.4691 19.582C19.176 19.5072 18.862 19.4886 18.548 19.5072C18.255 19.5259 17.9619 19.6193 17.6898 19.7501C17.1455 19.9929 16.6432 20.2731 16.3501 20.7587C16.2873 20.8895 16.2245 21.0389 16.2036 21.1884C16.1617 21.1697 16.0989 21.1697 16.057 21.151C15.6593 21.0763 15.2825 21.1137 14.9057 21.2444C14.2359 21.4686 13.8173 22.141 13.7754 22.7387C13.7754 22.7948 13.7754 22.8321 13.7754 22.8882H31.0657V22.9069Z" fill="white"/>
<path d="M46.2 -11.9546H23.5V29.5133H46.2V-11.9546Z" fill="#2D3151"/>
<path d="M37.4032 0.597805L37.8722 0.056108L38.5851 0.149504L38.2286 -0.466911L38.5288 -1.12069L37.8347 -0.952572L37.3094 -1.43823L37.2343 -0.728421L36.6152 -0.392194L37.2718 -0.0933266L37.4032 0.597805Z" fill="#2D3151"/>
<path d="M34.9635 4.46436C34.0255 4.46436 33.1625 4.70719 32.4121 5.13681C34.5508 5.52907 36.1829 7.397 36.1829 9.63851C36.1829 11.8427 34.6071 13.6919 32.5247 14.1215C33.2563 14.5138 34.0818 14.7379 34.9635 14.7379C37.8151 14.7379 40.1226 12.4404 40.1226 9.60115C40.1226 6.7619 37.8151 4.46436 34.9635 4.46436Z" fill="#2D3151"/>
<path d="M41.7546 11.5629L41.3043 11.6563L40.9854 11.3574L40.9291 11.8057L40.5352 12.0112L40.9479 12.198L41.0417 12.6276L41.3419 12.2914L41.7921 12.3474L41.567 11.9552L41.7546 11.5629Z" fill="#2D3151"/>
<path d="M29.0777 17.9121L28.8338 17.9682L28.6462 17.8L28.6275 18.0429L28.4023 18.1736L28.6462 18.267L28.6837 18.5099L28.8526 18.3231L29.0965 18.3604L28.9839 18.1363L29.0777 17.9121Z" fill="#2D3151"/>
<path d="M33.2747 8.38717L32.6181 7.77075L32.5243 8.66736L31.7363 9.11566L32.5618 9.47056L32.7494 10.3672L33.3497 9.67604L34.2502 9.78811L33.7812 9.00358L34.1752 8.1817L33.2747 8.38717Z" fill="#2D3151"/>
<path d="M40.171 2.40646L39.4581 2.31307L38.9891 2.85477L38.8578 2.14495L38.2012 1.86477L38.8203 1.50986L38.8953 0.800049L39.4206 1.28571L40.1147 1.13628L39.8146 1.79005L40.171 2.40646Z" fill="#FFE700"/>
<path d="M35.7513 9.22762C35.7513 6.98611 34.1191 5.11819 31.9805 4.72592C32.7309 4.2963 33.6126 4.05347 34.5319 4.05347C37.3834 4.05347 39.691 6.35101 39.691 9.19026C39.691 12.0295 37.3834 14.3271 34.5319 14.3271C33.6501 14.3271 32.8247 14.1029 32.093 13.7106C34.1942 13.281 35.7513 11.4505 35.7513 9.22762Z" fill="#FFE400"/>
<path d="M44.6573 13.0087L44.2071 12.9526L43.9069 13.2889L43.8131 12.8406L43.4004 12.6725L43.7944 12.4483L43.8319 12L44.1696 12.3175L44.6198 12.2055L44.4134 12.6164L44.6573 13.0087Z" fill="#FFE700"/>
<path d="M31.4016 18.9262L30.7691 18.8736L30.3313 19.3999L30.234 18.7157L29.6016 18.3999L30.1853 18.0841L30.234 17.3999L30.7205 17.8736L31.3529 17.7157L31.1097 18.3473L31.4016 18.9262Z" fill="#FFE700"/>
<path d="M33 8.93913L32.6418 8.88696L32.403 9.2L32.3284 8.7913L32 8.62609L32.3134 8.41739L32.3507 8L32.6119 8.28696L32.9701 8.1913L32.8134 8.57391L33 8.93913Z" fill="#FFE700"/>
</g>
<defs>
<clipPath id="clip0_1368_1376">
<rect x="0.800781" width="45.4" height="19.8" rx="9.9" fill="white"/>
</clipPath>
</defs>
</svg>
