<svg width="16" height="16" viewBox="0 0 16 16" fill="none" xmlns="http://www.w3.org/2000/svg">
<g clip-path="url(#clip0_408_11158)">
<path d="M10.361 14H5.63905C5.26114 14 4.89715 13.8574 4.61987 13.6006C4.34259 13.3438 4.17245 12.9918 4.14347 12.615L3.5 4.25H12.5L11.8565 12.615C11.8275 12.9918 11.6574 13.3438 11.3801 13.6006C11.1028 13.8574 10.7389 14 10.361 14V14Z" stroke="#E83333" stroke-width="1.5" stroke-linecap="round" stroke-linejoin="round"/>
<path d="M13.3282 4.25H2.6615" stroke="#E83333" stroke-width="1.5" stroke-linecap="round" stroke-linejoin="round"/>
<path d="M6.125 2H9.875C10.0739 2 10.2647 2.07902 10.4053 2.21967C10.546 2.36032 10.625 2.55109 10.625 2.75V4.25H5.375V2.75C5.375 2.55109 5.45402 2.36032 5.59467 2.21967C5.73532 2.07902 5.92609 2 6.125 2V2Z" stroke="#E83333" stroke-width="1.5" stroke-linecap="round" stroke-linejoin="round"/>
<path d="M9.3125 7.25V11" stroke="#E83333" stroke-width="1.5" stroke-linecap="round" stroke-linejoin="round"/>
<path d="M6.6875 7.25V11" stroke="#E83333" stroke-width="1.5" stroke-linecap="round" stroke-linejoin="round"/>
</g>
<defs>
<clipPath id="clip0_408_11158">
<rect width="16" height="16" fill="white"/>
</clipPath>
</defs>
</svg>
