<svg width="24" height="24" viewBox="0 0 24 24" fill="none" xmlns="http://www.w3.org/2000/svg">
<g clip-path="url(#clip0_175_3576)">
<path d="M20 8H16V8C15.4477 8 15 7.55229 15 7V3" stroke="#0F172A" stroke-width="1.5" stroke-linecap="round" stroke-linejoin="round"/>
<path d="M6 8V5V5C6 3.89543 6.89543 3 8 3H15.172V3C15.7024 3.00011 16.211 3.2109 16.586 3.586L19.414 6.414V6.414C19.7891 6.78899 19.9999 7.29761 20 7.828V19C20 20.1046 19.1046 21 18 21H8V21C6.89543 21 6 20.1046 6 19V18" stroke="#0F172A" stroke-width="1.5" stroke-linecap="round" stroke-linejoin="round"/>
<path d="M9.57007 14.75L6.57007 11.25" stroke="#0F172A" stroke-width="1.5" stroke-linecap="round" stroke-linejoin="round"/>
<path d="M6.57007 14.75L9.57007 11.25" stroke="#0F172A" stroke-width="1.5" stroke-linecap="round" stroke-linejoin="round"/>
<path d="M11.3432 8H4.65684C3.74179 8 3 8.74179 3 9.65684V16.3432C3 17.2582 3.74179 18 4.65684 18H11.3432C12.2582 18 13 17.2582 13 16.3432V9.65684C13 8.74179 12.2582 8 11.3432 8Z" stroke="#0F172A" stroke-width="1.5" stroke-linecap="round" stroke-linejoin="round"/>
</g>
<defs>
<clipPath id="clip0_175_3576">
<rect width="24" height="24" fill="white"/>
</clipPath>
</defs>
</svg>
