<svg width="24" height="24" viewBox="0 0 24 24" fill="none" xmlns="http://www.w3.org/2000/svg">
<g clip-path="url(#clip0_227_8782)">
<path d="M24.0016 6.41211H14.7578V11.9996H24.0016V6.41211Z" fill="#21A365"/>
<path d="M24.0016 12H14.7578V17.5875H24.0016V12Z" fill="#107C41"/>
<path d="M14.7562 6.41211H5.53125V11.9996H14.7562V6.41211Z" fill="#107C41"/>
<path d="M14.7551 17.5875V12H5.54883V17.5875V18.3937V22.0687C5.54883 22.6687 6.03633 23.1562 6.63633 23.1562H22.8926C23.4926 23.1562 23.9801 22.6687 23.9801 22.0687V17.5875H14.7551Z" fill="#185B37"/>
<path d="M22.8926 0.84375H14.7363V6.43125H23.9988V1.93125C23.9801 1.33125 23.4926 0.84375 22.8926 0.84375Z" fill="#33C481"/>
<path d="M14.7578 0.84375H6.65781C6.05781 0.84375 5.57031 1.33125 5.57031 1.93125V6.4125H14.7766V0.84375H14.7578Z" fill="#21A365"/>
<path d="M11.1551 18.0938H1.21758C0.561328 18.0938 0.0175781 17.55 0.0175781 16.8937V7.10625C0.0175781 6.45 0.561328 5.90625 1.21758 5.90625H11.1551C11.8113 5.90625 12.3551 6.45 12.3551 7.10625V16.8937C12.3551 17.55 11.8301 18.0938 11.1551 18.0938Z" fill="#17864C"/>
<path d="M7.59492 15.45L6.86367 14.1188C6.56367 13.5938 6.37617 13.2375 6.16992 12.8438H6.15117C5.98242 13.2375 5.81367 13.5938 5.53242 14.1188L4.87617 15.45H3.45117L5.47617 12.0563L3.50742 8.71875H4.95117L5.68242 10.1063C5.90742 10.5188 6.07617 10.8563 6.24492 11.2313H6.28242C6.46992 10.8188 6.60117 10.5188 6.82617 10.1063L7.55742 8.71875H8.98242L6.97617 12L9.05742 15.45H7.59492Z" fill="white"/>
<path opacity="0.2" d="M12.5074 6.99414C12.5074 7.03164 12.5074 7.06914 12.5074 7.10664V16.8941C12.5074 17.5504 11.9637 18.0941 11.3074 18.0941H5.70117V19.1629H12.3012C12.9574 19.1629 13.5012 18.6191 13.5012 17.9629V8.17539C13.5199 7.57539 13.0699 7.06914 12.5074 6.99414Z" fill="black"/>
</g>
<defs>
<clipPath id="clip0_227_8782">
<rect width="24" height="24" fill="white"/>
</clipPath>
</defs>
</svg>
