<svg width="24" height="32" viewBox="0 0 24 32" fill="none" xmlns="http://www.w3.org/2000/svg">
<path d="M0 1.92C0 0.859495 0.859496 0 1.92 0H16L24 6.71997V30.0799C24 31.1405 23.1405 32 22.08 32H1.92C0.859496 32 0 31.1405 0 30.0799V1.92Z" fill="#00BFAF"/>
<path d="M16 0V4.79997C16 5.86048 16.8595 6.71997 17.92 6.71997H24" fill="#00BFAF"/>
<path d="M13.5404 22L12.5627 20.2201C12.1616 19.5181 11.9109 19.0418 11.6351 18.5153H11.61C11.3844 19.0418 11.1588 19.5181 10.7827 20.2201L9.90529 22H8L10.7075 17.4624L8.07521 13H10.0056L10.9833 14.8552C11.2841 15.4067 11.5097 15.8579 11.7354 16.3593H11.7855C12.0362 15.8078 12.2117 15.4067 12.5125 14.8552L13.4902 13H15.3955L12.7131 17.3872L15.4958 22H13.5404Z" fill="white"/>
</svg>
