<svg width="69" height="48" viewBox="0 0 69 48" fill="none" xmlns="http://www.w3.org/2000/svg">
<path d="M61.1042 48.0006H7.96875L15.651 4.50586H68.7865L61.1042 48.0006Z" fill="#00CEBD"/>
<path d="M33.8366 0H16.4474L15.6504 4.50528H34.2604L33.8366 0Z" fill="#00CEBD"/>
<g opacity="0.1">
<path d="M61.1042 48.0006H7.96875L15.651 4.50586H68.7865L61.1042 48.0006Z" fill="black"/>
<path d="M33.8366 0H16.4474L15.6504 4.50528H34.2604L33.8366 0Z" fill="black"/>
</g>
<path d="M14.5716 1.83874C14.5036 1.58632 14.4879 1.3339 14.4844 1.08148C14.4861 0.829062 14.5018 0.57664 14.5716 0.324219C14.6413 0.57664 14.657 0.829062 14.6588 1.08148C14.6553 1.3339 14.6396 1.58632 14.5716 1.83874Z" fill="#263238"/>
<path d="M13.0262 2.28524C12.8396 2.10072 12.7001 1.89008 12.571 1.67247C12.4472 1.45313 12.3338 1.22682 12.2676 0.972656C12.4542 1.15718 12.5937 1.36783 12.7228 1.58543C12.8466 1.80478 12.9599 2.03108 13.0262 2.28524Z" fill="#263238"/>
<path d="M11.9107 3.44281C11.6578 3.37666 11.4311 3.2635 11.2096 3.1399C10.9916 3.01108 10.7806 2.87182 10.5957 2.68555C10.8486 2.7517 11.0753 2.86485 11.2968 2.98845C11.5148 3.11727 11.7258 3.25654 11.9107 3.44281Z" fill="#263238"/>
<path d="M11.5251 5.00126C11.2722 5.06928 11.0193 5.08497 10.7664 5.08846C10.5136 5.08672 10.2607 5.07102 10.0078 5.00126C10.2607 4.9315 10.5136 4.91581 10.7664 4.91406C11.0193 4.91755 11.2722 4.93325 11.5251 5.00126Z" fill="#263238"/>
<path d="M11.9712 6.54297C11.7863 6.72924 11.5753 6.8685 11.3573 6.99733C11.1376 7.12093 10.9109 7.23408 10.6562 7.30023C10.8411 7.11396 11.0521 6.9747 11.2701 6.84587C11.4899 6.72228 11.7166 6.60912 11.9712 6.54297Z" fill="#263238"/>
<path d="M13.1317 7.65625C13.0654 7.90867 12.952 8.13498 12.8282 8.35606C12.6992 8.57367 12.5597 8.78431 12.373 8.96884C12.4393 8.71642 12.5527 8.49011 12.6765 8.26902C12.8056 8.05142 12.9451 7.84078 13.1317 7.65625Z" fill="#263238"/>
<path d="M14.6946 8.04102C14.7626 8.29344 14.7783 8.54586 14.7818 8.79828C14.7801 9.0507 14.7644 9.30312 14.6946 9.55554C14.6249 9.30312 14.6092 9.0507 14.6074 8.79828C14.6109 8.54586 14.6266 8.29344 14.6946 8.04102Z" fill="#263238"/>
<path d="M16.2383 7.5957C16.4249 7.78023 16.5644 7.99087 16.6935 8.20848C16.8173 8.42782 16.9306 8.65413 16.9969 8.90829C16.8103 8.72376 16.6708 8.51312 16.5417 8.29552C16.4179 8.07617 16.3046 7.84986 16.2383 7.5957Z" fill="#263238"/>
<path d="M17.3535 6.4375C17.6064 6.50365 17.8331 6.6168 18.0546 6.7404C18.2726 6.86922 18.4836 7.00849 18.6685 7.19476C18.4156 7.12861 18.1889 7.01545 17.9674 6.89185C17.7494 6.76303 17.5384 6.62377 17.3535 6.4375Z" fill="#263238"/>
<path d="M17.7383 4.87821C17.9912 4.8102 18.244 4.7945 18.4969 4.79102C18.7498 4.79276 19.0027 4.80846 19.2555 4.87821C19.0027 4.94797 18.7498 4.96367 18.4969 4.96541C18.244 4.96193 17.9912 4.94623 17.7383 4.87821Z" fill="#263238"/>
<path d="M17.293 3.33539C17.4778 3.14912 17.6888 3.00985 17.9068 2.88103C18.1266 2.75743 18.3533 2.64428 18.6079 2.57812C18.4231 2.76439 18.212 2.90366 17.994 3.03248C17.7743 3.15608 17.5476 3.26924 17.293 3.33539Z" fill="#263238"/>
<path d="M16.1328 2.22274C16.1991 1.97032 16.3124 1.74401 16.4363 1.52293C16.5653 1.30532 16.7048 1.09468 16.8914 0.910156C16.8252 1.16258 16.7118 1.38888 16.588 1.60997C16.4589 1.82757 16.3194 2.03822 16.1328 2.22274Z" fill="#263238"/>
<path d="M61.0256 47.9998H7.77498L0.214844 6.08398H53.4654L61.0256 47.9998Z" fill="#00CEBD"/>
<path d="M18.6682 31.7073C19.8905 31.7073 20.8813 30.7182 20.8813 29.4982C20.8813 28.2781 19.8905 27.2891 18.6682 27.2891C17.4459 27.2891 16.4551 28.2781 16.4551 29.4982C16.4551 30.7182 17.4459 31.7073 18.6682 31.7073Z" fill="#263238"/>
<path d="M36.1643 31.7073C37.3865 31.7073 38.3774 30.7182 38.3774 29.4982C38.3774 28.2781 37.3865 27.2891 36.1643 27.2891C34.942 27.2891 33.9512 28.2781 33.9512 29.4982C33.9512 30.7182 34.942 31.7073 36.1643 31.7073Z" fill="#263238"/>
<path d="M30.5955 32.0584L30.4734 31.8269C30.4629 31.806 29.3189 29.6961 27.0186 29.6961C24.9206 29.6961 24.4096 31.6824 24.3886 31.7677L24.3259 32.0201L23.8184 31.8982L23.8794 31.6441C23.8846 31.6197 24.502 29.1738 27.0186 29.1738C29.5351 29.1738 30.885 31.4857 30.9373 31.5849L31.0594 31.8164L30.5955 32.0584Z" fill="#263238"/>
</svg>
