<svg width="47" height="20" viewBox="0 0 47 20" fill="none" xmlns="http://www.w3.org/2000/svg">
<g clip-path="url(#clip0_1376_8102)">
<rect x="0.824463" y="0.0158081" width="45.7815" height="19.9664" rx="9.98319" fill="white"/>
<path d="M23.7167 -10.9097H0.636719V30.9067H23.7167V-10.9097Z" fill="#81D9FF"/>
<path d="M7.97262 4.00031C4.67022 4.00031 1.99805 6.68408 1.99805 10.0008C1.99805 13.3176 4.67022 16.0013 7.97262 16.0013C11.275 16.0013 13.9472 13.3176 13.9472 10.0008C13.9472 6.7094 11.275 4.00031 7.97262 4.00031Z" fill="#FFE602"/>
<path d="M17.4253 10.4992C17.1802 10.4992 16.9727 10.3106 16.9727 10.0843C16.9727 9.85801 17.1802 9.66943 17.4253 9.66943H18.2173C18.4625 9.66943 18.6699 9.85801 18.6699 10.0843C18.6699 10.3106 18.4625 10.4992 18.2173 10.4992H17.4253Z" fill="#FF7702"/>
<path d="M24.8926 23.1141C24.9137 23.0576 24.9137 23.0199 24.9349 22.9634C25.0404 22.2853 24.5127 21.7014 23.795 21.5507C23.6261 21.513 23.4361 21.4942 23.2673 21.513C23.2673 21.4942 23.2673 21.4942 23.2884 21.4753C23.3728 21.2304 23.415 20.9291 23.3306 20.6842C23.2251 20.4393 23.0984 20.1945 22.8873 19.9873C22.5074 19.6105 21.9586 19.4033 21.4097 19.328C21.1142 19.2903 20.8398 19.3092 20.5443 19.3468C20.5443 19.1585 20.5232 18.9513 20.4599 18.7629C20.3121 18.2543 19.8688 17.8211 19.4044 17.5385C18.9189 17.2372 18.3068 17.1807 17.7158 17.2937C17.6524 17.3125 17.5891 17.3125 17.5258 17.3313C17.3147 16.917 16.787 16.6721 16.3015 16.5779C15.9849 16.5214 15.626 16.5402 15.3094 16.6156C14.9928 16.6909 14.7395 16.8416 14.5073 17.0111C14.2751 17.1807 14.0851 17.4255 13.9584 17.6704C13.8107 17.9341 13.7896 18.2543 13.7896 18.5369C13.7896 18.7817 13.8951 18.9889 14.0218 19.1773C13.9584 19.215 13.8951 19.2526 13.8318 19.2903C13.6418 19.441 13.4941 19.6294 13.4307 19.8366C13.3463 19.7989 13.283 19.7801 13.1985 19.7612C12.903 19.6859 12.5864 19.667 12.2698 19.6859C11.9742 19.7047 11.6787 19.7989 11.4043 19.9307C10.8555 20.1756 10.3489 20.4582 10.0534 20.9479C9.99005 21.0798 9.92672 21.2304 9.90562 21.3811C9.8634 21.3623 9.80007 21.3623 9.75785 21.3435C9.35679 21.2681 8.97684 21.3058 8.59689 21.4376C7.92142 21.6637 7.49925 22.3418 7.45703 22.9445C7.45703 23.0011 7.45703 23.0387 7.45703 23.0952H24.8926V23.1141Z" fill="white"/>
<path d="M46.6057 -12.0401H23.7149V29.7763H46.6057V-12.0401Z" fill="#2D3151"/>
<path d="M37.736 0.619606L38.209 0.0733103L38.928 0.167499L38.5685 -0.454149L38.8712 -1.11347L38.1712 -0.943932L37.6414 -1.43372L37.5658 -0.717879L36.9414 -0.378798L37.6036 -0.0773928L37.736 0.619606Z" fill="#2D3151"/>
<path d="M35.2762 4.51788C34.3302 4.51788 33.4599 4.76277 32.7031 5.19604C34.86 5.59164 36.506 7.47542 36.506 9.73596C36.506 11.9588 34.9167 13.8238 32.8166 14.257C33.5545 14.6526 34.387 14.8787 35.2762 14.8787C38.152 14.8787 40.4791 12.5616 40.4791 9.69828C40.4791 6.83493 38.152 4.51788 35.2762 4.51788Z" fill="#2D3151"/>
<path d="M42.1243 11.6754L41.6702 11.7696L41.3486 11.4682L41.2918 11.9203L40.8945 12.1275L41.3108 12.3159L41.4054 12.7492L41.7081 12.4101L42.1621 12.4666L41.9351 12.071L42.1243 11.6754Z" fill="#2D3151"/>
<path d="M29.3374 18.0791L29.0914 18.1356L28.9022 17.9661L28.8833 18.211L28.6562 18.3428L28.9022 18.437L28.94 18.6819L29.1103 18.4935L29.3563 18.5312L29.2428 18.3051L29.3374 18.0791Z" fill="#2D3151"/>
<path d="M33.5749 8.47205L32.9127 7.8504L32.8181 8.75462L32.0235 9.20673L32.856 9.56464L33.0452 10.4689L33.6506 9.77186L34.5587 9.88489L34.0857 9.0937L34.483 8.26484L33.5749 8.47205Z" fill="#2D3151"/>
<path d="M36.0696 9.25296C37.668 7.65452 37.8362 5.15858 36.5908 3.35374C37.4323 3.5825 38.2342 4.03811 38.8897 4.69364C40.9232 6.72712 40.9303 10.011 38.9056 12.0357C36.881 14.0604 33.597 14.0533 31.5636 12.0198C30.9348 11.3911 30.506 10.6426 30.264 9.8411C32.0687 11.0331 34.4845 10.8381 36.0696 9.25296Z" fill="#FFE400"/>
<path d="M28.4559 15.8758L27.8181 15.8227L27.3766 16.3535L27.2784 15.6634L26.6406 15.345L27.2294 15.0265L27.2784 14.3365L27.769 14.8142L28.4068 14.655L28.1615 15.2919L28.4559 15.8758Z" fill="#FFE700"/>
<path d="M30.0671 9.03035L29.7058 8.97774L29.465 9.29344L29.3897 8.88127L29.0586 8.71465L29.3747 8.50419L29.4123 8.08325L29.6757 8.37264L30.037 8.27618L29.8789 8.66204L30.0671 9.03035Z" fill="#FFE700"/>
</g>
<defs>
<clipPath id="clip0_1376_8102">
<rect x="0.824463" y="0.0158081" width="45.7815" height="19.9664" rx="9.98319" fill="white"/>
</clipPath>
</defs>
</svg>
