<svg width="24" height="24" viewBox="0 0 24 24" fill="none" xmlns="http://www.w3.org/2000/svg">
<g clip-path="url(#clip0_405_8539)">
<path d="M16 3V10.74" stroke="#475569" stroke-width="1.5" stroke-linecap="round" stroke-linejoin="round"/>
<path d="M8 10.74V3" stroke="#475569" stroke-width="1.5" stroke-linecap="round" stroke-linejoin="round"/>
<path d="M11.999 19.3255L15.007 20.9065C15.593 21.2145 16.277 20.7165 16.165 20.0645L15.59 16.7155L18.024 14.3445C18.498 13.8825 18.237 13.0775 17.582 12.9825L14.219 12.4935L12.715 9.44452C12.422 8.85052 11.576 8.85052 11.283 9.44452L9.78 12.4935L6.417 12.9825C5.762 13.0775 5.501 13.8825 5.975 14.3445L8.409 16.7155L7.834 20.0645C7.722 20.7165 8.406 21.2135 8.992 20.9065L12 19.3255" stroke="#475569" stroke-width="1.5" stroke-linecap="round" stroke-linejoin="round"/>
<path d="M10.062 11.922L6.005 9.596C5.384 9.24 5 8.578 5 7.861V5C5 3.895 5.895 3 7 3H17C18.105 3 19 3.895 19 5V7.861C19 8.578 18.617 9.24 17.995 9.596L13.938 11.922" stroke="#475569" stroke-width="1.5" stroke-linecap="round" stroke-linejoin="round"/>
</g>
<defs>
<clipPath id="clip0_405_8539">
<rect width="24" height="24" fill="white"/>
</clipPath>
</defs>
</svg>
