<svg width="64" height="64" viewBox="0 0 64 64" fill="none" xmlns="http://www.w3.org/2000/svg">
<circle cx="32" cy="32" r="32" fill="#F4A022" fill-opacity="0.16"/>
<g clip-path="url(#clip0_674_6383)">
<path d="M37.9303 24H26.0697C25.663 24 25.3333 24.3297 25.3333 24.7364V27.2636C25.3333 27.6703 25.663 28 26.0697 28H37.9303C38.337 28 38.6667 27.6703 38.6667 27.2636V24.7364C38.6667 24.3297 38.337 24 37.9303 24Z" stroke="#F4A022" stroke-width="2" stroke-linecap="round" stroke-linejoin="round"/>
<path d="M26.7761 28L23.3128 31.958V31.958C21.1737 34.4027 20.7253 37.8982 22.178 40.8037L22.3021 41.0517H22.302C23.2054 42.8586 25.0522 44 27.0723 44H36.9431V44C38.9632 44 40.81 42.8586 41.7133 41.0518L41.8219 40.8346V40.8346C43.2824 37.9137 42.8208 34.3982 40.6557 31.9533L37.1549 28" stroke="#F4A022" stroke-width="2" stroke-linecap="round" stroke-linejoin="round"/>
<path d="M36.6013 24L37.6624 21.945V21.945C38.0002 21.2907 37.7436 20.4864 37.0893 20.1486C36.9002 20.0509 36.6904 20 36.4776 20H27.5223V20C26.7859 20 26.189 20.597 26.189 21.3334C26.189 21.5462 26.2399 21.7559 26.3376 21.945L27.3987 24" stroke="#F4A022" stroke-width="2" stroke-linecap="round" stroke-linejoin="round"/>
</g>
<defs>
<clipPath id="clip0_674_6383">
<rect width="32" height="32" fill="white" transform="translate(16 16)"/>
</clipPath>
</defs>
</svg>
