<svg width="24" height="28" viewBox="0 0 24 28" fill="none" xmlns="http://www.w3.org/2000/svg">
<path opacity="0.4" d="M21.0784 10.028C20.4764 10.028 19.679 10.0147 18.6862 10.0147C16.2649 10.0147 14.2741 8.01069 14.2741 5.56669V1.27869C14.2741 0.941354 14.0047 0.666687 13.6707 0.666687H6.61817C3.32689 0.666687 0.666672 3.36802 0.666672 6.67869V21.0454C0.666672 24.5187 3.45363 27.3334 6.89278 27.3334H17.395C20.6744 27.3334 23.3333 24.6494 23.3333 21.336V10.628C23.3333 10.2894 23.0653 10.016 22.73 10.0174C22.1663 10.0214 21.4903 10.028 21.0784 10.028Z" fill="#008DFF"/>
<path opacity="0.4" d="M17.4453 1.4231C17.0466 1.00843 16.3506 1.29377 16.3506 1.86843V5.38443C16.3506 6.8591 17.5653 8.07243 19.04 8.07243C19.9693 8.0831 21.26 8.08577 22.356 8.0831C22.9173 8.08177 23.2026 7.4111 22.8133 7.00577C21.4066 5.5431 18.888 2.92177 17.4453 1.4231Z" fill="#008DFF"/>
<path fill-rule="evenodd" clip-rule="evenodd" d="M7.96524 13.1835H12.4786C13.0266 13.1835 13.4719 12.7395 13.4719 12.1915C13.4719 11.6435 13.0266 11.1981 12.4786 11.1981H7.96524C7.41724 11.1981 6.97324 11.6435 6.97324 12.1915C6.97324 12.7395 7.41724 13.1835 7.96524 13.1835ZM7.96534 19.8424H15.224C15.772 19.8424 16.2173 19.3984 16.2173 18.8504C16.2173 18.3024 15.772 17.857 15.224 17.857H7.96534C7.41734 17.857 6.97334 18.3024 6.97334 18.8504C6.97334 19.3984 7.41734 19.8424 7.96534 19.8424Z" fill="#008DFF"/>
</svg>
