<svg width="24" height="24" viewBox="0 0 24 24" fill="none" xmlns="http://www.w3.org/2000/svg">
<mask id="mask0_227_8795" style="mask-type:alpha" maskUnits="userSpaceOnUse" x="3" y="0" width="18" height="24">
<path d="M3 0.75C3 0.335786 3.33579 0 3.75 0H15V5.25C15 5.66421 15.3358 6 15.75 6H21V23.25C21 23.6642 20.6642 24 20.25 24H3.75C3.33579 24 3 23.6642 3 23.25V0.75Z" fill="#47A7FF"/>
</mask>
<g mask="url(#mask0_227_8795)">
<path d="M3.75 1.875C3.75 1.25368 4.25368 0.75 4.875 0.75H14.25V5.625C14.25 6.24632 14.7537 6.75 15.375 6.75H20.25V22.125C20.25 22.7463 19.7463 23.25 19.125 23.25H4.875C4.25368 23.25 3.75 22.7463 3.75 22.125V1.875Z" fill="#FF4444"/>
</g>
<path opacity="0.5" d="M14.25 5.625V0.75L20.25 6.75H15.375C14.7537 6.75 14.25 6.24632 14.25 5.625Z" fill="#FF4444"/>
<path d="M7.5135 18.875V15.1475H9.09375C9.26525 15.1475 9.42275 15.1825 9.56625 15.2525C9.70975 15.3225 9.834 15.417 9.939 15.536C10.0475 15.655 10.1315 15.788 10.191 15.935C10.2505 16.082 10.2803 16.2325 10.2803 16.3865C10.2803 16.5965 10.2313 16.796 10.1333 16.985C10.0353 17.174 9.9005 17.328 9.729 17.447C9.5575 17.566 9.3545 17.6255 9.12 17.6255H8.238V18.875H7.5135ZM8.238 16.9902H9.078C9.1655 16.9902 9.24425 16.9657 9.31425 16.9167C9.38425 16.8677 9.44025 16.7977 9.48225 16.7067C9.52425 16.6122 9.54525 16.5055 9.54525 16.3865C9.54525 16.257 9.52075 16.1467 9.47175 16.0557C9.42625 15.9647 9.365 15.8965 9.288 15.851C9.2145 15.8055 9.134 15.7827 9.0465 15.7827H8.238V16.9902ZM10.7845 18.875V15.1475H12.139C12.545 15.1475 12.8845 15.2315 13.1575 15.3995C13.4305 15.564 13.6352 15.788 13.7717 16.0715C13.9082 16.3515 13.9765 16.663 13.9765 17.006C13.9765 17.384 13.9012 17.713 13.7507 17.993C13.6002 18.273 13.3867 18.49 13.1102 18.644C12.8372 18.798 12.5135 18.875 12.139 18.875H10.7845ZM13.2467 17.006C13.2467 16.7645 13.203 16.5527 13.1155 16.3707C13.028 16.1852 12.902 16.0417 12.7375 15.9402C12.573 15.8352 12.3735 15.7827 12.139 15.7827H11.509V18.2397H12.139C12.377 18.2397 12.5782 18.1872 12.7427 18.0822C12.9072 17.9737 13.0315 17.8267 13.1155 17.6412C13.203 17.4522 13.2467 17.2405 13.2467 17.006ZM14.5426 18.875V15.1475H17.0468V15.7827H15.2671V16.7435H16.7476V17.3315H15.2671V18.875H14.5426Z" fill="white"/>
</svg>
