<svg width="24" height="20" viewBox="0 0 24 20" fill="none" xmlns="http://www.w3.org/2000/svg">
<path d="M4.63308 14.3816H0.251953V8.28783C0.251953 7.64972 0.768979 7.13281 1.40697 7.13281H22.5956C23.2337 7.13281 23.7507 7.64984 23.7507 8.28783V14.3816H19.3695" fill="#DFE8ED"/>
<path d="M23.7787 14.4101H19.3689V14.3527H23.7214V8.28771C23.7214 7.66659 23.216 7.16139 22.595 7.16139H1.40636C0.785245 7.16139 0.28004 7.66671 0.28004 8.28771V14.3527H4.63247V14.4101H0.222656V8.28771C0.222656 7.63492 0.753684 7.104 1.40636 7.104H22.595C23.2477 7.104 23.7787 7.63503 23.7787 8.28771V14.4101Z" fill="#000072"/>
<g opacity="0.3">
<path d="M0.251953 12.2617H4.12753C4.03801 12.4722 3.98866 12.7041 3.98866 12.9477V14.3811H0.251953V12.2618V12.2617Z" fill="#263069"/>
<path d="M4.01675 14.4096H0.222656V12.2329H4.1703L4.15332 12.2728C4.06265 12.4861 4.01675 12.7131 4.01675 12.9476V14.4097V14.4096ZM0.28004 14.3522H3.95936V12.9475C3.95936 12.7199 4.00125 12.4989 4.08411 12.2902H0.28004V14.3521V14.3522Z" fill="#000072"/>
</g>
<g opacity="0.3">
<path d="M23.7486 12.2613V14.3806H20.0119V12.9472C20.0119 12.7038 19.9626 12.4718 19.873 12.2612H23.7486V12.2613Z" fill="#000072"/>
</g>
<path d="M19.3677 14.3809H23.7488L23.1115 16.7705H19.3677H18.3321H5.66667H4.63112H0.887302L0.25 14.3809H4.63112" fill="#4089FF"/>
<g opacity="0.3">
<path d="M23.7484 14.3809L23.1112 16.7708H0.887187L0.25 14.3809H0.583628C1.06829 15.2651 2.00479 15.84 3.04871 15.84H20.9495C21.9934 15.84 22.9299 15.265 23.4146 14.3809H23.7482H23.7484Z" fill="#000072"/>
</g>
<path d="M23.7495 14.6318H19.3683C19.2299 14.6318 19.1178 14.5196 19.1178 14.3812C19.1178 14.2428 19.23 14.1305 19.3683 14.1305H23.4988V8.28739C23.4988 7.78861 23.0931 7.38291 22.5944 7.38291H1.40578C0.90712 7.38291 0.501303 7.78861 0.501303 8.28739V14.1305H4.63178C4.77018 14.1305 4.88243 14.2428 4.88243 14.3812C4.88243 14.5196 4.77018 14.6318 4.63178 14.6318H0.250652C0.112243 14.6318 0 14.5196 0 14.3812V8.2875C0 7.51248 0.630531 6.88184 1.40567 6.88184H22.5943C23.3694 6.88184 24 7.51248 24 8.2875V14.3812C24 14.5196 23.8878 14.6318 23.7494 14.6318H23.7495Z" fill="#000072"/>
<path d="M23.1121 17.0214H0.887936C0.774431 17.0214 0.675043 16.945 0.645777 16.8353L0.00847467 14.4456C-0.0116096 14.3705 0.00445816 14.2901 0.051857 14.2284C0.0992559 14.1666 0.172707 14.1304 0.250519 14.1304H4.63164C4.77005 14.1304 4.88229 14.2426 4.88229 14.381C4.88229 14.5194 4.77005 14.6317 4.63164 14.6317H0.576687L1.08029 16.5202H22.9195L23.423 14.6317H19.3681C19.2297 14.6317 19.1176 14.5194 19.1176 14.381C19.1176 14.2426 19.2298 14.1304 19.3681 14.1304H23.7492C23.827 14.1304 23.9005 14.1665 23.9479 14.2284C23.9953 14.2901 24.0113 14.3704 23.9913 14.4456L23.3541 16.8353C23.3248 16.945 23.2254 17.0214 23.1119 17.0214H23.1121Z" fill="#000072"/>
<path d="M5.748 11.832H18.2541C18.8696 11.832 19.3693 12.3317 19.3693 12.9472V16.7707H4.63281V12.9472C4.63281 12.3317 5.13251 11.832 5.748 11.832Z" fill="#4089FF"/>
<g opacity="0.55">
<path d="M19.3689 12.9468V13.3763C19.3689 12.7606 18.8699 12.2616 18.2542 12.2616H5.74755C5.13182 12.2616 4.63281 12.7606 4.63281 13.3763V12.9468C4.63281 12.331 5.13182 11.832 5.74755 11.832H18.2542C18.8699 11.832 19.3689 12.331 19.3689 12.9468Z" fill="white"/>
</g>
<g opacity="0.3">
<path d="M19.369 14.8193H4.63281V16.7711H19.369V14.8193Z" fill="#000072"/>
</g>
<path d="M19.3681 17.0214H4.63151C4.4931 17.0214 4.38086 16.9092 4.38086 16.7707V12.9473C4.38086 12.1942 4.9936 11.5815 5.7467 11.5815H18.2528C19.0059 11.5815 19.6186 12.1942 19.6186 12.9473V16.7707C19.6186 16.9092 19.5064 17.0214 19.368 17.0214H19.3681ZM4.88216 16.5202H19.1174V12.9473C19.1174 12.4705 18.7296 12.0827 18.2529 12.0827H5.7467C5.26996 12.0827 4.88216 12.4705 4.88216 12.9473V16.5202Z" fill="#000072"/>
<path d="M18.3321 17.0216H5.66667C5.52826 17.0216 5.41602 16.9094 5.41602 16.771V12.9475C5.41602 12.7654 5.56418 12.6172 5.74632 12.6172H18.2524C18.4345 12.6172 18.5827 12.7654 18.5827 12.9475V16.771C18.5827 16.9094 18.4704 17.0216 18.332 17.0216H18.3321ZM5.91732 16.5204H18.0815V13.1184H5.91732V16.5204Z" fill="#000072"/>
<path d="M18.2759 19.4521H5.80497C5.50347 19.4521 5.26579 19.1956 5.28863 18.8949L5.59919 14.8189L5.74735 12.8672H18.3335L18.4817 14.8189L18.7923 18.8949C18.8152 19.1955 18.5774 19.4521 18.2759 19.4521Z" fill="white"/>
<path d="M18.2741 19.703H5.80354C5.5903 19.703 5.38487 19.6133 5.23992 19.4568C5.09497 19.3004 5.02117 19.0888 5.03735 18.8761L5.49619 12.8483C5.50618 12.7176 5.61509 12.6167 5.74604 12.6167H18.3318C18.4628 12.6167 18.5717 12.7176 18.5816 12.8483L19.0403 18.8761C19.0565 19.0886 18.9827 19.3003 18.8378 19.4567C18.6928 19.6131 18.4874 19.7029 18.2741 19.7029V19.703ZM5.97821 13.118L5.53705 18.9142C5.53131 18.9893 5.55633 19.061 5.60752 19.1162C5.6587 19.1714 5.72825 19.2018 5.80354 19.2018H18.2743C18.3495 19.2018 18.4191 19.1714 18.4703 19.1162C18.5215 19.061 18.5465 18.9893 18.5407 18.9143L18.0996 13.118H5.97821Z" fill="#000072"/>
<path d="M5.44269 3.68066H18.5595C19.0248 3.68066 19.4026 4.05836 19.4026 4.52374V7.13252H4.59961V4.52374C4.59961 4.05848 4.97731 3.68066 5.44269 3.68066Z" fill="#4089FF"/>
<g opacity="0.3">
<path d="M19.4011 5.67676H4.59766V7.13235H19.4011V5.67676Z" fill="#000072"/>
</g>
<g opacity="0.55">
<path d="M19.4012 4.5234V5.04318C19.4012 4.5778 19.0232 4.19976 18.5578 4.19976H5.44108C4.9757 4.19976 4.59766 4.5778 4.59766 5.04318V4.5234C4.59766 4.05802 4.9757 3.68066 5.44108 3.68066H18.5577C19.0231 3.68066 19.4011 4.05802 19.4011 4.5234H19.4012Z" fill="white"/>
</g>
<path d="M19.4012 7.3831H4.59831C4.4599 7.3831 4.34766 7.27086 4.34766 7.13245V4.52379C4.34766 3.92081 4.83829 3.43018 5.44127 3.43018H18.5581C19.1611 3.43018 19.6517 3.92081 19.6517 4.52379V7.13245C19.6517 7.27086 19.5395 7.3831 19.4012 7.3831ZM4.84896 6.88191H19.1507V4.52379C19.1507 4.19717 18.885 3.93136 18.5582 3.93136H5.44139C5.11476 3.93136 4.84896 4.19717 4.84896 4.52379V6.88191Z" fill="#000072"/>
<path d="M19.4027 10.2887C19.7674 10.2887 20.0632 9.99304 20.0632 9.62826C20.0632 9.26348 19.7674 8.96777 19.4027 8.96777C19.0379 8.96777 18.7422 9.26348 18.7422 9.62826C18.7422 9.99304 19.0379 10.2887 19.4027 10.2887Z" fill="#F2355D"/>
<path d="M19.4021 10.3173C19.0221 10.3173 18.7129 10.0081 18.7129 9.62814C18.7129 9.24815 19.0221 8.93896 19.4021 8.93896C19.7821 8.93896 20.0912 9.24815 20.0912 9.62814C20.0912 10.0081 19.7821 10.3173 19.4021 10.3173ZM19.4021 8.99635C19.0537 8.99635 18.7703 9.27971 18.7703 9.62814C18.7703 9.97658 19.0536 10.2599 19.4021 10.2599C19.7505 10.2599 20.0339 9.97646 20.0339 9.62814C20.0339 9.27982 19.7505 8.99635 19.4021 8.99635Z" fill="#000072"/>
<path d="M21.7933 10.2887C22.1581 10.2887 22.4538 9.99304 22.4538 9.62826C22.4538 9.26348 22.1581 8.96777 21.7933 8.96777C21.4285 8.96777 21.1328 9.26348 21.1328 9.62826C21.1328 9.99304 21.4285 10.2887 21.7933 10.2887Z" fill="#8AC457"/>
<path d="M21.7927 10.3173C21.4127 10.3173 21.1035 10.0081 21.1035 9.62814C21.1035 9.24815 21.4127 8.93896 21.7927 8.93896C22.1727 8.93896 22.4819 9.24815 22.4819 9.62814C22.4819 10.0081 22.1727 10.3173 21.7927 10.3173ZM21.7927 8.99635C21.4444 8.99635 21.1609 9.27971 21.1609 9.62814C21.1609 9.97658 21.4443 10.2599 21.7927 10.2599C22.1411 10.2599 22.4245 9.97646 22.4245 9.62814C22.4245 9.27982 22.1411 8.99635 21.7927 8.99635Z" fill="#000072"/>
<g opacity="0.3">
<path d="M20.5371 10.022C20.5371 10.3864 20.2414 10.6821 19.8763 10.6821C19.6013 10.6821 19.3651 10.5132 19.2656 10.274C19.31 10.2833 19.3551 10.2883 19.4024 10.2883C19.7668 10.2883 20.0626 9.99271 20.0626 9.62821C20.0626 9.53869 20.0447 9.45284 20.0124 9.37549C20.3124 9.43781 20.5372 9.70338 20.5372 10.022H20.5371Z" fill="#000072"/>
</g>
<g opacity="0.3">
<path d="M22.9279 10.022C22.9279 10.3864 22.6322 10.6821 22.2677 10.6821C21.9921 10.6821 21.7558 10.5132 21.6562 10.274C21.7007 10.2833 21.7465 10.2883 21.7931 10.2883C22.1582 10.2883 22.4539 9.99271 22.4539 9.62821C22.4539 9.53869 22.436 9.45284 22.4037 9.37549C22.703 9.43781 22.9279 9.70338 22.9279 10.022Z" fill="#000072"/>
</g>
<g opacity="0.55">
<path d="M19.9861 9.3218C19.9031 9.28381 19.8108 9.26304 19.714 9.26304C19.3496 9.26304 19.0539 9.55868 19.0539 9.92318C19.0539 10.0342 19.0811 10.1387 19.1291 10.2303C18.9 10.1264 18.7402 9.89598 18.7402 9.62812C18.7402 9.26293 19.036 8.96729 19.4011 8.96729C19.6553 8.96729 19.8757 9.1112 19.986 9.32168L19.9861 9.3218Z" fill="#E9F0F4"/>
</g>
<g opacity="0.55">
<path d="M22.3786 9.32217C22.2955 9.28419 22.2032 9.26341 22.1065 9.26341C21.7413 9.26341 21.4457 9.55905 21.4457 9.92356C21.4457 10.0345 21.4729 10.1384 21.5208 10.23C21.2918 10.1261 21.1328 9.89567 21.1328 9.6286C21.1328 9.26341 21.4286 8.96777 21.793 8.96777C22.0472 8.96777 22.2683 9.11169 22.3786 9.32217Z" fill="#E9F0F4"/>
</g>
<path d="M19.4013 10.5394C18.8989 10.5394 18.4902 10.1306 18.4902 9.62831C18.4902 9.12597 18.8989 8.71729 19.4013 8.71729C19.9036 8.71729 20.3124 9.12597 20.3124 9.62831C20.3124 10.1306 19.9037 10.5394 19.4013 10.5394ZM19.4013 9.21847C19.1753 9.21847 18.9914 9.40233 18.9914 9.62831C18.9914 9.85429 19.1753 10.0383 19.4013 10.0383C19.6272 10.0383 19.8112 9.8544 19.8112 9.62831C19.8112 9.40222 19.6273 9.21847 19.4013 9.21847Z" fill="#000072"/>
<path d="M21.7938 10.5394C21.2915 10.5394 20.8828 10.1306 20.8828 9.62831C20.8828 9.12597 21.2915 8.71729 21.7938 8.71729C22.2962 8.71729 22.705 9.12597 22.705 9.62831C22.705 10.1306 22.2963 10.5394 21.7938 10.5394ZM21.7938 9.21847C21.5679 9.21847 21.384 9.40233 21.384 9.62831C21.384 9.85429 21.5679 10.0383 21.7938 10.0383C22.0198 10.0383 22.2038 9.8544 22.2038 9.62831C22.2038 9.40222 22.0199 9.21847 21.7938 9.21847Z" fill="#000072"/>
<path d="M18.3319 2.88448V7.13259H5.74609V1.07001C5.74609 0.781374 5.9801 0.547363 6.26874 0.547363H15.7964L18.3318 2.88448H18.3319Z" fill="white"/>
<g opacity="0.3">
<path d="M18.3323 3.842H16.2398C15.9952 3.842 15.7969 3.64368 15.7969 3.39912V1.50488L18.3323 2.84031V3.842Z" fill="#000072"/>
</g>
<path d="M18.3326 7.3828H5.74674C5.60834 7.3828 5.49609 7.27056 5.49609 7.13215V1.06969C5.49609 0.643328 5.84304 0.296387 6.2694 0.296387H15.797C15.8599 0.296387 15.9206 0.320144 15.9669 0.362722L18.5023 2.69984C18.5537 2.74724 18.5831 2.81415 18.5831 2.88404V7.13215C18.5831 7.27056 18.4709 7.3828 18.3325 7.3828H18.3326ZM5.9974 6.88161H18.0819V2.99399L15.6992 0.79769H6.26951C6.11951 0.79769 5.9974 0.919688 5.9974 1.0698V6.88173V6.88161Z" fill="#000072"/>
<path d="M18.3324 2.88411H15.7969V0.546875L18.3324 2.88411Z" fill="white"/>
<path d="M18.333 3.13477H15.7975C15.6591 3.13477 15.5469 3.02252 15.5469 2.88411V0.546995C15.5469 0.447492 15.6057 0.3574 15.6969 0.317461C15.788 0.277522 15.8942 0.295311 15.9673 0.36268L18.5027 2.6998C18.5786 2.76981 18.6038 2.87907 18.5663 2.97524C18.5288 3.07142 18.436 3.13465 18.3328 3.13465L18.333 3.13477ZM16.0481 2.63358H17.6913L16.0481 1.11888V2.63358Z" fill="#000072"/>
<path d="M18.3328 3.13462C18.2721 3.13462 18.2111 3.1127 18.163 3.06828L15.6276 0.731162C15.5259 0.637397 15.5194 0.478789 15.6132 0.377105C15.707 0.275421 15.8655 0.268879 15.9673 0.362759L18.5027 2.69988C18.6044 2.79364 18.611 2.95225 18.5171 3.05394C18.4677 3.10753 18.4004 3.13473 18.3328 3.13473V3.13462Z" fill="#000072"/>
<g opacity="0.3">
<path d="M18.4802 14.8189H5.59766L5.74582 12.8672H18.332L18.4802 14.8189Z" fill="#000072"/>
</g>
<g opacity="0.3">
<path d="M18.3326 5.04297H5.91406V7.13208H18.3326V5.04297Z" fill="#000072"/>
</g>
<g opacity="0.31">
<path d="M10.7596 18.0788H7.2513C7.15249 18.0788 7.07227 17.9987 7.07227 17.8997C7.07227 17.8008 7.15237 17.7207 7.2513 17.7207H10.7596C10.8584 17.7207 10.9387 17.8008 10.9387 17.8997C10.9387 17.9987 10.8585 18.0788 10.7596 18.0788Z" fill="#000072"/>
<path d="M11.8337 15.9743H7.34701C7.24819 15.9743 7.16797 15.8942 7.16797 15.7952C7.16797 15.6963 7.24808 15.6162 7.34701 15.6162H11.8337C11.9325 15.6162 12.0128 15.6963 12.0128 15.7952C12.0128 15.8942 11.9326 15.9743 11.8337 15.9743Z" fill="#000072"/>
<path d="M9.86488 16.9504H7.34701C7.24819 16.9504 7.16797 16.8702 7.16797 16.7713C7.16797 16.6724 7.24808 16.5923 7.34701 16.5923H9.86488C9.9637 16.5923 10.0439 16.6724 10.0439 16.7713C10.0439 16.8702 9.96381 16.9504 9.86488 16.9504Z" fill="#000072"/>
<path d="M16.8571 18.0788H14.3392C14.2404 18.0788 14.1602 17.9987 14.1602 17.8997C14.1602 17.8008 14.2403 17.7207 14.3392 17.7207H16.8571C16.9559 17.7207 17.0361 17.8008 17.0361 17.8997C17.0361 17.9987 16.956 18.0788 16.8571 18.0788Z" fill="#000072"/>
</g>
</svg>
