<svg width="32" height="32" viewBox="0 0 32 32" fill="none" xmlns="http://www.w3.org/2000/svg">
<path d="M10.6668 4L7.85352 9.036" stroke="#008DFF" stroke-width="2" stroke-linecap="round" stroke-linejoin="round"/>
<path d="M20 4L23.0667 9.036" stroke="#008DFF" stroke-width="2" stroke-linecap="round" stroke-linejoin="round"/>
<path d="M21.3337 27.9998C17.6523 27.9998 14.667 25.0145 14.667 21.3332C14.667 17.6518 17.6523 14.6665 21.3337 14.6665C25.0163 14.6665 28.0003 17.6518 28.0003 21.3332C28.0003 25.0145 25.0163 27.9998 21.3337 27.9998Z" stroke="#008DFF" stroke-width="2" stroke-linecap="round" stroke-linejoin="round"/>
<path d="M25.921 16.5001L26.8583 12.1721C27.2076 10.5601 25.9823 9.03613 24.3303 9.03613H6.58631C4.93831 9.03613 3.71031 10.5601 4.05831 12.1721L6.01965 21.2281C6.27565 22.4188 7.32898 23.2668 8.54765 23.2668H14.953" stroke="#008DFF" stroke-width="2" stroke-linecap="round" stroke-linejoin="round"/>
<path d="M21.1748 19.0854V21.6894L23.2228 22.9388" stroke="#008DFF" stroke-width="2" stroke-linecap="round" stroke-linejoin="round"/>
</svg>
