<svg width="24" height="24" viewBox="0 0 24 24" fill="none" xmlns="http://www.w3.org/2000/svg">
<path d="M24 3.81601L10.308 17.52L5.22 12.432L6.912 10.74L10.308 14.136L22.308 2.13601L24 3.81601ZM21.348 9.86401C21.504 10.548 21.6 11.268 21.6 12C21.6 17.304 17.304 21.6 12 21.6C6.696 21.6 2.4 17.304 2.4 12C2.4 6.69601 6.696 2.40001 12 2.40001C13.896 2.40001 15.648 2.95201 17.136 3.90001L18.864 2.17201C16.8557 0.75547 14.4576 -0.00338534 12 1.13532e-05C5.376 1.13532e-05 0 5.37601 0 12C0 18.624 5.376 24 12 24C18.624 24 24 18.624 24 12C24 10.572 23.736 9.20401 23.28 7.93201L21.348 9.86401Z" fill="#12A953"/>
</svg>
