<svg width="32" height="32" viewBox="0 0 32 32" fill="none" xmlns="http://www.w3.org/2000/svg">
<path d="M21.4129 16.1602H15.2129" stroke="#008DFF" stroke-width="2" stroke-linecap="round" stroke-linejoin="round"/>
<path d="M16.0137 3.34668C14.4378 3.34668 12.8774 3.65707 11.4215 4.26013C9.96556 4.86318 8.64269 5.7471 7.52839 6.8614C6.41409 7.9757 5.53017 9.29857 4.92712 10.7545C4.32406 12.2104 4.01367 13.7708 4.01367 15.3467C4.01367 16.9225 4.32406 18.483 4.92712 19.9389C5.53017 21.3948 6.41409 22.7177 7.52839 23.832C8.64269 24.9463 9.96556 25.8302 11.4215 26.4332C12.8774 27.0363 14.4378 27.3467 16.0137 27.3467C19.1963 27.3467 22.2485 26.0824 24.499 23.832C26.7494 21.5815 28.0137 18.5293 28.0137 15.3467C28.0137 12.1641 26.7494 9.11184 24.499 6.8614C22.2485 4.61096 19.1963 3.34668 16.0137 3.34668V3.34668Z" stroke="#008DFF" stroke-width="2" stroke-linecap="round" stroke-linejoin="round"/>
<path d="M15.2129 16.16V8.69336" stroke="#008DFF" stroke-width="2" stroke-linecap="round" stroke-linejoin="round"/>
</svg>
