<svg width="64" height="64" viewBox="0 0 64 64" fill="none" xmlns="http://www.w3.org/2000/svg">
<circle cx="32" cy="32" r="32" fill="#AD2073" fill-opacity="0.1"/>
<g clip-path="url(#clip0_40_1400)">
<path d="M42.6667 29.3333V22.6667C42.6667 21.9594 42.3857 21.2811 41.8856 20.781C41.3855 20.281 40.7072 20 40 20H22.6667C21.9594 20 21.2811 20.281 20.781 20.781C20.281 21.2811 20 21.9594 20 22.6667V41.3333C20 42.0406 20.281 42.7189 20.781 43.219C21.2811 43.719 21.9594 44 22.6667 44H29.3333" stroke="#F00B0B" stroke-width="2" stroke-linecap="round" stroke-linejoin="round"/>
<path d="M39 43V43C36.7909 43 35 41.2091 35 39C35 36.7909 36.7909 35 39 35C41.2091 35 43 36.7909 43 39V39C43 41.2091 41.2091 43 39 43" stroke="#F00B0B" stroke-width="1.5" stroke-linecap="round" stroke-linejoin="round"/>
<path d="M39 43V43C36.7909 43 35 41.2091 35 39C35 36.7909 36.7909 35 39 35C41.2091 35 43 36.7909 43 39V39C43 41.2091 41.2091 43 39 43" stroke="#F00B0B" stroke-width="1.5" stroke-linecap="round" stroke-linejoin="round"/>
<path d="M40 38L38 40" stroke="#F00B0B" stroke-width="1.5" stroke-linecap="round" stroke-linejoin="round"/>
<path d="M38 38L40 40" stroke="#F00B0B" stroke-width="1.5" stroke-linecap="round" stroke-linejoin="round"/>
<path d="M28 24V25.0771" stroke="#F00B0B" stroke-width="2" stroke-linecap="round" stroke-linejoin="round"/>
<path d="M25.3333 27.2314C25.4082 26.5951 25.7292 26.0134 26.2276 25.6108C26.726 25.2082 27.3621 25.0166 28 25.0771" stroke="#F00B0B" stroke-width="2" stroke-linecap="round" stroke-linejoin="round"/>
<path d="M28 34.6667V33.5896" stroke="#F00B0B" stroke-width="2" stroke-linecap="round" stroke-linejoin="round"/>
<path d="M30.6667 31.4353C30.5918 32.0716 30.2708 32.6533 29.7724 33.0559C29.274 33.4586 28.6378 33.6501 28 33.5896" stroke="#F00B0B" stroke-width="2" stroke-linecap="round" stroke-linejoin="round"/>
<path d="M30.5988 26.7614C30.4033 26.2392 30.0453 25.7936 29.5774 25.4904C29.1095 25.1871 28.5565 25.0422 28 25.0771" stroke="#F00B0B" stroke-width="2" stroke-linecap="round" stroke-linejoin="round"/>
<path d="M25.3333 27.2314C25.3333 27.6738 25.4866 28.1024 25.767 28.4445C26.0474 28.7865 26.4377 29.0209 26.8714 29.1076L29.1286 29.5591C29.5623 29.6458 29.9526 29.8801 30.233 30.2222C30.5134 30.5643 30.6666 30.9929 30.6666 31.4352V31.4352" stroke="#F00B0B" stroke-width="2" stroke-linecap="round" stroke-linejoin="round"/>
<path d="M25.4012 31.9053C25.5967 32.4275 25.9547 32.8731 26.4226 33.1763C26.8905 33.4796 27.4435 33.6245 28 33.5896" stroke="#F00B0B" stroke-width="2" stroke-linecap="round" stroke-linejoin="round"/>
</g>
<defs>
<clipPath id="clip0_40_1400">
<rect width="32" height="32" fill="white" transform="translate(16 16)"/>
</clipPath>
</defs>
</svg>
