<svg width="64" height="64" viewBox="0 0 64 64" fill="none" xmlns="http://www.w3.org/2000/svg">
<circle opacity="0.5" cx="32" cy="32" r="32" fill="black" fill-opacity="0.1"/>
<g clip-path="url(#clip0_43_9704)">
<path d="M29.7559 30.333V28.5783C29.7559 27.3383 30.7612 26.333 32.0012 26.333C33.2412 26.333 34.2465 27.3383 34.2465 28.5783V30.333" stroke="black" stroke-width="1.9375" stroke-linecap="round" stroke-linejoin="round"/>
<path d="M34.6667 36.9997H29.3333C28.5973 36.9997 28 36.4023 28 35.6663V31.6663C28 30.9303 28.5973 30.333 29.3333 30.333H34.6667C35.4027 30.333 36 30.9303 36 31.6663V35.6663C36 36.4023 35.4027 36.9997 34.6667 36.9997Z" stroke="black" stroke-width="1.9375" stroke-linecap="round" stroke-linejoin="round"/>
<path d="M21.1191 22.3525V25.9965H24.7645" stroke="black" stroke-width="1.9375" stroke-linecap="round" stroke-linejoin="round"/>
<path d="M42.3911 26.0067C40.3151 22.4187 36.4445 20 32.0018 20C27.5631 20 23.6965 22.416 21.6191 25.9987" stroke="black" stroke-width="1.9375" stroke-linecap="round" stroke-linejoin="round"/>
<path d="M43.901 30.499C44.225 33.011 43.7664 35.643 42.401 38.007C40.1797 41.855 36.149 43.9964 32.0037 44.0004L31.9957 43.9937C27.8504 43.9897 23.8197 41.8484 21.5984 38.0004C20.2344 35.639 19.777 33.0084 20.0984 30.499" stroke="black" stroke-width="1.9375" stroke-linecap="round" stroke-linejoin="round"/>
</g>
<defs>
<clipPath id="clip0_43_9704">
<rect width="32" height="32" fill="white" transform="translate(16 16)"/>
</clipPath>
</defs>
</svg>
