<svg width="56" height="114" viewBox="0 0 56 114" fill="none" xmlns="http://www.w3.org/2000/svg"><path fill-rule="evenodd" clip-rule="evenodd" d="M0 9.18595C0 4.11269 4.17867 0 9.33333 0H46.6667C51.8213 0 56 4.11269 56 9.18595V104.814C56 109.887 51.8213 114 46.6667 114H9.33333C4.17867 114 0 109.887 0 104.814V9.18595ZM9.33333 3.29752C6.02907 3.29752 3.35043 5.93386 3.35043 9.18595V104.814C3.35043 108.066 6.02906 110.702 9.33333 110.702H46.6667C49.9709 110.702 52.6496 108.066 52.6496 104.814V9.18595C52.6496 5.93386 49.9709 3.29752 46.6667 3.29752H9.33333Z" fill="#C4C7CC"></path><path d="M7 13.8C7 12.2536 8.2536 11 9.8 11H46.2C47.7464 11 49 12.2536 49 13.8V22.2C49 23.7464 47.7464 25 46.2 25H9.8C8.2536 25 7 23.7464 7 22.2V13.8Z" fill="#D9D9D9"></path><rect x="5.99951" y="5.99951" width="44" height="102" rx="4" fill="#0047FF"></rect><rect x="10" y="98.9995" width="6" height="6" rx="3" fill="#F2F2F2"></rect><rect x="19.9995" y="98.9995" width="6" height="6" rx="3" fill="#F2F2F2"></rect><rect x="29.9995" y="98.9995" width="6" height="6" rx="3" fill="#F2F2F2"></rect><rect x="39.9995" y="98.9995" width="6" height="6" rx="3" fill="#F2F2F2"></rect></svg>