<svg width="56" height="114" viewBox="0 0 56 114" fill="none" xmlns="http://www.w3.org/2000/svg"><path fill-rule="evenodd" clip-rule="evenodd" d="M0 9.18595C0 4.11269 4.17868 0 9.33333 0H46.6667C51.8213 0 56 4.11269 56 9.18595V104.814C56 109.887 51.8213 114 46.6667 114H9.33333C4.17867 114 0 109.887 0 104.814V9.18595ZM9.33333 3.29752C6.02907 3.29752 3.35043 5.93386 3.35043 9.18595V104.814C3.35043 108.066 6.02907 110.702 9.33333 110.702H46.6667C49.9709 110.702 52.6496 108.066 52.6496 104.814V9.18595C52.6496 5.93386 49.9709 3.29752 46.6667 3.29752H9.33333Z" fill="#C4C7CC"></path><rect x="10" y="99" width="6" height="6" rx="3" fill="#C4C7CC"></rect><rect x="20" y="99" width="6" height="6" rx="3" fill="#C4C7CC"></rect><rect x="30" y="99" width="6" height="6" rx="3" fill="#C4C7CC"></rect><rect x="40" y="99" width="6" height="6" rx="3" fill="#C4C7CC"></rect><rect x="22" y="68" width="24" height="24" rx="12" fill="#D5E0FF"></rect><rect x="25" y="71" width="18" height="18" rx="9" fill="#B5C9FF"></rect><rect x="29" y="75" width="10" height="10" rx="5" fill="#0047FF"></rect><rect x="6" y="76" width="8" height="8" rx="4" fill="#C4C7CC"></rect><rect x="18" y="76" width="8" height="8" rx="4" fill="#C4C7CC"></rect><rect x="42" y="76" width="8" height="8" rx="4" fill="#C4C7CC"></rect></svg>