<svg width="56" height="114" viewBox="0 0 56 114" fill="none" xmlns="http://www.w3.org/2000/svg"><path fill-rule="evenodd" clip-rule="evenodd" d="M0 9.18595C0 4.11269 4.17868 0 9.33333 0H46.6667C51.8213 0 56 4.11269 56 9.18595V104.814C56 109.887 51.8213 114 46.6667 114H9.33333C4.17867 114 0 109.887 0 104.814V9.18595ZM9.33333 3.29752C6.02907 3.29752 3.35043 5.93386 3.35043 9.18595V104.814C3.35043 108.066 6.02907 110.702 9.33333 110.702H46.6667C49.9709 110.702 52.6496 108.066 52.6496 104.814V9.18595C52.6496 5.93386 49.9709 3.29752 46.6667 3.29752H9.33333Z" fill="#C4C7CC"></path><rect x="6" y="29" width="44" height="44" rx="4" fill="#0047FF"></rect><path d="M23.965 50.0925C25.045 52.215 26.785 53.9475 28.9075 55.035L30.5575 53.385C30.76 53.1825 31.06 53.115 31.3225 53.205C32.1625 53.4825 33.07 53.6325 34 53.6325C34.4125 53.6325 34.75 53.97 34.75 54.3825V57C34.75 57.4125 34.4125 57.75 34 57.75C26.9575 57.75 21.25 52.0425 21.25 45C21.25 44.5875 21.5875 44.25 22 44.25H24.625C25.0375 44.25 25.375 44.5875 25.375 45C25.375 45.9375 25.525 46.8375 25.8025 47.6775C25.885 47.94 25.825 48.2325 25.615 48.4425L23.965 50.0925Z" fill="white"></path><rect x="10" y="99" width="6" height="6" rx="3" fill="#C4C7CC"></rect><rect x="20" y="99" width="6" height="6" rx="3" fill="#C4C7CC"></rect><rect x="30" y="99" width="6" height="6" rx="3" fill="#C4C7CC"></rect><rect x="40" y="99" width="6" height="6" rx="3" fill="#C4C7CC"></rect></svg>