<svg width="56" height="114" viewBox="0 0 56 114" fill="none" xmlns="http://www.w3.org/2000/svg"><path fill-rule="evenodd" clip-rule="evenodd" d="M0 9.18595C0 4.11269 4.17868 0 9.33333 0H46.6667C51.8213 0 56 4.11269 56 9.18595V104.814C56 109.887 51.8213 114 46.6667 114H9.33333C4.17867 114 0 109.887 0 104.814V9.18595ZM9.33333 3.29752C6.02907 3.29752 3.35043 5.93386 3.35043 9.18595V104.814C3.35043 108.066 6.02907 110.702 9.33333 110.702H46.6667C49.9709 110.702 52.6496 108.066 52.6496 104.814V9.18595C52.6496 5.93386 49.9709 3.29752 46.6667 3.29752H9.33333Z" fill="#D9D9D9"></path><rect x="6" y="29" width="44" height="44" rx="4" fill="#0047FF"></rect><rect x="23" y="47.5859" width="2.24261" height="11.213" rx="1" transform="rotate(-45 23 47.5859)" fill="#F2F2F2"></rect><rect width="2.24261" height="11.213" rx="1" transform="matrix(-0.707107 -0.707107 -0.707107 0.707107 32.5146 47.5859)" fill="#F2F2F2"></rect><rect x="10" y="99" width="6" height="6" rx="3" fill="#D9D9D9"></rect><rect x="20" y="99" width="6" height="6" rx="3" fill="#D9D9D9"></rect><rect x="30" y="99" width="6" height="6" rx="3" fill="#D9D9D9"></rect><rect x="40" y="99" width="6" height="6" rx="3" fill="#D9D9D9"></rect></svg>