<svg width="56" height="114" viewBox="0 0 56 114" fill="none" xmlns="http://www.w3.org/2000/svg"><path fill-rule="evenodd" clip-rule="evenodd" d="M0 9.18595C0 4.11269 4.17868 0 9.33333 0H46.6667C51.8213 0 56 4.11269 56 9.18595V104.814C56 109.887 51.8213 114 46.6667 114H9.33333C4.17867 114 0 109.887 0 104.814V9.18595ZM9.33333 3.29752C6.02907 3.29752 3.35043 5.93386 3.35043 9.18595V104.814C3.35043 108.066 6.02907 110.702 9.33333 110.702H46.6667C49.9709 110.702 52.6496 108.066 52.6496 104.814V9.18595C52.6496 5.93386 49.9709 3.29752 46.6667 3.29752H9.33333Z" fill="#D9D9D9"></path><path d="M7 13.8C7 12.2536 8.2536 11 9.8 11H46.2C47.7464 11 49 12.2536 49 13.8V22.2C49 23.7464 47.7464 25 46.2 25H9.8C8.2536 25 7 23.7464 7 22.2V13.8Z" fill="#D9D9D9"></path><rect x="6" y="6" width="44" height="102" rx="4" fill="#0047FF"></rect><path d="M16.3516 34.3359V36.25C16.3516 37.125 16.263 37.8724 16.0859 38.4922C15.9089 39.112 15.6536 39.6198 15.3203 40.0156C14.987 40.4062 14.5885 40.6953 14.125 40.8828C13.6615 41.0651 13.1458 41.1562 12.5781 41.1562C12.125 41.1562 11.7031 41.099 11.3125 40.9844C10.9219 40.8646 10.5703 40.6823 10.2578 40.4375C9.95052 40.1875 9.6849 39.8698 9.46094 39.4844C9.24219 39.099 9.07292 38.638 8.95312 38.1016C8.83854 37.5651 8.78125 36.9479 8.78125 36.25V34.3359C8.78125 33.4609 8.86979 32.7161 9.04688 32.1016C9.22917 31.487 9.48698 30.9844 9.82031 30.5938C10.1536 30.2031 10.5521 29.9193 11.0156 29.7422C11.4792 29.5599 11.9948 29.4688 12.5625 29.4688C13.0208 29.4688 13.4427 29.526 13.8281 29.6406C14.2188 29.7552 14.5677 29.9349 14.875 30.1797C15.1875 30.4193 15.4531 30.7318 15.6719 31.1172C15.8906 31.4974 16.0573 31.9557 16.1719 32.4922C16.2917 33.0234 16.3516 33.638 16.3516 34.3359ZM14.2891 36.5312V34.0469C14.2891 33.6094 14.263 33.2292 14.2109 32.9062C14.1641 32.5781 14.0938 32.2995 14 32.0703C13.9062 31.8411 13.7891 31.6562 13.6484 31.5156C13.5078 31.3698 13.3464 31.263 13.1641 31.1953C12.9818 31.1276 12.7812 31.0938 12.5625 31.0938C12.2917 31.0938 12.0495 31.1484 11.8359 31.2578C11.6224 31.362 11.4427 31.5286 11.2969 31.7578C11.151 31.987 11.0391 32.2917 10.9609 32.6719C10.888 33.0469 10.8516 33.5052 10.8516 34.0469V36.5312C10.8516 36.9688 10.875 37.3516 10.9219 37.6797C10.974 38.0078 11.0469 38.2891 11.1406 38.5234C11.2396 38.7578 11.3568 38.9505 11.4922 39.1016C11.6328 39.2474 11.7943 39.3568 11.9766 39.4297C12.1589 39.4974 12.3594 39.5312 12.5781 39.5312C12.8542 39.5312 13.0964 39.4766 13.3047 39.3672C13.5182 39.2578 13.6979 39.0859 13.8438 38.8516C13.9896 38.612 14.099 38.3021 14.1719 37.9219C14.25 37.5365 14.2891 37.0729 14.2891 36.5312ZM19.5156 39.3984H19.6641C20.3359 39.3984 20.9036 39.3125 21.3672 39.1406C21.8359 38.9688 22.2135 38.7266 22.5 38.4141C22.7917 38.0964 23.0026 37.7188 23.1328 37.2812C23.2682 36.8385 23.3359 36.349 23.3359 35.8125V33.75C23.3359 33.3125 23.2917 32.9297 23.2031 32.6016C23.1146 32.2682 22.9896 31.9896 22.8281 31.7656C22.6719 31.5417 22.487 31.375 22.2734 31.2656C22.0599 31.151 21.8307 31.0938 21.5859 31.0938C21.3151 31.0938 21.0755 31.1562 20.8672 31.2812C20.6589 31.4062 20.4818 31.5781 20.3359 31.7969C20.1953 32.0104 20.0859 32.2578 20.0078 32.5391C19.9349 32.8203 19.8984 33.1172 19.8984 33.4297C19.8984 33.7318 19.9323 34.0208 20 34.2969C20.0729 34.5729 20.1797 34.8177 20.3203 35.0312C20.4661 35.2448 20.6484 35.4141 20.8672 35.5391C21.0859 35.6589 21.3411 35.7188 21.6328 35.7188C21.9089 35.7188 22.1589 35.6667 22.3828 35.5625C22.612 35.4531 22.8099 35.3099 22.9766 35.1328C23.1432 34.9505 23.2708 34.75 23.3594 34.5312C23.4531 34.3073 23.5052 34.0807 23.5156 33.8516L24.2422 34.1641C24.2422 34.5443 24.1615 34.9193 24 35.2891C23.8438 35.6589 23.6224 35.9948 23.3359 36.2969C23.0547 36.5938 22.7266 36.8333 22.3516 37.0156C21.9766 37.1927 21.5729 37.2812 21.1406 37.2812C20.6042 37.2812 20.1302 37.1823 19.7188 36.9844C19.3073 36.7865 18.9609 36.513 18.6797 36.1641C18.4036 35.8099 18.1953 35.4036 18.0547 34.9453C17.9141 34.4818 17.8438 33.987 17.8438 33.4609C17.8438 32.9141 17.9297 32.401 18.1016 31.9219C18.2734 31.4375 18.5208 31.013 18.8438 30.6484C19.1719 30.2786 19.5677 29.9896 20.0312 29.7812C20.4948 29.5677 21.0156 29.4609 21.5938 29.4609C22.1927 29.4609 22.7266 29.5781 23.1953 29.8125C23.6641 30.0469 24.0625 30.3724 24.3906 30.7891C24.7188 31.2005 24.9688 31.6875 25.1406 32.25C25.3177 32.8125 25.4062 33.4271 25.4062 34.0938V34.8203C25.4062 35.5234 25.3359 36.1901 25.1953 36.8203C25.0547 37.4505 24.8385 38.026 24.5469 38.5469C24.2552 39.0677 23.8828 39.5182 23.4297 39.8984C22.9818 40.2786 22.4453 40.5729 21.8203 40.7812C21.2005 40.9844 20.4922 41.0859 19.6953 41.0859H19.5156V39.3984ZM27.2578 39.9922C27.2578 39.6797 27.3646 39.4167 27.5781 39.2031C27.7917 38.9896 28.0807 38.8828 28.4453 38.8828C28.8099 38.8828 29.099 38.9896 29.3125 39.2031C29.526 39.4167 29.6328 39.6797 29.6328 39.9922C29.6328 40.2995 29.526 40.5599 29.3125 40.7734C29.099 40.9818 28.8099 41.0859 28.4453 41.0859C28.0807 41.0859 27.7917 40.9818 27.5781 40.7734C27.3646 40.5599 27.2578 40.2995 27.2578 39.9922ZM27.2656 33.4375C27.2656 33.125 27.3724 32.862 27.5859 32.6484C27.7995 32.4349 28.0885 32.3281 28.4531 32.3281C28.8177 32.3281 29.1068 32.4349 29.3203 32.6484C29.5339 32.862 29.6406 33.125 29.6406 33.4375C29.6406 33.7448 29.5339 34.0052 29.3203 34.2188C29.1068 34.4271 28.8177 34.5312 28.4531 34.5312C28.0885 34.5312 27.7995 34.4271 27.5859 34.2188C27.3724 34.0052 27.2656 33.7448 27.2656 33.4375ZM39.3594 36.8516V38.4766H31.1641L31.0781 37.2266L35.8984 29.625H37.5469L35.7656 32.6484L33.1797 36.8516H39.3594ZM38.0078 29.625V41H35.9375V29.625H38.0078ZM45.9141 29.5938V41H43.8438V32.0078L41.1016 32.9141V31.2422L45.6797 29.5938H45.9141Z" fill="#D9D9D9"></path></svg>