<svg width="56" height="114" viewBox="0 0 56 114" fill="none" xmlns="http://www.w3.org/2000/svg"><path fill-rule="evenodd" clip-rule="evenodd" d="M0 9.18595C0 4.11269 4.17868 0 9.33333 0H46.6667C51.8213 0 56 4.11269 56 9.18595V104.814C56 109.887 51.8213 114 46.6667 114H9.33333C4.17867 114 0 109.887 0 104.814V9.18595ZM9.33333 3.29752C6.02907 3.29752 3.35043 5.93386 3.35043 9.18595V104.814C3.35043 108.066 6.02907 110.702 9.33333 110.702H46.6667C49.9709 110.702 52.6496 108.066 52.6496 104.814V9.18595C52.6496 5.93386 49.9709 3.29752 46.6667 3.29752H9.33333Z" fill="#D9D9D9"></path><path d="M7 11.8C7 10.2536 8.2536 9 9.8 9H46.2C47.7464 9 49 10.2536 49 11.8V20.2C49 21.7464 47.7464 23 46.2 23H9.8C8.2536 23 7 21.7464 7 20.2V11.8Z" fill="#0047FF"></path><path d="M16.3516 37.3359V39.25C16.3516 40.125 16.263 40.8724 16.0859 41.4922C15.9089 42.112 15.6536 42.6198 15.3203 43.0156C14.987 43.4062 14.5885 43.6953 14.125 43.8828C13.6615 44.0651 13.1458 44.1562 12.5781 44.1562C12.125 44.1562 11.7031 44.099 11.3125 43.9844C10.9219 43.8646 10.5703 43.6823 10.2578 43.4375C9.95052 43.1875 9.6849 42.8698 9.46094 42.4844C9.24219 42.099 9.07292 41.638 8.95312 41.1016C8.83854 40.5651 8.78125 39.9479 8.78125 39.25V37.3359C8.78125 36.4609 8.86979 35.7161 9.04688 35.1016C9.22917 34.487 9.48698 33.9844 9.82031 33.5938C10.1536 33.2031 10.5521 32.9193 11.0156 32.7422C11.4792 32.5599 11.9948 32.4688 12.5625 32.4688C13.0208 32.4688 13.4427 32.526 13.8281 32.6406C14.2188 32.7552 14.5677 32.9349 14.875 33.1797C15.1875 33.4193 15.4531 33.7318 15.6719 34.1172C15.8906 34.4974 16.0573 34.9557 16.1719 35.4922C16.2917 36.0234 16.3516 36.638 16.3516 37.3359ZM14.2891 39.5312V37.0469C14.2891 36.6094 14.263 36.2292 14.2109 35.9062C14.1641 35.5781 14.0938 35.2995 14 35.0703C13.9062 34.8411 13.7891 34.6562 13.6484 34.5156C13.5078 34.3698 13.3464 34.263 13.1641 34.1953C12.9818 34.1276 12.7812 34.0938 12.5625 34.0938C12.2917 34.0938 12.0495 34.1484 11.8359 34.2578C11.6224 34.362 11.4427 34.5286 11.2969 34.7578C11.151 34.987 11.0391 35.2917 10.9609 35.6719C10.888 36.0469 10.8516 36.5052 10.8516 37.0469V39.5312C10.8516 39.9688 10.875 40.3516 10.9219 40.6797C10.974 41.0078 11.0469 41.2891 11.1406 41.5234C11.2396 41.7578 11.3568 41.9505 11.4922 42.1016C11.6328 42.2474 11.7943 42.3568 11.9766 42.4297C12.1589 42.4974 12.3594 42.5312 12.5781 42.5312C12.8542 42.5312 13.0964 42.4766 13.3047 42.3672C13.5182 42.2578 13.6979 42.0859 13.8438 41.8516C13.9896 41.612 14.099 41.3021 14.1719 40.9219C14.25 40.5365 14.2891 40.0729 14.2891 39.5312Z" fill="#D9D9D9"></path><path d="M19.5156 42.3984H19.6641C20.3359 42.3984 20.9036 42.3125 21.3672 42.1406C21.8359 41.9688 22.2135 41.7266 22.5 41.4141C22.7917 41.0964 23.0026 40.7188 23.1328 40.2812C23.2682 39.8385 23.3359 39.349 23.3359 38.8125V36.75C23.3359 36.3125 23.2917 35.9297 23.2031 35.6016C23.1146 35.2682 22.9896 34.9896 22.8281 34.7656C22.6719 34.5417 22.487 34.375 22.2734 34.2656C22.0599 34.151 21.8307 34.0938 21.5859 34.0938C21.3151 34.0938 21.0755 34.1562 20.8672 34.2812C20.6589 34.4062 20.4818 34.5781 20.3359 34.7969C20.1953 35.0104 20.0859 35.2578 20.0078 35.5391C19.9349 35.8203 19.8984 36.1172 19.8984 36.4297C19.8984 36.7318 19.9323 37.0208 20 37.2969C20.0729 37.5729 20.1797 37.8177 20.3203 38.0312C20.4661 38.2448 20.6484 38.4141 20.8672 38.5391C21.0859 38.6589 21.3411 38.7188 21.6328 38.7188C21.9089 38.7188 22.1589 38.6667 22.3828 38.5625C22.612 38.4531 22.8099 38.3099 22.9766 38.1328C23.1432 37.9505 23.2708 37.75 23.3594 37.5312C23.4531 37.3073 23.5052 37.0807 23.5156 36.8516L24.2422 37.1641C24.2422 37.5443 24.1615 37.9193 24 38.2891C23.8438 38.6589 23.6224 38.9948 23.3359 39.2969C23.0547 39.5938 22.7266 39.8333 22.3516 40.0156C21.9766 40.1927 21.5729 40.2812 21.1406 40.2812C20.6042 40.2812 20.1302 40.1823 19.7188 39.9844C19.3073 39.7865 18.9609 39.513 18.6797 39.1641C18.4036 38.8099 18.1953 38.4036 18.0547 37.9453C17.9141 37.4818 17.8438 36.987 17.8438 36.4609C17.8438 35.9141 17.9297 35.401 18.1016 34.9219C18.2734 34.4375 18.5208 34.013 18.8438 33.6484C19.1719 33.2786 19.5677 32.9896 20.0312 32.7812C20.4948 32.5677 21.0156 32.4609 21.5938 32.4609C22.1927 32.4609 22.7266 32.5781 23.1953 32.8125C23.6641 33.0469 24.0625 33.3724 24.3906 33.7891C24.7188 34.2005 24.9688 34.6875 25.1406 35.25C25.3177 35.8125 25.4062 36.4271 25.4062 37.0938V37.8203C25.4062 38.5234 25.3359 39.1901 25.1953 39.8203C25.0547 40.4505 24.8385 41.026 24.5469 41.5469C24.2552 42.0677 23.8828 42.5182 23.4297 42.8984C22.9818 43.2786 22.4453 43.5729 21.8203 43.7812C21.2005 43.9844 20.4922 44.0859 19.6953 44.0859H19.5156V42.3984Z" fill="#D9D9D9"></path><path d="M27.2578 42.9922C27.2578 42.6797 27.3646 42.4167 27.5781 42.2031C27.7917 41.9896 28.0807 41.8828 28.4453 41.8828C28.8099 41.8828 29.099 41.9896 29.3125 42.2031C29.526 42.4167 29.6328 42.6797 29.6328 42.9922C29.6328 43.2995 29.526 43.5599 29.3125 43.7734C29.099 43.9818 28.8099 44.0859 28.4453 44.0859C28.0807 44.0859 27.7917 43.9818 27.5781 43.7734C27.3646 43.5599 27.2578 43.2995 27.2578 42.9922ZM27.2656 36.4375C27.2656 36.125 27.3724 35.862 27.5859 35.6484C27.7995 35.4349 28.0885 35.3281 28.4531 35.3281C28.8177 35.3281 29.1068 35.4349 29.3203 35.6484C29.5339 35.862 29.6406 36.125 29.6406 36.4375C29.6406 36.7448 29.5339 37.0052 29.3203 37.2188C29.1068 37.4271 28.8177 37.5312 28.4531 37.5312C28.0885 37.5312 27.7995 37.4271 27.5859 37.2188C27.3724 37.0052 27.2656 36.7448 27.2656 36.4375Z" fill="#D9D9D9"></path><path d="M39.3594 39.8516V41.4766H31.1641L31.0781 40.2266L35.8984 32.625H37.5469L35.7656 35.6484L33.1797 39.8516H39.3594ZM38.0078 32.625V44H35.9375V32.625H38.0078Z" fill="#D9D9D9"></path><path d="M45.9141 32.5938V44H43.8438V35.0078L41.1016 35.9141V34.2422L45.6797 32.5938H45.9141Z" fill="#D9D9D9"></path></svg>