<?xml version="1.0" encoding="utf-8"?>
<!-- Generator: Adobe Illustrator 25.0.1, SVG Export Plug-In . SVG Version: 6.00 Build 0)  -->
<svg version="1.1" id="Layer_1" xmlns="http://www.w3.org/2000/svg" xmlns:xlink="http://www.w3.org/1999/xlink" x="0px" y="0px"
	 viewBox="0 0 110 110" style="enable-background:new 0 0 110 110;" xml:space="preserve">
<style type="text/css">
	.st0{fill:url(#SVGID_1_);}
	.st1{fill:url(#SVGID_2_);}
	.st2{fill:url(#SVGID_3_);}
	.st3{fill:url(#SVGID_4_);}
	.st4{fill:#FFFFFF;}
	.st5{opacity:0;fill:#98AC98;}
	.st6{opacity:0.0909;fill:#98AC98;}
	.st7{opacity:0.1818;fill:#98AC98;}
	.st8{opacity:0.2727;fill:#99AD99;}
	.st9{opacity:0.3636;fill:#99AD99;}
	.st10{opacity:0.4545;fill:#99AD99;}
	.st11{opacity:0.5455;fill:#99AD99;}
	.st12{opacity:0.6364;fill:#99AD99;}
	.st13{opacity:0.7273;fill:#99AD99;}
	.st14{opacity:0.8182;fill:#9AAE9A;}
	.st15{opacity:0.9091;fill:#9AAE9A;}
	.st16{fill:#9AAE9A;}
	.st17{fill:url(#SVGID_5_);}
	.st18{fill:url(#SVGID_6_);}
	.st19{fill:url(#SVGID_7_);}
	.st20{fill:url(#SVGID_8_);}
	.st21{fill:url(#SVGID_9_);}
	.st22{fill:url(#SVGID_10_);}
	.st23{fill:url(#SVGID_11_);}
	.st24{fill:url(#SVGID_12_);}
	.st25{fill:url(#SVGID_13_);}
	.st26{fill:url(#SVGID_14_);}
	.st27{fill:#C74C24;}
	.st28{fill:#DC6134;}
	.st29{fill:#EB7342;}
	.st30{fill:#F6814D;}
	.st31{fill:url(#SVGID_15_);}
	.st32{fill:url(#SVGID_16_);}
	.st33{fill:url(#SVGID_17_);}
	.st34{fill:url(#SVGID_18_);}
	.st35{fill:url(#SVGID_19_);}
	.st36{filter:url(#Adobe_OpacityMaskFilter);}
	.st37{fill:url(#SVGID_21_);}
	.st38{mask:url(#SVGID_20_);}
	.st39{fill:url(#SVGID_22_);}
	.st40{fill:url(#SVGID_23_);}
	.st41{fill:url(#SVGID_24_);}
	.st42{fill:url(#SVGID_25_);}
	.st43{fill:url(#SVGID_26_);}
	.st44{filter:url(#Adobe_OpacityMaskFilter_1_);}
	.st45{fill:url(#SVGID_28_);}
	.st46{mask:url(#SVGID_27_);fill:#FFFFFF;}
	.st47{filter:url(#Adobe_OpacityMaskFilter_2_);}
	.st48{fill:url(#SVGID_30_);}
	.st49{mask:url(#SVGID_29_);fill:#FFE6BF;}
	.st50{filter:url(#Adobe_OpacityMaskFilter_3_);}
	.st51{fill:url(#SVGID_32_);}
	.st52{mask:url(#SVGID_31_);fill:#FFE6BF;}
	.st53{filter:url(#Adobe_OpacityMaskFilter_4_);}
	.st54{fill:url(#SVGID_34_);}
	.st55{mask:url(#SVGID_33_);fill:#FFE6BF;}
	.st56{filter:url(#Adobe_OpacityMaskFilter_5_);}
	.st57{fill:url(#SVGID_36_);}
	.st58{mask:url(#SVGID_35_);fill:#FFE6BF;}
	.st59{filter:url(#Adobe_OpacityMaskFilter_6_);}
	.st60{fill:url(#SVGID_38_);}
	.st61{mask:url(#SVGID_37_);fill:#FFE6BF;}
</style>
<g id="BG">
</g>
<g id="Silver_Star">
</g>
<g id="Platinum_Star">
</g>
<g id="Gold_Star">
</g>
<g>
	<g>
		<linearGradient id="SVGID_1_" gradientUnits="userSpaceOnUse" x1="31.8096" y1="34.4546" x2="78.7781" y2="81.4231">
			<stop  offset="0" style="stop-color:#CE3D27"/>
			<stop  offset="0.3089" style="stop-color:#FFA473"/>
			<stop  offset="0.4346" style="stop-color:#FFD7C9"/>
			<stop  offset="0.6021" style="stop-color:#FFA26B"/>
			<stop  offset="1" style="stop-color:#E5583C"/>
		</linearGradient>
		<polygon class="st0" points="71.26,60.27 71.18,60.35 71.2,60.46 75.06,83 75.02,82.98 75.03,83.02 73.77,82.35 73.74,82.3 
			54.82,72.35 54.72,72.3 54.6,72.37 34.38,83 34.63,81.53 38.25,60.45 38.27,60.35 38.22,60.3 22.77,45.24 21.81,44.31 
			23.16,44.11 23.17,44.11 44.39,41.02 44.55,41 44.62,40.87 54.07,21.72 54.72,20.39 55.41,21.8 64.83,40.88 64.89,41 65.02,41.02 
			86.08,44.08 86.09,44.08 87.64,44.31 		"/>
		<linearGradient id="SVGID_2_" gradientUnits="userSpaceOnUse" x1="16.2295" y1="16.2295" x2="95.704" y2="95.704">
			<stop  offset="0" style="stop-color:#CE3D27"/>
			<stop  offset="0.3089" style="stop-color:#FFA473"/>
			<stop  offset="0.4346" style="stop-color:#FFD7C9"/>
			<stop  offset="0.6021" style="stop-color:#FFA26B"/>
			<stop  offset="1" style="stop-color:#E5583C"/>
		</linearGradient>
		<path class="st1" d="M55,0C24.62,0,0,24.62,0,55s24.62,55,55,55s55-24.62,55-55S85.38,0,55,0z M55,97.62
			c-23.54,0-42.62-19.08-42.62-42.62S31.46,12.38,55,12.38S97.62,31.46,97.62,55S78.54,97.62,55,97.62z"/>
		<linearGradient id="SVGID_3_" gradientUnits="userSpaceOnUse" x1="21.81" y1="51.705" x2="87.64" y2="51.705">
			<stop  offset="0" style="stop-color:#CE3D27"/>
			<stop  offset="0.3089" style="stop-color:#FFA473"/>
			<stop  offset="0.4346" style="stop-color:#FFD7C9"/>
			<stop  offset="0.6021" style="stop-color:#FFA26B"/>
			<stop  offset="1" style="stop-color:#E5583C"/>
		</linearGradient>
		<polygon class="st2" points="71.26,60.27 71.18,60.35 71.2,60.46 75.06,83 75.02,82.98 75.03,83.02 73.77,82.35 73.74,82.3 
			54.82,72.35 54.72,72.3 54.6,72.37 34.38,83 34.63,81.53 38.25,60.45 38.27,60.35 38.22,60.3 22.77,45.24 21.81,44.31 
			23.16,44.11 23.17,44.11 44.39,41.02 44.55,41 44.62,40.87 54.07,21.72 54.72,20.39 55.41,21.8 64.83,40.88 64.89,41 65.02,41.02 
			86.08,44.08 86.09,44.08 87.64,44.31 		"/>
		<linearGradient id="SVGID_4_" gradientUnits="userSpaceOnUse" x1="4.21" y1="55" x2="105.79" y2="55">
			<stop  offset="0" style="stop-color:#CE3D27"/>
			<stop  offset="0.3089" style="stop-color:#FFA473"/>
			<stop  offset="0.4346" style="stop-color:#FFD7C9"/>
			<stop  offset="0.6021" style="stop-color:#FFA26B"/>
			<stop  offset="1" style="stop-color:#E5583C"/>
		</linearGradient>
		<path class="st3" d="M55,4.21C26.95,4.21,4.21,26.95,4.21,55S26.95,105.79,55,105.79S105.79,83.05,105.79,55S83.05,4.21,55,4.21z
			 M55,97.62c-23.54,0-42.62-19.08-42.62-42.62S31.46,12.38,55,12.38S97.62,31.46,97.62,55S78.54,97.62,55,97.62z"/>
		<polygon class="st4" points="75.06,83 75.02,82.98 75.03,83.02 73.77,82.35 73.74,82.3 54.82,72.35 54.72,72.3 54.6,72.37 
			34.38,83 34.63,81.53 38.25,60.45 38.27,60.35 38.22,60.3 22.77,45.24 21.81,44.31 23.16,44.11 23.17,44.11 44.39,41.02 44.55,41 
			44.62,40.87 54.07,21.72 54.72,20.39 55.41,21.8 64.83,40.88 64.89,41 65.02,41.02 86.08,44.08 86.09,44.08 87.64,44.31 
			71.26,60.27 71.18,60.35 71.2,60.46 		"/>
	</g>
	<g>
		<g>
			<polygon class="st5" points="71.48,60.93 71.48,60.93 71.46,60.82 87.91,44.78 86.37,44.56 86.37,44.56 65.17,41.47 55,20.87 
				44.83,41.47 23.44,44.58 23.44,44.58 22.09,44.78 38.49,60.77 38.49,60.77 38.54,60.82 38.53,60.92 38.53,60.92 34.66,83.47 
				35.9,82.82 35.9,82.82 55,72.78 74,82.77 74.05,82.83 75.31,83.49 75.3,83.45 75.34,83.47 			"/>
			<polygon class="st6" points="71.45,60.89 71.45,60.89 71.43,60.78 87.89,44.74 86.35,44.51 86.35,44.51 65.15,41.43 54.97,20.82 
				44.8,41.43 23.42,44.54 23.41,44.54 22.06,44.74 38.47,60.73 38.47,60.73 38.52,60.78 38.5,60.88 38.5,60.88 34.63,83.43 
				35.88,82.77 35.88,82.77 54.97,72.73 73.98,82.72 74.02,82.78 75.29,83.45 75.28,83.41 75.32,83.43 			"/>
			<polygon class="st7" points="71.43,60.85 71.43,60.85 71.41,60.73 87.86,44.69 86.32,44.47 86.32,44.47 65.12,41.39 54.95,20.78 
				44.78,41.39 23.39,44.5 23.39,44.49 22.04,44.69 38.44,60.68 38.44,60.68 38.49,60.73 38.48,60.83 38.48,60.83 34.61,83.38 
				35.85,82.73 35.85,82.73 54.95,72.69 73.95,82.68 73.99,82.74 75.26,83.41 75.25,83.36 75.29,83.38 			"/>
			<polygon class="st8" points="71.4,60.8 71.4,60.8 71.38,60.69 87.84,44.65 86.3,44.43 86.3,44.43 65.1,41.35 54.92,20.74 
				44.75,41.35 23.37,44.45 23.36,44.45 22.01,44.65 38.42,60.64 38.42,60.64 38.47,60.69 38.45,60.79 38.45,60.79 34.58,83.34 
				35.83,82.69 35.83,82.69 54.92,72.65 73.93,82.64 73.97,82.7 75.24,83.36 75.23,83.32 75.27,83.34 			"/>
			<polygon class="st9" points="71.38,60.76 71.38,60.76 71.36,60.65 87.81,44.61 86.27,44.38 86.27,44.38 65.07,41.3 54.9,20.7 
				44.73,41.3 23.34,44.41 23.34,44.41 21.99,44.61 38.39,60.6 38.39,60.6 38.44,60.65 38.43,60.75 38.43,60.75 34.56,83.3 
				35.8,82.65 35.8,82.65 54.9,72.6 73.9,82.6 73.94,82.65 75.21,83.32 75.2,83.28 75.24,83.3 			"/>
			<polygon class="st10" points="71.35,60.72 71.35,60.72 71.33,60.61 87.79,44.56 86.25,44.34 86.25,44.34 65.04,41.26 
				54.87,20.65 44.7,41.26 23.32,44.37 23.31,44.37 21.96,44.56 38.37,60.56 38.37,60.56 38.42,60.61 38.4,60.71 38.4,60.71 
				34.53,83.26 35.77,82.6 35.78,82.6 54.87,72.56 73.88,82.55 73.92,82.61 75.18,83.28 75.18,83.24 75.22,83.26 			"/>
			<polygon class="st11" points="71.32,60.68 71.32,60.68 71.31,60.56 87.76,44.52 86.22,44.3 86.22,44.3 65.02,41.22 54.85,20.61 
				44.68,41.22 23.29,44.32 23.29,44.32 21.94,44.52 38.34,60.51 38.34,60.51 38.39,60.56 38.38,60.66 38.38,60.66 34.51,83.21 
				35.75,82.56 35.75,82.56 54.85,72.52 73.85,82.51 73.89,82.57 75.16,83.23 75.15,83.19 75.19,83.21 			"/>
			<polygon class="st12" points="71.3,60.63 71.3,60.63 71.28,60.52 87.74,44.48 86.2,44.25 86.2,44.25 64.99,41.17 54.82,20.57 
				44.65,41.17 23.27,44.28 23.26,44.28 21.91,44.48 38.32,60.47 38.32,60.47 38.37,60.52 38.35,60.62 38.35,60.62 34.48,83.17 
				35.72,82.52 35.72,82.52 54.82,72.48 73.83,82.47 73.87,82.52 75.13,83.19 75.13,83.15 75.17,83.17 			"/>
			<polygon class="st13" points="71.27,60.59 71.27,60.59 71.26,60.48 87.71,44.44 86.17,44.21 86.17,44.21 64.97,41.13 54.8,20.52 
				44.63,41.13 23.24,44.24 23.24,44.24 21.89,44.44 38.29,60.43 38.29,60.43 38.34,60.48 38.33,60.58 38.33,60.58 34.46,83.13 
				35.7,82.47 35.7,82.47 54.8,72.43 73.8,82.42 73.84,82.48 75.11,83.15 75.1,83.11 75.14,83.13 			"/>
			<polygon class="st14" points="71.25,60.55 71.25,60.55 71.23,60.43 87.69,44.39 86.15,44.17 86.15,44.17 64.94,41.09 
				54.77,20.48 44.6,41.09 23.22,44.2 23.21,44.19 21.86,44.39 38.27,60.38 38.27,60.38 38.32,60.43 38.3,60.53 38.3,60.53 
				34.43,83.08 35.67,82.43 35.67,82.43 54.77,72.39 73.78,82.38 73.82,82.44 75.08,83.11 75.08,83.06 75.11,83.08 			"/>
			<polygon class="st15" points="71.22,60.5 71.22,60.5 71.2,60.39 87.66,44.35 86.12,44.13 86.12,44.13 64.92,41.04 54.75,20.44 
				44.58,41.04 23.19,44.15 23.19,44.15 21.84,44.35 38.24,60.34 38.24,60.34 38.29,60.39 38.28,60.49 38.28,60.49 34.41,83.04 
				35.65,82.39 35.65,82.39 54.75,72.35 73.75,82.34 73.79,82.4 75.06,83.06 75.05,83.02 75.09,83.04 			"/>
			<polygon class="st16" points="71.2,60.46 71.2,60.46 71.18,60.35 87.64,44.31 86.1,44.08 86.1,44.08 64.89,41 54.72,20.39 
				44.55,41 23.17,44.11 23.16,44.11 21.81,44.31 38.22,60.3 38.22,60.3 38.27,60.35 38.25,60.45 38.25,60.45 34.38,83 35.62,82.34 
				35.62,82.34 54.72,72.3 73.73,82.29 73.77,82.35 75.03,83.02 75.03,82.98 75.06,83 			"/>
		</g>
		<linearGradient id="SVGID_5_" gradientUnits="userSpaceOnUse" x1="29.3798" y1="38.9922" x2="38.1747" y2="47.4692">
			<stop  offset="0" style="stop-color:#CE5127"/>
			<stop  offset="1" style="stop-color:#FFDBAB"/>
		</linearGradient>
		<polygon class="st17" points="54.72,55 54.36,54.88 54.33,54.87 54.27,54.85 21.81,44.31 23.16,44.11 23.17,44.11 44.39,41.02 
			44.55,41 54.27,54.38 54.34,54.48 		"/>
		<linearGradient id="SVGID_6_" gradientUnits="userSpaceOnUse" x1="56.978" y1="38.309" x2="48.9237" y2="36.1188">
			<stop  offset="0" style="stop-color:#CE5127"/>
			<stop  offset="1" style="stop-color:#FFDBAB"/>
		</linearGradient>
		<polygon class="st18" points="54.72,20.39 54.72,55 54.34,54.48 54.27,54.38 44.55,41 44.62,40.87 54.07,21.72 		"/>
		<linearGradient id="SVGID_7_" gradientUnits="userSpaceOnUse" x1="74.221" y1="39.3735" x2="69.7703" y2="54.4211">
			<stop  offset="0" style="stop-color:#CE5127"/>
			<stop  offset="1" style="stop-color:#FFDBAB"/>
		</linearGradient>
		<polygon class="st19" points="87.64,44.31 55.11,54.87 55.09,54.88 54.72,55 55.09,54.49 55.18,54.37 64.89,41 65.02,41.02 
			86.08,44.08 86.09,44.08 		"/>
		<linearGradient id="SVGID_8_" gradientUnits="userSpaceOnUse" x1="64.0526" y1="45.2228" x2="76.6688" y2="53.0682">
			<stop  offset="0" style="stop-color:#CE5127"/>
			<stop  offset="1" style="stop-color:#FFDBAB"/>
		</linearGradient>
		<polygon class="st20" points="87.64,44.31 71.26,60.27 71.18,60.35 55.46,55.24 55.32,55.19 54.72,55 55.09,54.88 55.11,54.87 		
			"/>
		<linearGradient id="SVGID_9_" gradientUnits="userSpaceOnUse" x1="62.0752" y1="30.3398" x2="55.5038" y2="36.9112">
			<stop  offset="0" style="stop-color:#CE5127"/>
			<stop  offset="1" style="stop-color:#FFDBAB"/>
		</linearGradient>
		<polygon class="st21" points="64.89,41 55.18,54.37 55.09,54.49 54.72,55 54.72,20.39 55.41,21.8 64.83,40.88 		"/>
		<linearGradient id="SVGID_10_" gradientUnits="userSpaceOnUse" x1="39.8672" y1="48.3152" x2="27.5733" y2="58.5955">
			<stop  offset="0" style="stop-color:#CE5127"/>
			<stop  offset="1" style="stop-color:#FFDBAB"/>
		</linearGradient>
		<polygon class="st22" points="54.72,55 54.13,55.19 53.98,55.24 38.27,60.35 38.22,60.3 22.77,45.24 21.81,44.31 54.27,54.85 
			54.33,54.87 54.36,54.88 		"/>
		<linearGradient id="SVGID_11_" gradientUnits="userSpaceOnUse" x1="65.3078" y1="81.1571" x2="61.8102" y2="51.7983">
			<stop  offset="0" style="stop-color:#CE5127"/>
			<stop  offset="1" style="stop-color:#FFDBAB"/>
		</linearGradient>
		<polygon class="st23" points="75.06,83 75.02,82.98 73.74,82.3 54.82,72.35 54.72,72.3 54.72,55 54.95,55.31 54.97,55.34 
			54.97,55.35 55,55.39 75.02,82.94 		"/>
		<linearGradient id="SVGID_12_" gradientUnits="userSpaceOnUse" x1="59.7085" y1="68.4775" x2="72.3196" y2="69.7492">
			<stop  offset="0" style="stop-color:#CE5127"/>
			<stop  offset="1" style="stop-color:#FFDBAB"/>
		</linearGradient>
		<polygon class="st24" points="75.06,83 75.02,82.94 55,55.39 54.97,55.35 54.97,55.34 54.95,55.31 54.72,55 55.32,55.19 
			55.46,55.24 71.18,60.35 71.2,60.46 		"/>
		<linearGradient id="SVGID_13_" gradientUnits="userSpaceOnUse" x1="44.5143" y1="68.9539" x2="50.5187" y2="76.7242">
			<stop  offset="0" style="stop-color:#CE5127"/>
			<stop  offset="1" style="stop-color:#FFDBAB"/>
		</linearGradient>
		<polygon class="st25" points="54.72,55 54.72,72.3 54.6,72.36 54.6,72.37 34.38,83 54.44,55.39 54.47,55.34 54.5,55.31 		"/>
		<linearGradient id="SVGID_14_" gradientUnits="userSpaceOnUse" x1="49.561" y1="52.3216" x2="36.207" y2="75.6383">
			<stop  offset="0" style="stop-color:#CE5127"/>
			<stop  offset="1" style="stop-color:#FFDBAB"/>
		</linearGradient>
		<polygon class="st26" points="54.72,55 54.5,55.31 54.47,55.34 54.44,55.39 34.38,83 34.63,81.53 38.25,60.45 38.27,60.35 
			53.98,55.24 54.13,55.19 		"/>
		<polygon class="st27" points="54.97,55.2 54.97,55.43 54.96,55.96 54.82,72.35 54.72,72.3 54.6,72.37 54.6,72.36 54.51,56.07 
			54.51,55.43 54.54,55.37 54.57,55.31 54.72,55 		"/>
		<polygon class="st28" points="71.18,60.35 71.2,60.46 55.67,55.52 55.07,55.33 55.02,55.29 54.97,55.24 54.72,55 54.99,54.83 
			55.02,54.84 55.09,54.86 55.11,54.87 55.13,54.88 55.21,54.9 55.71,55.07 71.26,60.27 		"/>
		<polygon class="st29" points="65.02,41.02 55.51,54.26 55.14,54.77 55.09,54.8 55.02,54.84 54.72,55 54.64,54.69 54.66,54.66 
			54.71,54.6 54.72,54.58 54.73,54.57 54.78,54.5 55.1,54.07 64.83,40.88 64.89,41 		"/>
		<polygon class="st30" points="54.72,55 54.41,54.98 54.39,54.96 54.35,54.89 54.33,54.87 54.27,54.78 53.96,54.35 44.39,41.02 
			44.55,41 44.62,40.87 54.26,54.02 54.64,54.53 54.65,54.58 54.66,54.66 		"/>
		<polygon class="st27" points="54.72,55 54.61,55.3 54.57,55.31 54.51,55.33 54.47,55.34 54.38,55.37 53.88,55.53 38.25,60.45 
			38.27,60.35 38.22,60.3 53.66,55.14 54.25,54.94 54.31,54.95 54.39,54.96 		"/>
		<linearGradient id="SVGID_15_" gradientUnits="userSpaceOnUse" x1="54.9997" y1="54.6612" x2="87.4877" y2="44.3265">
			<stop  offset="1.800000e-07" style="stop-color:#FFC5A1"/>
			<stop  offset="1" style="stop-color:#FFDDB0"/>
		</linearGradient>
		<polygon class="st31" points="87.64,44.31 86.61,45.3 55.71,55.07 55.41,55.17 55.32,55.19 55.02,55.29 54.97,55.3 54.95,55.31 
			54.72,55 54.73,54.61 54.73,54.52 54.78,54.5 55.09,54.4 55.18,54.37 55.51,54.26 86.08,44.08 86.09,44.08 		"/>
		<linearGradient id="SVGID_16_" gradientUnits="userSpaceOnUse" x1="21.81" y1="49.75" x2="54.73" y2="49.75">
			<stop  offset="0" style="stop-color:#FFDDB0"/>
			<stop  offset="1" style="stop-color:#FFC5A1"/>
		</linearGradient>
		<polygon class="st32" points="54.73,54.61 54.72,55 54.5,55.31 54.47,55.34 54.44,55.39 54.38,55.37 54.07,55.27 53.98,55.24 
			53.66,55.14 22.77,45.24 21.81,44.31 23.16,44.11 23.17,44.11 53.96,54.35 54.27,54.46 54.34,54.48 54.65,54.58 54.71,54.6 
			54.72,54.61 		"/>
		<linearGradient id="SVGID_17_" gradientUnits="userSpaceOnUse" x1="34.38" y1="68.94" x2="55" y2="68.94">
			<stop  offset="0" style="stop-color:#FFFFFF"/>
			<stop  offset="1" style="stop-color:#FFC5A1"/>
		</linearGradient>
		<polygon class="st33" points="55,55.39 54.97,55.43 54.78,55.7 54.72,55.78 54.51,56.07 35.62,82.34 34.38,83 34.63,81.53 
			53.88,55.53 54.07,55.27 54.13,55.19 54.31,54.95 54.35,54.89 54.36,54.88 54.72,55 54.95,55.31 54.97,55.34 54.97,55.35 		"/>
		<linearGradient id="SVGID_18_" gradientUnits="userSpaceOnUse" x1="55.2553" y1="55.315" x2="74.9146" y2="82.8167">
			<stop  offset="1.800000e-07" style="stop-color:#FFC5A1"/>
			<stop  offset="1" style="stop-color:#FFDDB0"/>
		</linearGradient>
		<polygon class="st34" points="75.03,83.02 73.77,82.35 73.74,82.3 54.96,55.96 54.78,55.7 54.72,55.62 54.54,55.37 54.51,55.33 
			54.5,55.31 54.72,55 55.13,54.88 55.18,54.86 55.21,54.9 55.41,55.17 55.46,55.24 55.67,55.52 74.77,81.48 75.02,82.94 
			75.02,82.98 		"/>
		<linearGradient id="SVGID_19_" gradientUnits="userSpaceOnUse" x1="54.74" y1="54.4469" x2="54.74" y2="21.5024">
			<stop  offset="1.800000e-07" style="stop-color:#FFC5A1"/>
			<stop  offset="1" style="stop-color:#FFDDB0"/>
		</linearGradient>
		<polygon class="st35" points="55.41,21.8 55.1,54.07 55.09,54.4 55.09,54.88 54.72,55 54.36,54.88 54.33,54.87 54.27,54.85 
			54.27,54.38 54.26,54.02 54.07,21.72 54.72,20.39 		"/>
		<defs>
			<filter id="Adobe_OpacityMaskFilter" filterUnits="userSpaceOnUse" x="23.64" y="22.45" width="61.72" height="59.41">
				<feColorMatrix  type="matrix" values="1 0 0 0 0  0 1 0 0 0  0 0 1 0 0  0 0 0 1 0"/>
			</filter>
		</defs>
		<mask maskUnits="userSpaceOnUse" x="23.64" y="22.45" width="61.72" height="59.41" id="SVGID_20_">
			<g class="st36">
				<radialGradient id="SVGID_21_" cx="54.5239" cy="54.9964" r="36.5" gradientUnits="userSpaceOnUse">
					<stop  offset="0" style="stop-color:#000000"/>
					<stop  offset="0.1183" style="stop-color:#040404"/>
					<stop  offset="0.2339" style="stop-color:#0F1010"/>
					<stop  offset="0.3485" style="stop-color:#222323"/>
					<stop  offset="0.4625" style="stop-color:#3D3E3F"/>
					<stop  offset="0.576" style="stop-color:#606263"/>
					<stop  offset="0.6892" style="stop-color:#8A8D8E"/>
					<stop  offset="0.8001" style="stop-color:#BCBFC1"/>
					<stop  offset="0.8743" style="stop-color:#E1E5E7"/>
					<stop  offset="1" style="stop-color:#F9FDFF"/>
				</radialGradient>
				<circle class="st37" cx="54.52" cy="55" r="36.5"/>
			</g>
		</mask>
		<g class="st38">
			<linearGradient id="SVGID_22_" gradientUnits="userSpaceOnUse" x1="52.7007" y1="51.3926" x2="48.9768" y2="22.7737">
				<stop  offset="0" style="stop-color:#FFDDB0"/>
				<stop  offset="0.4039" style="stop-color:#FFD8AD"/>
				<stop  offset="0.8607" style="stop-color:#FFCBA5"/>
				<stop  offset="1" style="stop-color:#FFC5A1"/>
			</linearGradient>
			<path class="st39" d="M53.93,22.45l-7.57,17.31c-0.15,0.36-0.12,0.78,0.09,1.11l6.8,10.6l-4.03-10.41
				c-0.22-0.58-0.24-1.22-0.05-1.81L53.93,22.45z"/>
			<linearGradient id="SVGID_23_" gradientUnits="userSpaceOnUse" x1="46.2486" y1="57.8846" x2="18.9061" y2="46.2269">
				<stop  offset="0" style="stop-color:#FFDDB0"/>
				<stop  offset="0.4039" style="stop-color:#FFD8AD"/>
				<stop  offset="0.8607" style="stop-color:#FFCBA5"/>
				<stop  offset="1" style="stop-color:#FFC5A1"/>
			</linearGradient>
			<path class="st40" d="M23.64,45.6l13.94,12.76c0.29,0.26,0.7,0.36,1.08,0.27l12.23-3l-11.16,0.45c-0.62,0.03-1.23-0.16-1.73-0.53
				L23.64,45.6z"/>
			
				<linearGradient id="SVGID_24_" gradientUnits="userSpaceOnUse" x1="-103.2512" y1="130.8295" x2="-130.5932" y2="119.1721" gradientTransform="matrix(0.2986 -0.9544 0.9544 0.2986 -39.0871 -73.6588)">
				<stop  offset="0" style="stop-color:#FFDDB0"/>
				<stop  offset="0.4039" style="stop-color:#FFD8AD"/>
				<stop  offset="0.8607" style="stop-color:#FFCBA5"/>
				<stop  offset="1" style="stop-color:#FFC5A1"/>
			</linearGradient>
			<path class="st41" d="M36.47,81.86l16.34-9.49c0.34-0.2,0.56-0.56,0.58-0.95l0.79-12.57l-2.9,10.78
				c-0.16,0.6-0.52,1.12-1.03,1.49L36.47,81.86z"/>
			
				<linearGradient id="SVGID_25_" gradientUnits="userSpaceOnUse" x1="-217.7657" y1="12.8573" x2="-245.1068" y2="1.2002" gradientTransform="matrix(-0.809 -0.5879 0.5879 -0.809 -120.4563 -59.9739)">
				<stop  offset="0" style="stop-color:#FFDDB0"/>
				<stop  offset="0.4039" style="stop-color:#FFD8AD"/>
				<stop  offset="0.8607" style="stop-color:#FFCBA5"/>
				<stop  offset="1" style="stop-color:#FFC5A1"/>
			</linearGradient>
			<path class="st42" d="M74.34,80.88l-3.78-18.51c-0.08-0.39-0.35-0.7-0.71-0.85l-11.66-4.76l9.29,6.19
				c0.52,0.34,0.9,0.86,1.08,1.45L74.34,80.88z"/>
			
				<linearGradient id="SVGID_26_" gradientUnits="userSpaceOnUse" x1="-140.2888" y1="-133.8101" x2="-167.6309" y2="-145.4676" gradientTransform="matrix(-0.8072 0.5903 -0.5903 -0.8072 -132.3677 22.47)">
				<stop  offset="0" style="stop-color:#FFDDB0"/>
				<stop  offset="0.4039" style="stop-color:#FFD8AD"/>
				<stop  offset="0.8607" style="stop-color:#FFCBA5"/>
				<stop  offset="1" style="stop-color:#FFC5A1"/>
			</linearGradient>
			<path class="st43" d="M85.36,44.24l-18.78-2.07c-0.39-0.04-0.78,0.12-1.03,0.42l-8.1,9.65l8.74-6.95
				c0.49-0.39,1.09-0.59,1.71-0.59L85.36,44.24z"/>
		</g>
		<defs>
			<filter id="Adobe_OpacityMaskFilter_1_" filterUnits="userSpaceOnUse" x="44.4" y="45.29" width="20.19" height="20.19">
				<feColorMatrix  type="matrix" values="1 0 0 0 0  0 1 0 0 0  0 0 1 0 0  0 0 0 1 0"/>
			</filter>
		</defs>
		<mask maskUnits="userSpaceOnUse" x="44.4" y="45.29" width="20.19" height="20.19" id="SVGID_27_">
			<g class="st44">
				<radialGradient id="SVGID_28_" cx="54.3836" cy="55.1725" r="10.123" gradientUnits="userSpaceOnUse">
					<stop  offset="0" style="stop-color:#FFFFFF"/>
					<stop  offset="0.1518" style="stop-color:#FFFFFF"/>
					<stop  offset="0.246" style="stop-color:#CBCBCB"/>
					<stop  offset="0.3549" style="stop-color:#969696"/>
					<stop  offset="0.4654" style="stop-color:#686868"/>
					<stop  offset="0.5752" style="stop-color:#424242"/>
					<stop  offset="0.684" style="stop-color:#252525"/>
					<stop  offset="0.7916" style="stop-color:#111111"/>
					<stop  offset="0.8976" style="stop-color:#040404"/>
					<stop  offset="1" style="stop-color:#000000"/>
				</radialGradient>
				<circle class="st45" cx="54.38" cy="55.17" r="10.12"/>
			</g>
		</mask>
		<circle class="st46" cx="54.5" cy="55.39" r="10.1"/>
		<defs>
			<filter id="Adobe_OpacityMaskFilter_2_" filterUnits="userSpaceOnUse" x="32.69" y="73" width="10.02" height="10.02">
				<feColorMatrix  type="matrix" values="1 0 0 0 0  0 1 0 0 0  0 0 1 0 0  0 0 0 1 0"/>
			</filter>
		</defs>
		<mask maskUnits="userSpaceOnUse" x="32.69" y="73" width="10.02" height="10.02" id="SVGID_29_">
			<g class="st47">
				<radialGradient id="SVGID_30_" cx="37.6467" cy="77.9048" r="5.022" gradientUnits="userSpaceOnUse">
					<stop  offset="0" style="stop-color:#FFFFFF"/>
					<stop  offset="0.1518" style="stop-color:#FFFFFF"/>
					<stop  offset="0.246" style="stop-color:#CBCBCB"/>
					<stop  offset="0.3549" style="stop-color:#969696"/>
					<stop  offset="0.4654" style="stop-color:#686868"/>
					<stop  offset="0.5752" style="stop-color:#424242"/>
					<stop  offset="0.684" style="stop-color:#252525"/>
					<stop  offset="0.7916" style="stop-color:#111111"/>
					<stop  offset="0.8976" style="stop-color:#040404"/>
					<stop  offset="1" style="stop-color:#000000"/>
				</radialGradient>
				<path class="st48" d="M42.67,77.9c0,2.77-2.25,5.02-5.02,5.02c-2.77,0-5.02-2.25-5.02-5.02c0-2.77,2.25-5.02,5.02-5.02
					C40.42,72.88,42.67,75.13,42.67,77.9z"/>
			</g>
		</mask>
		<path class="st49" d="M42.71,78.01c0,2.77-2.24,5.01-5.01,5.01c-2.77,0-5.01-2.24-5.01-5.01c0-2.77,2.24-5.01,5.01-5.01
			C40.47,73,42.71,75.24,42.71,78.01z"/>
		<defs>
			<filter id="Adobe_OpacityMaskFilter_3_" filterUnits="userSpaceOnUse" x="22.85" y="44.69" width="10.02" height="10.02">
				<feColorMatrix  type="matrix" values="1 0 0 0 0  0 1 0 0 0  0 0 1 0 0  0 0 0 1 0"/>
			</filter>
		</defs>
		<mask maskUnits="userSpaceOnUse" x="22.85" y="44.69" width="10.02" height="10.02" id="SVGID_31_">
			<g class="st50">
				<radialGradient id="SVGID_32_" cx="27.8013" cy="49.5924" r="5.022" gradientUnits="userSpaceOnUse">
					<stop  offset="0" style="stop-color:#FFFFFF"/>
					<stop  offset="0.1518" style="stop-color:#FFFFFF"/>
					<stop  offset="0.246" style="stop-color:#CBCBCB"/>
					<stop  offset="0.3549" style="stop-color:#969696"/>
					<stop  offset="0.4654" style="stop-color:#686868"/>
					<stop  offset="0.5752" style="stop-color:#424242"/>
					<stop  offset="0.684" style="stop-color:#252525"/>
					<stop  offset="0.7916" style="stop-color:#111111"/>
					<stop  offset="0.8976" style="stop-color:#040404"/>
					<stop  offset="1" style="stop-color:#000000"/>
				</radialGradient>
				<circle class="st51" cx="27.8" cy="49.59" r="5.02"/>
			</g>
		</mask>
		<path class="st52" d="M32.87,49.7c0,2.77-2.24,5.01-5.01,5.01c-2.77,0-5.01-2.24-5.01-5.01c0-2.77,2.24-5.01,5.01-5.01
			C30.62,44.69,32.87,46.93,32.87,49.7z"/>
		<defs>
			<filter id="Adobe_OpacityMaskFilter_4_" filterUnits="userSpaceOnUse" x="49.63" y="23.06" width="10.02" height="10.02">
				<feColorMatrix  type="matrix" values="1 0 0 0 0  0 1 0 0 0  0 0 1 0 0  0 0 0 1 0"/>
			</filter>
		</defs>
		<mask maskUnits="userSpaceOnUse" x="49.63" y="23.06" width="10.02" height="10.02" id="SVGID_33_">
			<g class="st53">
				<radialGradient id="SVGID_34_" cx="54.5865" cy="27.9674" r="5.022" gradientUnits="userSpaceOnUse">
					<stop  offset="0" style="stop-color:#FFFFFF"/>
					<stop  offset="0.1518" style="stop-color:#FFFFFF"/>
					<stop  offset="0.246" style="stop-color:#CBCBCB"/>
					<stop  offset="0.3549" style="stop-color:#969696"/>
					<stop  offset="0.4654" style="stop-color:#686868"/>
					<stop  offset="0.5752" style="stop-color:#424242"/>
					<stop  offset="0.684" style="stop-color:#252525"/>
					<stop  offset="0.7916" style="stop-color:#111111"/>
					<stop  offset="0.8976" style="stop-color:#040404"/>
					<stop  offset="1" style="stop-color:#000000"/>
				</radialGradient>
				<circle class="st54" cx="54.59" cy="27.97" r="5.02"/>
			</g>
		</mask>
		<path class="st55" d="M59.65,28.07c0,2.77-2.24,5.01-5.01,5.01c-2.77,0-5.01-2.24-5.01-5.01c0-2.77,2.24-5.01,5.01-5.01
			C57.41,23.06,59.65,25.31,59.65,28.07z"/>
		<defs>
			<filter id="Adobe_OpacityMaskFilter_5_" filterUnits="userSpaceOnUse" x="76.61" y="41.31" width="10.02" height="10.02">
				<feColorMatrix  type="matrix" values="1 0 0 0 0  0 1 0 0 0  0 0 1 0 0  0 0 0 1 0"/>
			</filter>
		</defs>
		<mask maskUnits="userSpaceOnUse" x="76.61" y="41.31" width="10.02" height="10.02" id="SVGID_35_">
			<g class="st56">
				<radialGradient id="SVGID_36_" cx="81.5683" cy="46.2174" r="5.022" gradientUnits="userSpaceOnUse">
					<stop  offset="0" style="stop-color:#FFFFFF"/>
					<stop  offset="0.1518" style="stop-color:#FFFFFF"/>
					<stop  offset="0.246" style="stop-color:#CBCBCB"/>
					<stop  offset="0.3549" style="stop-color:#969696"/>
					<stop  offset="0.4654" style="stop-color:#686868"/>
					<stop  offset="0.5752" style="stop-color:#424242"/>
					<stop  offset="0.684" style="stop-color:#252525"/>
					<stop  offset="0.7916" style="stop-color:#111111"/>
					<stop  offset="0.8976" style="stop-color:#040404"/>
					<stop  offset="1" style="stop-color:#000000"/>
				</radialGradient>
				<circle class="st57" cx="81.57" cy="46.22" r="5.02"/>
			</g>
		</mask>
		<path class="st58" d="M86.63,46.32c0,2.77-2.24,5.01-5.01,5.01c-2.77,0-5.01-2.24-5.01-5.01c0-2.77,2.24-5.01,5.01-5.01
			C84.39,41.31,86.63,43.56,86.63,46.32z"/>
		<defs>
			<filter id="Adobe_OpacityMaskFilter_6_" filterUnits="userSpaceOnUse" x="64.33" y="69.81" width="10.02" height="10.02">
				<feColorMatrix  type="matrix" values="1 0 0 0 0  0 1 0 0 0  0 0 1 0 0  0 0 0 1 0"/>
			</filter>
		</defs>
		<mask maskUnits="userSpaceOnUse" x="64.33" y="69.81" width="10.02" height="10.02" id="SVGID_37_">
			<g class="st59">
				<radialGradient id="SVGID_38_" cx="69.2789" cy="74.7174" r="5.022" gradientUnits="userSpaceOnUse">
					<stop  offset="0" style="stop-color:#FFFFFF"/>
					<stop  offset="0.1518" style="stop-color:#FFFFFF"/>
					<stop  offset="0.246" style="stop-color:#CBCBCB"/>
					<stop  offset="0.3549" style="stop-color:#969696"/>
					<stop  offset="0.4654" style="stop-color:#686868"/>
					<stop  offset="0.5752" style="stop-color:#424242"/>
					<stop  offset="0.684" style="stop-color:#252525"/>
					<stop  offset="0.7916" style="stop-color:#111111"/>
					<stop  offset="0.8976" style="stop-color:#040404"/>
					<stop  offset="1" style="stop-color:#000000"/>
				</radialGradient>
				<circle class="st60" cx="69.28" cy="74.72" r="5.02"/>
			</g>
		</mask>
		<path class="st61" d="M74.34,74.82c0,2.77-2.24,5.01-5.01,5.01c-2.77,0-5.01-2.24-5.01-5.01c0-2.77,2.24-5.01,5.01-5.01
			C72.1,69.81,74.34,72.06,74.34,74.82z"/>
	</g>
</g>
</svg>
