<?xml version="1.0" encoding="utf-8"?>
<!-- Generator: Adobe Illustrator 25.0.1, SVG Export Plug-In . SVG Version: 6.00 Build 0)  -->
<svg version="1.1" id="Layer_1" xmlns="http://www.w3.org/2000/svg" xmlns:xlink="http://www.w3.org/1999/xlink" x="0px" y="0px"
	 viewBox="0 0 110 110" style="enable-background:new 0 0 110 110;" xml:space="preserve">
<style type="text/css">
	.st0{fill:url(#SVGID_7_);}
	.st1{fill:url(#SVGID_8_);}
	.st2{fill:url(#SVGID_9_);}
	.st3{fill:url(#SVGID_10_);}
	.st4{fill:#FFFFFF;}
	.st5{fill:#6D6A69;fill-opacity:0;}
	.st6{opacity:0.0909;fill:#6D6A69;enable-background:new    ;}
	.st7{opacity:0.1818;fill:#6D6A69;enable-background:new    ;}
	.st8{opacity:0.2727;fill:#6E6B6A;enable-background:new    ;}
	.st9{opacity:0.3636;fill:#6E6B6A;enable-background:new    ;}
	.st10{opacity:0.4545;fill:#6E6B6A;enable-background:new    ;}
	.st11{opacity:0.5455;fill:#6E6B6A;enable-background:new    ;}
	.st12{opacity:0.6364;fill:#6E6B6A;enable-background:new    ;}
	.st13{opacity:0.7273;fill:#6E6B6A;enable-background:new    ;}
	.st14{opacity:0.8182;fill:#6F6C6B;enable-background:new    ;}
	.st15{opacity:0.9091;fill:#6F6C6B;enable-background:new    ;}
	.st16{fill:#6F6C6B;}
	.st17{fill:url(#SVGID_11_);}
	.st18{fill:url(#SVGID_12_);}
	.st19{fill:url(#SVGID_13_);}
	.st20{fill:url(#SVGID_14_);}
	.st21{fill:url(#SVGID_15_);}
	.st22{fill:url(#SVGID_16_);}
	.st23{fill:url(#SVGID_17_);}
	.st24{fill:url(#SVGID_18_);}
	.st25{fill:url(#SVGID_19_);}
	.st26{fill:url(#SVGID_20_);}
	.st27{fill:#9C7348;}
	.st28{fill:#B18858;}
	.st29{fill:#C09A66;}
	.st30{fill:#CBA871;}
	.st31{fill:url(#SVGID_21_);}
	.st32{fill:url(#SVGID_22_);}
	.st33{fill:url(#SVGID_23_);}
	.st34{fill:url(#SVGID_24_);}
	.st35{fill:url(#SVGID_25_);}
	.st36{fill:url(#SVGID_26_);}
	.st37{fill:url(#SVGID_27_);}
	.st38{fill:url(#SVGID_28_);}
	.st39{fill:url(#SVGID_29_);}
	.st40{fill:url(#SVGID_30_);}
	.st41{filter:url(#Adobe_OpacityMaskFilter);}
	.st42{fill:url(#SVGID_31_);}
	.st43{mask:url(#SVGID_1_);fill:#E4F1D8;}
	.st44{filter:url(#Adobe_OpacityMaskFilter_1_);}
	.st45{fill:url(#SVGID_32_);}
	.st46{mask:url(#SVGID_2_);fill:#E9ED9E;}
	.st47{filter:url(#Adobe_OpacityMaskFilter_2_);}
	.st48{fill:url(#SVGID_33_);}
	.st49{mask:url(#SVGID_3_);fill:#E9ED9E;}
	.st50{filter:url(#Adobe_OpacityMaskFilter_3_);}
	.st51{fill:url(#SVGID_34_);}
	.st52{mask:url(#SVGID_4_);fill:#E9ED9E;}
	.st53{filter:url(#Adobe_OpacityMaskFilter_4_);}
	.st54{fill:url(#SVGID_35_);}
	.st55{mask:url(#SVGID_5_);fill:#E9ED9E;}
	.st56{filter:url(#Adobe_OpacityMaskFilter_5_);}
	.st57{fill:url(#SVGID_36_);}
	.st58{mask:url(#SVGID_6_);fill:#E9ED9E;}
</style>
<g id="BG">
</g>
<g id="Bronze_star">
</g>
<g id="Silver_Star">
</g>
<g id="Platinum_Star">
</g>
<g id="Gold_Star">
	<g>
		<g>
			<linearGradient id="SVGID_7_" gradientUnits="userSpaceOnUse" x1="31.8998" y1="80.565" x2="78.9705" y2="33.4943">
				<stop  offset="0" style="stop-color:#A3784B"/>
				<stop  offset="0.3089" style="stop-color:#FEDF97"/>
				<stop  offset="0.4346" style="stop-color:#FCE7B3"/>
				<stop  offset="0.6021" style="stop-color:#FFDD8F"/>
				<stop  offset="1" style="stop-color:#BA9360"/>
			</linearGradient>
			<polygon class="st0" points="87.91,44.78 71.46,60.82 71.48,60.93 75.34,83.47 75.3,83.45 75.31,83.49 74.05,82.83 74,82.77 
				55,72.78 35.9,82.82 34.66,83.47 34.67,83.41 34.63,83.43 34.64,83.36 34.61,83.38 34.62,83.32 34.58,83.34 34.59,83.28 
				34.56,83.3 34.57,83.24 34.53,83.26 34.54,83.19 34.51,83.21 34.52,83.15 34.48,83.17 34.49,83.11 34.46,83.13 34.47,83.06 
				34.43,83.08 34.44,83.02 34.41,83.04 34.42,82.98 34.38,83 34.63,81.53 38.24,60.53 38.24,60.52 22.1,44.78 22.06,44.74 
				22.09,44.74 22.05,44.69 22.01,44.65 22.03,44.65 21.99,44.61 22.01,44.61 21.96,44.56 21.98,44.56 21.95,44.52 21.91,44.48 
				21.93,44.48 21.89,44.44 21.91,44.44 21.86,44.39 21.88,44.39 21.85,44.35 21.81,44.31 23.16,44.11 23.17,44.11 44.39,41.02 
				44.55,41 44.62,40.87 54.07,21.72 54.72,20.39 54.75,20.45 54.77,20.49 54.79,20.53 54.8,20.52 54.82,20.57 54.85,20.62 
				54.87,20.66 54.89,20.7 54.9,20.69 54.92,20.74 54.95,20.79 54.97,20.83 55,20.88 64.94,41.01 65.02,41.02 86.09,44.08 
				86.1,44.08 87.64,44.31 87.61,44.34 87.66,44.35 87.63,44.38 87.69,44.39 87.65,44.43 87.71,44.44 87.68,44.47 87.74,44.48 
				87.71,44.51 87.76,44.52 87.73,44.55 87.79,44.56 87.75,44.6 87.81,44.61 87.78,44.64 87.84,44.65 87.81,44.68 87.86,44.69 
				87.82,44.73 87.89,44.74 87.86,44.77 			"/>
			<linearGradient id="SVGID_8_" gradientUnits="userSpaceOnUse" x1="16.2296" y1="93.7702" x2="95.7041" y2="14.2957">
				<stop  offset="0" style="stop-color:#A3784B"/>
				<stop  offset="0.3089" style="stop-color:#FEDF97"/>
				<stop  offset="0.4346" style="stop-color:#FCE7B3"/>
				<stop  offset="0.6021" style="stop-color:#FFDD8F"/>
				<stop  offset="1" style="stop-color:#BA9360"/>
			</linearGradient>
			<path class="st1" d="M55,0C24.62,0,0,24.62,0,55s24.62,55,55,55s55-24.62,55-55S85.38,0,55,0z M55,97.62
				c-23.54,0-42.62-19.08-42.62-42.62S31.46,12.38,55,12.38S97.62,31.46,97.62,55S78.54,97.62,55,97.62z"/>
			<linearGradient id="SVGID_9_" gradientUnits="userSpaceOnUse" x1="21.81" y1="51.9398" x2="87.91" y2="51.9398">
				<stop  offset="0" style="stop-color:#A3784B"/>
				<stop  offset="0.3089" style="stop-color:#FEDF97"/>
				<stop  offset="0.4346" style="stop-color:#FCE7B3"/>
				<stop  offset="0.6021" style="stop-color:#FFDD8F"/>
				<stop  offset="1" style="stop-color:#BA9360"/>
			</linearGradient>
			<polygon class="st2" points="87.91,44.78 71.46,60.82 71.48,60.93 75.34,83.47 75.3,83.45 75.31,83.49 74.05,82.83 74,82.77 
				55,72.78 35.9,82.82 34.66,83.47 34.67,83.41 34.63,83.43 34.64,83.36 34.61,83.38 34.62,83.32 34.58,83.34 34.59,83.28 
				34.56,83.3 34.57,83.24 34.53,83.26 34.54,83.19 34.51,83.21 34.52,83.15 34.48,83.17 34.49,83.11 34.46,83.13 34.47,83.06 
				34.43,83.08 34.44,83.02 34.41,83.04 34.42,82.98 34.38,83 34.63,81.53 38.24,60.53 38.24,60.52 22.1,44.78 22.06,44.74 
				22.09,44.74 22.05,44.69 22.01,44.65 22.03,44.65 21.99,44.61 22.01,44.61 21.96,44.56 21.98,44.56 21.95,44.52 21.91,44.48 
				21.93,44.48 21.89,44.44 21.91,44.44 21.86,44.39 21.88,44.39 21.85,44.35 21.81,44.31 23.16,44.11 23.17,44.11 44.39,41.02 
				44.55,41 44.62,40.87 54.07,21.72 54.72,20.39 54.75,20.45 54.77,20.49 54.79,20.53 54.8,20.52 54.82,20.57 54.85,20.62 
				54.87,20.66 54.89,20.7 54.9,20.69 54.92,20.74 54.95,20.79 54.97,20.83 55,20.88 64.94,41.01 65.02,41.02 86.09,44.08 
				86.1,44.08 87.64,44.31 87.61,44.34 87.66,44.35 87.63,44.38 87.69,44.39 87.65,44.43 87.71,44.44 87.68,44.47 87.74,44.48 
				87.71,44.51 87.76,44.52 87.73,44.55 87.79,44.56 87.75,44.6 87.81,44.61 87.78,44.64 87.84,44.65 87.81,44.68 87.86,44.69 
				87.82,44.73 87.89,44.74 87.86,44.77 			"/>
			<linearGradient id="SVGID_10_" gradientUnits="userSpaceOnUse" x1="4.21" y1="54.9998" x2="105.79" y2="54.9998">
				<stop  offset="0" style="stop-color:#A3784B"/>
				<stop  offset="0.3089" style="stop-color:#FEDF97"/>
				<stop  offset="0.4346" style="stop-color:#FCE7B3"/>
				<stop  offset="0.6021" style="stop-color:#FFDD8F"/>
				<stop  offset="1" style="stop-color:#BA9360"/>
			</linearGradient>
			<path class="st3" d="M55,4.21C26.95,4.21,4.21,26.95,4.21,55S26.95,105.79,55,105.79S105.79,83.05,105.79,55S83.05,4.21,55,4.21z
				 M55,97.62c-23.54,0-42.62-19.08-42.62-42.62S31.46,12.38,55,12.38S97.62,31.46,97.62,55S78.54,97.62,55,97.62z"/>
			<polygon class="st4" points="75.34,83.47 75.3,83.45 75.31,83.49 74.05,82.83 74,82.77 55,72.78 35.9,82.82 34.66,83.47 
				34.67,83.41 34.63,83.43 34.64,83.36 34.61,83.38 34.62,83.32 34.58,83.34 34.59,83.28 34.56,83.3 34.57,83.24 34.53,83.26 
				34.54,83.19 34.51,83.21 34.52,83.15 34.48,83.17 34.49,83.11 34.46,83.13 34.47,83.06 34.43,83.08 34.44,83.02 34.41,83.04 
				34.42,82.98 34.38,83 34.63,81.53 38.24,60.53 38.24,60.52 22.1,44.78 22.06,44.74 22.09,44.74 22.05,44.69 22.01,44.65 
				22.03,44.65 21.99,44.61 22.01,44.61 21.96,44.56 21.98,44.56 21.95,44.52 21.91,44.48 21.93,44.48 21.89,44.44 21.91,44.44 
				21.86,44.39 21.88,44.39 21.85,44.35 21.81,44.31 23.16,44.11 23.17,44.11 44.39,41.02 44.55,41 44.62,40.87 54.07,21.72 
				54.72,20.39 54.75,20.45 54.77,20.49 54.79,20.53 54.8,20.52 54.82,20.57 54.85,20.62 54.87,20.66 54.89,20.7 54.9,20.69 
				54.92,20.74 54.95,20.79 54.97,20.83 55,20.88 64.94,41.01 65.02,41.02 86.09,44.08 86.1,44.08 87.64,44.31 87.61,44.34 
				87.66,44.35 87.63,44.38 87.69,44.39 87.65,44.43 87.71,44.44 87.68,44.47 87.74,44.48 87.71,44.51 87.76,44.52 87.73,44.55 
				87.79,44.56 87.75,44.6 87.81,44.61 87.78,44.64 87.84,44.65 87.81,44.68 87.86,44.69 87.82,44.73 87.89,44.74 87.86,44.77 
				87.91,44.78 71.46,60.82 71.48,60.93 			"/>
		</g>
		<g>
			<polygon class="st5" points="75.34,83.47 75.3,83.45 75.31,83.49 74.05,82.83 74,82.77 55,72.78 35.9,82.82 34.66,83.47 
				34.67,83.41 34.68,83.34 34.69,83.28 34.7,83.23 34.71,83.16 34.72,83.1 34.73,83.04 34.74,82.98 34.76,82.91 34.77,82.85 
				34.78,82.79 34.85,82.35 35.1,80.89 38.53,60.92 38.54,60.82 38.52,60.8 38.49,60.77 38.46,60.74 38.43,60.71 38.4,60.69 
				38.38,60.66 38.35,60.63 38.33,60.61 38.29,60.58 38.27,60.55 38.24,60.53 38.24,60.52 22.1,44.78 22.13,44.77 22.17,44.77 
				22.19,44.76 22.26,44.76 22.27,44.75 22.89,44.66 23.44,44.58 24.23,44.47 44.72,41.49 44.83,41.47 44.85,41.42 44.92,41.28 
				51.68,27.59 53.54,23.83 54.08,22.74 54.72,21.44 54.98,20.92 54.98,20.9 54.99,20.9 54.99,20.88 55,20.88 64.94,41.01 
				64.96,41.05 64.98,41.08 64.99,41.1 65,41.13 65,41.14 65.02,41.17 65.04,41.22 65.05,41.22 65.06,41.26 65.07,41.26 65.08,41.3 
				65.09,41.3 65.11,41.35 65.15,41.43 65.17,41.47 80.5,43.7 84.36,44.27 85.18,44.39 86.37,44.56 86.72,44.61 87.25,44.69 
				87.31,44.69 87.49,44.72 87.55,44.73 87.67,44.75 87.73,44.75 87.79,44.76 87.86,44.77 87.91,44.78 71.46,60.82 71.48,60.93 			
				"/>
			<polygon class="st6" points="87.86,44.77 71.43,60.78 71.45,60.89 75.32,83.43 75.28,83.41 75.29,83.45 74.02,82.78 74,82.74 
				73.99,82.74 73.97,82.72 54.97,72.73 35.88,82.77 34.67,83.41 34.63,83.43 34.64,83.36 34.65,83.3 34.66,83.25 34.67,83.18 
				34.7,83 34.72,82.93 34.74,82.81 34.8,82.42 35.05,80.96 38.5,60.88 38.52,60.8 38.52,60.78 38.38,60.64 38.35,60.62 
				38.35,60.61 38.33,60.59 38.29,60.56 38.27,60.54 38.24,60.51 22.1,44.78 22.06,44.74 22.09,44.74 22.1,44.73 22.15,44.73 
				22.16,44.72 22.23,44.72 22.8,44.63 23.41,44.54 23.42,44.54 24.14,44.44 44.7,41.45 44.8,41.43 44.83,41.38 44.89,41.24 
				52.09,26.65 53.61,23.57 54.08,22.63 54.72,21.33 54.95,20.86 54.95,20.85 54.96,20.85 54.96,20.83 54.97,20.83 55,20.88 
				59.68,30.37 64.94,41.01 64.95,41.04 64.96,41.05 64.98,41.08 64.99,41.1 65,41.13 65,41.14 65.02,41.17 65.04,41.22 
				65.05,41.22 65.06,41.26 65.07,41.26 65.08,41.3 65.09,41.3 65.11,41.35 65.15,41.43 81.76,43.84 84.62,44.26 85.28,44.35 
				86.35,44.51 86.81,44.58 87.29,44.65 87.34,44.66 87.41,44.67 87.47,44.68 87.53,44.69 87.58,44.69 87.64,44.7 87.71,44.71 
				87.77,44.72 87.82,44.73 87.89,44.74 			"/>
			<polygon class="st7" points="87.86,44.69 87.79,44.76 71.41,60.73 71.43,60.85 75.29,83.38 75.25,83.36 75.26,83.41 74,82.74 
				73.99,82.74 73.97,82.72 73.97,82.7 73.95,82.68 54.95,72.69 35.85,82.73 34.68,83.34 34.64,83.36 34.61,83.38 34.65,83.14 
				34.66,83.07 34.67,83.02 34.68,82.95 34.7,82.83 34.77,82.47 35.02,81.01 38.48,60.83 38.49,60.77 38.49,60.73 38.47,60.71 
				38.44,60.68 38.41,60.65 38.38,60.62 38.35,60.6 38.33,60.58 38.33,60.57 38.25,60.49 38.24,60.49 22.13,44.77 22.09,44.74 
				22.05,44.69 22.07,44.69 22.09,44.68 22.13,44.68 22.15,44.67 22.18,44.67 22.69,44.59 23.39,44.49 23.39,44.5 24.05,44.4 
				44.67,41.41 44.78,41.39 44.8,41.35 44.87,41.21 52.4,25.94 53.67,23.38 54.08,22.55 54.72,21.25 54.93,20.82 54.93,20.81 
				54.94,20.81 54.94,20.79 54.95,20.79 54.97,20.83 55,20.88 59.68,30.37 64.93,41.01 64.94,41.04 64.95,41.04 64.97,41.09 
				64.97,41.1 64.99,41.13 65,41.14 65.01,41.17 65.03,41.22 65.04,41.22 65.05,41.26 65.06,41.26 65.07,41.3 65.08,41.3 
				65.1,41.35 65.12,41.39 65.13,41.39 82.78,43.96 84.83,44.25 85.35,44.33 86.32,44.47 86.89,44.55 87.32,44.61 87.33,44.61 
				87.38,44.62 87.44,44.63 87.51,44.64 87.57,44.65 87.62,44.66 87.68,44.66 87.74,44.67 87.81,44.68 			"/>
			<polygon class="st8" points="87.84,44.65 87.81,44.68 87.77,44.72 87.73,44.75 71.38,60.69 71.4,60.8 75.27,83.34 75.23,83.32 
				75.24,83.36 73.97,82.7 73.95,82.68 73.94,82.65 73.93,82.64 54.92,72.65 35.83,82.69 34.69,83.28 34.65,83.3 34.62,83.32 
				34.58,83.34 34.59,83.28 34.6,83.22 34.62,83.1 34.63,83.04 34.64,82.97 34.65,82.91 34.66,82.85 34.72,82.53 34.97,81.07 
				38.45,60.79 38.46,60.74 38.46,60.72 38.47,60.71 38.47,60.69 38.41,60.63 38.39,60.61 38.36,60.58 38.33,60.55 38.3,60.53 
				38.3,60.52 38.28,60.5 38.25,60.47 22.14,44.77 22.13,44.77 22.1,44.73 22.05,44.69 22.01,44.65 22.03,44.65 22.05,44.64 
				22.09,44.64 22.11,44.63 22.14,44.63 22.59,44.56 23.36,44.45 23.37,44.45 23.94,44.37 44.64,41.37 44.75,41.35 44.84,41.17 
				52.79,25.05 53.73,23.15 54.07,22.45 54.72,21.15 54.91,20.77 54.91,20.75 54.92,20.75 54.94,20.79 54.95,20.79 54.96,20.83 
				54.97,20.83 54.99,20.88 54.99,20.89 59.68,30.37 64.93,41.01 64.94,41.04 64.95,41.04 64.97,41.09 64.97,41.1 64.99,41.13 
				65,41.14 65.01,41.17 65.03,41.22 65.04,41.22 65.05,41.26 65.06,41.26 65.07,41.3 65.08,41.3 65.1,41.35 65.11,41.35 
				83.84,44.07 85.05,44.25 85.43,44.3 86.3,44.43 86.97,44.53 87.36,44.58 87.41,44.59 87.48,44.6 87.54,44.61 87.6,44.62 
				87.65,44.62 87.72,44.63 87.78,44.64 			"/>
			<polygon class="st9" points="87.81,44.61 87.78,44.64 87.74,44.67 87.71,44.71 87.67,44.75 71.36,60.65 71.38,60.76 75.24,83.3 
				75.2,83.28 75.21,83.32 73.94,82.65 73.93,82.64 73.9,82.6 54.9,72.6 35.8,82.65 34.7,83.23 34.66,83.25 34.63,83.26 
				34.59,83.28 34.56,83.3 34.57,83.24 34.58,83.17 34.59,83.11 34.6,83.05 34.61,82.98 34.62,82.93 34.63,82.87 34.63,82.86 
				34.68,82.58 34.93,81.12 38.43,60.75 38.43,60.71 38.44,60.7 38.44,60.65 38.42,60.64 38.42,60.63 38.41,60.63 38.39,60.61 
				38.39,60.6 38.36,60.58 38.36,60.57 38.33,60.55 38.33,60.54 38.3,60.52 38.28,60.5 38.28,60.49 38.25,60.47 38.25,60.46 
				22.15,44.77 21.99,44.61 22.01,44.61 22.03,44.6 22.07,44.6 22.09,44.59 22.1,44.59 22.5,44.53 23.34,44.41 23.84,44.34 
				44.6,41.32 44.73,41.3 44.75,41.27 44.81,41.13 53.14,24.26 53.79,22.93 54.07,22.36 54.72,21.05 54.88,20.72 54.89,20.72 
				54.89,20.7 54.9,20.69 54.92,20.74 54.95,20.79 54.97,20.83 54.99,20.88 55,20.88 59.68,30.37 64.92,41.01 64.93,41.01 
				64.94,41.04 64.96,41.09 64.97,41.09 64.97,41.1 64.98,41.13 64.99,41.13 65,41.17 65.01,41.17 65.03,41.22 65.05,41.26 
				65.07,41.3 65.09,41.3 85.14,44.22 85.31,44.24 85.52,44.27 86.27,44.38 87.06,44.5 87.39,44.55 87.4,44.55 87.45,44.56 
				87.51,44.57 87.57,44.57 87.75,44.6 			"/>
			<polygon class="st10" points="87.79,44.56 87.75,44.6 87.72,44.63 87.68,44.66 87.64,44.7 87.61,44.74 71.33,60.6 71.35,60.72 
				75.22,83.26 75.18,83.24 75.18,83.28 73.92,82.61 73.9,82.57 73.89,82.57 73.87,82.55 54.87,72.56 35.78,82.6 35.77,82.6 
				34.71,83.16 34.67,83.18 34.64,83.2 34.6,83.22 34.57,83.24 34.53,83.26 34.54,83.19 34.55,83.13 34.56,83.08 34.57,83 
				34.58,82.95 34.59,82.89 34.63,82.65 34.89,81.18 38.4,60.71 38.4,60.69 38.41,60.67 38.41,60.63 38.42,60.63 38.42,60.6 
				38.39,60.57 38.37,60.55 38.36,60.55 38.34,60.52 38.28,60.46 38.26,60.45 38.25,60.44 38.25,60.43 22.17,44.77 22.13,44.73 
				22.09,44.68 22.05,44.64 22.01,44.61 21.96,44.56 21.99,44.56 22.01,44.55 22.05,44.55 22.39,44.5 23.31,44.37 23.32,44.37 
				23.75,44.31 44.58,41.28 44.7,41.26 44.72,41.23 44.78,41.09 53.53,23.37 53.86,22.7 54.07,22.26 54.72,20.95 54.86,20.67 
				54.86,20.66 54.87,20.66 54.89,20.7 54.92,20.74 54.92,20.75 54.94,20.79 54.94,20.8 54.96,20.83 54.96,20.84 54.99,20.88 
				54.99,20.9 64.91,41 64.92,41.01 64.93,41.04 64.95,41.09 64.96,41.09 64.96,41.11 64.97,41.13 64.98,41.13 64.99,41.17 
				65,41.17 65.02,41.22 65.04,41.26 65.07,41.26 85.6,44.25 86.25,44.34 87.15,44.47 87.43,44.51 87.44,44.51 87.49,44.52 
				87.55,44.53 87.61,44.53 87.67,44.54 			"/>
			<polygon class="st11" points="87.76,44.52 87.73,44.55 87.69,44.59 87.65,44.62 87.62,44.66 87.58,44.69 87.55,44.73 
				71.31,60.56 71.32,60.68 75.19,83.21 75.15,83.19 75.16,83.23 73.9,82.57 73.89,82.57 73.87,82.55 73.85,82.51 54.85,72.52 
				35.75,82.56 34.72,83.1 34.68,83.12 34.65,83.14 34.61,83.16 34.58,83.17 34.54,83.19 34.51,83.21 34.53,83.09 34.54,83.02 
				34.55,82.97 34.56,82.9 34.6,82.7 34.85,81.23 38.38,60.66 38.38,60.62 38.39,60.61 38.39,60.56 38.37,60.55 38.37,60.54 
				38.34,60.52 38.34,60.51 38.31,60.49 38.31,60.48 38.28,60.46 38.28,60.45 38.26,60.43 38.25,60.43 22.19,44.76 22.15,44.73 
				22.11,44.68 22.1,44.68 22.07,44.64 22.06,44.64 22.03,44.6 21.99,44.56 21.98,44.56 21.95,44.52 21.97,44.52 21.99,44.51 
				22.02,44.51 22.29,44.47 23.29,44.32 23.64,44.27 44.55,41.24 44.68,41.22 44.76,41.06 53.84,22.66 53.91,22.51 54.07,22.19 
				54.72,20.87 54.84,20.63 54.84,20.62 54.85,20.62 54.87,20.66 54.89,20.7 54.92,20.74 54.92,20.75 54.94,20.79 54.94,20.8 
				54.96,20.83 54.96,20.84 54.99,20.88 54.99,20.9 64.45,40.08 64.91,41 64.92,41.01 64.93,41.04 64.95,41.09 64.96,41.09 
				64.96,41.11 64.97,41.13 64.98,41.13 64.99,41.17 65,41.17 65.02,41.22 65.05,41.22 85.68,44.22 86.22,44.3 87.23,44.44 
				87.47,44.48 87.52,44.49 87.58,44.49 87.64,44.5 87.71,44.51 			"/>
			<polygon class="st12" points="87.74,44.48 87.71,44.51 87.67,44.54 87.63,44.58 87.6,44.62 87.57,44.65 87.53,44.69 87.49,44.72 
				71.28,60.52 71.3,60.63 75.17,83.17 75.13,83.15 75.13,83.19 73.87,82.52 73.84,82.48 73.83,82.47 54.82,72.48 35.72,82.52 
				34.73,83.04 34.69,83.06 34.66,83.07 34.62,83.1 34.59,83.11 34.55,83.13 34.52,83.15 34.48,83.17 34.49,83.11 34.5,83.04 
				34.51,82.99 34.52,82.93 34.52,82.92 34.55,82.77 34.8,81.3 38.35,60.63 38.35,60.6 38.36,60.58 38.36,60.55 38.37,60.55 
				38.37,60.52 38.34,60.49 38.32,60.47 38.26,60.41 22.2,44.76 22.19,44.76 22.16,44.72 22.11,44.68 22.07,44.64 22.04,44.6 
				22.03,44.6 21.91,44.48 21.93,44.48 21.95,44.47 21.98,44.47 22.2,44.44 23.26,44.28 23.27,44.28 23.55,44.24 44.51,41.19 
				44.65,41.17 44.66,41.15 44.73,41.02 54.07,22.08 54.72,20.77 54.81,20.58 54.82,20.58 54.84,20.62 54.85,20.62 54.86,20.66 
				54.87,20.66 54.89,20.7 54.89,20.72 54.91,20.75 54.91,20.76 54.94,20.8 54.94,20.81 54.96,20.84 54.96,20.85 54.98,20.9 
				54.99,20.9 55.29,21.53 64.45,40.08 64.9,41 64.91,41 64.92,41.04 64.93,41.04 64.95,41.09 64.96,41.1 64.96,41.11 64.97,41.13 
				64.99,41.17 65.02,41.17 85.77,44.19 86.2,44.25 87.31,44.42 87.5,44.44 87.55,44.45 87.62,44.46 87.68,44.47 			"/>
			<polygon class="st13" points="87.71,44.44 87.68,44.47 87.64,44.5 87.57,44.57 87.54,44.61 87.51,44.64 87.47,44.68 87.43,44.71 
				71.26,60.48 71.27,60.59 75.14,83.13 75.1,83.11 75.11,83.15 73.84,82.48 73.83,82.47 73.82,82.44 73.8,82.42 54.8,72.43 
				35.7,82.47 34.74,82.98 34.7,83 34.67,83.02 34.63,83.04 34.6,83.05 34.56,83.08 34.53,83.09 34.49,83.11 34.46,83.13 
				34.47,83.06 34.51,82.82 34.77,81.35 38.33,60.61 38.33,60.54 38.34,60.52 38.34,60.48 38.32,60.47 38.32,60.46 38.31,60.46 
				38.3,60.44 38.29,60.44 38.29,60.43 38.26,60.41 38.26,60.4 22.22,44.76 22.18,44.72 22.13,44.68 22.09,44.64 22.05,44.6 
				22.01,44.55 21.97,44.52 21.93,44.48 21.89,44.44 21.91,44.44 21.93,44.43 21.94,44.43 22.11,44.41 23.24,44.24 23.46,44.21 
				44.48,41.15 44.63,41.13 44.64,41.12 44.7,40.98 54.07,22 54.72,20.68 54.79,20.54 54.79,20.53 54.8,20.52 54.82,20.57 
				54.85,20.62 54.87,20.66 54.89,20.7 54.89,20.71 54.91,20.75 54.92,20.75 54.94,20.79 54.94,20.81 54.96,20.83 54.96,20.85 
				54.99,20.89 54.99,20.9 64.45,40.08 64.9,41 64.91,41 64.92,41.04 64.93,41.04 64.95,41.09 64.96,41.1 64.96,41.11 64.97,41.13 
				65,41.13 65,41.14 85.85,44.16 86.17,44.21 87.39,44.39 87.53,44.41 87.59,44.42 			"/>
			<polygon class="st14" points="87.69,44.39 87.62,44.46 87.58,44.49 87.55,44.53 87.48,44.6 87.44,44.63 87.41,44.67 87.37,44.7 
				71.23,60.43 71.25,60.55 75.11,83.08 75.08,83.06 75.08,83.11 73.82,82.44 73.8,82.42 73.8,82.4 73.79,82.4 73.77,82.38 
				54.77,72.39 35.67,82.43 34.76,82.91 34.72,82.93 34.64,82.97 34.61,82.98 34.57,83 34.54,83.02 34.5,83.04 34.47,83.06 
				34.43,83.08 34.45,82.96 34.46,82.89 34.72,81.41 38.29,60.58 38.29,60.56 38.3,60.54 38.3,60.52 38.31,60.49 38.31,60.46 
				38.32,60.46 38.32,60.43 38.29,60.4 38.27,60.38 38.26,60.38 22.24,44.76 22.2,44.72 22.15,44.67 22.11,44.63 22.07,44.6 
				22.03,44.55 21.99,44.51 21.95,44.47 21.91,44.44 21.86,44.39 21.89,44.39 21.99,44.37 23.21,44.19 23.22,44.19 23.35,44.17 
				44.46,41.11 44.6,41.09 44.61,41.08 44.67,40.94 54.07,21.9 54.72,20.58 54.77,20.49 54.79,20.53 54.82,20.57 54.82,20.58 
				54.84,20.62 54.84,20.63 54.86,20.66 54.86,20.67 54.89,20.71 54.89,20.72 54.91,20.75 54.91,20.77 54.93,20.81 54.94,20.81 
				54.95,20.85 54.96,20.85 54.98,20.9 54.98,20.92 55.29,21.53 64.83,40.88 64.89,41 64.9,41 64.92,41.04 64.94,41.09 64.97,41.09 
				64.97,41.1 64.99,41.1 85.93,44.14 86.15,44.17 87.48,44.36 87.57,44.37 			"/>
			<polygon class="st15" points="87.66,44.35 87.59,44.42 87.55,44.45 87.52,44.49 87.45,44.56 87.41,44.59 87.38,44.62 
				87.34,44.66 87.31,44.69 71.2,60.39 71.22,60.5 75.09,83.04 75.05,83.02 75.06,83.06 73.8,82.4 73.79,82.4 73.77,82.38 
				73.75,82.34 54.75,72.35 35.65,82.39 34.77,82.85 34.73,82.87 34.65,82.91 34.62,82.93 34.58,82.95 34.55,82.97 34.51,82.99 
				34.48,83 34.44,83.02 34.41,83.04 34.42,82.98 34.43,82.93 34.68,81.46 38.27,60.55 38.27,60.54 38.28,60.52 38.28,60.45 
				38.29,60.44 38.29,60.39 38.27,60.38 38.27,60.37 38.24,60.34 22.26,44.76 22.22,44.72 22.17,44.67 22.05,44.55 22.04,44.55 
				22.01,44.51 22,44.51 21.97,44.47 21.96,44.47 21.93,44.43 21.89,44.39 21.88,44.39 21.85,44.35 21.9,44.34 23.19,44.15 
				23.25,44.14 44.42,41.06 44.58,41.04 44.65,40.91 54.07,21.82 54.72,20.5 54.75,20.45 54.77,20.49 54.79,20.53 54.82,20.57 
				54.82,20.58 54.84,20.62 54.84,20.63 54.86,20.66 54.86,20.67 54.89,20.71 54.89,20.72 54.91,20.75 54.91,20.77 54.93,20.81 
				54.94,20.81 54.95,20.85 54.95,20.86 54.98,20.9 54.98,20.92 55.29,21.53 64.45,40.08 64.9,41 64.92,41.04 64.95,41.04 
				64.96,41.05 65,41.05 86,44.11 86.12,44.13 87.56,44.34 87.61,44.34 			"/>
			<polygon class="st16" points="87.64,44.31 87.61,44.34 87.57,44.37 87.53,44.41 87.5,44.44 87.47,44.48 87.44,44.51 87.43,44.51 
				87.4,44.55 87.39,44.55 87.25,44.69 71.26,60.27 71.18,60.35 71.2,60.46 75.06,83 75.03,82.98 75.03,83.02 73.77,82.35 
				73.74,82.31 73.74,82.3 73.73,82.29 54.82,72.35 54.72,72.3 54.6,72.36 54.6,72.37 35.62,82.34 34.78,82.79 34.74,82.81 
				34.7,82.83 34.66,82.85 34.63,82.86 34.63,82.87 34.59,82.89 34.56,82.9 34.52,82.92 34.52,82.93 34.49,82.94 34.45,82.96 
				34.42,82.98 34.38,83 34.63,81.53 38.24,60.53 38.24,60.49 38.25,60.47 38.25,60.43 38.26,60.43 38.26,60.38 38.27,60.38 
				38.27,60.35 38.22,60.3 22.77,45.24 22.27,44.75 22.23,44.72 22.18,44.67 22.17,44.67 22.14,44.63 22.13,44.63 22.1,44.59 
				22.09,44.59 22.05,44.55 22.02,44.51 22.01,44.51 21.98,44.47 21.97,44.47 21.94,44.43 21.93,44.43 21.89,44.39 21.85,44.35 
				21.81,44.31 23.16,44.11 23.17,44.11 44.39,41.02 44.55,41 44.62,40.87 54.07,21.72 54.72,20.39 54.75,20.45 54.77,20.49 
				54.79,20.53 54.79,20.54 54.81,20.58 54.82,20.58 54.84,20.62 54.84,20.63 54.86,20.66 54.86,20.67 54.88,20.72 54.89,20.72 
				54.91,20.76 54.91,20.77 54.93,20.81 54.93,20.82 54.95,20.85 54.95,20.86 54.98,20.91 54.98,20.92 55.41,21.8 64.83,40.88 
				64.89,41 64.91,41 64.92,41.01 64.94,41.01 65.02,41.02 86.09,44.08 86.1,44.08 			"/>
		</g>
		<linearGradient id="SVGID_11_" gradientUnits="userSpaceOnUse" x1="33.165" y1="54.5705" x2="38.4431" y2="49.4831">
			<stop  offset="0" style="stop-color:#A3784B"/>
			<stop  offset="1" style="stop-color:#FCE19E"/>
		</linearGradient>
		<polygon class="st17" points="54.72,55 54.36,54.88 54.33,54.87 54.27,54.85 22.89,44.66 22.8,44.63 22.69,44.59 22.59,44.56 
			22.5,44.53 22.39,44.5 22.29,44.47 22.2,44.44 22.11,44.41 21.99,44.37 21.9,44.34 21.81,44.31 23.16,44.11 23.17,44.11 
			44.39,41.02 44.55,41 44.58,41.04 44.61,41.08 44.64,41.12 44.66,41.15 44.69,41.2 44.72,41.23 44.75,41.27 44.77,41.31 
			44.8,41.35 44.83,41.38 44.85,41.42 54.27,54.38 54.34,54.48 		"/>
		<linearGradient id="SVGID_12_" gradientUnits="userSpaceOnUse" x1="56.7086" y1="37.154" x2="47.6184" y2="39.6259">
			<stop  offset="0" style="stop-color:#A3784B"/>
			<stop  offset="1" style="stop-color:#FCE19E"/>
		</linearGradient>
		<polygon class="st18" points="54.72,20.39 54.72,55 54.34,54.48 54.27,54.38 44.85,41.42 44.83,41.38 44.8,41.35 44.77,41.31 
			44.75,41.27 44.72,41.23 44.69,41.2 44.66,41.15 44.64,41.12 44.61,41.08 44.58,41.04 44.55,41 44.62,40.87 54.07,21.72 		"/>
		<linearGradient id="SVGID_13_" gradientUnits="userSpaceOnUse" x1="71.4516" y1="50.5732" x2="69.0564" y2="42.4751">
			<stop  offset="0" style="stop-color:#A3784B"/>
			<stop  offset="1" style="stop-color:#FCE19E"/>
		</linearGradient>
		<polygon class="st19" points="87.64,44.31 87.56,44.34 87.48,44.36 87.39,44.39 87.31,44.42 87.23,44.44 87.15,44.47 87.06,44.5 
			86.97,44.53 86.89,44.55 86.81,44.58 86.72,44.61 55.11,54.87 55.09,54.88 54.72,55 55.09,54.49 55.18,54.37 64.89,41 64.91,41 
			64.92,41.01 64.94,41.01 65.02,41.02 86.09,44.08 		"/>
		<linearGradient id="SVGID_14_" gradientUnits="userSpaceOnUse" x1="61.7497" y1="58.4211" x2="80.7432" y2="46.6101">
			<stop  offset="0" style="stop-color:#A3784B"/>
			<stop  offset="1" style="stop-color:#FCE19E"/>
		</linearGradient>
		<polygon class="st20" points="87.64,44.31 87.61,44.34 87.57,44.37 87.53,44.41 87.5,44.44 87.47,44.48 87.44,44.51 87.43,44.51 
			87.4,44.55 87.39,44.55 87.25,44.69 71.26,60.27 71.18,60.35 55.46,55.24 55.32,55.19 54.72,55 55.09,54.88 55.11,54.87 
			86.72,44.61 86.81,44.58 86.89,44.55 86.97,44.53 87.06,44.5 87.15,44.47 87.23,44.44 87.31,44.42 87.39,44.39 87.48,44.36 
			87.56,44.34 		"/>
		<linearGradient id="SVGID_15_" gradientUnits="userSpaceOnUse" x1="62.0752" y1="45.05" x2="55.5046" y2="38.4794">
			<stop  offset="0" style="stop-color:#A3784B"/>
			<stop  offset="1" style="stop-color:#FCE19E"/>
		</linearGradient>
		<polygon class="st21" points="64.89,41 55.18,54.37 55.09,54.49 54.72,55 54.72,20.39 54.75,20.45 54.77,20.49 54.79,20.53 
			54.79,20.54 54.81,20.58 54.82,20.58 54.84,20.62 54.84,20.63 54.86,20.66 54.86,20.67 54.88,20.72 54.89,20.72 54.91,20.76 
			54.91,20.77 54.93,20.81 54.93,20.82 54.95,20.85 54.95,20.86 54.98,20.91 54.98,20.92 55.41,21.8 64.83,40.88 		"/>
		<linearGradient id="SVGID_16_" gradientUnits="userSpaceOnUse" x1="40.506" y1="52.6668" x2="19.0437" y2="34.72">
			<stop  offset="0" style="stop-color:#A3784B"/>
			<stop  offset="1" style="stop-color:#FCE19E"/>
		</linearGradient>
		<polygon class="st22" points="54.72,55 54.13,55.19 53.99,55.24 38.27,60.35 38.22,60.3 22.77,45.24 22.27,44.75 22.23,44.72 
			22.18,44.67 22.17,44.67 22.14,44.63 22.13,44.63 22.1,44.59 22.09,44.59 22.05,44.55 22.02,44.51 22.01,44.51 21.98,44.47 
			21.97,44.47 21.94,44.43 21.93,44.43 21.89,44.39 21.85,44.35 21.81,44.31 21.9,44.34 21.99,44.37 22.11,44.41 22.2,44.44 
			22.29,44.47 22.39,44.5 22.5,44.53 22.59,44.56 22.69,44.59 22.8,44.63 22.89,44.66 54.27,54.85 54.33,54.87 54.36,54.88 		"/>
		
			<linearGradient id="SVGID_17_" gradientUnits="userSpaceOnUse" x1="65.3075" y1="28.7348" x2="61.8103" y2="58.0908" gradientTransform="matrix(1 0 0 -1 0 109.8898)">
			<stop  offset="0" style="stop-color:#A3784B"/>
			<stop  offset="1" style="stop-color:#FCE19E"/>
		</linearGradient>
		<polygon class="st23" points="54.72,72.3 75.06,83 54.72,55 		"/>
		
			<linearGradient id="SVGID_18_" gradientUnits="userSpaceOnUse" x1="59.7122" y1="41.4119" x2="72.3237" y2="40.1401" gradientTransform="matrix(1 0 0 -1 0 109.8898)">
			<stop  offset="0" style="stop-color:#A3784B"/>
			<stop  offset="1" style="stop-color:#FCE19E"/>
		</linearGradient>
		<polygon class="st24" points="54.72,55 75.06,83 71.18,60.35 		"/>
		<linearGradient id="SVGID_19_" gradientUnits="userSpaceOnUse" x1="45.1766" y1="76" x2="60.3526" y2="56.3606">
			<stop  offset="0" style="stop-color:#A3784B"/>
			<stop  offset="1" style="stop-color:#FCE19E"/>
		</linearGradient>
		<polygon class="st25" points="54.72,55 54.72,72.3 54.6,72.36 54.6,72.37 34.78,82.79 34.74,82.81 34.7,82.83 34.66,82.85 
			34.63,82.87 34.59,82.89 34.56,82.9 34.52,82.92 34.52,82.93 34.49,82.94 34.45,82.96 34.42,82.98 34.38,83 34.43,82.93 
			34.46,82.89 34.51,82.82 34.55,82.77 34.6,82.7 34.63,82.65 34.68,82.58 34.72,82.53 34.77,82.47 34.8,82.42 34.85,82.35 
			54.44,55.38 54.47,55.35 54.47,55.34 54.5,55.31 		"/>
		<linearGradient id="SVGID_20_" gradientUnits="userSpaceOnUse" x1="48.0148" y1="75.0495" x2="41.137" y2="63.0405">
			<stop  offset="0" style="stop-color:#A3784B"/>
			<stop  offset="1" style="stop-color:#FCE19E"/>
		</linearGradient>
		<polygon class="st26" points="54.72,55 54.5,55.31 54.47,55.34 54.47,55.35 54.44,55.38 34.85,82.35 34.8,82.42 34.77,82.47 
			34.72,82.53 34.68,82.58 34.63,82.65 34.6,82.7 34.55,82.77 34.51,82.82 34.46,82.89 34.43,82.93 34.38,83 34.63,81.53 
			38.24,60.53 38.24,60.51 38.25,60.49 38.25,60.44 38.26,60.43 38.26,60.38 38.27,60.38 38.27,60.35 53.99,55.24 54.13,55.19 		"/>
		<polygon class="st27" points="54.72,55 54.51,55.43 54.6,72.37 54.72,72.3 54.82,72.35 54.97,55.2 		"/>
		<polygon class="st28" points="54.72,55 55.07,55.33 71.2,60.46 71.18,60.35 71.26,60.27 54.99,54.83 		"/>
		<polygon class="st29" points="65.02,41.02 65,41.05 64.98,41.08 64.97,41.09 64.97,41.1 64.96,41.1 64.96,41.11 55.5,54.26 
			55.14,54.77 55.09,54.8 55.02,54.84 54.72,55 54.64,54.69 54.66,54.66 54.71,54.6 54.72,54.58 54.73,54.57 54.78,54.5 55.1,54.07 
			64.83,40.88 64.89,41 64.91,41 64.92,41.01 64.94,41.01 		"/>
		<polygon class="st30" points="54.72,55 54.41,54.98 54.39,54.96 54.35,54.89 54.33,54.87 54.27,54.78 53.96,54.35 44.72,41.49 
			44.7,41.45 44.67,41.41 44.64,41.37 44.6,41.32 44.58,41.28 44.55,41.24 44.51,41.19 44.48,41.15 44.46,41.11 44.42,41.06 
			44.39,41.02 44.55,41 44.62,40.87 44.65,40.91 44.67,40.94 44.7,40.98 44.73,41.02 44.76,41.06 44.78,41.09 44.81,41.13 
			44.84,41.17 44.87,41.21 44.89,41.24 44.92,41.28 54.26,54.02 54.64,54.53 54.65,54.58 54.66,54.66 		"/>
		<polygon class="st27" points="54.72,55 54.25,54.94 38.22,60.3 38.27,60.35 38.25,60.45 54.61,55.3 		"/>
		<linearGradient id="SVGID_21_" gradientUnits="userSpaceOnUse" x1="57.9028" y1="45.5496" x2="84.4304" y2="53.9882">
			<stop  offset="1.800000e-07" style="stop-color:#FCECC5"/>
			<stop  offset="1" style="stop-color:#F9DD9B"/>
		</linearGradient>
		<polygon class="st31" points="87.64,44.31 87.61,44.34 87.57,44.37 87.53,44.41 87.5,44.44 87.47,44.48 87.44,44.51 87.43,44.51 
			87.4,44.55 87.39,44.55 87.33,44.61 87.32,44.61 87.29,44.65 87.25,44.69 86.61,45.3 55.71,55.07 55.41,55.17 55.32,55.19 
			55.02,55.29 54.97,55.3 54.95,55.31 54.72,55 54.73,54.61 54.73,54.52 54.78,54.5 55.09,54.4 55.18,54.37 55.5,54.26 85.18,44.39 
			85.28,44.35 85.35,44.33 85.43,44.3 85.52,44.27 85.6,44.25 85.68,44.22 85.77,44.19 85.85,44.16 85.93,44.14 86,44.11 
			86.09,44.08 86.1,44.08 		"/>
		<linearGradient id="SVGID_22_" gradientUnits="userSpaceOnUse" x1="21.81" y1="49.7448" x2="54.73" y2="49.7448">
			<stop  offset="0" style="stop-color:#F9DD9B"/>
			<stop  offset="1" style="stop-color:#FCECC5"/>
		</linearGradient>
		<polygon class="st32" points="54.73,54.61 54.72,55 54.5,55.31 54.47,55.34 54.47,55.35 54.44,55.38 54.4,55.37 54.08,55.26 
			53.99,55.24 53.67,55.13 22.77,45.24 22.27,44.75 22.23,44.72 22.18,44.67 22.14,44.63 22.1,44.59 22.09,44.59 22.05,44.55 
			22.02,44.51 22.01,44.51 21.98,44.47 21.97,44.47 21.94,44.43 21.93,44.43 21.89,44.39 21.85,44.35 21.81,44.31 23.16,44.11 
			23.17,44.11 23.25,44.14 23.35,44.17 23.46,44.21 23.55,44.24 23.64,44.27 23.75,44.31 23.84,44.34 23.94,44.37 24.05,44.4 
			24.14,44.44 24.23,44.47 53.96,54.35 54.27,54.46 54.34,54.48 54.65,54.58 54.71,54.6 54.72,54.61 		"/>
		<linearGradient id="SVGID_23_" gradientUnits="userSpaceOnUse" x1="34.38" y1="68.9398" x2="55" y2="68.9398">
			<stop  offset="0" style="stop-color:#F9FFB7"/>
			<stop  offset="1" style="stop-color:#FCECC5"/>
		</linearGradient>
		<polygon class="st33" points="55,55.39 54.97,55.43 54.78,55.7 54.72,55.78 54.51,56.07 35.62,82.34 34.78,82.79 34.74,82.81 
			34.7,82.83 34.66,82.85 34.63,82.86 34.63,82.87 34.59,82.89 34.56,82.9 34.52,82.92 34.52,82.93 34.49,82.94 34.45,82.96 
			34.42,82.98 34.38,83 34.63,81.53 34.68,81.46 34.72,81.41 34.77,81.35 34.8,81.3 34.85,81.23 34.89,81.18 34.93,81.12 
			34.97,81.07 35.02,81.01 35.05,80.96 35.1,80.89 53.88,55.53 54.08,55.26 54.13,55.19 54.31,54.95 54.35,54.89 54.36,54.88 
			54.72,55 54.95,55.31 54.97,55.34 54.97,55.35 		"/>
		
			<linearGradient id="SVGID_24_" gradientUnits="userSpaceOnUse" x1="55.2564" y1="54.5731" x2="74.9155" y2="27.0717" gradientTransform="matrix(1 0 0 -1 0 109.8898)">
			<stop  offset="1.800000e-07" style="stop-color:#FCECC5"/>
			<stop  offset="1" style="stop-color:#F9DD9B"/>
		</linearGradient>
		<polygon class="st34" points="55.18,54.86 54.72,55 54.5,55.31 73.77,82.35 75.03,83.02 74.77,81.48 		"/>
		<linearGradient id="SVGID_25_" gradientUnits="userSpaceOnUse" x1="54.74" y1="20.9428" x2="54.74" y2="53.8839">
			<stop  offset="1.800000e-07" style="stop-color:#FCECC5"/>
			<stop  offset="1" style="stop-color:#F9DD9B"/>
		</linearGradient>
		<polygon class="st35" points="55.41,21.8 55.1,54.07 55.09,54.4 55.09,54.88 54.72,55 54.36,54.88 54.33,54.87 54.27,54.85 
			54.27,54.38 54.26,54.02 54.08,22.74 54.08,22.55 54.07,22.45 54.07,21.72 54.72,20.39 54.75,20.45 54.77,20.49 54.79,20.53 
			54.79,20.54 54.81,20.58 54.82,20.58 54.84,20.63 54.86,20.67 54.88,20.72 54.91,20.77 54.93,20.81 54.93,20.82 54.95,20.85 
			54.95,20.86 54.98,20.91 54.98,20.92 		"/>
		<g>
			
				<linearGradient id="SVGID_26_" gradientUnits="userSpaceOnUse" x1="52.7021" y1="58.4976" x2="48.9782" y2="87.1165" gradientTransform="matrix(1 0 0 -1 0 109.8898)">
				<stop  offset="0" style="stop-color:#F9DD9B"/>
				<stop  offset="0.2963" style="stop-color:#F9DFA0"/>
				<stop  offset="0.6319" style="stop-color:#FAE4AD"/>
				<stop  offset="0.9856" style="stop-color:#FCECC4"/>
				<stop  offset="1" style="stop-color:#FCECC5"/>
			</linearGradient>
			<path class="st36" d="M53.93,22.45l-7.57,17.31c-0.15,0.36-0.12,0.78,0.09,1.11l6.8,10.6l-4.03-10.41
				c-0.22-0.58-0.24-1.22-0.05-1.81L53.93,22.45z"/>
			
				<linearGradient id="SVGID_27_" gradientUnits="userSpaceOnUse" x1="46.2475" y1="52.0031" x2="18.905" y2="63.6607" gradientTransform="matrix(1 0 0 -1 0 109.8898)">
				<stop  offset="0" style="stop-color:#F9DD9B"/>
				<stop  offset="0.2963" style="stop-color:#F9DFA0"/>
				<stop  offset="0.6319" style="stop-color:#FAE4AD"/>
				<stop  offset="0.9856" style="stop-color:#FCECC4"/>
				<stop  offset="1" style="stop-color:#FCECC5"/>
			</linearGradient>
			<path class="st37" d="M23.64,45.6l13.94,12.76c0.29,0.26,0.7,0.36,1.08,0.27l12.23-3l-11.16,0.45c-0.62,0.03-1.23-0.16-1.73-0.53
				L23.64,45.6z"/>
			
				<linearGradient id="SVGID_28_" gradientUnits="userSpaceOnUse" x1="-780.0984" y1="441.2639" x2="-807.4404" y2="452.9212" gradientTransform="matrix(0.2986 -0.9544 -0.9544 -0.2986 709.0301 -548.811)">
				<stop  offset="0" style="stop-color:#F9DD9B"/>
				<stop  offset="0.2963" style="stop-color:#F9DFA0"/>
				<stop  offset="0.6319" style="stop-color:#FAE4AD"/>
				<stop  offset="0.9856" style="stop-color:#FCECC4"/>
				<stop  offset="1" style="stop-color:#FCECC5"/>
			</linearGradient>
			<path class="st38" d="M36.47,81.86l16.34-9.49c0.34-0.2,0.56-0.56,0.58-0.95l0.79-12.57l-2.9,10.78
				c-0.16,0.6-0.52,1.12-1.03,1.49L36.47,81.86z"/>
			
				<linearGradient id="SVGID_29_" gradientUnits="userSpaceOnUse" x1="-667.6764" y1="1333.9747" x2="-695.0175" y2="1345.6317" gradientTransform="matrix(-0.809 -0.5879 -0.5879 0.809 307.3619 -1414.0598)">
				<stop  offset="0" style="stop-color:#F9DD9B"/>
				<stop  offset="0.2963" style="stop-color:#F9DFA0"/>
				<stop  offset="0.6319" style="stop-color:#FAE4AD"/>
				<stop  offset="0.9856" style="stop-color:#FCECC4"/>
				<stop  offset="1" style="stop-color:#FCECC5"/>
			</linearGradient>
			<path class="st39" d="M74.34,80.88l-3.78-18.51c-0.08-0.39-0.35-0.7-0.71-0.85l-11.66-4.76l9.29,6.19
				c0.52,0.34,0.9,0.86,1.08,1.45L74.34,80.88z"/>
			
				<linearGradient id="SVGID_30_" gradientUnits="userSpaceOnUse" x1="224.6196" y1="1507.6864" x2="197.2775" y2="1519.3439" gradientTransform="matrix(-0.8072 0.5903 0.5903 0.8072 -648.8118 -1301.9246)">
				<stop  offset="0" style="stop-color:#F9DD9B"/>
				<stop  offset="0.2963" style="stop-color:#F9DFA0"/>
				<stop  offset="0.6319" style="stop-color:#FAE4AD"/>
				<stop  offset="0.9856" style="stop-color:#FCECC4"/>
				<stop  offset="1" style="stop-color:#FCECC5"/>
			</linearGradient>
			<path class="st40" d="M85.36,44.24l-18.78-2.07c-0.39-0.04-0.78,0.12-1.03,0.42l-8.1,9.65l8.74-6.95
				c0.49-0.39,1.09-0.59,1.71-0.59L85.36,44.24z"/>
		</g>
		<defs>
			<filter id="Adobe_OpacityMaskFilter" filterUnits="userSpaceOnUse" x="44.39" y="45.28" width="20.2" height="20.2">
				<feColorMatrix  type="matrix" values="1 0 0 0 0  0 1 0 0 0  0 0 1 0 0  0 0 0 1 0"/>
			</filter>
		</defs>
		<mask maskUnits="userSpaceOnUse" x="44.39" y="45.28" width="20.2" height="20.2" id="SVGID_1_">
			<g class="st41">
				
					<radialGradient id="SVGID_31_" cx="54.38" cy="54.7198" r="10.12" gradientTransform="matrix(1 0 0 -1 0 109.8898)" gradientUnits="userSpaceOnUse">
					<stop  offset="0" style="stop-color:#FFFFFF"/>
					<stop  offset="0.1518" style="stop-color:#FFFFFF"/>
					<stop  offset="0.246" style="stop-color:#CBCBCB"/>
					<stop  offset="0.3549" style="stop-color:#969696"/>
					<stop  offset="0.4654" style="stop-color:#686868"/>
					<stop  offset="0.5752" style="stop-color:#424242"/>
					<stop  offset="0.684" style="stop-color:#252525"/>
					<stop  offset="0.7916" style="stop-color:#111111"/>
					<stop  offset="0.8976" style="stop-color:#040404"/>
					<stop  offset="1" style="stop-color:#000000"/>
				</radialGradient>
				<circle class="st42" cx="54.38" cy="55.17" r="10.12"/>
			</g>
		</mask>
		<ellipse class="st43" cx="54.49" cy="55.38" rx="10.1" ry="10.1"/>
		<defs>
			<filter id="Adobe_OpacityMaskFilter_1_" filterUnits="userSpaceOnUse" x="32.69" y="73" width="10.02" height="10.02">
				<feColorMatrix  type="matrix" values="1 0 0 0 0  0 1 0 0 0  0 0 1 0 0  0 0 0 1 0"/>
			</filter>
		</defs>
		<mask maskUnits="userSpaceOnUse" x="32.69" y="73" width="10.02" height="10.02" id="SVGID_2_">
			<g class="st44">
				
					<radialGradient id="SVGID_32_" cx="37.65" cy="31.9898" r="5.02" gradientTransform="matrix(1 0 0 -1 0 109.8898)" gradientUnits="userSpaceOnUse">
					<stop  offset="0" style="stop-color:#FFFFFF"/>
					<stop  offset="0.1518" style="stop-color:#FFFFFF"/>
					<stop  offset="0.246" style="stop-color:#CBCBCB"/>
					<stop  offset="0.3549" style="stop-color:#969696"/>
					<stop  offset="0.4654" style="stop-color:#686868"/>
					<stop  offset="0.5752" style="stop-color:#424242"/>
					<stop  offset="0.684" style="stop-color:#252525"/>
					<stop  offset="0.7916" style="stop-color:#111111"/>
					<stop  offset="0.8976" style="stop-color:#040404"/>
					<stop  offset="1" style="stop-color:#000000"/>
				</radialGradient>
				<circle class="st45" cx="37.65" cy="77.9" r="5.02"/>
			</g>
		</mask>
		<path class="st46" d="M42.71,78.01c0,2.77-2.24,5.01-5.01,5.01s-5.01-2.24-5.01-5.01c0-2.77,2.24-5.01,5.01-5.01
			C40.47,73,42.71,75.24,42.71,78.01z"/>
		<defs>
			<filter id="Adobe_OpacityMaskFilter_2_" filterUnits="userSpaceOnUse" x="22.85" y="44.69" width="10.02" height="10.02">
				<feColorMatrix  type="matrix" values="1 0 0 0 0  0 1 0 0 0  0 0 1 0 0  0 0 0 1 0"/>
			</filter>
		</defs>
		<mask maskUnits="userSpaceOnUse" x="22.85" y="44.69" width="10.02" height="10.02" id="SVGID_3_">
			<g class="st47">
				
					<radialGradient id="SVGID_33_" cx="27.8" cy="60.2998" r="5.02" gradientTransform="matrix(1 0 0 -1 0 109.8898)" gradientUnits="userSpaceOnUse">
					<stop  offset="0" style="stop-color:#FFFFFF"/>
					<stop  offset="0.1518" style="stop-color:#FFFFFF"/>
					<stop  offset="0.246" style="stop-color:#CBCBCB"/>
					<stop  offset="0.3549" style="stop-color:#969696"/>
					<stop  offset="0.4654" style="stop-color:#686868"/>
					<stop  offset="0.5752" style="stop-color:#424242"/>
					<stop  offset="0.684" style="stop-color:#252525"/>
					<stop  offset="0.7916" style="stop-color:#111111"/>
					<stop  offset="0.8976" style="stop-color:#040404"/>
					<stop  offset="1" style="stop-color:#000000"/>
				</radialGradient>
				<circle class="st48" cx="27.8" cy="49.59" r="5.02"/>
			</g>
		</mask>
		<path class="st49" d="M32.87,49.7c0,2.77-2.24,5.01-5.01,5.01s-5.01-2.24-5.01-5.01s2.24-5.01,5.01-5.01
			C30.62,44.69,32.87,46.93,32.87,49.7z"/>
		<defs>
			<filter id="Adobe_OpacityMaskFilter_3_" filterUnits="userSpaceOnUse" x="49.63" y="23.06" width="10.02" height="10.02">
				<feColorMatrix  type="matrix" values="1 0 0 0 0  0 1 0 0 0  0 0 1 0 0  0 0 0 1 0"/>
			</filter>
		</defs>
		<mask maskUnits="userSpaceOnUse" x="49.63" y="23.06" width="10.02" height="10.02" id="SVGID_4_">
			<g class="st50">
				
					<radialGradient id="SVGID_34_" cx="54.59" cy="81.9198" r="5.02" gradientTransform="matrix(1 0 0 -1 0 109.8898)" gradientUnits="userSpaceOnUse">
					<stop  offset="0" style="stop-color:#FFFFFF"/>
					<stop  offset="0.1518" style="stop-color:#FFFFFF"/>
					<stop  offset="0.246" style="stop-color:#CBCBCB"/>
					<stop  offset="0.3549" style="stop-color:#969696"/>
					<stop  offset="0.4654" style="stop-color:#686868"/>
					<stop  offset="0.5752" style="stop-color:#424242"/>
					<stop  offset="0.684" style="stop-color:#252525"/>
					<stop  offset="0.7916" style="stop-color:#111111"/>
					<stop  offset="0.8976" style="stop-color:#040404"/>
					<stop  offset="1" style="stop-color:#000000"/>
				</radialGradient>
				<path class="st51" d="M59.61,27.97c0,2.77-2.25,5.02-5.02,5.02s-5.02-2.25-5.02-5.02s2.25-5.02,5.02-5.02
					C57.36,22.95,59.61,25.19,59.61,27.97z"/>
			</g>
		</mask>
		<path class="st52" d="M59.65,28.07c0,2.77-2.24,5.01-5.01,5.01s-5.01-2.24-5.01-5.01s2.24-5.01,5.01-5.01
			C57.41,23.06,59.65,25.31,59.65,28.07z"/>
		<defs>
			<filter id="Adobe_OpacityMaskFilter_4_" filterUnits="userSpaceOnUse" x="76.61" y="41.31" width="10.02" height="10.02">
				<feColorMatrix  type="matrix" values="1 0 0 0 0  0 1 0 0 0  0 0 1 0 0  0 0 0 1 0"/>
			</filter>
		</defs>
		<mask maskUnits="userSpaceOnUse" x="76.61" y="41.31" width="10.02" height="10.02" id="SVGID_5_">
			<g class="st53">
				
					<radialGradient id="SVGID_35_" cx="81.57" cy="63.6698" r="5.02" gradientTransform="matrix(1 0 0 -1 0 109.8898)" gradientUnits="userSpaceOnUse">
					<stop  offset="0" style="stop-color:#FFFFFF"/>
					<stop  offset="0.1518" style="stop-color:#FFFFFF"/>
					<stop  offset="0.246" style="stop-color:#CBCBCB"/>
					<stop  offset="0.3549" style="stop-color:#969696"/>
					<stop  offset="0.4654" style="stop-color:#686868"/>
					<stop  offset="0.5752" style="stop-color:#424242"/>
					<stop  offset="0.684" style="stop-color:#252525"/>
					<stop  offset="0.7916" style="stop-color:#111111"/>
					<stop  offset="0.8976" style="stop-color:#040404"/>
					<stop  offset="1" style="stop-color:#000000"/>
				</radialGradient>
				<circle class="st54" cx="81.57" cy="46.22" r="5.02"/>
			</g>
		</mask>
		<path class="st55" d="M86.63,46.32c0,2.77-2.24,5.01-5.01,5.01c-2.77,0-5.01-2.24-5.01-5.01s2.24-5.01,5.01-5.01
			C84.39,41.31,86.63,43.56,86.63,46.32z"/>
		<defs>
			<filter id="Adobe_OpacityMaskFilter_5_" filterUnits="userSpaceOnUse" x="64.32" y="69.81" width="10.02" height="10.02">
				<feColorMatrix  type="matrix" values="1 0 0 0 0  0 1 0 0 0  0 0 1 0 0  0 0 0 1 0"/>
			</filter>
		</defs>
		<mask maskUnits="userSpaceOnUse" x="64.32" y="69.81" width="10.02" height="10.02" id="SVGID_6_">
			<g class="st56">
				
					<radialGradient id="SVGID_36_" cx="69.28" cy="35.1698" r="5.02" gradientTransform="matrix(1 0 0 -1 0 109.8898)" gradientUnits="userSpaceOnUse">
					<stop  offset="0" style="stop-color:#FFFFFF"/>
					<stop  offset="0.1518" style="stop-color:#FFFFFF"/>
					<stop  offset="0.246" style="stop-color:#CBCBCB"/>
					<stop  offset="0.3549" style="stop-color:#969696"/>
					<stop  offset="0.4654" style="stop-color:#686868"/>
					<stop  offset="0.5752" style="stop-color:#424242"/>
					<stop  offset="0.684" style="stop-color:#252525"/>
					<stop  offset="0.7916" style="stop-color:#111111"/>
					<stop  offset="0.8976" style="stop-color:#040404"/>
					<stop  offset="1" style="stop-color:#000000"/>
				</radialGradient>
				<circle class="st57" cx="69.28" cy="74.72" r="5.02"/>
			</g>
		</mask>
		<path class="st58" d="M74.34,74.82c0,2.77-2.24,5.01-5.01,5.01c-2.77,0-5.01-2.24-5.01-5.01s2.24-5.01,5.01-5.01
			S74.34,72.06,74.34,74.82z"/>
	</g>
</g>
</svg>
