<?xml version="1.0" encoding="utf-8"?>
<!-- Generator: Adobe Illustrator 25.0.1, SVG Export Plug-In . SVG Version: 6.00 Build 0)  -->
<svg version="1.1" id="Layer_1" xmlns="http://www.w3.org/2000/svg" xmlns:xlink="http://www.w3.org/1999/xlink" x="0px" y="0px"
	 viewBox="0 0 110 110" style="enable-background:new 0 0 110 110;" xml:space="preserve">
<style type="text/css">
	.st0{fill:url(#SVGID_8_);}
	.st1{fill:url(#SVGID_9_);}
	.st2{fill:url(#SVGID_10_);}
	.st3{fill:url(#SVGID_11_);}
	.st4{fill:#FFFFFF;}
	.st5{fill:#8A8A8A;fill-opacity:0;}
	.st6{opacity:0.0909;fill:#8A8A8A;enable-background:new    ;}
	.st7{opacity:0.1818;fill:#8A8A8A;enable-background:new    ;}
	.st8{opacity:0.2727;fill:#8B8B8B;enable-background:new    ;}
	.st9{opacity:0.3636;fill:#8B8B8B;enable-background:new    ;}
	.st10{opacity:0.4545;fill:#8B8B8B;enable-background:new    ;}
	.st11{opacity:0.5455;fill:#8B8B8B;enable-background:new    ;}
	.st12{opacity:0.6364;fill:#8B8B8B;enable-background:new    ;}
	.st13{opacity:0.7273;fill:#8B8B8B;enable-background:new    ;}
	.st14{opacity:0.8182;fill:#8C8C8C;enable-background:new    ;}
	.st15{opacity:0.9091;fill:#8C8C8C;enable-background:new    ;}
	.st16{fill:#8C8C8C;}
	.st17{fill:url(#SVGID_12_);}
	.st18{fill:url(#SVGID_13_);}
	.st19{fill:url(#SVGID_14_);}
	.st20{fill:url(#SVGID_15_);}
	.st21{fill:url(#SVGID_16_);}
	.st22{fill:url(#SVGID_17_);}
	.st23{fill:url(#SVGID_18_);}
	.st24{fill:url(#SVGID_19_);}
	.st25{fill:url(#SVGID_20_);}
	.st26{fill:url(#SVGID_21_);}
	.st27{fill:#7B7B9C;}
	.st28{fill:#8F8FB0;}
	.st29{fill:#A0A0C1;}
	.st30{fill:#ACACCE;}
	.st31{fill:url(#SVGID_22_);}
	.st32{fill:url(#SVGID_23_);}
	.st33{fill:url(#SVGID_24_);}
	.st34{fill:url(#SVGID_25_);}
	.st35{fill:url(#SVGID_26_);}
	.st36{filter:url(#Adobe_OpacityMaskFilter);}
	.st37{fill:url(#SVGID_27_);}
	.st38{mask:url(#SVGID_1_);}
	.st39{fill:url(#SVGID_28_);}
	.st40{fill:url(#SVGID_29_);}
	.st41{fill:url(#SVGID_30_);}
	.st42{fill:url(#SVGID_31_);}
	.st43{fill:url(#SVGID_32_);}
	.st44{filter:url(#Adobe_OpacityMaskFilter_1_);}
	.st45{fill:url(#SVGID_33_);}
	.st46{mask:url(#SVGID_2_);fill:#EAEAFF;}
	.st47{filter:url(#Adobe_OpacityMaskFilter_2_);}
	.st48{fill:url(#SVGID_34_);}
	.st49{mask:url(#SVGID_3_);fill:#E3E3FF;}
	.st50{filter:url(#Adobe_OpacityMaskFilter_3_);}
	.st51{fill:url(#SVGID_35_);}
	.st52{mask:url(#SVGID_4_);fill:#E3E3FF;}
	.st53{filter:url(#Adobe_OpacityMaskFilter_4_);}
	.st54{fill:url(#SVGID_36_);}
	.st55{mask:url(#SVGID_5_);fill:#E3E3FF;}
	.st56{filter:url(#Adobe_OpacityMaskFilter_5_);}
	.st57{fill:url(#SVGID_37_);}
	.st58{mask:url(#SVGID_6_);fill:#E3E3FF;}
	.st59{filter:url(#Adobe_OpacityMaskFilter_6_);}
	.st60{fill:url(#SVGID_38_);}
	.st61{mask:url(#SVGID_7_);fill:#E3E3FF;}
</style>
<g id="BG">
</g>
<g id="Bronze_star">
</g>
<g id="Silver_Star">
	<g>
		<g>
			<linearGradient id="SVGID_8_" gradientUnits="userSpaceOnUse" x1="31.8973" y1="80.5824" x2="78.9781" y2="33.5016">
				<stop  offset="0" style="stop-color:#8080A1"/>
				<stop  offset="0.3089" style="stop-color:#E0E0FF"/>
				<stop  offset="0.4346" style="stop-color:#E8E8FF"/>
				<stop  offset="0.6021" style="stop-color:#DFDFFF"/>
				<stop  offset="1" style="stop-color:#9999BA"/>
			</linearGradient>
			<polygon class="st0" points="75.35,83.49 75.31,83.47 75.32,83.51 74.05,82.84 74.01,82.79 55.01,72.8 35.91,82.84 34.66,83.49 
				34.67,83.43 34.64,83.45 34.65,83.38 34.61,83.4 34.62,83.34 34.59,83.36 34.6,83.3 34.56,83.32 34.57,83.25 34.54,83.27 
				34.55,83.21 34.51,83.23 34.52,83.17 34.49,83.19 34.5,83.13 34.46,83.15 34.47,83.08 34.44,83.1 34.45,83.04 34.41,83.06 
				34.42,83 34.39,83.02 34.39,82.99 34.38,83 34.63,81.53 38.24,60.53 22.09,44.8 22.11,44.8 22.07,44.76 22.09,44.76 22.04,44.71 
				22.06,44.71 22.03,44.67 21.99,44.63 22.02,44.63 21.98,44.58 21.94,44.54 21.96,44.54 21.92,44.5 21.94,44.5 21.89,44.45 
				21.91,44.45 21.88,44.41 21.84,44.37 21.86,44.37 21.83,44.33 21.81,44.31 23.16,44.11 23.17,44.11 44.39,41.02 44.55,41 
				44.62,40.87 54.07,21.72 54.72,20.39 54.73,20.41 54.75,20.46 54.78,20.51 54.8,20.55 54.83,20.6 54.85,20.64 54.87,20.68 
				54.88,20.67 54.9,20.71 54.93,20.77 54.95,20.81 54.96,20.8 54.98,20.84 55.01,20.9 64.94,41.01 65.02,41.02 86.09,44.08 
				86.1,44.08 87.64,44.31 87.62,44.33 87.64,44.33 87.61,44.36 87.67,44.37 87.64,44.4 87.69,44.41 87.66,44.44 87.72,44.45 
				87.68,44.49 87.74,44.5 87.71,44.53 87.77,44.54 87.74,44.57 87.79,44.58 87.75,44.62 87.82,44.63 87.79,44.66 87.84,44.67 
				87.81,44.7 87.87,44.71 87.83,44.75 87.89,44.76 87.86,44.79 87.92,44.8 71.46,60.84 71.48,60.95 			"/>
			<linearGradient id="SVGID_9_" gradientUnits="userSpaceOnUse" x1="16.2296" y1="93.7702" x2="95.704" y2="14.2958">
				<stop  offset="0" style="stop-color:#8080A1"/>
				<stop  offset="0.3089" style="stop-color:#E0E0FF"/>
				<stop  offset="0.4346" style="stop-color:#E8E8FF"/>
				<stop  offset="0.6021" style="stop-color:#DFDFFF"/>
				<stop  offset="1" style="stop-color:#9999BA"/>
			</linearGradient>
			<path class="st1" d="M55,0C24.62,0,0,24.62,0,55s24.62,55,55,55s55-24.62,55-55S85.38,0,55,0z M55,97.62
				c-23.54,0-42.62-19.08-42.62-42.62S31.46,12.38,55,12.38S97.62,31.46,97.62,55S78.54,97.62,55,97.62z"/>
			<linearGradient id="SVGID_10_" gradientUnits="userSpaceOnUse" x1="21.81" y1="51.9498" x2="87.92" y2="51.9498">
				<stop  offset="0" style="stop-color:#8080A1"/>
				<stop  offset="0.3089" style="stop-color:#E0E0FF"/>
				<stop  offset="0.4346" style="stop-color:#E8E8FF"/>
				<stop  offset="0.6021" style="stop-color:#DFDFFF"/>
				<stop  offset="1" style="stop-color:#9999BA"/>
			</linearGradient>
			<polygon class="st2" points="75.35,83.49 75.31,83.47 75.32,83.51 74.05,82.84 74.01,82.79 55.01,72.8 35.91,82.84 34.66,83.49 
				34.67,83.43 34.64,83.45 34.65,83.38 34.61,83.4 34.62,83.34 34.59,83.36 34.6,83.3 34.56,83.32 34.57,83.25 34.54,83.27 
				34.55,83.21 34.51,83.23 34.52,83.17 34.49,83.19 34.5,83.13 34.46,83.15 34.47,83.08 34.44,83.1 34.45,83.04 34.41,83.06 
				34.42,83 34.39,83.02 34.39,82.99 34.38,83 34.63,81.53 38.24,60.53 22.09,44.8 22.11,44.8 22.07,44.76 22.09,44.76 22.04,44.71 
				22.06,44.71 22.03,44.67 21.99,44.63 22.02,44.63 21.98,44.58 21.94,44.54 21.96,44.54 21.92,44.5 21.94,44.5 21.89,44.45 
				21.91,44.45 21.88,44.41 21.84,44.37 21.86,44.37 21.83,44.33 21.81,44.31 23.16,44.11 23.17,44.11 44.39,41.02 44.55,41 
				44.62,40.87 54.07,21.72 54.72,20.39 54.73,20.41 54.75,20.46 54.78,20.51 54.8,20.55 54.83,20.6 54.85,20.64 54.87,20.68 
				54.88,20.67 54.9,20.71 54.93,20.77 54.95,20.81 54.96,20.8 54.98,20.84 55.01,20.9 64.94,41.01 65.02,41.02 86.09,44.08 
				86.1,44.08 87.64,44.31 87.62,44.33 87.64,44.33 87.61,44.36 87.67,44.37 87.64,44.4 87.69,44.41 87.66,44.44 87.72,44.45 
				87.68,44.49 87.74,44.5 87.71,44.53 87.77,44.54 87.74,44.57 87.79,44.58 87.75,44.62 87.82,44.63 87.79,44.66 87.84,44.67 
				87.81,44.7 87.87,44.71 87.83,44.75 87.89,44.76 87.86,44.79 87.92,44.8 71.46,60.84 71.48,60.95 			"/>
			<linearGradient id="SVGID_11_" gradientUnits="userSpaceOnUse" x1="4.21" y1="54.9998" x2="105.79" y2="54.9998">
				<stop  offset="0" style="stop-color:#8080A1"/>
				<stop  offset="0.3089" style="stop-color:#E0E0FF"/>
				<stop  offset="0.4346" style="stop-color:#E8E8FF"/>
				<stop  offset="0.6021" style="stop-color:#DFDFFF"/>
				<stop  offset="1" style="stop-color:#9999BA"/>
			</linearGradient>
			<path class="st3" d="M55,4.21C26.95,4.21,4.21,26.95,4.21,55S26.95,105.79,55,105.79S105.79,83.05,105.79,55S83.05,4.21,55,4.21z
				 M55,97.62c-23.54,0-42.62-19.08-42.62-42.62S31.46,12.38,55,12.38S97.62,31.46,97.62,55S78.54,97.62,55,97.62z"/>
			<polygon class="st4" points="75.35,83.49 75.31,83.47 75.32,83.51 74.05,82.84 74.01,82.79 55.01,72.8 35.91,82.84 34.66,83.49 
				34.67,83.43 34.64,83.45 34.65,83.38 34.61,83.4 34.62,83.34 34.59,83.36 34.6,83.3 34.56,83.32 34.57,83.25 34.54,83.27 
				34.55,83.21 34.51,83.23 34.52,83.17 34.49,83.19 34.5,83.13 34.46,83.15 34.47,83.08 34.44,83.1 34.45,83.04 34.41,83.06 
				34.42,83 34.39,83.02 34.39,82.99 34.38,83 34.63,81.53 38.24,60.53 22.09,44.8 22.11,44.8 22.07,44.76 22.09,44.76 22.04,44.71 
				22.06,44.71 22.03,44.67 21.99,44.63 22.02,44.63 21.98,44.58 21.94,44.54 21.96,44.54 21.92,44.5 21.94,44.5 21.89,44.45 
				21.91,44.45 21.88,44.41 21.84,44.37 21.86,44.37 21.83,44.33 21.81,44.31 23.16,44.11 23.17,44.11 44.39,41.02 44.55,41 
				44.62,40.87 54.07,21.72 54.72,20.39 54.73,20.41 54.75,20.46 54.78,20.51 54.8,20.55 54.83,20.6 54.85,20.64 54.87,20.68 
				54.88,20.67 54.9,20.71 54.93,20.77 54.95,20.81 54.96,20.8 54.98,20.84 55.01,20.9 64.94,41.01 65.02,41.02 86.09,44.08 
				86.1,44.08 87.64,44.31 87.62,44.33 87.64,44.33 87.61,44.36 87.67,44.37 87.64,44.4 87.69,44.41 87.66,44.44 87.72,44.45 
				87.68,44.49 87.74,44.5 87.71,44.53 87.77,44.54 87.74,44.57 87.79,44.58 87.75,44.62 87.82,44.63 87.79,44.66 87.84,44.67 
				87.81,44.7 87.87,44.71 87.83,44.75 87.89,44.76 87.86,44.79 87.92,44.8 71.46,60.84 71.48,60.95 			"/>
		</g>
		<g>
			<g>
				<polygon class="st5" points="75.35,83.49 75.31,83.47 75.32,83.51 74.05,82.84 74.01,82.79 55.01,72.8 35.91,82.84 34.66,83.49 
					34.67,83.43 34.68,83.36 34.69,83.31 34.7,83.24 34.71,83.18 34.72,83.12 34.74,83 34.76,82.93 34.78,82.81 34.78,82.79 
					34.86,82.34 35.11,80.89 38.53,60.94 38.55,60.84 38.52,60.81 38.5,60.79 38.49,60.78 38.47,60.76 38.44,60.73 38.41,60.7 
					38.38,60.68 38.38,60.67 38.36,60.65 38.33,60.62 38.3,60.6 38.3,60.59 38.27,60.57 38.27,60.56 38.25,60.54 38.24,60.53 
					22.09,44.8 22.11,44.8 22.13,44.79 22.19,44.79 22.21,44.78 22.26,44.78 22.27,44.77 22.29,44.77 22.94,44.68 23.45,44.6 
					24.27,44.48 44.74,41.5 44.83,41.49 44.86,41.43 44.93,41.29 50.34,30.34 50.38,30.25 53.15,24.65 53.16,24.64 54.08,22.78 
					54.72,21.48 54.99,20.94 54.99,20.92 55,20.91 55.01,20.9 64.94,41.01 64.95,41.03 64.97,41.07 64.98,41.07 64.98,41.08 
					65,41.12 65.02,41.16 65.03,41.19 65.05,41.24 65.06,41.24 65.07,41.28 65.08,41.28 65.09,41.32 65.1,41.32 65.11,41.36 
					65.12,41.36 65.14,41.41 65.16,41.45 65.18,41.49 82.05,43.94 82.1,43.95 84.53,44.31 84.57,44.31 85.16,44.39 86.38,44.57 
					86.69,44.62 87.24,44.7 87.26,44.7 87.32,44.71 87.37,44.72 87.44,44.73 87.56,44.75 87.61,44.75 87.68,44.76 87.8,44.78 
					87.86,44.79 87.92,44.8 71.46,60.84 71.48,60.95 				"/>
				<polygon class="st6" points="87.86,44.79 71.44,60.8 71.46,60.91 75.32,83.45 75.28,83.43 75.29,83.47 74.03,82.8 74,82.76 
					73.98,82.74 54.98,72.75 35.88,82.79 34.67,83.43 34.64,83.45 34.65,83.38 34.66,83.32 34.67,83.26 34.68,83.19 34.69,83.13 
					34.7,83.08 34.71,83.02 34.73,82.95 34.75,82.83 34.75,82.8 34.82,82.39 35.07,80.93 38.51,60.9 38.52,60.81 38.52,60.8 
					38.5,60.79 38.5,60.78 38.49,60.78 38.47,60.76 38.47,60.75 38.44,60.73 38.44,60.72 38.41,60.7 38.41,60.69 38.38,60.67 
					38.36,60.65 38.36,60.64 38.33,60.62 38.33,60.61 38.3,60.59 38.27,60.57 38.27,60.56 38.25,60.54 38.25,60.53 38.24,60.53 
					22.11,44.8 22.07,44.76 22.09,44.76 22.11,44.75 22.15,44.75 22.17,44.74 22.24,44.74 22.25,44.73 22.84,44.65 23.42,44.56 
					24.18,44.45 44.71,41.46 44.81,41.45 44.84,41.4 44.9,41.26 50.71,29.49 50.76,29.38 53.22,24.42 53.23,24.39 54.08,22.67 
					54.72,21.37 54.96,20.88 54.96,20.87 54.97,20.87 54.97,20.85 54.98,20.84 55.01,20.9 64.93,41.01 64.94,41.01 64.94,41.03 
					64.95,41.03 64.96,41.07 64.97,41.09 64.98,41.11 64.98,41.12 65,41.15 65,41.16 65.02,41.19 65.04,41.24 65.05,41.24 
					65.06,41.28 65.07,41.28 65.08,41.32 65.09,41.32 65.1,41.36 65.11,41.36 65.13,41.41 65.15,41.45 65.16,41.45 83.12,44.06 
					83.22,44.07 84.78,44.3 84.79,44.3 85.23,44.37 86.35,44.53 86.77,44.59 87.27,44.67 87.29,44.67 87.47,44.7 87.53,44.71 
					87.59,44.72 87.64,44.72 87.71,44.73 87.89,44.76 				"/>
				<polygon class="st7" points="87.87,44.71 87.8,44.78 71.41,60.75 71.43,60.87 75.3,83.4 75.26,83.38 75.27,83.43 74,82.76 
					73.98,82.74 73.98,82.72 73.96,82.7 54.96,72.71 35.86,82.75 34.68,83.36 34.65,83.38 34.61,83.4 34.65,83.16 34.66,83.1 
					34.67,83.04 34.68,82.97 34.7,82.85 34.71,82.83 34.77,82.46 35.02,81 38.48,60.85 38.49,60.78 38.5,60.78 38.5,60.75 
					38.47,60.72 38.45,60.7 38.44,60.7 38.42,60.67 38.36,60.61 38.33,60.59 38.33,60.58 38.28,60.53 38.25,60.51 38.24,60.5 
					22.13,44.79 22.09,44.76 22.04,44.71 22.07,44.71 22.1,44.7 22.14,44.7 22.16,44.69 22.2,44.69 22.73,44.61 23.4,44.51 
					23.4,44.52 24.09,44.42 44.68,41.42 44.78,41.41 44.81,41.35 44.88,41.22 51.03,28.76 51.05,28.72 53.28,24.19 53.29,24.17 
					54.08,22.59 54.72,21.29 54.94,20.84 54.94,20.83 54.95,20.83 54.95,20.81 54.96,20.8 54.98,20.84 55.01,20.9 64.93,41.01 
					64.94,41.01 64.94,41.03 64.95,41.06 64.96,41.07 64.97,41.09 64.98,41.11 64.98,41.12 65,41.15 65,41.16 65.02,41.19 
					65.04,41.24 65.05,41.24 65.06,41.28 65.07,41.28 65.08,41.32 65.09,41.32 65.1,41.36 65.11,41.36 65.13,41.41 65.14,41.41 
					84.11,44.17 84.18,44.18 84.94,44.3 84.99,44.3 85.31,44.34 86.33,44.49 86.85,44.56 87.31,44.63 87.33,44.63 87.39,44.64 
					87.44,44.65 87.51,44.66 87.57,44.67 87.63,44.68 87.68,44.68 87.75,44.69 				"/>
				<polygon class="st8" points="87.84,44.67 87.74,44.77 71.39,60.71 71.41,60.82 75.27,83.36 75.23,83.34 75.24,83.38 
					73.98,82.72 73.96,82.7 73.93,82.66 54.93,72.67 35.83,82.71 34.69,83.31 34.66,83.32 34.62,83.34 34.59,83.36 34.6,83.3 
					34.61,83.23 34.62,83.17 34.63,83.12 34.64,83.05 34.65,82.99 34.66,82.93 34.67,82.87 34.68,82.84 34.74,82.51 34.99,81.05 
					38.46,60.81 38.47,60.76 38.47,60.71 38.45,60.7 38.45,60.69 38.42,60.67 38.42,60.66 38.39,60.64 38.39,60.63 38.36,60.61 
					38.36,60.6 38.33,60.58 38.31,60.56 38.31,60.55 38.28,60.53 38.28,60.52 38.25,60.49 22.15,44.79 22.11,44.75 22.07,44.71 
					22.06,44.71 22.03,44.67 22.06,44.66 22.1,44.66 22.12,44.65 22.16,44.65 22.64,44.58 23.37,44.47 23.98,44.38 44.65,41.38 
					44.76,41.36 44.78,41.32 44.85,41.18 51.41,27.88 51.45,27.8 53.35,23.96 54.07,22.49 54.72,21.19 54.91,20.79 54.92,20.79 
					54.92,20.78 54.93,20.77 54.95,20.81 54.95,20.83 54.97,20.85 54.97,20.87 55,20.91 64.91,41 64.92,41.01 64.93,41.01 
					64.93,41.03 64.94,41.03 64.95,41.06 64.96,41.07 64.97,41.09 64.97,41.11 64.98,41.11 64.98,41.12 64.99,41.15 65,41.15 
					65,41.16 65.01,41.19 65.02,41.19 65.04,41.24 65.06,41.28 65.08,41.32 65.1,41.36 65.12,41.36 85.2,44.29 85.39,44.32 
					86.3,44.45 86.93,44.54 87.34,44.6 87.36,44.6 87.42,44.61 87.6,44.64 87.66,44.64 87.72,44.65 87.79,44.66 				"/>
				<polygon class="st9" points="87.82,44.63 87.79,44.66 87.75,44.69 87.68,44.76 71.36,60.67 71.38,60.78 75.25,83.32 75.21,83.3 
					75.22,83.34 73.95,82.67 73.93,82.63 73.92,82.63 73.9,82.61 54.9,72.62 35.81,82.66 34.7,83.24 34.67,83.26 34.63,83.28 
					34.6,83.3 34.56,83.32 34.57,83.25 34.58,83.19 34.59,83.14 34.6,83.07 34.63,82.89 34.64,82.86 34.69,82.58 34.94,81.11 
					38.43,60.77 38.44,60.73 38.44,60.7 38.45,60.7 38.45,60.67 38.42,60.64 38.4,60.62 38.39,60.61 38.37,60.59 38.34,60.56 
					38.31,60.53 38.28,60.51 38.28,60.5 38.26,60.48 38.25,60.47 22.15,44.79 22.12,44.75 22.11,44.75 22.07,44.71 22.06,44.71 
					22.03,44.67 21.99,44.63 22.02,44.63 22.03,44.62 22.08,44.62 22.09,44.61 22.12,44.61 22.54,44.55 23.34,44.43 23.35,44.43 
					23.89,44.35 44.62,41.34 44.73,41.32 44.75,41.28 44.82,41.14 51.82,26.95 51.83,26.93 53.42,23.7 53.43,23.68 54.07,22.38 
					54.72,21.07 54.89,20.74 54.89,20.72 54.9,20.71 54.93,20.77 54.95,20.81 54.95,20.83 54.97,20.85 54.97,20.87 55,20.91 
					64.91,41 64.92,41.01 64.93,41.01 64.93,41.03 64.94,41.03 64.95,41.06 64.96,41.07 64.97,41.09 64.97,41.11 64.98,41.11 
					64.98,41.12 64.99,41.15 65,41.15 65,41.16 65.01,41.19 65.02,41.19 65.04,41.24 65.06,41.28 65.08,41.32 65.1,41.32 
					85.49,44.28 86.28,44.4 87.02,44.51 87.38,44.56 87.4,44.57 87.46,44.58 87.51,44.58 87.57,44.59 87.64,44.6 87.7,44.61 
					87.75,44.62 				"/>
				<polygon class="st10" points="87.79,44.58 87.72,44.65 87.68,44.68 87.64,44.72 87.61,44.75 71.34,60.62 71.36,60.74 
					75.22,83.27 75.18,83.25 75.19,83.3 73.93,82.63 73.92,82.63 73.9,82.61 73.9,82.59 73.88,82.57 54.88,72.58 35.78,82.62 
					34.71,83.18 34.68,83.19 34.64,83.22 34.61,83.23 34.57,83.25 34.54,83.27 34.58,83.03 34.59,82.96 34.6,82.91 34.61,82.88 
					34.65,82.63 34.9,81.16 38.41,60.72 38.41,60.69 38.42,60.67 38.42,60.62 38.37,60.57 38.34,60.54 38.31,60.51 38.28,60.49 
					38.26,60.48 38.26,60.46 38.25,60.45 22.19,44.79 22.18,44.79 22.15,44.75 22.14,44.75 22.1,44.7 22.06,44.66 22.02,44.63 
					21.98,44.58 22,44.58 22.02,44.57 22.06,44.57 22.07,44.56 22.43,44.51 23.32,44.38 23.32,44.39 23.79,44.32 44.59,41.3 
					44.71,41.28 44.73,41.24 44.79,41.11 52.1,26.31 52.13,26.25 53.46,23.57 53.48,23.52 54.07,22.3 54.72,20.99 54.87,20.7 
					54.87,20.68 54.88,20.67 54.9,20.71 54.93,20.77 54.95,20.81 54.95,20.83 54.97,20.85 54.97,20.87 55,20.91 64.91,41 
					64.92,41.01 64.92,41.02 64.93,41.03 64.94,41.06 64.96,41.1 64.96,41.11 64.97,41.11 64.98,41.15 64.99,41.15 65,41.19 
					65.01,41.19 65.03,41.24 65.05,41.28 65.08,41.28 85.56,44.26 86.25,44.36 87.11,44.48 87.41,44.53 87.44,44.53 87.5,44.54 
					87.55,44.55 87.61,44.55 87.67,44.56 87.74,44.57 				"/>
				<polygon class="st11" points="87.77,44.54 87.7,44.61 87.66,44.64 87.63,44.68 87.59,44.72 87.56,44.75 71.31,60.58 
					71.33,60.69 75.2,83.23 75.16,83.21 75.17,83.25 73.9,82.59 73.88,82.57 73.87,82.54 73.86,82.53 54.85,72.54 35.76,82.58 
					34.72,83.12 34.69,83.13 34.65,83.16 34.62,83.17 34.58,83.19 34.55,83.21 34.51,83.23 34.53,83.11 34.54,83.05 34.56,82.93 
					34.57,82.9 34.6,82.69 34.85,81.23 38.38,60.68 38.38,60.67 38.39,60.64 38.39,60.61 38.4,60.6 38.4,60.58 38.37,60.55 
					38.35,60.53 38.34,60.53 38.32,60.5 38.29,60.47 38.26,60.45 38.26,60.44 38.25,60.44 38.25,60.43 22.19,44.79 22.18,44.79 
					22.15,44.75 22.14,44.75 22.1,44.7 22.07,44.66 22.06,44.66 22.03,44.62 21.98,44.58 21.94,44.54 21.96,44.54 21.98,44.53 
					22.03,44.53 22.34,44.48 23.29,44.34 23.3,44.34 23.68,44.28 44.56,41.26 44.68,41.24 44.7,41.2 44.77,41.07 52.51,25.37 
					52.52,25.35 53.54,23.28 53.55,23.27 54.07,22.2 54.72,20.89 54.84,20.65 54.84,20.64 54.85,20.64 54.87,20.68 54.87,20.7 
					54.89,20.72 54.89,20.74 54.92,20.78 54.92,20.79 54.95,20.81 54.95,20.83 54.97,20.85 54.97,20.87 54.99,20.92 54.99,20.94 
					55.24,21.44 64.91,41 64.92,41.01 64.92,41.02 64.93,41.03 64.94,41.06 64.96,41.1 64.96,41.11 64.97,41.11 64.98,41.15 
					64.99,41.15 65,41.19 65.01,41.19 65.03,41.24 65.06,41.24 85.64,44.23 86.23,44.32 87.19,44.46 87.45,44.49 87.47,44.5 
					87.53,44.51 87.58,44.51 87.65,44.52 87.71,44.53 				"/>
				<polygon class="st12" points="87.74,44.5 87.71,44.53 87.67,44.56 87.64,44.6 87.6,44.64 87.57,44.67 87.53,44.71 87.5,44.74 
					71.29,60.54 71.31,60.65 75.17,83.19 75.13,83.17 75.14,83.21 73.87,82.54 73.86,82.53 73.83,82.49 54.83,72.49 35.73,82.54 
					34.73,83.06 34.7,83.08 34.66,83.1 34.63,83.12 34.59,83.14 34.56,83.15 34.52,83.17 34.49,83.19 34.5,83.13 34.51,83.06 
					34.53,82.94 34.54,82.92 34.57,82.74 34.82,81.28 38.36,60.65 38.36,60.6 38.37,60.59 38.37,60.54 38.35,60.53 38.35,60.52 
					38.32,60.5 38.32,60.49 38.29,60.47 38.29,60.46 38.27,60.44 38.26,60.44 38.26,60.43 38.25,60.43 22.21,44.78 22.17,44.74 
					22.12,44.7 22.08,44.66 22.07,44.66 22.04,44.62 22.03,44.62 22,44.58 21.96,44.54 21.92,44.5 21.94,44.5 21.96,44.49 
					21.99,44.49 22.25,44.45 23.27,44.3 23.59,44.25 44.53,41.21 44.66,41.19 44.67,41.17 44.74,41.03 52.82,24.65 52.86,24.57 
					53.59,23.11 53.6,23.09 54.07,22.12 54.72,20.81 54.82,20.61 54.82,20.6 54.83,20.6 54.85,20.64 54.87,20.68 54.87,20.7 
					54.89,20.72 54.89,20.74 54.92,20.78 54.92,20.79 54.95,20.81 54.95,20.83 54.97,20.85 54.97,20.87 54.99,20.92 54.99,20.94 
					55.24,21.44 64.9,41 64.91,41 64.91,41.02 64.92,41.02 64.93,41.06 64.94,41.06 64.96,41.1 64.96,41.11 64.98,41.15 65,41.19 
					65.03,41.19 85.73,44.2 86.2,44.27 87.27,44.43 87.48,44.46 87.5,44.46 87.56,44.47 87.62,44.48 				"/>
				<polygon class="st13" points="87.72,44.45 87.68,44.49 87.65,44.52 87.61,44.55 87.57,44.59 87.54,44.63 87.51,44.66 
					87.47,44.7 87.44,44.73 71.26,60.5 71.28,60.61 75.15,83.15 75.11,83.13 75.12,83.17 73.85,82.5 73.83,82.46 73.82,82.46 
					73.8,82.44 54.8,72.45 35.71,82.49 34.74,83 34.71,83.02 34.67,83.04 34.64,83.05 34.6,83.07 34.57,83.09 34.53,83.11 
					34.5,83.13 34.46,83.15 34.47,83.08 34.48,83.02 34.49,82.97 34.5,82.94 34.52,82.81 34.77,81.34 38.33,60.62 38.33,60.58 
					38.34,60.56 38.34,60.53 38.35,60.53 38.35,60.5 38.29,60.44 38.27,60.42 38.26,60.41 22.23,44.78 22.19,44.74 22.14,44.7 
					22.1,44.66 22.06,44.62 22.02,44.57 21.98,44.53 21.94,44.5 21.89,44.45 21.92,44.45 21.94,44.44 21.95,44.44 22.13,44.42 
					23.24,44.26 23.25,44.26 23.5,44.22 44.5,41.17 44.63,41.15 44.71,40.99 53.2,23.78 53.24,23.71 53.67,22.83 54.07,22.02 
					54.72,20.7 54.79,20.55 54.8,20.55 54.83,20.6 54.85,20.64 54.87,20.68 54.87,20.7 54.89,20.72 54.89,20.74 54.92,20.78 
					54.92,20.79 54.94,20.83 54.95,20.83 54.96,20.87 54.97,20.87 54.99,20.92 54.99,20.94 55.24,21.44 64.11,39.42 64.83,40.88 
					64.89,41 64.9,41 64.9,41.02 64.91,41.02 64.92,41.06 64.93,41.06 64.95,41.11 64.97,41.15 65,41.15 65,41.16 65.02,41.16 
					85.81,44.18 86.18,44.23 87.37,44.4 87.52,44.42 87.54,44.42 				"/>
				<polygon class="st14" points="87.69,44.41 87.66,44.44 87.62,44.48 87.58,44.51 87.55,44.55 87.51,44.58 87.48,44.62 
					87.44,44.65 87.41,44.69 87.37,44.72 71.24,60.45 71.25,60.57 75.12,83.1 75.08,83.08 75.09,83.12 73.83,82.46 73.82,82.46 
					73.8,82.44 73.78,82.4 54.78,72.41 35.68,82.45 34.76,82.93 34.73,82.95 34.68,82.97 34.65,82.99 34.61,83.01 34.58,83.03 
					34.54,83.05 34.51,83.06 34.47,83.08 34.44,83.1 34.45,83.04 34.46,82.98 34.46,82.95 34.48,82.86 34.73,81.39 38.3,60.6 
					38.3,60.59 38.31,60.56 38.31,60.51 38.32,60.5 38.32,60.45 38.27,60.4 38.26,60.4 38.26,60.39 22.26,44.78 22.25,44.78 
					22.21,44.74 22.16,44.69 22.12,44.65 22.08,44.62 22.04,44.57 22.03,44.57 22,44.53 21.99,44.53 21.96,44.49 21.92,44.45 
					21.91,44.45 21.88,44.41 21.9,44.41 21.91,44.4 22.04,44.38 23.22,44.21 23.39,44.19 44.47,41.13 44.61,41.11 44.62,41.09 
					44.68,40.96 53.54,23.01 53.56,22.98 53.72,22.64 53.73,22.63 54.07,21.94 54.72,20.62 54.77,20.51 54.78,20.51 54.8,20.55 
					54.83,20.6 54.85,20.64 54.87,20.68 54.87,20.7 54.89,20.72 54.89,20.74 54.92,20.78 54.92,20.79 54.94,20.83 54.95,20.83 
					54.96,20.87 54.97,20.87 54.99,20.92 54.99,20.94 55.24,21.44 64.11,39.42 64.83,40.88 64.89,41 64.9,41 64.9,41.02 
					64.91,41.02 64.92,41.06 64.93,41.06 64.95,41.11 64.98,41.11 64.98,41.12 65,41.12 85.89,44.15 86.15,44.19 87.44,44.37 
					87.56,44.39 87.57,44.39 87.64,44.4 				"/>
				<polygon class="st15" points="87.67,44.37 87.64,44.4 87.6,44.43 87.56,44.47 87.53,44.51 87.5,44.54 87.46,44.58 87.42,44.61 
					87.39,44.64 87.35,44.68 87.32,44.71 71.21,60.41 71.23,60.52 75.1,83.06 75.06,83.04 75.06,83.08 73.8,82.41 73.77,82.37 
					73.76,82.36 54.75,72.37 35.65,82.41 34.77,82.87 34.74,82.89 34.69,82.91 34.66,82.93 34.62,82.95 34.59,82.96 34.55,82.99 
					34.52,83 34.48,83.02 34.45,83.04 34.41,83.06 34.42,83 34.42,82.98 34.43,82.93 34.69,81.46 38.27,60.57 38.27,60.56 
					38.28,60.53 38.28,60.49 38.29,60.47 38.29,60.44 38.3,60.43 38.3,60.41 38.27,60.38 38.25,60.36 22.26,44.78 22.25,44.78 
					22.22,44.74 22.21,44.74 22.17,44.69 22.16,44.69 22.13,44.65 22.12,44.65 22.09,44.61 22.04,44.57 22.03,44.57 22,44.53 
					21.97,44.49 21.96,44.49 21.92,44.45 21.91,44.45 21.88,44.41 21.84,44.37 21.87,44.37 21.95,44.35 23.19,44.17 23.2,44.17 
					23.3,44.16 44.43,41.08 44.58,41.06 44.59,41.05 44.65,40.91 54.07,21.84 54.72,20.52 54.75,20.46 54.77,20.51 54.78,20.51 
					54.79,20.55 54.8,20.55 54.82,20.6 54.82,20.61 54.84,20.64 54.84,20.65 54.87,20.68 54.87,20.7 54.89,20.72 54.89,20.74 
					54.91,20.79 54.92,20.79 54.94,20.83 54.94,20.84 54.96,20.87 54.96,20.88 54.99,20.92 54.99,20.94 55.24,21.44 55.41,21.8 
					64.11,39.42 64.83,40.88 64.9,41.02 64.92,41.06 64.95,41.06 64.96,41.07 64.98,41.07 85.98,44.12 86.13,44.14 87.52,44.35 
					87.59,44.36 87.61,44.36 				"/>
				<polygon class="st16" points="87.64,44.33 87.61,44.36 87.57,44.39 87.54,44.42 87.5,44.46 87.47,44.5 87.44,44.53 87.4,44.57 
					87.36,44.6 87.33,44.63 87.29,44.67 87.26,44.7 71.19,60.37 71.2,60.44 71.2,60.46 72.96,70.74 75.07,83.02 75.03,83 
					75.03,83.02 75.04,83.04 73.77,82.37 73.76,82.36 73.73,82.31 54.73,72.32 35.63,82.36 34.78,82.81 34.75,82.83 34.7,82.85 
					34.67,82.87 34.63,82.89 34.6,82.91 34.56,82.93 34.53,82.94 34.49,82.97 34.46,82.98 34.42,83 34.39,83.02 34.39,82.99 
					34.4,82.98 34.65,81.5 38.25,60.54 38.25,60.51 38.26,60.5 38.26,60.43 38.27,60.42 38.27,60.37 38.25,60.36 38.22,60.32 
					22.77,45.24 22.29,44.77 22.27,44.77 22.11,44.61 22.06,44.57 22.03,44.53 22.02,44.53 21.99,44.49 21.98,44.49 21.94,44.44 
					21.9,44.41 21.87,44.37 21.86,44.37 21.83,44.33 21.86,44.32 23.17,44.13 23.2,44.12 44.41,41.04 44.56,41.02 44.63,40.88 
					54.07,21.75 54.72,20.43 54.73,20.41 54.75,20.46 54.78,20.51 54.8,20.55 54.82,20.6 54.83,20.6 54.84,20.64 54.85,20.64 
					54.87,20.68 54.87,20.7 54.89,20.72 54.89,20.74 54.92,20.78 54.92,20.79 54.94,20.83 54.94,20.84 54.96,20.87 54.96,20.88 
					54.99,20.92 54.99,20.94 55.24,21.44 55.41,21.8 64.11,39.42 64.83,40.88 64.9,41.02 64.93,41.02 64.93,41.03 64.95,41.03 
					65.01,41.04 86.06,44.09 86.1,44.1 87.6,44.32 87.62,44.33 				"/>
			</g>
			<linearGradient id="SVGID_12_" gradientUnits="userSpaceOnUse" x1="33.1649" y1="54.5705" x2="38.4431" y2="49.4831">
				<stop  offset="0" style="stop-color:#8080A1"/>
				<stop  offset="1" style="stop-color:#E2E2FF"/>
			</linearGradient>
			<polygon class="st17" points="54.72,55 54.36,54.88 54.33,54.87 54.27,54.85 22.94,44.68 22.84,44.65 22.73,44.61 22.64,44.58 
				22.54,44.55 22.43,44.51 22.34,44.48 22.25,44.45 22.13,44.42 22.04,44.38 21.95,44.35 21.86,44.32 21.81,44.31 23.16,44.11 
				23.17,44.11 44.39,41.02 44.55,41 44.56,41.02 44.59,41.05 44.62,41.09 44.64,41.13 44.67,41.17 44.7,41.2 44.73,41.24 
				44.75,41.28 44.78,41.32 44.81,41.35 44.84,41.4 44.86,41.43 54.27,54.38 54.35,54.49 			"/>
			<linearGradient id="SVGID_13_" gradientUnits="userSpaceOnUse" x1="56.7084" y1="37.1541" x2="47.6183" y2="39.6259">
				<stop  offset="0" style="stop-color:#8080A1"/>
				<stop  offset="1" style="stop-color:#E2E2FF"/>
			</linearGradient>
			<polygon class="st18" points="54.72,20.39 54.72,55 54.35,54.49 54.27,54.38 44.86,41.43 44.84,41.4 44.81,41.35 44.78,41.32 
				44.75,41.28 44.73,41.24 44.7,41.2 44.67,41.17 44.64,41.13 44.62,41.09 44.59,41.05 44.56,41.02 44.55,41 44.62,40.87 
				54.07,21.72 			"/>
			<linearGradient id="SVGID_14_" gradientUnits="userSpaceOnUse" x1="71.4516" y1="50.5732" x2="69.0564" y2="42.4751">
				<stop  offset="0" style="stop-color:#8080A1"/>
				<stop  offset="1" style="stop-color:#E2E2FF"/>
			</linearGradient>
			<polygon class="st19" points="87.64,44.31 87.6,44.32 87.52,44.35 87.44,44.37 87.37,44.4 87.27,44.43 87.19,44.46 87.11,44.48 
				87.02,44.51 86.93,44.54 86.85,44.56 86.77,44.59 86.69,44.62 55.11,54.87 55.09,54.88 54.72,55 55.09,54.49 55.18,54.37 
				64.89,41 64.91,41 64.92,41.01 64.94,41.01 65.02,41.02 86.09,44.08 86.1,44.08 			"/>
			<linearGradient id="SVGID_15_" gradientUnits="userSpaceOnUse" x1="61.7496" y1="58.4212" x2="80.7431" y2="46.6102">
				<stop  offset="0" style="stop-color:#8080A1"/>
				<stop  offset="1" style="stop-color:#E2E2FF"/>
			</linearGradient>
			<polygon class="st20" points="87.64,44.31 87.59,44.36 87.57,44.39 87.56,44.39 87.52,44.42 87.45,44.49 87.42,44.53 
				87.41,44.53 87.38,44.56 87.34,44.6 87.31,44.63 87.24,44.7 71.26,60.27 71.18,60.35 55.46,55.24 55.32,55.19 55.31,55.19 
				54.72,55 55.09,54.88 55.11,54.87 86.69,44.62 86.77,44.59 86.85,44.56 86.93,44.54 87.02,44.51 87.11,44.48 87.19,44.46 
				87.27,44.43 87.37,44.4 87.44,44.37 87.52,44.35 87.6,44.32 			"/>
			<linearGradient id="SVGID_16_" gradientUnits="userSpaceOnUse" x1="62.0752" y1="45.05" x2="55.5046" y2="38.4794">
				<stop  offset="0" style="stop-color:#8080A1"/>
				<stop  offset="1" style="stop-color:#E2E2FF"/>
			</linearGradient>
			<polygon class="st21" points="64.89,41 55.18,54.37 55.09,54.49 54.72,55 54.72,20.39 54.73,20.41 54.75,20.46 54.78,20.51 
				54.8,20.55 54.82,20.6 54.83,20.6 54.84,20.64 54.85,20.64 54.87,20.68 54.87,20.7 54.89,20.72 54.89,20.74 54.91,20.79 
				54.92,20.79 54.94,20.83 54.94,20.84 54.96,20.87 54.96,20.88 54.99,20.92 54.99,20.94 55.24,21.44 55.41,21.8 64.11,39.42 
				64.83,40.88 			"/>
			<linearGradient id="SVGID_17_" gradientUnits="userSpaceOnUse" x1="40.5059" y1="52.6667" x2="19.0437" y2="34.7198">
				<stop  offset="0" style="stop-color:#8080A1"/>
				<stop  offset="1" style="stop-color:#E2E2FF"/>
			</linearGradient>
			<polygon class="st22" points="54.72,55 54.13,55.19 53.99,55.24 38.27,60.35 38.22,60.3 22.77,45.24 22.29,44.77 22.28,44.77 
				22.25,44.73 22.2,44.69 22.19,44.69 22.16,44.65 22.15,44.65 22.12,44.61 22.11,44.61 22.07,44.56 22.03,44.53 22.02,44.53 
				21.99,44.49 21.95,44.44 21.94,44.44 21.91,44.4 21.87,44.37 21.86,44.37 21.83,44.33 21.81,44.31 21.86,44.32 21.95,44.35 
				22.04,44.38 22.13,44.42 22.25,44.45 22.34,44.48 22.43,44.51 22.54,44.55 22.64,44.58 22.73,44.61 22.84,44.65 22.94,44.68 
				54.27,54.85 54.33,54.87 54.36,54.88 			"/>
			
				<linearGradient id="SVGID_18_" gradientUnits="userSpaceOnUse" x1="65.3075" y1="28.7348" x2="61.8103" y2="58.0908" gradientTransform="matrix(1 0 0 -1 0 109.8898)">
				<stop  offset="0" style="stop-color:#8080A1"/>
				<stop  offset="1" style="stop-color:#E2E2FF"/>
			</linearGradient>
			<polygon class="st23" points="54.72,72.3 75.06,83 54.72,55 			"/>
			
				<linearGradient id="SVGID_19_" gradientUnits="userSpaceOnUse" x1="59.7121" y1="41.4119" x2="72.3236" y2="40.1401" gradientTransform="matrix(1 0 0 -1 0 109.8898)">
				<stop  offset="0" style="stop-color:#8080A1"/>
				<stop  offset="1" style="stop-color:#E2E2FF"/>
			</linearGradient>
			<polygon class="st24" points="54.72,55 75.06,83 71.18,60.35 			"/>
			<linearGradient id="SVGID_20_" gradientUnits="userSpaceOnUse" x1="45.1823" y1="75.9928" x2="60.3518" y2="56.3614">
				<stop  offset="0" style="stop-color:#8080A1"/>
				<stop  offset="1" style="stop-color:#E2E2FF"/>
			</linearGradient>
			<polygon class="st25" points="54.72,55 54.72,72.3 54.6,72.36 54.6,72.37 34.78,82.79 34.75,82.8 34.71,82.83 34.68,82.84 
				34.64,82.86 34.61,82.88 34.57,82.9 34.54,82.92 34.46,82.96 34.42,82.98 34.39,82.99 34.4,82.98 34.43,82.93 34.48,82.86 
				34.52,82.81 34.57,82.74 34.6,82.69 34.65,82.63 34.69,82.58 34.74,82.51 34.77,82.46 34.82,82.39 34.86,82.34 54.44,55.38 
				54.47,55.35 54.47,55.34 54.5,55.31 			"/>
			<linearGradient id="SVGID_21_" gradientUnits="userSpaceOnUse" x1="48.0148" y1="75.0495" x2="41.137" y2="63.0405">
				<stop  offset="0" style="stop-color:#8080A1"/>
				<stop  offset="1" style="stop-color:#E2E2FF"/>
			</linearGradient>
			<polygon class="st26" points="54.72,55 54.5,55.31 54.47,55.34 54.47,55.35 54.44,55.38 34.86,82.34 34.82,82.39 34.77,82.46 
				34.74,82.51 34.69,82.58 34.65,82.63 34.6,82.69 34.57,82.74 34.52,82.81 34.48,82.86 34.43,82.93 34.4,82.98 34.38,83 
				34.63,81.53 38.24,60.53 38.24,60.5 38.25,60.49 38.25,60.44 38.26,60.44 38.26,60.39 38.27,60.38 38.27,60.35 53.99,55.24 
				54.13,55.19 			"/>
			<polygon class="st27" points="54.72,55 54.51,55.43 54.6,72.37 54.72,72.3 54.82,72.35 54.97,55.2 			"/>
			<polygon class="st28" points="54.72,55 55.07,55.33 71.2,60.46 71.18,60.35 71.26,60.27 54.99,54.83 			"/>
			<polygon class="st29" points="65.02,41.02 65.01,41.04 64.98,41.07 64.98,41.08 64.97,41.09 64.96,41.1 64.96,41.11 64.95,41.11 
				55.5,54.26 55.14,54.77 55.09,54.8 55.02,54.84 54.72,55 54.64,54.69 54.66,54.66 54.7,54.6 54.72,54.58 54.73,54.57 54.78,54.5 
				55.1,54.07 64.83,40.88 64.89,41 64.91,41 64.92,41.01 64.94,41.01 			"/>
			<polygon class="st30" points="54.72,55 54.41,54.98 54.39,54.96 54.35,54.89 54.33,54.87 54.27,54.78 53.96,54.36 44.74,41.5 
				44.71,41.46 44.68,41.42 44.65,41.38 44.62,41.34 44.59,41.3 44.56,41.26 44.53,41.21 44.5,41.17 44.47,41.13 44.43,41.08 
				44.41,41.04 44.39,41.02 44.55,41 44.62,40.87 44.63,40.88 44.65,40.91 44.68,40.96 44.71,40.99 44.74,41.03 44.77,41.07 
				44.79,41.11 44.82,41.14 44.85,41.18 44.88,41.22 44.9,41.26 44.93,41.29 54.26,54.02 54.64,54.53 54.65,54.59 54.66,54.66 			
				"/>
			<polygon class="st27" points="54.72,55 54.25,54.94 38.22,60.3 38.27,60.35 38.25,60.45 54.61,55.3 			"/>
			<linearGradient id="SVGID_22_" gradientUnits="userSpaceOnUse" x1="57.9027" y1="45.5496" x2="84.4303" y2="53.9882">
				<stop  offset="1.800000e-07" style="stop-color:#EDEDFF"/>
				<stop  offset="1" style="stop-color:#DEDEFF"/>
			</linearGradient>
			<polygon class="st31" points="87.64,44.31 87.59,44.36 87.57,44.39 87.56,44.39 87.52,44.42 87.45,44.49 87.42,44.53 
				87.41,44.53 87.38,44.56 87.34,44.6 87.31,44.63 87.24,44.7 86.61,45.3 55.71,55.07 55.41,55.17 55.32,55.19 55.31,55.19 
				55.03,55.29 55.02,55.29 54.97,55.3 54.95,55.31 54.72,55 54.73,54.57 54.73,54.52 54.78,54.5 55.09,54.4 55.18,54.37 
				55.5,54.26 85.16,44.39 85.23,44.37 85.31,44.34 85.39,44.32 85.49,44.28 85.56,44.26 85.64,44.23 85.73,44.2 85.81,44.18 
				85.89,44.15 85.98,44.12 86.06,44.09 86.09,44.08 86.1,44.08 			"/>
			<linearGradient id="SVGID_23_" gradientUnits="userSpaceOnUse" x1="21.81" y1="49.7448" x2="54.72" y2="49.7448">
				<stop  offset="0" style="stop-color:#DEDEFF"/>
				<stop  offset="1" style="stop-color:#EDEDFF"/>
			</linearGradient>
			<polygon class="st32" points="54.72,54.61 54.72,55 54.5,55.31 54.47,55.34 54.47,55.35 54.44,55.38 54.4,55.37 54.39,55.37 
				54.08,55.26 53.99,55.24 53.68,55.13 53.67,55.13 22.77,45.24 22.29,44.77 22.28,44.77 22.25,44.73 22.2,44.69 22.19,44.69 
				22.16,44.65 22.15,44.65 22.12,44.61 22.11,44.61 22.07,44.56 22.03,44.53 22.02,44.53 21.99,44.49 21.95,44.44 21.94,44.44 
				21.91,44.4 21.87,44.37 21.86,44.37 21.83,44.33 21.81,44.31 23.16,44.11 23.17,44.11 23.2,44.12 23.3,44.16 23.39,44.19 
				23.5,44.22 23.59,44.25 23.68,44.28 23.79,44.32 23.89,44.35 23.98,44.38 24.09,44.42 24.18,44.45 24.27,44.48 53.96,54.36 
				54.27,54.46 54.35,54.49 54.65,54.59 54.7,54.6 			"/>
			<linearGradient id="SVGID_24_" gradientUnits="userSpaceOnUse" x1="34.38" y1="68.9398" x2="55" y2="68.9398">
				<stop  offset="0" style="stop-color:#F5F5FF"/>
				<stop  offset="1" style="stop-color:#EDEDFF"/>
			</linearGradient>
			<polygon class="st33" points="55,55.39 54.97,55.43 54.78,55.7 54.72,55.78 54.51,56.07 35.62,82.34 34.78,82.79 34.75,82.8 
				34.71,82.83 34.68,82.84 34.64,82.86 34.61,82.88 34.57,82.9 34.54,82.92 34.5,82.94 34.46,82.95 34.46,82.96 34.42,82.98 
				34.39,82.99 34.38,83 34.63,81.53 34.65,81.5 34.69,81.46 34.73,81.39 34.77,81.34 34.82,81.28 34.85,81.23 34.9,81.16 
				34.94,81.11 34.99,81.05 35.02,81 35.07,80.93 35.11,80.89 53.88,55.53 54.08,55.26 54.13,55.19 54.31,54.95 54.35,54.89 
				54.36,54.88 54.72,55 54.95,55.31 54.97,55.34 54.97,55.35 			"/>
			
				<linearGradient id="SVGID_25_" gradientUnits="userSpaceOnUse" x1="55.2564" y1="54.5732" x2="74.9155" y2="27.0717" gradientTransform="matrix(1 0 0 -1 0 109.8898)">
				<stop  offset="1.800000e-07" style="stop-color:#EDEDFF"/>
				<stop  offset="1" style="stop-color:#DEDEFF"/>
			</linearGradient>
			<polygon class="st34" points="55.18,54.86 54.72,55 54.5,55.31 73.77,82.35 75.03,83.02 74.77,81.48 			"/>
			<linearGradient id="SVGID_26_" gradientUnits="userSpaceOnUse" x1="54.74" y1="20.9428" x2="54.74" y2="53.8839">
				<stop  offset="1.800000e-07" style="stop-color:#EDEDFF"/>
				<stop  offset="1" style="stop-color:#DEDEFF"/>
			</linearGradient>
			<polygon class="st35" points="55.41,21.8 55.1,54.07 55.09,54.4 55.09,54.88 54.72,55 54.36,54.88 54.33,54.87 54.27,54.85 
				54.27,54.38 54.26,54.02 54.08,22.78 54.08,22.59 54.07,22.49 54.07,21.72 54.72,20.39 54.73,20.41 54.75,20.46 54.78,20.51 
				54.8,20.55 54.82,20.6 54.83,20.6 54.84,20.64 54.84,20.65 54.87,20.68 54.87,20.7 54.89,20.72 54.89,20.74 54.91,20.79 
				54.92,20.79 54.94,20.83 54.94,20.84 54.96,20.87 54.96,20.88 54.99,20.92 54.99,20.94 55.24,21.44 			"/>
			<defs>
				<filter id="Adobe_OpacityMaskFilter" filterUnits="userSpaceOnUse" x="23.48" y="22.51" width="61.72" height="59.4">
					<feColorMatrix  type="matrix" values="1 0 0 0 0  0 1 0 0 0  0 0 1 0 0  0 0 0 1 0"/>
				</filter>
			</defs>
			<mask maskUnits="userSpaceOnUse" x="23.48" y="22.51" width="61.72" height="59.4" id="SVGID_1_">
				<g class="st36">
					
						<radialGradient id="SVGID_27_" cx="54.36" cy="54.8398" r="36.5" gradientTransform="matrix(1 0 0 -1 0 109.8898)" gradientUnits="userSpaceOnUse">
						<stop  offset="0" style="stop-color:#000000"/>
						<stop  offset="0.1183" style="stop-color:#040404"/>
						<stop  offset="0.2339" style="stop-color:#0F1010"/>
						<stop  offset="0.3485" style="stop-color:#222323"/>
						<stop  offset="0.4625" style="stop-color:#3D3E3F"/>
						<stop  offset="0.576" style="stop-color:#606263"/>
						<stop  offset="0.6892" style="stop-color:#8A8D8E"/>
						<stop  offset="0.8001" style="stop-color:#BCBFC1"/>
						<stop  offset="0.8743" style="stop-color:#E1E5E7"/>
						<stop  offset="1" style="stop-color:#F9FDFF"/>
					</radialGradient>
					<circle class="st37" cx="54.36" cy="55.05" r="36.5"/>
				</g>
			</mask>
			<g class="st38">
				
					<linearGradient id="SVGID_28_" gradientUnits="userSpaceOnUse" x1="52.5365" y1="58.443" x2="48.8125" y2="87.062" gradientTransform="matrix(1 0 0 -1 0 109.8898)">
					<stop  offset="0" style="stop-color:#DEDEFF"/>
					<stop  offset="0.5237" style="stop-color:#E3E3FF"/>
					<stop  offset="1" style="stop-color:#EDEDFF"/>
				</linearGradient>
				<path class="st39" d="M53.76,22.51L46.2,39.82c-0.15,0.36-0.12,0.78,0.09,1.11l6.8,10.6l-4.03-10.41
					c-0.22-0.58-0.24-1.22-0.05-1.81L53.76,22.51z"/>
				
					<linearGradient id="SVGID_29_" gradientUnits="userSpaceOnUse" x1="46.0856" y1="51.9539" x2="18.743" y2="63.6116" gradientTransform="matrix(1 0 0 -1 0 109.8898)">
					<stop  offset="0" style="stop-color:#DEDEFF"/>
					<stop  offset="0.5237" style="stop-color:#E3E3FF"/>
					<stop  offset="1" style="stop-color:#EDEDFF"/>
				</linearGradient>
				<path class="st40" d="M23.48,45.65l13.94,12.76c0.29,0.26,0.7,0.36,1.08,0.27l12.23-3l-11.16,0.45
					c-0.62,0.03-1.23-0.16-1.73-0.53L23.48,45.65z"/>
				
					<linearGradient id="SVGID_30_" gradientUnits="userSpaceOnUse" x1="-986.3795" y1="160.8695" x2="-1013.7216" y2="172.5269" gradientTransform="matrix(0.2986 -0.9544 -0.9544 -0.2986 502.8534 -829.3569)">
					<stop  offset="0" style="stop-color:#DEDEFF"/>
					<stop  offset="0.5237" style="stop-color:#E3E3FF"/>
					<stop  offset="1" style="stop-color:#EDEDFF"/>
				</linearGradient>
				<path class="st41" d="M36.31,81.91l16.34-9.49c0.34-0.2,0.56-0.56,0.58-0.95l0.79-12.57l-2.9,10.78
					c-0.16,0.6-0.52,1.12-1.03,1.49L36.31,81.91z"/>
				
					<linearGradient id="SVGID_31_" gradientUnits="userSpaceOnUse" x1="-1199.309" y1="1161.3127" x2="-1226.6499" y2="1172.9698" gradientTransform="matrix(-0.809 -0.5879 -0.5879 0.809 -224.3938 -1586.873)">
					<stop  offset="0" style="stop-color:#DEDEFF"/>
					<stop  offset="0.5237" style="stop-color:#E3E3FF"/>
					<stop  offset="1" style="stop-color:#EDEDFF"/>
				</linearGradient>
				<path class="st42" d="M74.18,80.93L70.4,62.42c-0.08-0.39-0.35-0.7-0.71-0.85L58.03,56.8l9.29,6.19
					c0.52,0.34,0.9,0.86,1.08,1.45L74.18,80.93z"/>
				
					<linearGradient id="SVGID_32_" gradientUnits="userSpaceOnUse" x1="-306.4376" y1="1681.1445" x2="-333.7797" y2="1692.8021" gradientTransform="matrix(-0.8072 0.5903 0.5903 0.8072 -1180.0385 -1128.4058)">
					<stop  offset="0" style="stop-color:#DEDEFF"/>
					<stop  offset="0.5237" style="stop-color:#E3E3FF"/>
					<stop  offset="1" style="stop-color:#EDEDFF"/>
				</linearGradient>
				<path class="st43" d="M85.2,44.29l-18.78-2.07c-0.39-0.04-0.78,0.12-1.03,0.42l-8.1,9.65l8.74-6.95
					c0.49-0.39,1.09-0.59,1.71-0.59L85.2,44.29z"/>
			</g>
			<defs>
				<filter id="Adobe_OpacityMaskFilter_1_" filterUnits="userSpaceOnUse" x="44.23" y="45.34" width="20.2" height="20.2">
					<feColorMatrix  type="matrix" values="1 0 0 0 0  0 1 0 0 0  0 0 1 0 0  0 0 0 1 0"/>
				</filter>
			</defs>
			<mask maskUnits="userSpaceOnUse" x="44.23" y="45.34" width="20.2" height="20.2" id="SVGID_2_">
				<g class="st44">
					
						<radialGradient id="SVGID_33_" cx="54.22" cy="54.6598" r="10.12" gradientTransform="matrix(1 0 0 -1 0 109.8898)" gradientUnits="userSpaceOnUse">
						<stop  offset="0" style="stop-color:#FFFFFF"/>
						<stop  offset="0.1518" style="stop-color:#FFFFFF"/>
						<stop  offset="0.246" style="stop-color:#CBCBCB"/>
						<stop  offset="0.3549" style="stop-color:#969696"/>
						<stop  offset="0.4654" style="stop-color:#686868"/>
						<stop  offset="0.5752" style="stop-color:#424242"/>
						<stop  offset="0.684" style="stop-color:#252525"/>
						<stop  offset="0.7916" style="stop-color:#111111"/>
						<stop  offset="0.8976" style="stop-color:#040404"/>
						<stop  offset="1" style="stop-color:#000000"/>
					</radialGradient>
					<circle class="st45" cx="54.22" cy="55.23" r="10.12"/>
				</g>
			</mask>
			<circle class="st46" cx="54.33" cy="55.44" r="10.1"/>
			<defs>
				<filter id="Adobe_OpacityMaskFilter_2_" filterUnits="userSpaceOnUse" x="32.53" y="73.05" width="10.02" height="10.02">
					<feColorMatrix  type="matrix" values="1 0 0 0 0  0 1 0 0 0  0 0 1 0 0  0 0 0 1 0"/>
				</filter>
			</defs>
			<mask maskUnits="userSpaceOnUse" x="32.53" y="73.05" width="10.02" height="10.02" id="SVGID_3_">
				<g class="st47">
					
						<radialGradient id="SVGID_34_" cx="37.48" cy="31.9298" r="5.02" gradientTransform="matrix(1 0 0 -1 0 109.8898)" gradientUnits="userSpaceOnUse">
						<stop  offset="0" style="stop-color:#FFFFFF"/>
						<stop  offset="0.1518" style="stop-color:#FFFFFF"/>
						<stop  offset="0.246" style="stop-color:#CBCBCB"/>
						<stop  offset="0.3549" style="stop-color:#969696"/>
						<stop  offset="0.4654" style="stop-color:#686868"/>
						<stop  offset="0.5752" style="stop-color:#424242"/>
						<stop  offset="0.684" style="stop-color:#252525"/>
						<stop  offset="0.7916" style="stop-color:#111111"/>
						<stop  offset="0.8976" style="stop-color:#040404"/>
						<stop  offset="1" style="stop-color:#000000"/>
					</radialGradient>
					<circle class="st48" cx="37.48" cy="77.96" r="5.02"/>
				</g>
			</mask>
			<path class="st49" d="M42.55,78.06c0,2.77-2.24,5.01-5.01,5.01c-2.77,0-5.01-2.24-5.01-5.01c0-2.77,2.24-5.01,5.01-5.01
				C40.3,73.06,42.55,75.3,42.55,78.06z"/>
			<defs>
				<filter id="Adobe_OpacityMaskFilter_3_" filterUnits="userSpaceOnUse" x="22.68" y="44.74" width="10.02" height="10.02">
					<feColorMatrix  type="matrix" values="1 0 0 0 0  0 1 0 0 0  0 0 1 0 0  0 0 0 1 0"/>
				</filter>
			</defs>
			<mask maskUnits="userSpaceOnUse" x="22.68" y="44.74" width="10.02" height="10.02" id="SVGID_4_">
				<g class="st50">
					
						<radialGradient id="SVGID_35_" cx="27.64" cy="60.2398" r="5.02" gradientTransform="matrix(1 0 0 -1 0 109.8898)" gradientUnits="userSpaceOnUse">
						<stop  offset="0" style="stop-color:#FFFFFF"/>
						<stop  offset="0.1518" style="stop-color:#FFFFFF"/>
						<stop  offset="0.246" style="stop-color:#CBCBCB"/>
						<stop  offset="0.3549" style="stop-color:#969696"/>
						<stop  offset="0.4654" style="stop-color:#686868"/>
						<stop  offset="0.5752" style="stop-color:#424242"/>
						<stop  offset="0.684" style="stop-color:#252525"/>
						<stop  offset="0.7916" style="stop-color:#111111"/>
						<stop  offset="0.8976" style="stop-color:#040404"/>
						<stop  offset="1" style="stop-color:#000000"/>
					</radialGradient>
					<path class="st51" d="M32.66,49.65c0,2.77-2.25,5.02-5.02,5.02s-5.02-2.25-5.02-5.02s2.25-5.02,5.02-5.02
						S32.66,46.87,32.66,49.65z"/>
				</g>
			</mask>
			<path class="st52" d="M32.7,49.75c0,2.77-2.24,5.01-5.01,5.01s-5.01-2.24-5.01-5.01s2.24-5.01,5.01-5.01S32.7,46.99,32.7,49.75z"
				/>
			<defs>
				<filter id="Adobe_OpacityMaskFilter_4_" filterUnits="userSpaceOnUse" x="49.47" y="23.12" width="10.02" height="10.02">
					<feColorMatrix  type="matrix" values="1 0 0 0 0  0 1 0 0 0  0 0 1 0 0  0 0 0 1 0"/>
				</filter>
			</defs>
			<mask maskUnits="userSpaceOnUse" x="49.47" y="23.12" width="10.02" height="10.02" id="SVGID_5_">
				<g class="st53">
					
						<radialGradient id="SVGID_36_" cx="54.42" cy="81.8698" r="5.02" gradientTransform="matrix(1 0 0 -1 0 109.8898)" gradientUnits="userSpaceOnUse">
						<stop  offset="0" style="stop-color:#FFFFFF"/>
						<stop  offset="0.1518" style="stop-color:#FFFFFF"/>
						<stop  offset="0.246" style="stop-color:#CBCBCB"/>
						<stop  offset="0.3549" style="stop-color:#969696"/>
						<stop  offset="0.4654" style="stop-color:#686868"/>
						<stop  offset="0.5752" style="stop-color:#424242"/>
						<stop  offset="0.684" style="stop-color:#252525"/>
						<stop  offset="0.7916" style="stop-color:#111111"/>
						<stop  offset="0.8976" style="stop-color:#040404"/>
						<stop  offset="1" style="stop-color:#000000"/>
					</radialGradient>
					<path class="st54" d="M59.44,28.02c0,2.77-2.25,5.02-5.02,5.02s-5.02-2.25-5.02-5.02S51.65,23,54.42,23
						C57.2,23,59.44,25.25,59.44,28.02z"/>
				</g>
			</mask>
			<path class="st55" d="M59.49,28.13c0,2.77-2.24,5.01-5.01,5.01c-2.77,0-5.01-2.24-5.01-5.01s2.24-5.01,5.01-5.01
				C57.24,23.12,59.49,25.36,59.49,28.13z"/>
			<defs>
				<filter id="Adobe_OpacityMaskFilter_5_" filterUnits="userSpaceOnUse" x="76.45" y="41.37" width="10.02" height="10.02">
					<feColorMatrix  type="matrix" values="1 0 0 0 0  0 1 0 0 0  0 0 1 0 0  0 0 0 1 0"/>
				</filter>
			</defs>
			<mask maskUnits="userSpaceOnUse" x="76.45" y="41.37" width="10.02" height="10.02" id="SVGID_6_">
				<g class="st56">
					
						<radialGradient id="SVGID_37_" cx="81.41" cy="63.6198" r="5.02" gradientTransform="matrix(1 0 0 -1 0 109.8898)" gradientUnits="userSpaceOnUse">
						<stop  offset="0" style="stop-color:#FFFFFF"/>
						<stop  offset="0.1518" style="stop-color:#FFFFFF"/>
						<stop  offset="0.246" style="stop-color:#CBCBCB"/>
						<stop  offset="0.3549" style="stop-color:#969696"/>
						<stop  offset="0.4654" style="stop-color:#686868"/>
						<stop  offset="0.5752" style="stop-color:#424242"/>
						<stop  offset="0.684" style="stop-color:#252525"/>
						<stop  offset="0.7916" style="stop-color:#111111"/>
						<stop  offset="0.8976" style="stop-color:#040404"/>
						<stop  offset="1" style="stop-color:#000000"/>
					</radialGradient>
					<path class="st57" d="M86.43,46.27c0,2.77-2.25,5.02-5.02,5.02s-5.02-2.25-5.02-5.02s2.25-5.02,5.02-5.02
						S86.43,43.5,86.43,46.27z"/>
				</g>
			</mask>
			<path class="st58" d="M86.47,46.38c0,2.77-2.24,5.01-5.01,5.01c-2.77,0-5.01-2.24-5.01-5.01s2.24-5.01,5.01-5.01
				C84.23,41.37,86.47,43.61,86.47,46.38z"/>
			<defs>
				<filter id="Adobe_OpacityMaskFilter_6_" filterUnits="userSpaceOnUse" x="64.16" y="69.87" width="10.02" height="10.02">
					<feColorMatrix  type="matrix" values="1 0 0 0 0  0 1 0 0 0  0 0 1 0 0  0 0 0 1 0"/>
				</filter>
			</defs>
			<mask maskUnits="userSpaceOnUse" x="64.16" y="69.87" width="10.02" height="10.02" id="SVGID_7_">
				<g class="st59">
					
						<radialGradient id="SVGID_38_" cx="69.12" cy="35.1198" r="5.02" gradientTransform="matrix(1 0 0 -1 0 109.8898)" gradientUnits="userSpaceOnUse">
						<stop  offset="0" style="stop-color:#FFFFFF"/>
						<stop  offset="0.1518" style="stop-color:#FFFFFF"/>
						<stop  offset="0.246" style="stop-color:#CBCBCB"/>
						<stop  offset="0.3549" style="stop-color:#969696"/>
						<stop  offset="0.4654" style="stop-color:#686868"/>
						<stop  offset="0.5752" style="stop-color:#424242"/>
						<stop  offset="0.684" style="stop-color:#252525"/>
						<stop  offset="0.7916" style="stop-color:#111111"/>
						<stop  offset="0.8976" style="stop-color:#040404"/>
						<stop  offset="1" style="stop-color:#000000"/>
					</radialGradient>
					<path class="st60" d="M74.14,74.77c0,2.77-2.25,5.02-5.02,5.02s-5.02-2.25-5.02-5.02s2.25-5.02,5.02-5.02S74.14,72,74.14,74.77
						z"/>
				</g>
			</mask>
			<path class="st61" d="M74.18,74.88c0,2.77-2.24,5.01-5.01,5.01c-2.77,0-5.01-2.24-5.01-5.01s2.24-5.01,5.01-5.01
				C71.94,69.87,74.18,72.11,74.18,74.88z"/>
		</g>
	</g>
</g>
<g id="Platinum_Star">
</g>
<g id="Gold_Star">
</g>
</svg>
