<svg width="35" height="32" viewBox="0 0 35 32" fill="none" xmlns="http://www.w3.org/2000/svg">
<path d="M2.367 24.82C6.195 16.517 9.966 8.295 13.809 0H20.236C16.93 7.144 13.874 13.975 10.581 21.124C7.737 21.811 4.764 23.116 2.367 24.819V24.82ZM29.02 31.65C25.487 23.979 21.96 16.307 18.426 8.638C19.506 6.318 20.533 3.973 21.653 1.673C25.866 10.846 30.083 20.017 34.318 29.178C32.575 30.046 30.784 30.821 29.021 31.649L29.02 31.65ZM0 29.42C6.269 23.125 13.787 20.917 22.554 22.797C23.619 25.192 24.819 27.548 25.883 29.945C23.6296 28.777 21.1572 28.0924 18.624 27.935C14.854 27.645 10.913 28.281 7.644 30.257C6.893 30.752 6.044 31.27 5.499 32C2.67 30.652 0.835 29.792 0 29.42Z" fill="#008DFF"/>
<path fill-rule="evenodd" clip-rule="evenodd" d="M18.4149 12.9555L20.9939 18.5755C21.0935 18.7927 21.1324 19.0328 21.1066 19.2703C21.0809 19.5078 20.9914 19.734 20.8476 19.9248C20.7038 20.1156 20.5111 20.264 20.2899 20.3543C20.0687 20.4445 19.8272 20.4733 19.5909 20.4375C18.683 20.2913 17.7663 20.2068 16.8469 20.1845C16.0539 20.1715 15.2889 20.2045 14.5529 20.2845C14.3818 20.3027 14.2089 20.2753 14.0518 20.2051C13.8947 20.1349 13.7589 20.0243 13.6584 19.8847C13.5578 19.745 13.496 19.5812 13.4792 19.4099C13.4625 19.2387 13.4914 19.066 13.5629 18.9095L16.2629 12.9595C16.3567 12.753 16.5078 12.5779 16.6983 12.4549C16.8888 12.3318 17.1106 12.2662 17.3373 12.2656C17.5641 12.2651 17.7862 12.3298 17.9772 12.4519C18.1683 12.574 18.3202 12.7485 18.4149 12.9545V12.9555Z" fill="#008DFF" fill-opacity="0.5"/>
</svg>
