<svg width="136" height="40" viewBox="0 0 136 40" fill="none" xmlns="http://www.w3.org/2000/svg">
<path d="M40.049 35.2089L25.2736 3.28247L21.7741 11.0694L33.8278 38.3237L40.049 35.2089Z" fill="#008EFD"/>
<path d="M16.3314 1.33594H23.3303C20.3493 7.82505 13.9207 21.8156 12.0543 25.8648C8.01053 26.4877 4.14817 28.9796 2.72247 30.1476L16.3314 1.33594Z" fill="#008EFD"/>
<path d="M23.79 24.7943H17.2975C16.4891 24.7943 15.9577 23.9503 16.3072 23.2213L19.3037 16.9702C19.6884 16.1675 20.8182 16.132 21.2526 16.9089L24.7486 23.16C25.158 23.8921 24.6288 24.7943 23.79 24.7943Z" fill="#7FC5FF"/>
<path d="M26.0514 27.8112L29.9397 36.3768C19.9857 30.4586 9.9799 35.4684 6.22124 38.7131L0 35.5981C8.39867 26.2538 20.8671 26.5134 26.0514 27.8112Z" fill="#008EFD"/>
<path d="M65.4304 5.85658V20.0252H61.6874V18.9179C60.4208 19.94 58.8612 20.4511 57.0086 20.4511C55.1371 20.4511 53.5113 19.7413 52.1313 18.3216C50.7513 16.9019 50.0613 15.113 50.0613 12.9551C50.0613 10.7972 50.7513 9.00832 52.1313 7.58862C53.5302 6.14999 55.156 5.43067 57.0086 5.43067C58.8801 5.43067 60.4397 5.95123 61.6874 6.99235V5.85658H65.4304ZM57.6608 17.1858C58.7194 17.1858 59.6552 16.7978 60.4681 16.0217C61.2809 15.2266 61.6874 14.2044 61.6874 12.9551C61.6874 11.7058 61.2809 10.6836 60.4681 9.88854C59.6552 9.09351 58.7194 8.69599 57.6608 8.69599C56.5076 8.69599 55.553 9.08404 54.7968 9.86015C54.0596 10.6363 53.6909 11.6679 53.6909 12.9551C53.6909 14.2423 54.0596 15.2739 54.7968 16.0501C55.553 16.8072 56.5076 17.1858 57.6608 17.1858Z" fill="#123169"/>
<path d="M67.15 16.2772L70.9214 15.5106C71.0916 16.7978 72.0651 17.4414 73.8421 17.4414C74.5226 17.4414 75.0614 17.3089 75.4584 17.0438C75.8554 16.7788 76.0539 16.4381 76.0539 16.0217C76.0539 15.397 75.534 14.9711 74.4943 14.7439L71.602 14.1476C70.3165 13.8826 69.324 13.3999 68.6246 12.6996C67.944 11.9992 67.6037 11.1379 67.6037 10.1157C67.6037 8.73385 68.1236 7.60755 69.1633 6.7368C70.222 5.86605 71.6303 5.43067 73.3884 5.43067C75.0331 5.43067 76.4036 5.81873 77.5 6.59483C78.6154 7.37093 79.2959 8.38366 79.5417 9.63299L75.9688 10.3428C75.8932 9.75604 75.6096 9.2828 75.1181 8.92314C74.6455 8.56348 74.0311 8.38366 73.275 8.38366C72.5944 8.38366 72.1029 8.52563 71.8005 8.80957C71.498 9.07458 71.3468 9.39638 71.3468 9.77496C71.3468 10.3807 71.7721 10.7782 72.6228 10.9675L75.9972 11.7058C77.207 11.9708 78.1239 12.4629 78.7477 13.1823C79.3905 13.8826 79.7118 14.725 79.7118 15.7093C79.7118 17.2426 79.1447 18.4162 78.0105 19.2302C76.8951 20.0441 75.3922 20.4511 73.5018 20.4511C71.8194 20.4511 70.3826 20.1104 69.1917 19.4289C68.0007 18.7286 67.3202 17.678 67.15 16.2772Z" fill="#123169"/>
<path d="M95.789 5.85658V20.0252H92.046V18.9179C90.7794 19.94 89.2198 20.4511 87.3672 20.4511C85.4957 20.4511 83.87 19.7413 82.49 18.3216C81.11 16.9019 80.42 15.113 80.42 12.9551C80.42 10.7972 81.11 9.00832 82.49 7.58862C83.8889 6.14999 85.5146 5.43067 87.3672 5.43067C89.2387 5.43067 90.7983 5.95123 92.046 6.99235V5.85658H95.789ZM88.0194 17.1858C89.0781 17.1858 90.0138 16.7978 90.8267 16.0217C91.6396 15.2266 92.046 14.2044 92.046 12.9551C92.046 11.7058 91.6396 10.6836 90.8267 9.88854C90.0138 9.09351 89.0781 8.69599 88.0194 8.69599C86.8663 8.69599 85.9116 9.08404 85.1554 9.86015C84.4182 10.6363 84.0496 11.6679 84.0496 12.9551C84.0496 14.2423 84.4182 15.2739 85.1554 16.0501C85.9116 16.8072 86.8663 17.1858 88.0194 17.1858Z" fill="#123169"/>
<path d="M107.859 13.1255L112.623 20.0252H108.171L105.08 15.539L102.017 20.0252H97.5654L102.329 13.1255L97.5654 5.82819H102.017L105.08 10.5984L108.171 5.82819H112.623L107.859 13.1255Z" fill="#123169"/>
<path d="M114.859 0.681459C115.294 0.227153 115.832 0 116.475 0C117.118 0 117.657 0.227153 118.091 0.681459C118.526 1.11683 118.744 1.63739 118.744 2.24313C118.744 2.8678 118.526 3.38836 118.091 3.8048C117.657 4.22125 117.118 4.42947 116.475 4.42947C115.813 4.42947 115.265 4.22125 114.83 3.8048C114.415 3.38836 114.207 2.8678 114.207 2.24313C114.207 1.63739 114.424 1.11683 114.859 0.681459ZM118.347 20.0252H114.604V5.85658H118.347V20.0252Z" fill="#123169"/>
<path d="M135.762 5.82819L127.539 24.8522H123.371L125.639 19.5709L119.769 5.82819H123.938L127.681 14.8859L131.594 5.82819H135.762Z" fill="#123169"/>
<path d="M58.8303 37.0307V31.1985L56.5525 35.5413H55.5888L53.311 31.1985V37.0307H51.5839V28.1448H53.4362L56.0644 33.201L58.7177 28.1448H60.5574V37.0307H58.8303ZM68.5827 35.5163V37.0307H62.4126V28.1448H68.47V29.6591H64.1397V31.7993H67.8818V33.201H64.1397V35.5163H68.5827ZM69.9291 37.0307V28.1448H73.859C74.2678 28.1448 74.6433 28.2282 74.9853 28.3951C75.3358 28.562 75.6361 28.7872 75.8864 29.0709C76.1451 29.3546 76.3412 29.6717 76.4747 30.0221C76.6165 30.3725 76.6874 30.7313 76.6874 31.0984C76.6874 31.4739 76.6207 31.8368 76.4872 32.1872C76.362 32.5293 76.1785 32.8297 75.9365 33.0883C75.6945 33.347 75.4109 33.5472 75.0855 33.6891L77.113 37.0307H75.2106L73.3834 34.052H71.6563V37.0307H69.9291ZM71.6563 32.5377H73.8214C74.0383 32.5377 74.2303 32.4751 74.3971 32.3499C74.564 32.2164 74.6975 32.0412 74.7976 31.8243C74.8977 31.6074 74.9478 31.3654 74.9478 31.0984C74.9478 30.8147 74.8894 30.5686 74.7726 30.36C74.6558 30.1431 74.5056 29.972 74.322 29.8469C74.1468 29.7217 73.9549 29.6591 73.7463 29.6591H71.6563V32.5377ZM77.6653 32.5251C77.6653 31.9828 77.7612 31.453 77.9531 30.9357C78.1534 30.4101 78.4412 29.9345 78.8167 29.509C79.1922 29.0751 79.6511 28.733 80.1934 28.4827C80.7357 28.224 81.3531 28.0947 82.0457 28.0947C82.8633 28.0947 83.5684 28.2741 84.1607 28.6329C84.7615 28.9917 85.2079 29.4589 85.4999 30.0346L84.1733 30.9482C84.0231 30.6145 83.827 30.3517 83.585 30.1597C83.3431 29.9595 83.0844 29.8218 82.8091 29.7467C82.5338 29.6633 82.2626 29.6216 81.9956 29.6216C81.5617 29.6216 81.1821 29.7092 80.8567 29.8844C80.5396 30.0596 80.2726 30.2891 80.0557 30.5728C79.8388 30.8564 79.6761 31.1735 79.5676 31.5239C79.4675 31.8744 79.4174 32.2248 79.4174 32.5752C79.4174 32.9674 79.48 33.347 79.6052 33.7141C79.7303 34.0729 79.9055 34.3941 80.1308 34.6778C80.3644 34.9531 80.6398 35.1742 80.9568 35.3411C81.2822 35.4996 81.6368 35.5789 82.0206 35.5789C82.296 35.5789 82.5755 35.533 82.8592 35.4412C83.1428 35.3494 83.4057 35.2034 83.6476 35.0032C83.8896 34.8029 84.0773 34.5443 84.2108 34.2272L85.625 35.0407C85.4498 35.4829 85.162 35.8584 84.7615 36.1671C84.3693 36.4758 83.9271 36.7094 83.4349 36.868C82.9426 37.0265 82.4545 37.1058 81.9706 37.1058C81.3365 37.1058 80.7566 36.9764 80.2309 36.7178C79.7053 36.4508 79.2506 36.1004 78.8668 35.6665C78.4913 35.2243 78.1951 34.732 77.9782 34.1897C77.7696 33.639 77.6653 33.0842 77.6653 32.5251ZM94.255 28.1448V37.0307H92.5404V33.2385H88.5104V37.0307H86.7833V28.1448H88.5104V31.7367H92.5404V28.1448H94.255ZM98.5241 28.1448H100.276L103.543 37.0307H101.766L100.94 34.8155H97.8358L97.0223 37.0307H95.2451L98.5241 28.1448ZM100.627 33.6015L99.4002 29.9345L98.1237 33.6015H100.627ZM106.245 31.3237V37.0307H104.517V28.1448H105.894L110.487 34.002V28.1573H112.214V37.0307H110.775L106.245 31.3237ZM120.708 29.6591H117.867V37.0307H116.153V29.6591H113.312V28.1448H120.708V29.6591Z" fill="white"/>
<path d="M58.8303 37.0307V31.1985L56.5525 35.5413H55.5888L53.311 31.1985V37.0307H51.5839V28.1448H53.4362L56.0644 33.201L58.7177 28.1448H60.5574V37.0307H58.8303ZM68.5827 35.5163V37.0307H62.4126V28.1448H68.47V29.6591H64.1397V31.7993H67.8818V33.201H64.1397V35.5163H68.5827ZM69.9291 37.0307V28.1448H73.859C74.2678 28.1448 74.6433 28.2282 74.9853 28.3951C75.3358 28.562 75.6361 28.7872 75.8864 29.0709C76.1451 29.3546 76.3412 29.6717 76.4747 30.0221C76.6165 30.3725 76.6874 30.7313 76.6874 31.0984C76.6874 31.4739 76.6207 31.8368 76.4872 32.1872C76.362 32.5293 76.1785 32.8297 75.9365 33.0883C75.6945 33.347 75.4109 33.5472 75.0855 33.6891L77.113 37.0307H75.2106L73.3834 34.052H71.6563V37.0307H69.9291ZM71.6563 32.5377H73.8214C74.0383 32.5377 74.2303 32.4751 74.3971 32.3499C74.564 32.2164 74.6975 32.0412 74.7976 31.8243C74.8977 31.6074 74.9478 31.3654 74.9478 31.0984C74.9478 30.8147 74.8894 30.5686 74.7726 30.36C74.6558 30.1431 74.5056 29.972 74.322 29.8469C74.1468 29.7217 73.9549 29.6591 73.7463 29.6591H71.6563V32.5377ZM77.6653 32.5251C77.6653 31.9828 77.7612 31.453 77.9531 30.9357C78.1534 30.4101 78.4412 29.9345 78.8167 29.509C79.1922 29.0751 79.6511 28.733 80.1934 28.4827C80.7357 28.224 81.3531 28.0947 82.0457 28.0947C82.8633 28.0947 83.5684 28.2741 84.1607 28.6329C84.7615 28.9917 85.2079 29.4589 85.4999 30.0346L84.1733 30.9482C84.0231 30.6145 83.827 30.3517 83.585 30.1597C83.3431 29.9595 83.0844 29.8218 82.8091 29.7467C82.5338 29.6633 82.2626 29.6216 81.9956 29.6216C81.5617 29.6216 81.1821 29.7092 80.8567 29.8844C80.5396 30.0596 80.2726 30.2891 80.0557 30.5728C79.8388 30.8564 79.6761 31.1735 79.5676 31.5239C79.4675 31.8744 79.4174 32.2248 79.4174 32.5752C79.4174 32.9674 79.48 33.347 79.6052 33.7141C79.7303 34.0729 79.9055 34.3941 80.1308 34.6778C80.3644 34.9531 80.6398 35.1742 80.9568 35.3411C81.2822 35.4996 81.6368 35.5789 82.0206 35.5789C82.296 35.5789 82.5755 35.533 82.8592 35.4412C83.1428 35.3494 83.4057 35.2034 83.6476 35.0032C83.8896 34.8029 84.0773 34.5443 84.2108 34.2272L85.625 35.0407C85.4498 35.4829 85.162 35.8584 84.7615 36.1671C84.3693 36.4758 83.9271 36.7094 83.4349 36.868C82.9426 37.0265 82.4545 37.1058 81.9706 37.1058C81.3365 37.1058 80.7566 36.9764 80.2309 36.7178C79.7053 36.4508 79.2506 36.1004 78.8668 35.6665C78.4913 35.2243 78.1951 34.732 77.9782 34.1897C77.7696 33.639 77.6653 33.0842 77.6653 32.5251ZM94.255 28.1448V37.0307H92.5404V33.2385H88.5104V37.0307H86.7833V28.1448H88.5104V31.7367H92.5404V28.1448H94.255ZM98.5241 28.1448H100.276L103.543 37.0307H101.766L100.94 34.8155H97.8358L97.0223 37.0307H95.2451L98.5241 28.1448ZM100.627 33.6015L99.4002 29.9345L98.1237 33.6015H100.627ZM106.245 31.3237V37.0307H104.517V28.1448H105.894L110.487 34.002V28.1573H112.214V37.0307H110.775L106.245 31.3237ZM120.708 29.6591H117.867V37.0307H116.153V29.6591H113.312V28.1448H120.708V29.6591Z" fill="url(#paint0_linear_3_1736)"/>
<defs>
<linearGradient id="paint0_linear_3_1736" x1="50.6578" y1="25.0307" x2="93.9369" y2="68.5797" gradientUnits="userSpaceOnUse">
<stop stop-color="#FFCB77"/>
<stop offset="1" stop-color="#FE5659"/>
</linearGradient>
</defs>
</svg>
