<svg width="24" height="24" viewBox="0 0 24 24" fill="none" xmlns="http://www.w3.org/2000/svg">
<g clip-path="url(#clip0_95_5105)">
<path d="M16.75 22C19.0972 22 21 20.0972 21 17.75C21 15.4028 19.0972 13.5 16.75 13.5C14.4028 13.5 12.5 15.4028 12.5 17.75C12.5 20.0972 14.4028 22 16.75 22Z" stroke="white" stroke-width="1.75" stroke-linecap="round" stroke-linejoin="round"/>
<path d="M18 17.75H15.5" stroke="white" stroke-width="1.75" stroke-linecap="round" stroke-linejoin="round"/>
<path d="M16.75 16.5V19" stroke="white" stroke-width="1.75" stroke-linecap="round" stroke-linejoin="round"/>
<path d="M10 15H7C5.93913 15 4.92172 15.4214 4.17157 16.1716C3.42143 16.9217 3 17.9391 3 19V20" stroke="white" stroke-width="1.75" stroke-linecap="round" stroke-linejoin="round"/>
<path d="M11 11C13.2091 11 15 9.20914 15 7C15 4.79086 13.2091 3 11 3C8.79086 3 7 4.79086 7 7C7 9.20914 8.79086 11 11 11Z" stroke="white" stroke-width="1.75" stroke-linecap="round" stroke-linejoin="round"/>
</g>
<defs>
<clipPath id="clip0_95_5105">
<rect width="24" height="24" fill="white"/>
</clipPath>
</defs>
</svg>
