<svg width="24" height="24" viewBox="0 0 24 24" fill="none" xmlns="http://www.w3.org/2000/svg">
<g clip-path="url(#clip0_635_2297)">
<path d="M16 17H11C9.93913 17 8.92172 16.5786 8.17157 15.8284C7.42143 15.0783 7 14.0609 7 13V7C7 5.93913 7.42143 4.92172 8.17157 4.17157C8.92172 3.42143 9.93913 3 11 3H17C18.0609 3 19.0783 3.42143 19.8284 4.17157C20.5786 4.92172 21 5.93913 21 7V12C21 13.3261 20.4732 14.5979 19.5355 15.5355C18.5979 16.4732 17.3261 17 16 17Z" stroke="#323232" stroke-width="1.5" stroke-linecap="round" stroke-linejoin="round"/>
<path d="M12 17H13.4444C13.857 17 14.2527 16.8361 14.5444 16.5444C14.8361 16.2527 15 15.857 15 15.4444V14.1111C15 13.286 15.3278 12.4947 15.9112 11.9112C16.4947 11.3278 17.286 11 18.1111 11H19.4444C19.857 11 20.2527 10.8361 20.5444 10.5444C20.8361 10.2527 21 9.857 21 9.44444V8" stroke="#323232" stroke-width="1.5" stroke-linecap="round" stroke-linejoin="round"/>
<path d="M17 16.8999V17C17 18.0609 16.5786 19.0783 15.8284 19.8284C15.0783 20.5786 14.0609 21 13 21H7C5.93913 21 4.92172 20.5786 4.17157 19.8284C3.42143 19.0783 3 18.0609 3 17V11C3 9.93913 3.42143 8.92172 4.17157 8.17157C4.92172 7.42143 5.93913 7 7 7V7" stroke="#323232" stroke-width="1.5" stroke-linecap="round" stroke-linejoin="round"/>
</g>
<defs>
<clipPath id="clip0_635_2297">
<rect width="24" height="24" fill="white"/>
</clipPath>
</defs>
</svg>
