<svg width="24" height="24" viewBox="0 0 24 24" fill="none" xmlns="http://www.w3.org/2000/svg">
<g clip-path="url(#clip0_663_11744)">
<path d="M14.0816 7.11516L17.3936 3.80316C18.1676 3.02916 19.4226 3.02916 20.1966 3.80316C20.9706 4.57716 20.9706 5.83216 20.1966 6.60616L16.8846 9.91816L18.6766 18.8352C18.7426 19.1632 18.6396 19.5022 18.4036 19.7392L17.7436 20.3992C17.2336 20.9092 16.3666 20.7272 16.1046 20.0552L13.4806 13.3222L10.0746 16.7282L10.2566 18.8982C10.2816 19.1912 10.1756 19.4812 9.96761 19.6892L8.88161 20.7752L6.76061 17.2392L3.22461 15.1182L4.31061 14.0322C4.51861 13.8242 4.80761 13.7182 5.10161 13.7432L7.27161 13.9252L10.6776 10.5192L3.94561 7.89516C3.27261 7.63316 3.09061 6.76716 3.60061 6.25616L4.26061 5.59616C4.49761 5.35916 4.83661 5.25716 5.16461 5.32316L14.0816 7.11516V7.11516Z" stroke="white" stroke-width="1.5" stroke-linecap="round" stroke-linejoin="round"/>
</g>
<defs>
<clipPath id="clip0_663_11744">
<rect width="24" height="24" fill="white"/>
</clipPath>
</defs>
</svg>
