<svg width="24" height="24" viewBox="0 0 24 24" fill="none" xmlns="http://www.w3.org/2000/svg">
<g clip-path="url(#clip0_102_7487)">
<path d="M14.0811 7.11589L17.3931 3.80389C18.1671 3.02989 19.4221 3.02989 20.1961 3.80389C20.9701 4.57789 20.9701 5.83289 20.1961 6.60689L16.8841 9.91889L18.6761 18.8359C18.7421 19.1639 18.6391 19.5029 18.4031 19.7399L17.7431 20.3999C17.2331 20.9099 16.3661 20.7279 16.1041 20.0559L13.4801 13.3229L10.0741 16.7289L10.2561 18.8989C10.2811 19.1919 10.1751 19.4819 9.96712 19.6899L8.88112 20.7759L6.76012 17.2399L3.22412 15.1189L4.31012 14.0329C4.51812 13.8249 4.80712 13.7189 5.10112 13.7439L7.27112 13.9259L10.6771 10.5199L3.94512 7.89589C3.27212 7.63389 3.09012 6.76789 3.60012 6.25689L4.26012 5.59689C4.49712 5.35989 4.83612 5.25789 5.16412 5.32389L14.0811 7.11589V7.11589Z" stroke="#0F172A" stroke-width="1.5" stroke-linecap="round" stroke-linejoin="round"/>
</g>
<defs>
<clipPath id="clip0_102_7487">
<rect width="24" height="24" fill="white"/>
</clipPath>
</defs>
</svg>
