<svg width="24" height="24" viewBox="0 0 24 24" fill="none" xmlns="http://www.w3.org/2000/svg">
<g clip-path="url(#clip0_663_11714)">
<path d="M14.0811 7.11516L17.3931 3.80316C18.1671 3.02916 19.4221 3.02916 20.1961 3.80316C20.9701 4.57716 20.9701 5.83216 20.1961 6.60616L16.8841 9.91816L18.6761 18.8352C18.7421 19.1632 18.6391 19.5022 18.4031 19.7392L17.7431 20.3992C17.2331 20.9092 16.3661 20.7272 16.1041 20.0552L13.4801 13.3222L10.0741 16.7282L10.2561 18.8982C10.2811 19.1912 10.1751 19.4812 9.96712 19.6892L8.88112 20.7752L6.76012 17.2392L3.22412 15.1182L4.31012 14.0322C4.51812 13.8242 4.80712 13.7182 5.10112 13.7432L7.27112 13.9252L10.6771 10.5192L3.94512 7.89516C3.27212 7.63316 3.09012 6.76716 3.60012 6.25616L4.26012 5.59616C4.49712 5.35916 4.83612 5.25716 5.16412 5.32316L14.0811 7.11516V7.11516Z" stroke="#008DFF" stroke-width="1.5" stroke-linecap="round" stroke-linejoin="round"/>
</g>
<defs>
<clipPath id="clip0_663_11714">
<rect width="24" height="24" fill="white"/>
</clipPath>
</defs>
</svg>
