<svg width="32" height="32" viewBox="0 0 32 32" fill="none" xmlns="http://www.w3.org/2000/svg">
    <path d="M16 24.6668C15.6318 24.6668 15.3334 24.3684 15.3334 24.0002C15.3334 23.632 15.6318 23.3335 16 23.3335C16.3682 23.3335 16.6667 23.632 16.6667 24.0002V24.0002C16.6667 24.3684 16.3682 24.6668 16 24.6668"
          stroke="#323232" stroke-width="1.5" stroke-linecap="round" stroke-linejoin="round"/>
    <path d="M16 16.6668C15.6318 16.6668 15.3334 16.3684 15.3334 16.0002C15.3334 15.632 15.6318 15.3335 16 15.3335C16.3682 15.3335 16.6667 15.632 16.6667 16.0002V16.0002C16.6667 16.3684 16.3682 16.6668 16 16.6668"
          stroke="#323232" stroke-width="1.5" stroke-linecap="round" stroke-linejoin="round"/>
    <path d="M16 8.66683C15.6318 8.66683 15.3334 8.36835 15.3334 8.00016C15.3334 7.63197 15.6318 7.3335 16 7.3335C16.3682 7.3335 16.6667 7.63197 16.6667 8.00016V8.00016C16.6667 8.36835 16.3682 8.66683 16 8.66683"
          stroke="#323232" stroke-width="1.5" stroke-linecap="round" stroke-linejoin="round"/>
</svg>
