<svg width="16" height="20" viewBox="0 0 16 20" fill="none" xmlns="http://www.w3.org/2000/svg">
    <path d="M14.414 4.414L11.586 1.586C11.211 1.211 10.702 1 10.172 1H3C1.895 1 1 1.895 1 3V17C1 18.105 1.895 19 3 19H13C14.105 19 15 18.105 15 17V5.828C15 5.298 14.789 4.789 14.414 4.414V4.414Z"
          stroke="#008DFF" stroke-width="1.5" stroke-linecap="round" stroke-linejoin="round"/>
    <path d="M15 6H11C10.448 6 10 5.552 10 5V1" stroke="#008DFF" stroke-width="1.5" stroke-linecap="round"
          stroke-linejoin="round"/>
    <path d="M6.005 4C6.002 4 6 4.002 6 4.005C6 4.008 6.002 4.01 6.005 4.01C6.008 4.01 6.01 4.008 6.01 4.005C6.01 4.002 6.008 4 6.005 4Z"
          stroke="#008DFF" stroke-width="1.5" stroke-linecap="round" stroke-linejoin="round"/>
    <path d="M5.99523 7C5.99223 7 5.99023 7.002 5.99023 7.005C5.99023 7.008 5.99223 7.01 5.99523 7.01C5.99823 7.01 6.00023 7.008 6.00023 7.005C6.00023 7.002 5.99823 7 5.99523 7Z"
          stroke="#008DFF" stroke-width="1.5" stroke-linecap="round" stroke-linejoin="round"/>
    <path d="M6.005 9.99023C6.002 9.99023 6 9.99223 6 9.99523C6 9.99823 6.002 10.0002 6.005 10.0002C6.008 10.0002 6.01 9.99823 6.01 9.99523C6.01 9.99223 6.008 9.99023 6.005 9.99023Z"
          stroke="#008DFF" stroke-width="1.5" stroke-linecap="round" stroke-linejoin="round"/>
    <path d="M5.99523 13C5.99223 13 5.99023 13.002 5.99023 13.005C5.99023 13.008 5.99223 13.01 5.99523 13.01C5.99823 13.01 6.00023 13.008 6.00023 13.005C6.00023 13.002 5.99823 13 5.99523 13Z"
          stroke="#008DFF" stroke-width="1.5" stroke-linecap="round" stroke-linejoin="round"/>
    <path d="M6.005 15.9902C6.002 15.9902 6 15.9922 6 15.9952C6 15.9982 6.002 16.0002 6.005 16.0002C6.008 16.0002 6.01 15.9982 6.01 15.9952C6.01 15.9922 6.008 15.9902 6.005 15.9902Z"
          stroke="#008DFF" stroke-width="1.5" stroke-linecap="round" stroke-linejoin="round"/>
</svg>
