<svg width="194" height="49" viewBox="0 0 194 49" fill="none" xmlns="http://www.w3.org/2000/svg">
<path d="M52.6854 43.7458L33.4325 2.51367L28.8726 12.5703L44.5789 47.7685L52.6854 43.7458Z" fill="#008EFD"/>
<path d="M21.7803 0H30.9002C27.0158 8.38052 18.6391 26.4489 16.2071 31.6784C10.9379 32.4829 5.9051 35.701 4.04736 37.2095L21.7803 0Z" fill="#008EFD"/>
<path d="M31.4854 30.2954H23.0508C21.9938 30.2954 21.3007 29.1902 21.7609 28.2387L25.6538 20.1896C26.1573 19.1485 27.6233 19.1021 28.1916 20.1093L32.7334 28.1584C33.2723 29.1136 32.5822 30.2954 31.4854 30.2954Z" fill="#7FC5FF"/>
<path d="M34.446 34.1926L39.5125 45.2549C26.5421 37.6116 13.5042 44.0816 8.6065 48.2721L0.5 44.2492C11.4438 32.1812 27.6906 32.5165 34.446 34.1926Z" fill="#008EFD"/>
<path d="M87.8481 14.4796V35.3058H82.207V33.6781C80.2982 35.1806 77.9477 35.9318 75.1557 35.9318C72.3352 35.9318 69.885 34.8884 67.8052 32.8016C65.7254 30.7148 64.6855 28.0855 64.6855 24.9136C64.6855 21.7416 65.7254 19.1123 67.8052 17.0255C69.9135 14.9108 72.3636 13.8535 75.1557 13.8535C77.9762 13.8535 80.3267 14.6187 82.207 16.149V14.4796H87.8481ZM76.1386 31.1322C77.734 31.1322 79.1443 30.5618 80.3694 29.421C81.5945 28.2524 82.207 26.7499 82.207 24.9136C82.207 23.0772 81.5945 21.5747 80.3694 20.4061C79.1443 19.2375 77.734 18.6532 76.1386 18.6532C74.4007 18.6532 72.9619 19.2236 71.8223 20.3643C70.7112 21.5051 70.1557 23.0215 70.1557 24.9136C70.1557 26.8056 70.7112 28.322 71.8223 29.4628C72.9619 30.5757 74.4007 31.1322 76.1386 31.1322Z" fill="#123169"/>
<path d="M90.4397 29.7967L96.1235 28.6698C96.3799 30.5618 97.8472 31.5078 100.525 31.5078C101.551 31.5078 102.363 31.3131 102.961 30.9235C103.559 30.534 103.859 30.0332 103.859 29.421C103.859 28.5028 103.075 27.8768 101.508 27.5429L97.1492 26.6665C95.2118 26.2769 93.7161 25.5674 92.662 24.5379C91.6363 23.5084 91.1235 22.2425 91.1235 20.74C91.1235 18.7088 91.907 17.0533 93.4739 15.7734C95.0694 14.4935 97.1919 13.8535 99.8415 13.8535C102.32 13.8535 104.386 14.4239 106.038 15.5647C107.719 16.7055 108.745 18.1941 109.115 20.0305L103.73 21.0739C103.616 20.2113 103.189 19.5157 102.448 18.9871C101.736 18.4584 100.81 18.1941 99.6706 18.1941C98.6449 18.1941 97.9042 18.4028 97.4483 18.8201C96.9925 19.2096 96.7646 19.6827 96.7646 20.2391C96.7646 21.1295 97.4056 21.7138 98.6876 21.992L103.773 23.0772C105.597 23.4667 106.978 24.1901 107.918 25.2474C108.887 26.2769 109.371 27.5151 109.371 28.9619C109.371 31.2157 108.517 32.9408 106.807 34.1372C105.126 35.3336 102.861 35.9318 100.012 35.9318C97.4768 35.9318 95.3116 35.431 93.5167 34.4293C91.7218 33.3999 90.6962 31.8556 90.4397 29.7967Z" fill="#123169"/>
<path d="M133.601 14.4796V35.3058H127.96V33.6781C126.051 35.1806 123.701 35.9318 120.909 35.9318C118.088 35.9318 115.638 34.8884 113.558 32.8016C111.479 30.7148 110.439 28.0855 110.439 24.9136C110.439 21.7416 111.479 19.1123 113.558 17.0255C115.667 14.9108 118.117 13.8535 120.909 13.8535C123.729 13.8535 126.08 14.6187 127.96 16.149V14.4796H133.601ZM121.892 31.1322C123.487 31.1322 124.897 30.5618 126.123 29.421C127.348 28.2524 127.96 26.7499 127.96 24.9136C127.96 23.0772 127.348 21.5747 126.123 20.4061C124.897 19.2375 123.487 18.6532 121.892 18.6532C120.154 18.6532 118.715 19.2236 117.575 20.3643C116.464 21.5051 115.909 23.0215 115.909 24.9136C115.909 26.8056 116.464 28.322 117.575 29.4628C118.715 30.5757 120.154 31.1322 121.892 31.1322Z" fill="#123169"/>
<path d="M151.791 25.164L158.971 35.3058H152.261L147.603 28.7115L142.988 35.3058H136.278L143.458 25.164L136.278 14.4378H142.988L147.603 21.4495L152.261 14.4378H158.971L151.791 25.164Z" fill="#123169"/>
<path d="M162.341 6.87276C162.996 6.20498 163.808 5.87109 164.777 5.87109C165.746 5.87109 166.558 6.20498 167.213 6.87276C167.868 7.51271 168.196 8.27787 168.196 9.16823C168.196 10.0864 167.868 10.8516 167.213 11.4637C166.558 12.0758 165.746 12.3819 164.777 12.3819C163.78 12.3819 162.954 12.0758 162.298 11.4637C161.672 10.8516 161.358 10.0864 161.358 9.16823C161.358 8.27787 161.686 7.51271 162.341 6.87276ZM167.597 35.3058H161.956V14.4796H167.597V35.3058Z" fill="#123169"/>
<path d="M193.844 14.4378L181.451 42.4009H175.169L178.588 34.638L169.742 14.4378H176.024L181.665 27.7516L187.562 14.4378H193.844Z" fill="#123169"/>
</svg>
