<svg xmlns="http://www.w3.org/2000/svg" xml:space="preserve" width="2000" height="273" data-id="lg_EGE5jUgGoW5wjrRS12" data-version="1" viewBox="0 0 2000 273"><g data-padding="20"><g transform="translate(10 2.61)scale(.98088)"><rect width="560" height="87.01" x="351.913" y="-277.777" fill="none" rx="0" ry="0" transform="translate(400 463.93)"/><path fill="#007eff" d="M893.403 233.098h-4.81v12.18q0 1.61-.1 3.16-.09 1.54-.64 2.74-.54 1.2-1.71 1.94-1.16.73-3.34.73-2.11 0-3.25-.73-1.15-.74-1.68-1.94-.52-1.2-.62-2.74-.09-1.55-.09-3.16v-35.49q0-1.62.09-3.16.1-1.54.62-2.75.53-1.2 1.68-1.93 1.14-.74 3.25-.74h12.4q4.67.23 8.35 1.96 1.58.75 3.07 1.88 1.48 1.13 2.67 2.76 1.18 1.64 1.89 3.87.72 2.24.72 5.17 0 4.03-1.26 7.05-1.26 3.03-3.65 5.08t-5.83 3.08q-3.44 1.04-7.76 1.04m-4.81-8.95h5.11q1.88-.12 3.38-.9.64-.34 1.25-.87.6-.53 1.09-1.3.48-.77.77-1.82.28-1.05.28-2.41 0-1.27-.28-2.23-.29-.96-.74-1.66-.45-.69-1.01-1.18-.57-.49-1.17-.83-1.43-.71-3.19-.86h-5.49Zm52.86-2.26q0 2.93-1.45 4.29-1.44 1.35-4.11 1.35-.38 0-1.08.06-.69.05-1.48.3-.79.24-1.6.71t-1.48 1.28q-.68.81-1.09 2.05-.42 1.24-.42 2.97v10.75q0 1.54-.17 3.01t-.77 2.61q-.6 1.15-1.73 1.87-1.13.71-3.04.71-1.88 0-2.97-.71-1.09-.72-1.68-1.87-.58-1.14-.75-2.61t-.17-3.01v-21.05q0-1.58.17-3.07.17-1.48.75-2.65.59-1.16 1.68-1.86 1.09-.69 2.97-.69 1.91 0 2.95.84 1.03.85 1.52 2.18.49 1.34.57 2.97.07 1.64.07 3.18h.6q.53-2.1 1.39-3.82.87-1.71 1.92-2.89t2.26-1.82q1.2-.64 2.4-.64 1.47 0 2.39.32t1.45.99q.52.68.71 1.73.19 1.06.19 2.52m3.76 17.82v-9.32q0-3.46.94-5.87.94-2.4 2.42-4.02 1.49-1.62 3.31-2.52 1.83-.9 3.59-1.35 1.77-.45 3.29-.57 1.53-.11 2.39-.11.87 0 2.37.11 1.5.12 3.21.57 1.72.45 3.46 1.35 1.75.9 3.16 2.52t2.31 4.02q.91 2.41.91 5.87v9.32q0 3.46-.91 5.87-.9 2.4-2.31 4.02t-3.16 2.52q-1.74.9-3.46 1.35-1.71.45-3.21.57-1.5.11-2.37.11-.86 0-2.39-.11-1.52-.12-3.29-.57-1.76-.45-3.59-1.35-1.82-.9-3.31-2.52-1.48-1.62-2.42-4.02-.94-2.41-.94-5.87m11.58-10.98v13.61q.04 1.1.53 1.92.41.75 1.29 1.34.89.58 2.54.58 1.58 0 2.43-.58.84-.59 1.26-1.34.45-.82.52-1.92v-13.61q-.07-1.12-.52-2.06-.42-.76-1.26-1.41-.85-.66-2.43-.66-1.65 0-2.54.66-.88.65-1.29 1.41-.49.94-.53 2.06m30.3-12.48h2.11v-6.62q0-1.57.17-3.08.17-1.5.77-2.69.6-1.18 1.73-1.91 1.13-.74 3.04-.74 1.88 0 3.01.74 1.13.73 1.71 1.91.59 1.19.75 2.69.17 1.51.17 3.08v6.62h3.09q.97 0 1.95.1.98.09 1.75.54t1.24 1.35q.47.91.47 2.52 0 1.55-.47 2.45t-1.24 1.35-1.75.58q-.98.14-1.95.14h-3.09v13.15q0 .76.06 1.6.06.85.39 1.56.34.72 1.02 1.19t1.92.47q1.35 0 2.31.2.96.21 1.58.74.62.52.92 1.46t.3 2.41q0 1.5-.69 2.59-.7 1.09-1.87 1.81-1.16.71-2.7 1.05t-3.24.34q-2.67 0-4.56-.56-1.9-.57-3.16-1.6-1.26-1.04-2-2.48-.73-1.45-1.09-3.26-.35-1.8-.45-3.89-.09-2.08-.09-4.38v-12.4h-2.11q-.97 0-1.93-.14-.96-.13-1.71-.58-.76-.45-1.23-1.35t-.47-2.45q0-1.61.47-2.52.47-.9 1.23-1.35.75-.45 1.71-.54.96-.1 1.93-.1m60.3 13.84v2.33q0 .6-.07 1.41-.08.81-.59 1.54t-1.6 1.26-3.08.53h-14.96v3.61q0 .9.22 1.88.23.97.77 1.8.55.83 1.45 1.35.9.53 2.22.53 1.5 0 2.31-.36.81-.35 1.28-.88t.85-1.13q.37-.6.99-1.13.62-.52 1.73-.88t3.07-.36q.94 0 1.82.15t1.56.57q.68.41 1.09 1.14.41.74.41 1.9 0 2.45-1.54 4.08-1.54 1.64-3.87 2.62-2.33.97-5.06 1.39-2.72.41-5.09.41-3.12-.04-5.94-.79t-4.98-2.41q-2.17-1.65-3.44-4.32-1.28-2.67-1.28-6.54v-8.8q0-3.57.84-6.05.85-2.48 2.2-4.14 1.36-1.65 3.05-2.57 1.69-.93 3.42-1.38t3.29-.56 2.69-.11q3.8 0 6.48.67 2.69.68 4.5 1.77 1.8 1.09 2.85 2.52 1.06 1.43 1.58 2.95.53 1.52.68 3.08t.15 2.92m-20.3-1.21v2.64h9.4q0-1.77-.1-3.14-.09-1.38-.56-2.31-.47-.94-1.47-1.43-.99-.49-2.84-.49-1.54 0-2.42.49t-1.34 1.22q-.45.73-.56 1.56t-.11 1.46m38.06.31v11.65q0 .6.11 1.52t.53 1.81q.41.88 1.22 1.52t2.2.64q1.65 0 2.59-.38.94-.37 1.39-1.03t.57-1.54q.11-.88.11-1.86 0-.49.17-1.11t.81-1.17q.64-.54 1.9-.9 1.25-.36 3.44-.36 1.99 0 3.08.45 1.09.46 1.6 1.08.5.62.58 1.27.07.66.07 1.04 0 2.4-.73 4.23-.73 1.82-1.97 3.16-1.24 1.33-2.86 2.23-1.62.91-3.44 1.43-1.82.53-3.7.75-1.88.23-3.61.23-2.97 0-5.76-.79-2.78-.79-4.94-2.48t-3.48-4.34q-1.31-2.65-1.31-6.38v-8.79q0-3.58.84-6.06.85-2.48 2.2-4.13 1.36-1.66 3.05-2.58t3.42-1.37 3.29-.57q1.56-.11 2.69-.11 3.34 0 5.84.57 2.5.56 4.31 1.5 1.8.94 2.99 2.16 1.18 1.22 1.86 2.58.68 1.35.96 2.7.28 1.36.28 2.52 0 .6-.08 1.41-.07.81-.58 1.54-.51.74-1.6 1.26-1.09.53-3.08.53-.71 0-1.79-.06-1.07-.05-2.08-.39-1.02-.34-1.73-1.05-.72-.72-.72-2.03 0-.91-.09-1.75-.09-.85-.55-1.49-.45-.64-1.37-1.03-.92-.4-2.57-.4-1.39 0-2.2.46-.81.45-1.22 1.12-.42.68-.53 1.43t-.11 1.36m30.6-12.94h2.11v-6.62q0-1.57.17-3.08.16-1.5.77-2.69.6-1.18 1.73-1.91 1.12-.74 3.04-.74 1.88 0 3.01.74 1.13.73 1.71 1.91.58 1.19.75 2.69.17 1.51.17 3.08v6.62h3.08q.98 0 1.96.1.98.09 1.75.54t1.24 1.35q.47.91.47 2.52 0 1.55-.47 2.45t-1.24 1.35-1.75.58q-.98.14-1.96.14h-3.08v13.15q0 .76.06 1.6.05.85.39 1.56.34.72 1.02 1.19.67.47 1.91.47 1.36 0 2.32.2.96.21 1.58.74.62.52.92 1.46t.3 2.41q0 1.5-.7 2.59-.69 1.09-1.86 1.81-1.16.71-2.71 1.05-1.54.34-3.23.34-2.67 0-4.57-.56-1.9-.57-3.16-1.6-1.26-1.04-1.99-2.48-.73-1.45-1.09-3.26-.36-1.8-.45-3.89-.09-2.08-.09-4.38v-12.4h-2.11q-.98 0-1.94-.14-.95-.13-1.71-.58-.75-.45-1.22-1.35t-.47-2.45q0-1.61.47-2.52.47-.9 1.22-1.35.76-.45 1.71-.54.96-.1 1.94-.1m30.91 29.18v-20.76q0-1.58.17-3.08.16-1.5.77-2.69.6-1.18 1.73-1.91 1.12-.74 3.04-.74t3.05.74q1.12.73 1.73 1.91.6 1.19.77 2.69t.17 3.08v20.76q0 1.58-.17 3.1t-.77 2.71q-.61 1.18-1.73 1.9-1.13.71-3.05.71t-3.04-.71q-1.13-.72-1.73-1.9-.61-1.19-.77-2.71-.17-1.52-.17-3.1m11.5-38.5q0 2.89-1.5 4.3-1.51 1.41-4.21 1.41-2.71 0-4.21-1.41-1.51-1.41-1.51-4.3 0-3.01 1.51-4.36 1.5-1.36 4.21-1.36 2.89 0 4.3 1.36 1.41 1.35 1.41 4.36m9.17 32.78v-9.32q0-3.46.94-5.87.94-2.4 2.43-4.02 1.48-1.62 3.31-2.52 1.82-.9 3.59-1.35t3.29-.57q1.52-.11 2.39-.11.86 0 2.36.11 1.51.12 3.22.57t3.46 1.35 3.16 2.52 2.31 4.02q.9 2.41.9 5.87v9.32q0 3.46-.9 5.87-.9 2.4-2.31 4.02t-3.16 2.52-3.46 1.35-3.22.57q-1.5.11-2.36.11-.87 0-2.39-.11-1.52-.12-3.29-.57t-3.59-1.35q-1.83-.9-3.31-2.52-1.49-1.62-2.43-4.02-.94-2.41-.94-5.87m11.58-10.98v13.61q.04 1.1.53 1.92.41.75 1.3 1.34.88.58 2.54.58 1.58 0 2.42-.58.85-.59 1.26-1.34.45-.82.53-1.92v-13.61q-.08-1.12-.53-2.06-.41-.76-1.26-1.41-.84-.66-2.42-.66-1.66 0-2.54.66-.89.65-1.3 1.41-.49.94-.53 2.06m59.02.91v15.64q0 1.61-.18 3.16-.19 1.54-.81 2.74t-1.77 1.94q-1.15.73-3.1.73-1.92 0-3.05-.73-1.13-.74-1.73-1.94t-.77-2.74q-.17-1.55-.17-3.16v-14.67q0-1.05-.09-2.06-.09-1.02-.43-1.79t-1-1.24-1.79-.47q-1.54 0-2.48 1.02-.94 1.01-1.48 2.78-.55 1.76-.74 4.15-.18 2.39-.18 5.13v7.15q0 1.61-.19 3.16-.19 1.54-.81 2.74t-1.77 1.94q-1.14.73-3.1.73-1.92 0-3.04-.73-1.13-.74-1.73-1.94t-.77-2.74q-.17-1.55-.17-3.16v-20.53q0-1.62.11-3.14t.68-2.71q.56-1.18 1.71-1.91 1.14-.74 3.21-.74t3.24.7q1.16.69 1.74 1.67.59.98.74 2.07t.15 1.88q.3-1.09.94-2.22t1.63-2.03q1-.9 2.39-1.49 1.39-.58 3.23-.58 2.07 0 4.14.68t3.72 2.25q1.66 1.58 2.69 4.14t1.03 6.32"/><path fill="#5e4d4d" d="m1030.435 12.97-50.49 14.07v3.297c0 3.557-10.674 9.97-20.262 13.467l-3.176 1.185v76.762c0 25.467 12.723 49.306 36.783 68.903a152.8 152.8 0 0 0 36.602 22.03l2.15.844 2.152-.844c.743-.302 18.572-7.377 36.582-22.03 24.08-19.597 36.823-43.416 36.823-68.903V44.969l-3.196-1.125c-9.588-3.518-20.26-9.93-20.26-13.487V27.04l-52.1-14.512Zm1.608 9.044 42.41 11.8c3.116 8.08 16.08 14.33 22.714 17.084v70.852c0 23.176-11.196 44.08-33.286 62.13a148.7 148.7 0 0 1-31.838 19.657 148.7 148.7 0 0 1-31.838-19.658c-22.09-18.05-33.286-38.953-33.286-62.129V50.878c6.633-2.734 19.597-8.985 22.713-17.065Z"/><path fill="#007eff" d="M1060.803 31.538h-57.76c-8.36 0-15.2 6.84-15.2 15.2v118.56c0 8.36 6.84 15.2 15.2 15.2h57.76c8.36 0 15.2-6.84 15.2-15.2V46.738c0-8.36-6.84-15.2-15.2-15.2m-29.336 140.904c-4.104 0-7.6-3.344-7.6-7.6 0-4.105 3.344-7.6 7.6-7.6s7.6 3.343 7.6 7.6-3.496 7.6-7.6 7.6m32.376-20.824h-63.84V51.298h63.84Z"/><path fill="#2ecc40" fill-rule="evenodd" d="M1031.913 143.818c-17.017 0-30.8-13.784-30.8-30.8s13.783-30.8 30.8-30.8 30.8 13.782 30.8 30.8-13.783 30.8-30.8 30.8m0-56.98c-14.476 0-26.18 11.703-26.18 26.18s11.704 26.18 26.18 26.18 26.18-11.705 26.18-26.18-11.704-26.18-26.18-26.18m-2.464 36.266a2.31 2.31 0 0 1-3.31 0l-8.24-8.47a2.42 2.42 0 0 1 0-3.388 2.324 2.324 0 0 1 3.311 0l6.545 6.776 14.784-15.092a2.324 2.324 0 0 1 3.311 0 2.417 2.417 0 0 1 0 3.388Z"/><rect width="728" height="226" x="267.913" y="-347.272" fill="none" rx="0" ry="0" transform="translate(218.39 347.11)"/><path fill="#007eff" d="M802.783 121.938h-12.5v31.65q0 4.19-.25 8.2-.24 4-1.66 7.13-1.41 3.12-4.44 5.03-3.03 1.9-8.69 1.9-5.47 0-8.45-1.9-2.98-1.91-4.35-5.03-1.36-3.13-1.61-7.13-.24-4.01-.24-8.2v-92.19q0-4.2.24-8.21.25-4 1.61-7.12 1.37-3.13 4.35-5.03 2.98-1.91 8.45-1.91h32.22q12.11.59 21.68 5.08 4.11 1.95 7.96 4.88 3.86 2.93 6.94 7.18 3.07 4.25 4.93 10.06 1.85 5.81 1.85 13.43 0 10.45-3.27 18.31t-9.47 13.18-15.14 8.01q-8.93 2.68-20.16 2.68m-12.5-23.24h13.28q4.88-.29 8.79-2.34 1.66-.88 3.22-2.25 1.56-1.36 2.83-3.37 1.27-2 2-4.73.74-2.74.74-6.25 0-3.32-.74-5.81-.73-2.49-1.9-4.3t-2.64-3.08q-1.46-1.27-3.02-2.15-3.72-1.85-8.31-2.24h-14.25Zm155.47 14.46v40.62q0 4.1-.44 8.06-.44 3.95-1.96 7.08-1.51 3.12-4.44 5.03-2.93 1.9-8.01 1.9t-8.05-1.9q-2.98-1.91-4.59-5.03-1.62-3.13-2.1-7.08-.49-3.96-.49-8.06v-38.48q0-2.54-.2-5.03-.19-2.49-1.07-4.44t-2.59-3.17-4.74-1.22q-3.9 0-6.34 2.58-2.45 2.59-3.86 7.13-1.42 4.54-1.95 10.75-.54 6.2-.54 13.33v18.55q0 4.1-.44 8.06-.44 3.95-2 7.08-1.57 3.12-4.59 5.03-3.03 1.9-8.21 1.9-5.07 0-8-1.9-2.93-1.91-4.45-5.03-1.51-3.13-1.95-7.08-.44-3.96-.44-8.06v-92.58q0-4.1.44-8.05.44-3.96 1.95-7.08 1.52-3.13 4.45-5.03 2.93-1.91 8-1.91 5.18 0 8.21 1.91 3.02 1.9 4.59 5.03 1.56 3.12 2 7.08.44 3.95.44 8.05v33.4q.88-2.83 2.54-5.76t4.29-5.27q2.64-2.35 6.21-3.86 3.56-1.52 8.25-1.52 5.37 0 10.79 1.81t9.67 5.91q4.24 4.1 6.93 10.79t2.69 16.46"/><rect width="728" height="226" x="267.913" y="-347.272" fill="none" rx="0" ry="0" transform="translate(536.38 347.11)"/><path fill="#007eff" d="M1199.233 112.958v40.63q0 4.19-.49 8.2-.49 4-2.1 7.13-1.61 3.12-4.59 5.03-2.98 1.9-8.05 1.9-4.99 0-7.91-1.9-2.93-1.91-4.5-5.03-1.56-3.13-2-7.13-.44-4.01-.44-8.2v-38.09q0-2.74-.24-5.37-.25-2.64-1.13-4.64-.87-2-2.58-3.22t-4.64-1.22q-4.01 0-6.45 2.63-2.44 2.64-3.85 7.23-1.42 4.59-1.91 10.79t-.49 13.33v18.56q0 4.19-.49 8.2-.48 4-2.1 7.13-1.61 3.12-4.59 5.03-2.97 1.9-8.05 1.9-4.98 0-7.91-1.9-2.93-1.91-4.49-5.03-1.57-3.13-2.01-7.13-.44-4.01-.44-8.2v-53.33q0-4.19.3-8.15.29-3.95 1.76-7.03 1.46-3.08 4.44-4.98 2.98-1.91 8.35-1.91t8.4 1.81q3.02 1.81 4.54 4.35 1.51 2.54 1.9 5.37t.39 4.88q.78-2.83 2.44-5.76t4.25-5.27q2.59-2.35 6.2-3.86 3.62-1.52 8.4-1.52 5.37 0 10.74 1.76t9.67 5.86 6.98 10.74q2.69 6.64 2.69 16.41m102.74 1.17v6.06q0 1.56-.19 3.66-.2 2.1-1.51 4-1.32 1.91-4.16 3.27-2.83 1.37-8 1.37h-38.87v9.38q0 2.34.59 4.88.58 2.54 2 4.69 1.41 2.15 3.76 3.51 2.34 1.37 5.76 1.37 3.91 0 6-.93 2.1-.93 3.33-2.29 1.22-1.37 2.19-2.93.98-1.57 2.59-2.93 1.61-1.37 4.49-2.3t7.96-.93q2.44 0 4.74.4 2.29.39 4.05 1.46t2.83 2.98q1.08 1.9 1.08 4.93 0 6.35-4.01 10.6-4 4.24-10.06 6.78-6.05 2.54-13.13 3.62-7.08 1.07-13.23 1.07-8.11-.1-15.43-2.05-7.33-1.95-12.94-6.25-5.62-4.3-8.94-11.23t-3.32-16.99v-22.85q0-9.28 2.2-15.73 2.2-6.44 5.71-10.74 3.52-4.3 7.91-6.69 4.4-2.39 8.89-3.56t8.54-1.47q4.06-.29 6.99-.29 9.86 0 16.84 1.76 6.98 1.75 11.67 4.59 4.69 2.83 7.42 6.54 2.74 3.71 4.11 7.67 1.36 3.95 1.75 8 .39 4.06.39 7.57m-52.73-3.12v6.83h24.41q0-4.59-.24-8.15-.24-3.57-1.47-6.01-1.22-2.44-3.8-3.71-2.59-1.27-7.38-1.27-4 0-6.3 1.27-2.29 1.27-3.46 3.18-1.17 1.9-1.47 4.05-.29 2.15-.29 3.81"/></g><path fill="transparent" stroke="transparent" d="M477 0h1046v273H477z"/></g></svg>