<svg width="24" height="24" viewBox="0 0 24 24" fill="none" xmlns="http://www.w3.org/2000/svg">
<g clip-path="url(#clip0_927_49619)">
<path d="M10.5408 3.5H14.0364C15.8832 3.5 17.6545 4.23367 18.9604 5.5396C20.2663 6.84554 21 8.61676 21 10.4636V10.5359C21 11.4504 20.8199 12.3559 20.4699 13.2008C20.12 14.0456 19.607 14.8133 18.9604 15.4599C18.3138 16.1066 17.5461 16.6195 16.7012 16.9695C15.8564 17.3194 14.9508 17.4995 14.0364 17.4995H13.0131C13.0096 17.4995 13.0063 17.5009 13.0038 17.5034C13.0014 17.5058 13 17.5092 13 17.5126V19.775C13 19.9008 12.9672 20.0244 12.9049 20.1337C12.8425 20.243 12.7528 20.3342 12.6445 20.3982C12.5362 20.4622 12.4131 20.4969 12.2873 20.4989C12.1615 20.5009 12.0374 20.47 11.9271 20.4094L6.90686 17.6483C5.72373 16.9976 4.73703 16.0412 4.04979 14.8789C3.36255 13.7166 3 12.3911 3 11.0409C3 10.0506 3.19505 9.07 3.57401 8.1551C3.95297 7.2402 4.50842 6.4089 5.20866 5.70866C5.90889 5.00843 6.74019 4.45297 7.65509 4.07401C8.56999 3.69505 9.55057 3.5 10.5408 3.5Z" fill="white" stroke="white" stroke-width="1.5" stroke-linecap="round" stroke-linejoin="round"/>
</g>
<defs>
<clipPath id="clip0_927_49619">
<rect width="24" height="24" fill="white"/>
</clipPath>
</defs>
</svg>
