<svg width="64" height="64" viewBox="0 0 64 64" fill="none" xmlns="http://www.w3.org/2000/svg">
<circle cx="32" cy="32" r="32" fill="#E83333" fill-opacity="0.16"/>
<g clip-path="url(#clip0_435_3471)">
<path d="M27.5199 26.6667V24.2667C27.5199 21.9107 29.4305 20 31.7865 20C34.1425 20 36.0532 21.9107 36.0532 24.2667V26.6667" stroke="#E83333" stroke-width="2" stroke-linecap="round" stroke-linejoin="round"/>
<path d="M41.4279 30.6665L41.2146 27.8972C41.1613 27.2025 40.5826 26.6665 39.8853 26.6665H23.688C22.9906 26.6665 22.412 27.2025 22.3586 27.8985L21.3413 41.1292C21.2226 42.6772 22.4466 43.9998 24 43.9998H30.6666" stroke="#E83333" stroke-width="2" stroke-linecap="round" stroke-linejoin="round"/>
<path d="M40 46.0002C42.9455 46.0002 45.3333 43.6123 45.3333 40.6668C45.3333 37.7213 42.9455 35.3335 40 35.3335C37.0545 35.3335 34.6667 37.7213 34.6667 40.6668C34.6667 43.6123 37.0545 46.0002 40 46.0002Z" stroke="#E83333" stroke-width="2" stroke-linecap="round" stroke-linejoin="round"/>
<path d="M41.4132 39.2539L38.5865 42.0806" stroke="#E83333" stroke-width="2" stroke-linecap="round" stroke-linejoin="round"/>
<path d="M38.5865 39.2539L41.4132 42.0806" stroke="#E83333" stroke-width="2" stroke-linecap="round" stroke-linejoin="round"/>
</g>
<defs>
<clipPath id="clip0_435_3471">
<rect width="32" height="32" fill="white" transform="translate(16 16)"/>
</clipPath>
</defs>
</svg>
