<svg width="64" height="64" viewBox="0 0 64 64" fill="none" xmlns="http://www.w3.org/2000/svg">
<circle cx="32" cy="32" r="32" fill="#F4A022" fill-opacity="0.1"/>
<g clip-path="url(#clip0_435_3488)">
<g clip-path="url(#clip1_435_3488)">
<path d="M38.3958 17.604V29.988" stroke="#F4A022" stroke-width="2" stroke-linecap="round" stroke-linejoin="round"/>
<path d="M25.5989 29.988V17.604" stroke="#F4A022" stroke-width="2" stroke-linecap="round" stroke-linejoin="round"/>
<path d="M31.9999 43.7255L36.8127 46.2551C37.7503 46.7479 38.8447 45.9511 38.6655 44.9079L37.7455 39.5495L41.6399 35.7559C42.3983 35.0167 41.9807 33.7287 40.9327 33.5767L35.5519 32.7943L33.1455 27.9159C32.6767 26.9655 31.3231 26.9655 30.8543 27.9159L28.4495 32.7943L23.0687 33.5767C22.0207 33.7287 21.6031 35.0167 22.3615 35.7559L26.2559 39.5495L25.3359 44.9079C25.1567 45.9511 26.2511 46.7463 27.1887 46.2551L32.0015 43.7255" stroke="#F4A022" stroke-width="2" stroke-linecap="round" stroke-linejoin="round"/>
<path d="M28.8961 31.8792L22.4049 28.1576C21.4113 27.588 20.7969 26.5288 20.7969 25.3816V20.804C20.7969 19.036 22.2289 17.604 23.9969 17.604H39.9969C41.7649 17.604 43.1969 19.036 43.1969 20.804V25.3816C43.1969 26.5288 42.5841 27.588 41.5889 28.1576L35.0977 31.8792" stroke="#F4A022" stroke-width="2" stroke-linecap="round" stroke-linejoin="round"/>
</g>
</g>
<defs>
<clipPath id="clip0_435_3488">
<rect width="32" height="32" fill="white" transform="translate(16 16)"/>
</clipPath>
<clipPath id="clip1_435_3488">
<rect width="32" height="32" fill="white" transform="translate(16 16)"/>
</clipPath>
</defs>
</svg>
