<svg width="64" height="64" viewBox="0 0 64 64" fill="none" xmlns="http://www.w3.org/2000/svg">
<circle cx="32" cy="32" r="32" fill="black" fill-opacity="0.1"/>
<path d="M45.9952 41.1499C45.6313 38.9614 44.2832 37.0399 42.3016 35.8757C41.1962 35.2191 39.9469 34.5845 38.5899 33.998C38.1406 33.7966 37.7361 33.6259 37.3946 33.4902C37.3901 33.534 37.3901 33.5822 37.3901 33.6259V33.6872C37.3901 36.5716 34.9726 38.922 32.0024 38.922C29.0276 38.922 26.6101 36.5716 26.6101 33.6872C26.6101 33.6215 26.6101 33.5559 26.6057 33.4902C26.2506 33.6347 25.8462 33.801 25.4104 33.9936C24.0533 34.5845 22.8041 35.2191 21.6987 35.8757C19.726 37.0356 18.378 38.957 18.005 41.1499C17.9825 41.2724 18.0365 41.3994 18.1488 41.4738C22.6513 44.4895 27.2347 45.9995 31.8676 45.9995C36.4914 45.9995 41.1647 44.4895 45.847 41.4782C45.9593 41.4038 46.0177 41.2768 45.9952 41.1499Z" fill="black"/>
<path d="M27.2836 33.687C27.2836 36.2125 29.4001 38.2652 32.0019 38.2652C34.6036 38.2652 36.7156 36.2125 36.7156 33.687V33.6257C36.7156 32.7459 36.9403 31.9318 37.3671 31.2665C38.0367 30.2204 38.3917 29.0124 38.3917 27.7781V24.2153C38.3917 20.7881 35.5248 18 32.0019 18C28.4789 18 25.6121 20.7881 25.6121 24.2153V27.9444C25.6121 29.1393 25.9581 30.3036 26.6096 31.3103C27.05 31.9931 27.2836 32.816 27.2836 33.687ZM34.7789 24.2153C35.754 24.2153 36.5448 24.9856 36.5448 25.931C36.5448 26.8808 35.754 27.6468 34.7789 27.6468C33.8083 27.6468 33.0174 26.8808 33.0174 25.931C33.0174 24.9856 33.8083 24.2153 34.7789 24.2153ZM34.361 30.4086C34.361 31.6779 33.305 32.7065 32.0019 32.7065C30.7032 32.7065 29.6472 31.6779 29.6472 30.4086C29.6472 29.1437 30.7032 28.1151 32.0019 28.1151C33.305 28.1151 34.361 29.1437 34.361 30.4086ZM29.2249 24.2153C30.2 24.2153 30.9908 24.9856 30.9908 25.931C30.9908 26.8808 30.2 27.6468 29.2249 27.6468C28.2543 27.6468 27.4634 26.8808 27.4634 25.931C27.4634 24.9856 28.2543 24.2153 29.2249 24.2153Z" fill="black"/>
<path d="M28.2477 26.2156C28.4092 26.3062 28.615 26.2508 28.7076 26.0937C28.9033 25.7603 29.4562 25.7603 29.6519 26.0937C29.7451 26.2522 29.9522 26.305 30.1118 26.2156C30.2737 26.1256 30.3295 25.9249 30.2373 25.7676C29.7694 24.9725 28.5907 24.9715 28.1222 25.7676C28.03 25.9249 28.0858 26.1256 28.2477 26.2156Z" fill="black"/>
<path d="M33.8954 26.2156C34.0569 26.3062 34.2623 26.2508 34.3553 26.0937C34.5511 25.7603 35.104 25.7603 35.2997 26.0937C35.3929 26.2522 35.5999 26.305 35.7596 26.2156C35.9215 26.1256 35.9772 25.9249 35.8851 25.7676C35.4171 24.9725 34.2385 24.9715 33.7699 25.7676C33.6778 25.9249 33.7335 26.1256 33.8954 26.2156Z" fill="black"/>
<path d="M30.7376 31.2286C31.5182 31.6947 32.4898 31.695 33.2709 31.2286C33.4297 31.1338 33.4793 30.9318 33.3824 30.7771C33.2849 30.623 33.0774 30.5745 32.919 30.6687C32.3542 31.006 31.6534 31.0055 31.0895 30.6687C30.9311 30.5745 30.7235 30.623 30.6261 30.7771C30.5291 30.9318 30.5787 31.1338 30.7376 31.2286Z" fill="black"/>
</svg>
