<svg width="64" height="64" viewBox="0 0 64 64" fill="none" xmlns="http://www.w3.org/2000/svg">
<circle opacity="0.16" cx="32" cy="32" r="32" fill="#A2A2A2"/>
<path d="M46.3586 24.8216C45.9956 24.9424 45.606 25.0062 45.2031 25.0062C43.1351 25.0062 41.4567 23.3144 41.4567 21.2298C41.4567 20.7431 41.55 20.2765 41.7198 19.8502L31.996 16L22.2721 19.8502C22.4386 20.2765 22.5352 20.7431 22.5352 21.2298C22.5352 23.3144 20.8569 25.0062 18.7889 25.0062C18.3859 25.0062 17.9963 24.9391 17.6333 24.8216C16.2247 30.8134 15.7618 42.7165 31.9993 48C48.2368 42.7131 47.7772 30.8134 46.3653 24.8216H46.3586Z" fill="url(#paint0_linear_435_3572)"/>
<path d="M23.8305 26.8427V20.673L22.2687 19.8506C22.4352 20.2769 22.5318 20.7435 22.5318 21.2302C22.5318 23.3148 20.8534 25.0066 18.7854 25.0066C18.3825 25.0066 17.9929 24.9394 17.6299 24.8219L18.6722 26.3493L23.8338 26.8461L23.8305 26.8427Z" fill="#AF6517"/>
<path d="M40.1524 20.6729V28.1283H43.0629L45.314 26.3459L46.3564 24.8185C45.9934 24.9394 45.6038 25.0032 45.2008 25.0032C43.1328 25.0032 41.4545 23.3113 41.4545 21.2268C41.4545 20.7401 41.5477 20.2735 41.7176 19.8472L40.1557 20.6696L40.1524 20.6729Z" fill="url(#paint1_linear_435_3572)"/>
<g style="mix-blend-mode:overlay" opacity="0.9">
<path d="M45.3158 26.3521C45.3158 26.3521 45.3357 26.4561 45.369 26.6508C45.4057 26.8455 45.449 27.1308 45.5056 27.4933C45.5555 27.8592 45.6088 28.3023 45.6488 28.8126C45.6821 29.3228 45.7187 29.9035 45.6987 30.5346C45.6854 31.1656 45.6454 31.8504 45.5422 32.5688C45.439 33.2871 45.2991 34.039 45.0793 34.801C44.8595 35.5596 44.5765 36.3283 44.2235 37.0836C43.8672 37.8355 43.4376 38.5639 42.9581 39.2554C42.4752 39.9469 41.9124 40.578 41.3396 41.1755C41.0399 41.4608 40.7535 41.7562 40.4405 42.0147C40.2873 42.1456 40.1375 42.2832 39.9843 42.4074C39.8278 42.5316 39.6713 42.6525 39.5148 42.7733C38.892 43.2567 38.256 43.6729 37.6433 44.0523C37.0239 44.4215 36.4278 44.7505 35.865 45.0257C35.3089 45.3144 34.7727 45.5292 34.3065 45.734C33.8303 45.9186 33.4207 46.0898 33.0777 46.2107C32.3884 46.449 31.9921 46.5866 31.9921 46.5866C31.9921 46.5866 32.3817 46.4389 33.0677 46.1838C33.4107 46.0562 33.8137 45.875 34.2832 45.6803C34.5163 45.5796 34.7594 45.4587 35.0192 45.3379C35.2789 45.217 35.552 45.0928 35.825 44.9452C36.3845 44.6665 36.9772 44.3342 37.5866 43.9616C38.1927 43.579 38.8221 43.1594 39.4348 42.6726C39.588 42.5518 39.7412 42.4276 39.8977 42.3067C40.0476 42.1758 40.1974 42.0449 40.3473 41.9106C40.657 41.6522 40.9367 41.3568 41.2297 41.0715C41.7925 40.4739 42.342 39.8429 42.8149 39.1581C43.2944 38.4767 43.7273 37.7583 44.0836 37.0198C44.4366 36.278 44.7263 35.5194 44.9494 34.7675C45.1759 34.0155 45.3224 33.267 45.429 32.5587C45.5389 31.8471 45.5822 31.1656 45.6021 30.5379C45.6255 29.9102 45.6021 29.3329 45.5822 28.8193C45.5522 28.309 45.5122 27.8626 45.4723 27.5001C45.4256 27.1342 45.389 26.8488 45.3557 26.6542C45.3257 26.4595 45.3091 26.3554 45.3091 26.3554L45.3158 26.3521Z" fill="white"/>
</g>
<path d="M31.9921 16V17.4401L40.1541 20.6726L41.7159 19.8502L31.9921 16Z" fill="#AF6517"/>
<path d="M39.8756 29.9638L34.9592 32.3094L32.2843 27.6411L29.6094 32.3094L24.6902 29.9638L26.0533 38.5185L38.521 38.53L39.8756 29.9638Z" fill="url(#paint2_linear_435_3572)"/>
<path d="M26.942 37.4602L26.038 31.78L30.0304 33.683L32.2804 29.7563L34.5275 33.683L38.5228 31.7772L37.6216 37.4717L26.942 37.4602Z" fill="url(#paint3_linear_435_3572)"/>
<path d="M38.5203 38.5303L37.6249 37.4724L26.9452 37.4609L26.0526 38.5188L38.5203 38.5303Z" fill="#AF6517"/>
<path d="M29.6122 32.3094L30.0371 33.6834L32.2871 29.7568V27.6411L29.6122 32.3094Z" fill="#E8F983"/>
<path d="M32.285 27.6411V29.7568L34.5321 33.6834L34.9599 32.3094L32.285 27.6411Z" fill="url(#paint4_linear_435_3572)"/>
<path d="M39.8749 29.9648L38.526 31.7787L37.6249 37.4732L38.5203 38.531L39.8749 29.9648Z" fill="#AF6517"/>
<g style="mix-blend-mode:overlay" opacity="0.9">
<path d="M38.5255 31.7769C38.5255 31.7769 38.4913 32.1362 38.4229 32.6737C38.3858 32.9411 38.3516 33.2544 38.3003 33.5878C38.2519 33.9213 38.1977 34.2777 38.1436 34.6342C38.0837 34.9906 38.0239 35.3442 37.9697 35.6776C37.9156 36.0111 37.8529 36.3187 37.8044 36.586C37.7018 37.1178 37.6249 37.4685 37.6249 37.4685C37.6249 37.4685 37.6591 37.1092 37.7246 36.5716C37.7617 36.3043 37.7959 35.991 37.8472 35.6575C37.8956 35.3241 37.9498 34.9676 38.0039 34.6112C38.0638 34.2547 38.1236 33.9012 38.1778 33.5677C38.2319 33.2343 38.2946 32.9267 38.3431 32.6593C38.4457 32.1276 38.5226 31.7769 38.5226 31.7769H38.5255Z" fill="white"/>
</g>
<path d="M24.6902 29.9648L26.0419 31.7816L30.0343 33.6845L29.6094 32.3105L24.6902 29.9648Z" fill="url(#paint5_linear_435_3572)"/>
<path style="mix-blend-mode:overlay" d="M38.9739 34.8296C38.6716 36.4739 38.0243 37.7358 37.5281 37.6438C37.0319 37.5518 36.8751 36.1404 37.1802 34.4933C37.4825 32.8462 38.1298 31.59 38.626 31.682C39.1222 31.774 39.2791 33.1854 38.9739 34.8296Z" fill="url(#paint6_radial_435_3572)"/>
<defs>
<linearGradient id="paint0_linear_435_3572" x1="12.5383" y1="1.32088" x2="43.8506" y2="47.7489" gradientUnits="userSpaceOnUse">
<stop stop-color="#AF6517"/>
<stop offset="0.26" stop-color="#E0A03B"/>
<stop offset="0.48" stop-color="#E9FF88"/>
<stop offset="0.64" stop-color="#E0A03B"/>
<stop offset="1" stop-color="#88390B"/>
</linearGradient>
<linearGradient id="paint1_linear_435_3572" x1="39.6895" y1="21.7907" x2="43.9142" y2="27.2532" gradientUnits="userSpaceOnUse">
<stop stop-color="#AF6517"/>
<stop offset="0.26" stop-color="#E0A03B"/>
<stop offset="0.48" stop-color="#E9FF88"/>
<stop offset="0.64" stop-color="#E0A03B"/>
<stop offset="1" stop-color="#88390B"/>
</linearGradient>
<linearGradient id="paint2_linear_435_3572" x1="23.8461" y1="32.0708" x2="44.7461" y2="35.9628" gradientUnits="userSpaceOnUse">
<stop stop-color="#AF6517"/>
<stop offset="0.26" stop-color="#E0A03B"/>
<stop offset="0.48" stop-color="#E9FF88"/>
<stop offset="0.64" stop-color="#E0A03B"/>
<stop offset="1" stop-color="#88390B"/>
</linearGradient>
<linearGradient id="paint3_linear_435_3572" x1="22.2908" y1="26.6978" x2="43.3286" y2="42.4041" gradientUnits="userSpaceOnUse">
<stop stop-color="#AF6517"/>
<stop offset="0.26" stop-color="#E0A03B"/>
<stop offset="0.48" stop-color="#E9FF88"/>
<stop offset="0.64" stop-color="#E0A03B"/>
<stop offset="1" stop-color="#88390B"/>
</linearGradient>
<linearGradient id="paint4_linear_435_3572" x1="32.9979" y1="29.5412" x2="37.3309" y2="39.7557" gradientUnits="userSpaceOnUse">
<stop stop-color="#E0A03B"/>
<stop offset="1" stop-color="#88390B"/>
</linearGradient>
<linearGradient id="paint5_linear_435_3572" x1="24.3931" y1="31.4781" x2="31.7333" y2="32.8862" gradientUnits="userSpaceOnUse">
<stop stop-color="#AF6517"/>
<stop offset="0.26" stop-color="#E0A03B"/>
<stop offset="0.48" stop-color="#E9FF88"/>
<stop offset="0.64" stop-color="#E0A03B"/>
<stop offset="1" stop-color="#88390B"/>
</linearGradient>
<radialGradient id="paint6_radial_435_3572" cx="0" cy="0" r="1" gradientUnits="userSpaceOnUse" gradientTransform="translate(34.0277 33.8414) rotate(10.6125) scale(0.791563 2.79117)">
<stop stop-color="white"/>
<stop offset="0.01" stop-color="white" stop-opacity="0.98"/>
<stop offset="0.39" stop-color="white" stop-opacity="0.57"/>
<stop offset="0.68" stop-color="white" stop-opacity="0.26"/>
<stop offset="0.9" stop-color="white" stop-opacity="0.07"/>
<stop offset="1" stop-color="white" stop-opacity="0"/>
</radialGradient>
</defs>
</svg>
