<svg width="150" height="151" viewBox="0 0 150 151" fill="none" xmlns="http://www.w3.org/2000/svg">
<circle opacity="0.16" cx="76" cy="71" r="32" fill="#A2A2A2"/>
<g filter="url(#filter0_d_435_3572)">
<path d="M89.341 63.8216C88.9782 63.9424 88.5888 64.0062 88.1861 64.0062C86.1194 64.0062 84.442 62.3144 84.442 60.2298C84.442 59.7431 84.5352 59.2765 84.705 58.8502L74.987 55L65.269 58.8502C65.4354 59.2765 65.5319 59.7431 65.5319 60.2298C65.5319 62.3144 63.8545 64.0062 61.7878 64.0062C61.3851 64.0062 60.9957 63.9391 60.633 63.8216C59.2252 69.8134 58.7626 81.7165 74.9903 87C91.218 81.7131 90.7587 69.8134 89.3476 63.8216H89.341Z" fill="url(#paint0_linear_435_3572)"/>
<path d="M66.8264 65.8427V59.673L65.2655 58.8506C65.4319 59.2769 65.5284 59.7435 65.5284 60.2302C65.5284 62.3148 63.8511 64.0066 61.7843 64.0066C61.3816 64.0066 60.9923 63.9394 60.6295 63.8219L61.6712 65.3493L66.8297 65.8461L66.8264 65.8427Z" fill="#AF6517"/>
<path d="M83.1385 59.6729V67.1283H86.0473L88.297 65.3459L89.3387 63.8185C88.976 63.9394 88.5866 64.0032 88.1839 64.0032C86.1172 64.0032 84.4398 62.3113 84.4398 60.2268C84.4398 59.7401 84.533 59.2735 84.7027 58.8472L83.1418 59.6696L83.1385 59.6729Z" fill="url(#paint1_linear_435_3572)"/>
<g style="mix-blend-mode:overlay" opacity="0.9">
<path d="M88.2988 65.3521C88.2988 65.3521 88.3187 65.4561 88.352 65.6508C88.3886 65.8455 88.4319 66.1308 88.4885 66.4933C88.5384 66.8592 88.5916 67.3023 88.6316 67.8126C88.6648 68.3228 88.7014 68.9035 88.6815 69.5346C88.6682 70.1656 88.6282 70.8504 88.5251 71.5688C88.4219 72.2871 88.2821 73.039 88.0625 73.801C87.8428 74.5596 87.5599 75.3283 87.2071 76.0836C86.851 76.8355 86.4217 77.5639 85.9425 78.2554C85.4599 78.9469 84.8975 79.578 84.325 80.1755C84.0255 80.4608 83.7393 80.7562 83.4264 81.0147C83.2734 81.1456 83.1236 81.2832 82.9705 81.4074C82.8141 81.5316 82.6577 81.6525 82.5012 81.7733C81.8789 82.2567 81.2432 82.6729 80.6309 83.0523C80.0118 83.4215 79.4161 83.7505 78.8537 84.0257C78.2979 84.3144 77.7621 84.5292 77.2961 84.734C76.8202 84.9186 76.4109 85.0898 76.0681 85.2107C75.3792 85.449 74.9831 85.5866 74.9831 85.5866C74.9831 85.5866 75.3725 85.4389 76.0581 85.1838C76.4009 85.0562 76.8036 84.875 77.2728 84.6803C77.5058 84.5796 77.7487 84.4587 78.0083 84.3379C78.2679 84.217 78.5408 84.0928 78.8137 83.9452C79.3728 83.6665 79.9652 83.3342 80.5743 82.9616C81.18 82.579 81.809 82.1594 82.4214 81.6726C82.5745 81.5518 82.7275 81.4276 82.884 81.3067C83.0337 81.1758 83.1835 81.0449 83.3333 80.9106C83.6428 80.6522 83.9223 80.3568 84.2152 80.0715C84.7776 79.4739 85.3268 78.8429 85.7994 78.1581C86.2786 77.4767 86.7113 76.7583 87.0674 76.0198C87.4201 75.278 87.7097 74.5194 87.9327 73.7675C88.159 73.0155 88.3054 72.267 88.4119 71.5587C88.5217 70.8471 88.565 70.1656 88.585 69.5379C88.6083 68.9102 88.585 68.3329 88.565 67.8193C88.535 67.309 88.4951 66.8626 88.4552 66.5001C88.4086 66.1342 88.372 65.8488 88.3387 65.6542C88.3087 65.4595 88.2921 65.3554 88.2921 65.3554L88.2988 65.3521Z" fill="white"/>
</g>
<path d="M74.9831 55V56.4401L83.1402 59.6726L84.7011 58.8502L74.9831 55Z" fill="#AF6517"/>
<path d="M82.8619 68.9638L77.9485 71.3094L75.2752 66.6411L72.6019 71.3094L67.6857 68.9638L69.048 77.5185L81.5082 77.53L82.8619 68.9638Z" fill="url(#paint2_linear_435_3572)"/>
<path d="M69.936 76.4602L69.0325 70.78L73.0225 72.683L75.2712 68.7563L77.517 72.683L81.5098 70.7772L80.6092 76.4717L69.936 76.4602Z" fill="url(#paint3_linear_435_3572)"/>
<path d="M81.5074 77.5303L80.6125 76.4724L69.9392 76.4609L69.0472 77.5188L81.5074 77.5303Z" fill="#AF6517"/>
<path d="M72.6046 71.3094L73.0293 72.6834L75.2779 68.7568V66.6411L72.6046 71.3094Z" fill="#E8F983"/>
<path d="M75.2758 66.6411V68.7568L77.5216 72.6834L77.9491 71.3094L75.2758 66.6411Z" fill="url(#paint4_linear_435_3572)"/>
<path d="M82.8612 68.9648L81.5131 70.7787L80.6125 76.4732L81.5074 77.531L82.8612 68.9648Z" fill="#AF6517"/>
<g style="mix-blend-mode:overlay" opacity="0.9">
<path d="M81.5131 70.7769C81.5131 70.7769 81.4789 71.1362 81.4105 71.6737C81.3735 71.9411 81.3393 72.2544 81.288 72.5878C81.2395 72.9213 81.1854 73.2777 81.1312 73.6342C81.0714 73.9906 81.0115 74.3442 80.9574 74.6776C80.9032 75.0111 80.8405 75.3187 80.7921 75.586C80.6895 76.1178 80.6125 76.4685 80.6125 76.4685C80.6125 76.4685 80.6467 76.1092 80.7123 75.5716C80.7493 75.3043 80.7835 74.991 80.8348 74.6575C80.8833 74.3241 80.9374 73.9676 80.9916 73.6112C81.0514 73.2547 81.1113 72.9012 81.1654 72.5677C81.2196 72.2343 81.2823 71.9267 81.3307 71.6593C81.4333 71.1276 81.5103 70.7769 81.5103 70.7769H81.5131Z" fill="white"/>
</g>
<path d="M67.6857 68.9648L69.0366 70.7816L73.0266 72.6845L72.6019 71.3105L67.6857 68.9648Z" fill="url(#paint5_linear_435_3572)"/>
<path style="mix-blend-mode:overlay" d="M81.9607 73.8296C81.6586 75.4739 81.0117 76.7358 80.5158 76.6438C80.0199 76.5518 79.8631 75.1404 80.1681 73.4933C80.4702 71.8462 81.1171 70.59 81.613 70.682C82.1089 70.774 82.2657 72.1854 81.9607 73.8296Z" fill="url(#paint6_radial_435_3572)"/>
</g>
<defs>
<filter id="filter0_d_435_3572" x="0.818188" y="0.0454602" width="148.346" height="150.364" filterUnits="userSpaceOnUse" color-interpolation-filters="sRGB">
<feFlood flood-opacity="0" result="BackgroundImageFix"/>
<feColorMatrix in="SourceAlpha" type="matrix" values="0 0 0 0 0 0 0 0 0 0 0 0 0 0 0 0 0 0 127 0" result="hardAlpha"/>
<feOffset dy="4.22727"/>
<feGaussianBlur stdDeviation="29.5909"/>
<feComposite in2="hardAlpha" operator="out"/>
<feColorMatrix type="matrix" values="0 0 0 0 0.882353 0 0 0 0 0.647059 0 0 0 0 0.247059 0 0 0 0.32 0"/>
<feBlend mode="normal" in2="BackgroundImageFix" result="effect1_dropShadow_435_3572"/>
<feBlend mode="normal" in="SourceGraphic" in2="effect1_dropShadow_435_3572" result="shape"/>
</filter>
<linearGradient id="paint0_linear_435_3572" x1="55.541" y1="40.3209" x2="86.8603" y2="86.7314" gradientUnits="userSpaceOnUse">
<stop stop-color="#AF6517"/>
<stop offset="0.26" stop-color="#E0A03B"/>
<stop offset="0.48" stop-color="#E9FF88"/>
<stop offset="0.64" stop-color="#E0A03B"/>
<stop offset="1" stop-color="#88390B"/>
</linearGradient>
<linearGradient id="paint1_linear_435_3572" x1="82.6759" y1="60.7907" x2="86.9012" y2="66.2507" gradientUnits="userSpaceOnUse">
<stop stop-color="#AF6517"/>
<stop offset="0.26" stop-color="#E0A03B"/>
<stop offset="0.48" stop-color="#E9FF88"/>
<stop offset="0.64" stop-color="#E0A03B"/>
<stop offset="1" stop-color="#88390B"/>
</linearGradient>
<linearGradient id="paint2_linear_435_3572" x1="66.8421" y1="71.0708" x2="87.7304" y2="74.9583" gradientUnits="userSpaceOnUse">
<stop stop-color="#AF6517"/>
<stop offset="0.26" stop-color="#E0A03B"/>
<stop offset="0.48" stop-color="#E9FF88"/>
<stop offset="0.64" stop-color="#E0A03B"/>
<stop offset="1" stop-color="#88390B"/>
</linearGradient>
<linearGradient id="paint3_linear_435_3572" x1="65.2876" y1="65.6978" x2="86.3218" y2="81.3919" gradientUnits="userSpaceOnUse">
<stop stop-color="#AF6517"/>
<stop offset="0.26" stop-color="#E0A03B"/>
<stop offset="0.48" stop-color="#E9FF88"/>
<stop offset="0.64" stop-color="#E0A03B"/>
<stop offset="1" stop-color="#88390B"/>
</linearGradient>
<linearGradient id="paint4_linear_435_3572" x1="75.9883" y1="68.5412" x2="80.3231" y2="78.7538" gradientUnits="userSpaceOnUse">
<stop stop-color="#E0A03B"/>
<stop offset="1" stop-color="#88390B"/>
</linearGradient>
<linearGradient id="paint5_linear_435_3572" x1="67.3888" y1="70.4781" x2="74.7249" y2="71.8846" gradientUnits="userSpaceOnUse">
<stop stop-color="#AF6517"/>
<stop offset="0.26" stop-color="#E0A03B"/>
<stop offset="0.48" stop-color="#E9FF88"/>
<stop offset="0.64" stop-color="#E0A03B"/>
<stop offset="1" stop-color="#88390B"/>
</linearGradient>
<radialGradient id="paint6_radial_435_3572" cx="0" cy="0" r="1" gradientUnits="userSpaceOnUse" gradientTransform="translate(77.0175 72.8414) rotate(10.6187) scale(0.791104 2.79111)">
<stop stop-color="white"/>
<stop offset="0.01" stop-color="white" stop-opacity="0.98"/>
<stop offset="0.39" stop-color="white" stop-opacity="0.57"/>
<stop offset="0.68" stop-color="white" stop-opacity="0.26"/>
<stop offset="0.9" stop-color="white" stop-opacity="0.07"/>
<stop offset="1" stop-color="white" stop-opacity="0"/>
</radialGradient>
</defs>
</svg>
