<svg width="64" height="64" viewBox="0 0 64 64" fill="none" xmlns="http://www.w3.org/2000/svg">
<circle cx="32" cy="32" r="32" fill="#212B36" fill-opacity="0.1"/>
<path d="M45.9302 31.3053C44.5559 28.4834 41.5865 26.9863 38.6659 27.3667L37.3641 25.4651C37.002 24.9364 36.3662 24.7047 35.7696 24.8418L35.226 23.7788C35.319 23.5743 35.3694 23.3518 35.3602 23.1205C35.3451 22.7349 35.1827 22.3783 34.9026 22.1171L33.4552 20.7635C33.1755 20.5024 32.8189 20.3694 32.4315 20.382C32.0515 20.3977 31.6997 20.5624 31.4417 20.8463L31.2657 21.04L30.1976 20.5285C30.2182 20.3068 30.1946 20.0784 30.1075 19.8582L29.995 19.5743C29.8532 19.2162 29.5827 18.9353 29.2327 18.7837C28.8828 18.6317 28.4951 18.6276 28.1422 18.7714L26.3148 19.5147C25.9616 19.6581 25.6844 19.9327 25.5348 20.2878C25.3856 20.6425 25.3812 21.0352 25.5227 21.3932L25.6355 21.6775C25.6495 21.7129 25.6682 21.7449 25.6848 21.7788L25.1265 22.4696C24.9563 22.3966 24.7689 22.3559 24.5726 22.3559H24.2708C23.485 22.3559 22.8458 23.0039 22.8458 23.8004V25.7963C22.8458 26.3813 23.1921 26.8835 23.6864 27.1104V27.7736C23.0601 27.8962 22.561 28.4062 22.4639 29.0664L22.1269 31.3559C19.3423 32.3257 17.3333 35.0001 17.3333 38.1476C17.3333 42.1096 20.513 45.3332 24.4215 45.3332C28.3304 45.3332 31.5101 42.11 31.5101 38.1476C31.5101 35.0005 29.5007 32.3257 26.7165 31.3559L26.3795 29.0664C26.2821 28.4062 25.7829 27.8962 25.1566 27.7732V27.1104C25.6513 26.8835 25.9976 26.3813 25.9976 25.796V23.8001C25.9976 23.4726 25.8855 23.1738 25.7035 22.9308L26.1766 22.3459C26.4078 22.499 26.6801 22.5836 26.9598 22.5836C27.1359 22.5836 27.3152 22.5501 27.4884 22.4796L29.3158 21.7363C29.579 21.6294 29.7914 21.4495 29.9443 21.2308L30.9099 21.6928C30.8761 21.8273 30.8547 21.9651 30.8606 22.1078C30.8761 22.4934 31.0385 22.8496 31.3186 23.1112L32.7656 24.4644C33.0387 24.7203 33.3857 24.8466 33.7312 24.8463C33.8525 24.8463 33.9723 24.825 34.0903 24.7941L34.4395 25.477C33.8948 25.8604 33.6456 26.5646 33.8536 27.2214L34.5505 29.423C33.7966 30.1905 33.2148 31.1231 32.8616 32.179C32.254 33.9968 32.3808 35.9457 33.2192 37.6666C34.4527 40.1998 36.9719 41.6707 39.5866 41.6704C40.6389 41.6704 41.7074 41.4319 42.7134 40.9286C44.4111 40.0787 45.6806 38.6096 46.2889 36.7922C46.8954 34.9751 46.7686 33.0262 45.9302 31.3053ZM28.9372 38.1476C28.9372 40.6715 26.9113 42.7251 24.4215 42.7251C21.9317 42.7251 19.9062 40.6715 19.9062 38.1476C19.9062 35.6238 21.9317 33.5702 24.4215 33.5702C26.9113 33.5702 28.9372 35.6234 28.9372 38.1476ZM25.2625 23.8004V25.7963C25.2625 25.9319 25.2228 26.0575 25.1566 26.1644V25.648C25.1566 25.2367 24.8273 24.9029 24.4215 24.9029C24.0157 24.9029 23.6864 25.2367 23.6864 25.648V26.1637C23.6206 26.0568 23.5809 25.9312 23.5809 25.796V23.8001C23.5809 23.4144 23.8904 23.1007 24.2708 23.1007H24.5726C24.5862 23.1007 24.599 23.1041 24.6126 23.1048L24.2252 23.5843C24.0962 23.7434 24.1198 23.9781 24.2767 24.1085C24.3451 24.1652 24.4274 24.1931 24.5094 24.1931C24.616 24.1931 24.7214 24.1466 24.7938 24.0568L25.2118 23.5396C25.2437 23.6205 25.2625 23.708 25.2625 23.8004ZM29.042 21.0452L27.2145 21.7885C27.0238 21.866 26.8198 21.8481 26.6489 21.7613L27.0532 21.2609C27.1822 21.1018 27.1587 20.8671 27.0017 20.7367C26.8444 20.6059 26.6125 20.6298 26.4846 20.7889L26.2096 21.129L26.2045 21.1164C26.1358 20.9431 26.138 20.7531 26.2108 20.581C26.2828 20.4092 26.4173 20.2766 26.5879 20.2069L28.4153 19.4636C28.4988 19.4297 28.5855 19.413 28.6722 19.413C28.7641 19.413 28.856 19.432 28.9431 19.4696C29.1126 19.543 29.2434 19.679 29.3125 19.8522L29.425 20.1361C29.4283 20.1451 29.4294 20.154 29.4327 20.163L28.8876 19.9021C28.7035 19.8146 28.4852 19.8943 28.3984 20.0799C28.312 20.2662 28.3903 20.4882 28.5741 20.5761L29.2581 20.9036C29.1971 20.9621 29.1251 21.0113 29.042 21.0452ZM33.2629 23.9174L31.8159 22.5642C31.6806 22.4375 31.6016 22.2647 31.5943 22.078C31.5935 22.0594 31.5968 22.0415 31.5972 22.0229L32.2922 22.3556C32.343 22.3798 32.3963 22.3913 32.4488 22.3913C32.5866 22.3913 32.7186 22.3127 32.7814 22.1779C32.8678 21.9916 32.7895 21.7695 32.6058 21.6816L31.9607 21.3727L31.9809 21.3507C32.1059 21.2136 32.2761 21.1335 32.4602 21.1261C32.4694 21.1257 32.4793 21.1257 32.4885 21.1257C32.6624 21.1257 32.8274 21.1909 32.9557 21.3109L34.4031 22.6641C34.4817 22.7378 34.5387 22.828 34.5762 22.9264C34.3873 22.8537 34.1712 22.8571 33.9775 22.9588C33.6173 23.148 33.4765 23.5981 33.6636 23.9632L33.7334 24.1C33.5654 24.1011 33.3964 24.0422 33.2629 23.9174ZM43.851 35.9558C43.4636 37.1137 42.6549 38.0497 41.5732 38.591C39.3411 39.7084 36.6275 38.7766 35.5256 36.5128C34.9915 35.4166 34.9103 34.1748 35.2977 33.0169C35.6851 31.8589 36.4937 30.923 37.5754 30.3816C38.216 30.0608 38.8964 29.9092 39.5672 29.9092C41.2325 29.9092 42.8372 30.8462 43.6231 32.4599C44.1571 33.5564 44.2384 34.7978 43.851 35.9558Z" fill="#212B36"/>
</svg>
