<svg width="150" height="151" viewBox="0 0 150 151" fill="none" xmlns="http://www.w3.org/2000/svg">
<circle opacity="0.16" cx="76" cy="71" r="32" fill="#A2A2A2"/>
<g filter="url(#filter0_d_435_3605)">
<path d="M89.341 63.8216C88.9782 63.9424 88.5888 64.0062 88.1861 64.0062C86.1194 64.0062 84.442 62.3144 84.442 60.2298C84.442 59.7431 84.5352 59.2765 84.705 58.8502L74.987 55L65.269 58.8502C65.4354 59.2765 65.5319 59.7431 65.5319 60.2298C65.5319 62.3144 63.8545 64.0062 61.7878 64.0062C61.3851 64.0062 60.9957 63.9391 60.633 63.8216C59.2252 69.8134 58.7626 81.7165 74.9903 87C91.218 81.7131 90.7587 69.8134 89.3476 63.8216H89.341Z" fill="url(#paint0_linear_435_3605)"/>
<path d="M66.8264 65.8437V59.674L65.2655 58.8516C65.4319 59.2779 65.5284 59.7445 65.5284 60.2312C65.5284 62.3157 63.8511 64.0075 61.7844 64.0075C61.3817 64.0075 60.9923 63.9404 60.6295 63.8229L61.6712 65.3503L66.8297 65.8471L66.8264 65.8437Z" fill="#475165"/>
<path d="M83.1385 59.6729V67.1283H86.0472L88.297 65.3459L89.3387 63.8185C88.9759 63.9394 88.5866 64.0032 88.1839 64.0032C86.1171 64.0032 84.4398 62.3113 84.4398 60.2268C84.4398 59.7401 84.533 59.2735 84.7027 58.8472L83.1418 59.6696L83.1385 59.6729Z" fill="url(#paint1_linear_435_3605)"/>
<g style="mix-blend-mode:overlay" opacity="0.9">
<path d="M88.2987 65.3506C88.2987 65.3506 88.3187 65.4546 88.352 65.6493C88.3886 65.844 88.4319 66.1294 88.4884 66.4919C88.5384 66.8578 88.5916 67.3009 88.6315 67.8111C88.6648 68.3213 88.7014 68.902 88.6815 69.5331C88.6681 70.1642 88.6282 70.849 88.525 71.5673C88.4219 72.2857 88.2821 73.0376 88.0624 73.7996C87.8428 74.5582 87.5599 75.3269 87.2071 76.0822C86.851 76.8341 86.4217 77.5625 85.9425 78.254C85.4599 78.9455 84.8974 79.5765 84.325 80.174C84.0255 80.4594 83.7393 80.7548 83.4264 81.0132C83.2733 81.1441 83.1236 81.2818 82.9705 81.406C82.8141 81.5302 82.6576 81.651 82.5012 81.7719C81.8789 82.2552 81.2432 82.6715 80.6308 83.0508C80.0118 83.42 79.4161 83.749 78.8536 84.0243C78.2979 84.3129 77.762 84.5278 77.2961 84.7325C76.8202 84.9171 76.4108 85.0883 76.068 85.2092C75.3791 85.4475 74.9831 85.5851 74.9831 85.5851C74.9831 85.5851 75.3725 85.4374 76.0581 85.1823C76.4009 85.0548 76.8036 84.8735 77.2728 84.6788C77.5058 84.5781 77.7487 84.4573 78.0083 84.3364C78.2679 84.2156 78.5408 84.0914 78.8137 83.9437C79.3728 83.6651 79.9652 83.3328 80.5743 82.9602C81.18 82.5775 81.809 82.1579 82.4213 81.6712C82.5744 81.5503 82.7275 81.4261 82.884 81.3053C83.0337 81.1744 83.1835 81.0434 83.3332 80.9092C83.6428 80.6507 83.9223 80.3553 84.2152 80.07C84.7776 79.4725 85.3268 78.8414 85.7994 78.1566C86.2786 77.4752 86.7112 76.7569 87.0673 76.0184C87.4201 75.2765 87.7097 74.5179 87.9326 73.766C88.159 73.0141 88.3054 72.2655 88.4119 71.5572C88.5217 70.8456 88.565 70.1642 88.585 69.5365C88.6082 68.9088 88.585 68.3314 88.565 67.8178C88.535 67.3076 88.4951 66.8611 88.4552 66.4986C88.4086 66.1327 88.372 65.8474 88.3387 65.6527C88.3087 65.458 88.2921 65.3539 88.2921 65.3539L88.2987 65.3506Z" fill="white"/>
</g>
<path d="M74.9831 55V56.4401L83.1402 59.6726L84.7011 58.8502L74.9831 55Z" fill="#475165"/>
<path d="M82.8619 68.9638L77.9485 71.3094L75.2752 66.6411L72.6019 71.3094L67.6857 68.9638L69.048 77.5185L81.5082 77.53L82.8619 68.9638Z" fill="url(#paint2_linear_435_3605)"/>
<path d="M69.936 76.4616L69.0325 70.7815L73.0225 72.6845L75.2712 68.7578L77.517 72.6845L81.5098 70.7786L80.6092 76.4731L69.936 76.4616Z" fill="url(#paint3_linear_435_3605)"/>
<path d="M81.5074 77.5303L80.6125 76.4724L69.9392 76.4609L69.0472 77.5188L81.5074 77.5303Z" fill="url(#paint4_linear_435_3605)"/>
<path d="M72.6046 71.3094L73.0293 72.6834L75.2779 68.7568V66.6411L72.6046 71.3094Z" fill="url(#paint5_linear_435_3605)"/>
<path d="M75.2758 66.6411V68.7568L77.5216 72.6834L77.9491 71.3094L75.2758 66.6411Z" fill="url(#paint6_linear_435_3605)"/>
<path d="M82.8611 68.9648L81.5131 70.7787L80.6125 76.4732L81.5074 77.531L82.8611 68.9648Z" fill="url(#paint7_linear_435_3605)"/>
<path d="M67.6857 68.9648L69.0366 70.7816L73.0266 72.6845L72.6019 71.3105L67.6857 68.9648Z" fill="url(#paint8_linear_435_3605)"/>
</g>
<defs>
<filter id="filter0_d_435_3605" x="0.818184" y="0.0454564" width="148.346" height="150.364" filterUnits="userSpaceOnUse" color-interpolation-filters="sRGB">
<feFlood flood-opacity="0" result="BackgroundImageFix"/>
<feColorMatrix in="SourceAlpha" type="matrix" values="0 0 0 0 0 0 0 0 0 0 0 0 0 0 0 0 0 0 127 0" result="hardAlpha"/>
<feOffset dy="4.22727"/>
<feGaussianBlur stdDeviation="29.5909"/>
<feComposite in2="hardAlpha" operator="out"/>
<feColorMatrix type="matrix" values="0 0 0 0 0.443137 0 0 0 0 0.478431 0 0 0 0 0.54902 0 0 0 0.32 0"/>
<feBlend mode="normal" in2="BackgroundImageFix" result="effect1_dropShadow_435_3605"/>
<feBlend mode="normal" in="SourceGraphic" in2="effect1_dropShadow_435_3605" result="shape"/>
</filter>
<linearGradient id="paint0_linear_435_3605" x1="75.8742" y1="87" x2="75.8742" y2="55" gradientUnits="userSpaceOnUse">
<stop stop-color="#50596C"/>
<stop offset="0.54401" stop-color="#9EA7B8"/>
<stop offset="1" stop-color="#4C5569"/>
</linearGradient>
<linearGradient id="paint1_linear_435_3605" x1="86.4212" y1="67.1283" x2="86.4212" y2="58.8472" gradientUnits="userSpaceOnUse">
<stop stop-color="#475165"/>
<stop offset="0.54401" stop-color="#9EA7B8"/>
<stop offset="1" stop-color="#475165"/>
</linearGradient>
<linearGradient id="paint2_linear_435_3605" x1="75.7208" y1="77.53" x2="75.7208" y2="66.6411" gradientUnits="userSpaceOnUse">
<stop stop-color="#475165"/>
<stop offset="0.54401" stop-color="#9EA7B8"/>
<stop offset="1" stop-color="#475165"/>
</linearGradient>
<linearGradient id="paint3_linear_435_3605" x1="75.6387" y1="76.4731" x2="75.6387" y2="68.7578" gradientUnits="userSpaceOnUse">
<stop stop-color="#D3D3D3"/>
<stop offset="0.54401" stop-color="#9EA7B8"/>
<stop offset="1" stop-color="#475165"/>
</linearGradient>
<linearGradient id="paint4_linear_435_3605" x1="75.6443" y1="77.5303" x2="75.6443" y2="76.4609" gradientUnits="userSpaceOnUse">
<stop stop-color="#475165"/>
<stop offset="0.54401" stop-color="#9EA7B8"/>
<stop offset="1" stop-color="#475165"/>
</linearGradient>
<linearGradient id="paint5_linear_435_3605" x1="74.02" y1="72.6834" x2="74.02" y2="66.6411" gradientUnits="userSpaceOnUse">
<stop stop-color="#475165"/>
<stop offset="0.54401" stop-color="#9EA7B8"/>
<stop offset="1" stop-color="#475165"/>
</linearGradient>
<linearGradient id="paint6_linear_435_3605" x1="76.6912" y1="72.6834" x2="76.6912" y2="66.6411" gradientUnits="userSpaceOnUse">
<stop stop-color="#475165"/>
<stop offset="0.54401" stop-color="#9EA7B8"/>
<stop offset="1" stop-color="#475165"/>
</linearGradient>
<linearGradient id="paint7_linear_435_3605" x1="81.8031" y1="77.531" x2="81.8031" y2="68.9648" gradientUnits="userSpaceOnUse">
<stop stop-color="#475165"/>
<stop offset="0.54401" stop-color="#9EA7B8"/>
<stop offset="1" stop-color="#475165"/>
</linearGradient>
<linearGradient id="paint8_linear_435_3605" x1="70.5134" y1="72.6845" x2="70.5134" y2="68.9648" gradientUnits="userSpaceOnUse">
<stop stop-color="#475165"/>
<stop offset="0.54401" stop-color="#9EA7B8"/>
<stop offset="1" stop-color="#475165"/>
</linearGradient>
</defs>
</svg>
