<svg width="64" height="64" viewBox="0 0 64 64" fill="none" xmlns="http://www.w3.org/2000/svg">
<circle opacity="0.16" cx="32" cy="32" r="32" fill="#A2A2A2"/>
<path d="M46.3586 24.8216C45.9956 24.9424 45.606 25.0062 45.2031 25.0062C43.1351 25.0062 41.4567 23.3144 41.4567 21.2298C41.4567 20.7431 41.55 20.2765 41.7198 19.8502L31.996 16L22.2721 19.8502C22.4386 20.2765 22.5352 20.7431 22.5352 21.2298C22.5352 23.3144 20.8569 25.0062 18.7889 25.0062C18.3859 25.0062 17.9963 24.9391 17.6333 24.8216C16.2247 30.8134 15.7618 42.7165 31.9993 48C48.2368 42.7131 47.7772 30.8134 46.3653 24.8216H46.3586Z" fill="url(#paint0_linear_435_3673)"/>
<path d="M23.8305 26.8437V20.674L22.2687 19.8516C22.4352 20.2779 22.5318 20.7445 22.5318 21.2312C22.5318 23.3157 20.8534 25.0075 18.7854 25.0075C18.3825 25.0075 17.9929 24.9404 17.6299 24.8229L18.6722 26.3503L23.8338 26.8471L23.8305 26.8437Z" fill="url(#paint1_linear_435_3673)"/>
<path d="M40.1524 20.6729V28.1283H43.0629L45.314 26.3459L46.3564 24.8185C45.9934 24.9394 45.6038 25.0032 45.2008 25.0032C43.1328 25.0032 41.4545 23.3113 41.4545 21.2268C41.4545 20.7401 41.5477 20.2735 41.7176 19.8472L40.1557 20.6696L40.1524 20.6729Z" fill="url(#paint2_linear_435_3673)"/>
<g style="mix-blend-mode:overlay" opacity="0.9">
<path d="M45.3169 26.3506C45.3169 26.3506 45.3369 26.4546 45.3702 26.6493C45.4068 26.844 45.4501 27.1294 45.5067 27.4919C45.5567 27.8578 45.6099 28.3009 45.6499 28.8111C45.6832 29.3213 45.7198 29.902 45.6998 30.5331C45.6865 31.1642 45.6466 31.849 45.5433 32.5673C45.4401 33.2857 45.3002 34.0376 45.0804 34.7996C44.8607 35.5582 44.5776 36.3269 44.2246 37.0821C43.8683 37.8341 43.4387 38.5625 42.9592 39.254C42.4763 39.9455 41.9135 40.5765 41.3408 41.174C41.0411 41.4594 40.7547 41.7548 40.4417 42.0132C40.2885 42.1441 40.1386 42.2818 39.9854 42.406C39.8289 42.5302 39.6724 42.651 39.5159 42.7719C38.8932 43.2552 38.2571 43.6715 37.6444 44.0508C37.025 44.42 36.4289 44.749 35.8661 45.0242C35.31 45.3129 34.7739 45.5278 34.3076 45.7325C33.8314 45.9171 33.4218 46.0883 33.0788 46.2092C32.3895 46.4475 31.9932 46.5851 31.9932 46.5851C31.9932 46.5851 32.3829 46.4374 33.0689 46.1823C33.4119 46.0548 33.8148 45.8735 34.2843 45.6788C34.5174 45.5781 34.7605 45.4573 35.0203 45.3364C35.28 45.2156 35.5531 45.0914 35.8262 44.9437C36.3856 44.6651 36.9784 44.3328 37.5878 43.9602C38.1938 43.5775 38.8232 43.1579 39.436 42.6712C39.5891 42.5503 39.7423 42.4261 39.8988 42.3053C40.0487 42.1744 40.1986 42.0434 40.3484 41.9092C40.6581 41.6507 40.9378 41.3553 41.2309 41.07C41.7937 40.4725 42.3431 39.8414 42.816 39.1566C43.2955 38.4752 43.7284 37.7569 44.0848 37.0184C44.4377 36.2765 44.7275 35.5179 44.9506 34.766C45.177 34.0141 45.3235 33.2655 45.4301 32.5572C45.54 31.8456 45.5833 31.1642 45.6033 30.5365C45.6266 29.9088 45.6033 29.3314 45.5833 28.8178C45.5533 28.3076 45.5134 27.8611 45.4734 27.4986C45.4268 27.1327 45.3901 26.8474 45.3568 26.6527C45.3269 26.458 45.3102 26.3539 45.3102 26.3539L45.3169 26.3506Z" fill="white"/>
</g>
<path d="M31.9932 16V17.4401L40.1553 20.6726L41.7171 19.8502L31.9932 16Z" fill="url(#paint3_linear_435_3673)"/>
<path d="M39.8756 29.9647L34.9592 32.3104L32.2843 27.6421L29.6094 32.3104L24.6902 29.9647L26.0533 38.5194L38.521 38.5309L39.8756 29.9647Z" fill="url(#paint4_linear_435_3673)"/>
<path d="M26.9431 37.4616L26.0391 31.7815L30.0315 33.6845L32.2815 29.7578L34.5287 33.6845L38.5239 31.7786L37.6228 37.4731L26.9431 37.4616Z" fill="url(#paint5_linear_435_3673)"/>
<path d="M38.5203 38.5303L37.6249 37.4724L26.9452 37.4609L26.0526 38.5188L38.5203 38.5303Z" fill="url(#paint6_linear_435_3673)"/>
<path d="M29.6122 32.3104L30.0371 33.6844L32.2871 29.7578V27.6421L29.6122 32.3104Z" fill="url(#paint7_linear_435_3673)"/>
<path d="M32.285 27.6421V29.7578L34.5321 33.6844L34.9599 32.3104L32.285 27.6421Z" fill="url(#paint8_linear_435_3673)"/>
<path d="M39.8749 29.9648L38.526 31.7787L37.6249 37.4732L38.5203 38.531L39.8749 29.9648Z" fill="url(#paint9_linear_435_3673)"/>
<path d="M24.6902 29.9648L26.0419 31.7816L30.0343 33.6845L29.6094 32.3105L24.6902 29.9648Z" fill="url(#paint10_linear_435_3673)"/>
<defs>
<linearGradient id="paint0_linear_435_3673" x1="32.8837" y1="48" x2="32.8837" y2="16" gradientUnits="userSpaceOnUse">
<stop stop-color="#5C4548"/>
<stop offset="0.54401" stop-color="#C1A393"/>
<stop offset="1" stop-color="#5A4447"/>
</linearGradient>
<linearGradient id="paint1_linear_435_3673" x1="20.9146" y1="26.8471" x2="20.9146" y2="19.8516" gradientUnits="userSpaceOnUse">
<stop stop-color="#5C4548"/>
<stop offset="0.54401" stop-color="#C1A393"/>
<stop offset="1" stop-color="#5A4447"/>
</linearGradient>
<linearGradient id="paint2_linear_435_3673" x1="43.4371" y1="28.1283" x2="43.4371" y2="19.8472" gradientUnits="userSpaceOnUse">
<stop stop-color="#5C4548"/>
<stop offset="0.54401" stop-color="#C1A393"/>
<stop offset="1" stop-color="#5A4447"/>
</linearGradient>
<linearGradient id="paint3_linear_435_3673" x1="37.1416" y1="20.6726" x2="37.1416" y2="16" gradientUnits="userSpaceOnUse">
<stop stop-color="#5C4548"/>
<stop offset="0.54401" stop-color="#C1A393"/>
<stop offset="1" stop-color="#5A4447"/>
</linearGradient>
<linearGradient id="paint4_linear_435_3673" x1="32.7302" y1="38.5309" x2="32.7302" y2="27.6421" gradientUnits="userSpaceOnUse">
<stop stop-color="#5C4548"/>
<stop offset="0.54401" stop-color="#C1A393"/>
<stop offset="1" stop-color="#5A4447"/>
</linearGradient>
<linearGradient id="paint5_linear_435_3673" x1="32.6493" y1="37.4731" x2="32.6493" y2="29.7578" gradientUnits="userSpaceOnUse">
<stop stop-color="#362124"/>
<stop offset="0.54401" stop-color="#C1A393"/>
<stop offset="1" stop-color="#5A4447"/>
</linearGradient>
<linearGradient id="paint6_linear_435_3673" x1="32.6537" y1="38.5303" x2="32.6537" y2="37.4609" gradientUnits="userSpaceOnUse">
<stop stop-color="#5C4548"/>
<stop offset="0.54401" stop-color="#C1A393"/>
<stop offset="1" stop-color="#5A4447"/>
</linearGradient>
<linearGradient id="paint7_linear_435_3673" x1="31.0284" y1="33.6844" x2="31.0284" y2="27.6421" gradientUnits="userSpaceOnUse">
<stop stop-color="#5C4548"/>
<stop offset="0.54401" stop-color="#C1A393"/>
<stop offset="1" stop-color="#5A4447"/>
</linearGradient>
<linearGradient id="paint8_linear_435_3673" x1="33.7012" y1="33.6844" x2="33.7012" y2="27.6421" gradientUnits="userSpaceOnUse">
<stop stop-color="#5C4548"/>
<stop offset="0.54401" stop-color="#C1A393"/>
<stop offset="1" stop-color="#5A4447"/>
</linearGradient>
<linearGradient id="paint9_linear_435_3673" x1="38.8162" y1="38.531" x2="38.8162" y2="29.9648" gradientUnits="userSpaceOnUse">
<stop stop-color="#5C4548"/>
<stop offset="0.54401" stop-color="#C1A393"/>
<stop offset="1" stop-color="#5A4447"/>
</linearGradient>
<linearGradient id="paint10_linear_435_3673" x1="27.5197" y1="33.6845" x2="27.5197" y2="29.9648" gradientUnits="userSpaceOnUse">
<stop stop-color="#5C4548"/>
<stop offset="0.54401" stop-color="#C1A393"/>
<stop offset="1" stop-color="#5A4447"/>
</linearGradient>
</defs>
</svg>
