<svg xmlns="http://www.w3.org/2000/svg" width="1110" height="729" viewBox="0 0 1110 729" version="1.1"><path d="M 364.500 181.505 C 337.949 185.737, 312.135 195.626, 290 210.045 C 284.775 213.449, 280.275 216.518, 280 216.867 C 279.725 217.215, 277.250 219.265, 274.500 221.423 C 267.002 227.306, 250.250 244.584, 243.848 253.037 C 223.829 279.469, 211.650 309.364, 206.994 343.500 C 205.556 354.045, 205.811 379.307, 207.476 391.164 C 219.115 474.079, 283.589 538.694, 366.500 550.535 C 379.529 552.396, 404.907 552.389, 418.076 550.522 C 437.472 547.771, 453.911 542.903, 471 534.852 C 492.761 524.599, 509.368 512.899, 525.388 496.536 C 535.011 486.706, 549.220 469, 547.484 469 C 547.125 469, 544.335 471.363, 541.283 474.250 C 533.871 481.263, 534.263 480.927, 528 485.629 C 509.737 499.341, 488.773 508.276, 463.500 513.117 C 454.297 514.880, 423.774 514.889, 414.500 513.131 C 394.096 509.264, 373.263 501.109, 357.390 490.775 C 342.751 481.244, 325.119 463.854, 315.651 449.608 C 298.120 423.230, 289.975 396.444, 290.017 365.308 C 290.041 348.024, 292.741 332.150, 298.489 315.500 C 303.527 300.907, 316.714 278.647, 326.923 267.504 C 349.792 242.543, 374.761 227.884, 407.500 220.196 C 417.282 217.899, 420.660 217.607, 438 217.556 C 458.333 217.498, 464.606 218.244, 479.500 222.494 C 502.254 228.987, 520.936 239.295, 539.482 255.588 L 548.463 263.478 544.256 257.489 C 532.431 240.657, 514.583 223.312, 496.336 210.920 C 475.184 196.556, 446.528 185.551, 419.500 181.414 C 408.260 179.693, 375.525 179.747, 364.500 181.505 M 604.580 280 C 604.264 280.825, 603.891 295.867, 603.753 313.426 L 603.500 345.353 590.500 349.573 C 583.350 351.894, 569.513 356.379, 559.750 359.539 C 549.987 362.700, 542 365.581, 542 365.942 C 542 366.304, 551.563 369.658, 563.250 373.396 C 574.938 377.134, 588.881 381.612, 594.236 383.347 L 603.972 386.500 603.986 419.750 C 603.994 438.038, 604.388 453, 604.862 453 C 605.670 453, 612.641 443.718, 633 415.535 C 637.675 409.063, 642.203 402.863, 643.062 401.757 C 644.602 399.774, 645.051 399.886, 675.888 409.963 C 693.084 415.583, 707.335 419.999, 707.557 419.776 C 707.891 419.442, 695.957 402.275, 691.714 396.987 C 691.046 396.155, 687.616 391.430, 684.092 386.487 C 680.568 381.544, 675.955 375.208, 673.842 372.408 C 671.729 369.607, 670.003 366.682, 670.007 365.908 C 670.011 365.133, 674.139 358.875, 679.181 352 C 707.479 313.415, 708.466 312, 707.076 312 C 706.493 312, 696.450 315.122, 684.758 318.939 C 673.066 322.755, 659.252 327.246, 654.060 328.919 L 644.619 331.961 642.838 329.730 C 641.858 328.504, 637.657 322.775, 633.501 317 C 605.219 277.697, 605.382 277.906, 604.580 280" stroke="none" fill="#fbf9f9" fill-rule="evenodd"/><path d="M -0 364.501 L -0 729.002 555.250 728.751 L 1110.500 728.500 1110.751 364.250 L 1111.003 0 555.501 0 L 0 0 -0 364.501 M 0.495 365 C 0.495 565.475, 0.610 647.488, 0.750 547.250 C 0.890 447.013, 0.890 282.988, 0.750 182.750 C 0.610 82.513, 0.495 164.525, 0.495 365 M 364.500 181.505 C 337.949 185.737, 312.135 195.626, 290 210.045 C 284.775 213.449, 280.275 216.518, 280 216.867 C 279.725 217.215, 277.250 219.265, 274.500 221.423 C 267.002 227.306, 250.250 244.584, 243.848 253.037 C 223.829 279.469, 211.650 309.364, 206.994 343.500 C 205.556 354.045, 205.811 379.307, 207.476 391.164 C 219.115 474.079, 283.589 538.694, 366.500 550.535 C 379.529 552.396, 404.907 552.389, 418.076 550.522 C 437.472 547.771, 453.911 542.903, 471 534.852 C 492.761 524.599, 509.368 512.899, 525.388 496.536 C 535.011 486.706, 549.220 469, 547.484 469 C 547.125 469, 544.335 471.363, 541.283 474.250 C 533.871 481.263, 534.263 480.927, 528 485.629 C 509.737 499.341, 488.773 508.276, 463.500 513.117 C 454.297 514.880, 423.774 514.889, 414.500 513.131 C 394.096 509.264, 373.263 501.109, 357.390 490.775 C 342.751 481.244, 325.119 463.854, 315.651 449.608 C 298.120 423.230, 289.975 396.444, 290.017 365.308 C 290.041 348.024, 292.741 332.150, 298.489 315.500 C 303.527 300.907, 316.714 278.647, 326.923 267.504 C 349.792 242.543, 374.761 227.884, 407.500 220.196 C 417.282 217.899, 420.660 217.607, 438 217.556 C 458.333 217.498, 464.606 218.244, 479.500 222.494 C 502.254 228.987, 520.936 239.295, 539.482 255.588 L 548.463 263.478 544.256 257.489 C 532.431 240.657, 514.583 223.312, 496.336 210.920 C 475.184 196.556, 446.528 185.551, 419.500 181.414 C 408.260 179.693, 375.525 179.747, 364.500 181.505 M 604.580 280 C 604.264 280.825, 603.891 295.867, 603.753 313.426 L 603.500 345.353 590.500 349.573 C 583.350 351.894, 569.513 356.379, 559.750 359.539 C 549.987 362.700, 542 365.581, 542 365.942 C 542 366.304, 551.563 369.658, 563.250 373.396 C 574.938 377.134, 588.881 381.612, 594.236 383.347 L 603.972 386.500 603.986 419.750 C 603.994 438.038, 604.388 453, 604.862 453 C 605.670 453, 612.641 443.718, 633 415.535 C 637.675 409.063, 642.203 402.863, 643.062 401.757 C 644.602 399.774, 645.051 399.886, 675.888 409.963 C 693.084 415.583, 707.335 419.999, 707.557 419.776 C 707.891 419.442, 695.957 402.275, 691.714 396.987 C 691.046 396.155, 687.616 391.430, 684.092 386.487 C 680.568 381.544, 675.955 375.208, 673.842 372.408 C 671.729 369.607, 670.003 366.682, 670.007 365.908 C 670.011 365.133, 674.139 358.875, 679.181 352 C 707.479 313.415, 708.466 312, 707.076 312 C 706.493 312, 696.450 315.122, 684.758 318.939 C 673.066 322.755, 659.252 327.246, 654.060 328.919 L 644.619 331.961 642.838 329.730 C 641.858 328.504, 637.657 322.775, 633.501 317 C 605.219 277.697, 605.382 277.906, 604.580 280" stroke="none" fill="#e30414" fill-rule="evenodd"/></svg>